<?xml version="1.0" encoding="utf-8" standalone="no"?>
<!DOCTYPE svg PUBLIC "-//W3C//DTD SVG 1.1//EN"
  "http://www.w3.org/Graphics/SVG/1.1/DTD/svg11.dtd">
<svg xmlns:xlink="http://www.w3.org/1999/xlink" width="599.440625pt" height="409.55375pt" viewBox="0 0 599.440625 409.55375" xmlns="http://www.w3.org/2000/svg" version="1.1">
 <metadata>
  <rdf:RDF xmlns:dc="http://purl.org/dc/elements/1.1/" xmlns:cc="http://creativecommons.org/ns#" xmlns:rdf="http://www.w3.org/1999/02/22-rdf-syntax-ns#">
   <cc:Work>
    <dc:type rdf:resource="http://purl.org/dc/dcmitype/StillImage"/>
    <dc:date>2026-04-26T14:39:01.510777</dc:date>
    <dc:format>image/svg+xml</dc:format>
    <dc:creator>
     <cc:Agent>
      <dc:title>Matplotlib v3.10.8, https://matplotlib.org/</dc:title>
     </cc:Agent>
    </dc:creator>
   </cc:Work>
  </rdf:RDF>
 </metadata>
 <defs>
  <style type="text/css">*{stroke-linejoin: round; stroke-linecap: butt}</style>
 </defs>
 <g id="figure_1">
  <g id="patch_1">
   <path d="M 0 409.55375 
L 599.440625 409.55375 
L 599.440625 0 
L 0 0 
z
" style="fill: #1a1b26"/>
  </g>
  <g id="axes_1">
   <g id="patch_2">
    <path d="M 34.240625 371.9975 
L 592.240625 371.9975 
L 592.240625 39.3575 
L 34.240625 39.3575 
z
" style="fill: #1a1b26"/>
   </g>
   <g id="matplotlib.axis_1">
    <g id="xtick_1">
     <g id="line2d_1">
      <path d="M 59.604261 371.9975 
L 59.604261 39.3575 
" clip-path="url(#pc57336d674)" style="fill: none; stroke-dasharray: 2.96,1.28; stroke-dashoffset: 0; stroke: #2f3549; stroke-opacity: 0.5; stroke-width: 0.8"/>
     </g>
     <g id="line2d_2">
      <defs>
       <path id="m78615d2d34" d="M 0 0 
L 0 3.5 
" style="stroke: #a9b1d6; stroke-width: 0.8"/>
      </defs>
      <g>
       <use xlink:href="#m78615d2d34" x="59.604261" y="371.9975" style="fill: #a9b1d6; stroke: #a9b1d6; stroke-width: 0.8"/>
      </g>
     </g>
     <g id="text_1">
      <!-- 1 -->
      <g style="fill: #a9b1d6" transform="translate(56.423011 386.595937) scale(0.1 -0.1)">
       <defs>
        <path id="DejaVuSans-31" d="M 794 531 
L 1825 531 
L 1825 4091 
L 703 3866 
L 703 4441 
L 1819 4666 
L 2450 4666 
L 2450 531 
L 3481 531 
L 3481 0 
L 794 0 
L 794 531 
z
" transform="scale(0.015625)"/>
       </defs>
       <use xlink:href="#DejaVuSans-31"/>
      </g>
     </g>
    </g>
    <g id="xtick_2">
     <g id="line2d_3">
      <path d="M 94.588587 371.9975 
L 94.588587 39.3575 
" clip-path="url(#pc57336d674)" style="fill: none; stroke-dasharray: 2.96,1.28; stroke-dashoffset: 0; stroke: #2f3549; stroke-opacity: 0.5; stroke-width: 0.8"/>
     </g>
     <g id="line2d_4">
      <g>
       <use xlink:href="#m78615d2d34" x="94.588587" y="371.9975" style="fill: #a9b1d6; stroke: #a9b1d6; stroke-width: 0.8"/>
      </g>
     </g>
     <g id="text_2">
      <!-- 3 -->
      <g style="fill: #a9b1d6" transform="translate(91.407337 386.595937) scale(0.1 -0.1)">
       <defs>
        <path id="DejaVuSans-33" d="M 2597 2516 
Q 3050 2419 3304 2112 
Q 3559 1806 3559 1356 
Q 3559 666 3084 287 
Q 2609 -91 1734 -91 
Q 1441 -91 1130 -33 
Q 819 25 488 141 
L 488 750 
Q 750 597 1062 519 
Q 1375 441 1716 441 
Q 2309 441 2620 675 
Q 2931 909 2931 1356 
Q 2931 1769 2642 2001 
Q 2353 2234 1838 2234 
L 1294 2234 
L 1294 2753 
L 1863 2753 
Q 2328 2753 2575 2939 
Q 2822 3125 2822 3475 
Q 2822 3834 2567 4026 
Q 2313 4219 1838 4219 
Q 1578 4219 1281 4162 
Q 984 4106 628 3988 
L 628 4550 
Q 988 4650 1302 4700 
Q 1616 4750 1894 4750 
Q 2613 4750 3031 4423 
Q 3450 4097 3450 3541 
Q 3450 3153 3228 2886 
Q 3006 2619 2597 2516 
z
" transform="scale(0.015625)"/>
       </defs>
       <use xlink:href="#DejaVuSans-33"/>
      </g>
     </g>
    </g>
    <g id="xtick_3">
     <g id="line2d_5">
      <path d="M 129.572913 371.9975 
L 129.572913 39.3575 
" clip-path="url(#pc57336d674)" style="fill: none; stroke-dasharray: 2.96,1.28; stroke-dashoffset: 0; stroke: #2f3549; stroke-opacity: 0.5; stroke-width: 0.8"/>
     </g>
     <g id="line2d_6">
      <g>
       <use xlink:href="#m78615d2d34" x="129.572913" y="371.9975" style="fill: #a9b1d6; stroke: #a9b1d6; stroke-width: 0.8"/>
      </g>
     </g>
     <g id="text_3">
      <!-- 5 -->
      <g style="fill: #a9b1d6" transform="translate(126.391663 386.595937) scale(0.1 -0.1)">
       <defs>
        <path id="DejaVuSans-35" d="M 691 4666 
L 3169 4666 
L 3169 4134 
L 1269 4134 
L 1269 2991 
Q 1406 3038 1543 3061 
Q 1681 3084 1819 3084 
Q 2600 3084 3056 2656 
Q 3513 2228 3513 1497 
Q 3513 744 3044 326 
Q 2575 -91 1722 -91 
Q 1428 -91 1123 -41 
Q 819 9 494 109 
L 494 744 
Q 775 591 1075 516 
Q 1375 441 1709 441 
Q 2250 441 2565 725 
Q 2881 1009 2881 1497 
Q 2881 1984 2565 2268 
Q 2250 2553 1709 2553 
Q 1456 2553 1204 2497 
Q 953 2441 691 2322 
L 691 4666 
z
" transform="scale(0.015625)"/>
       </defs>
       <use xlink:href="#DejaVuSans-35"/>
      </g>
     </g>
    </g>
    <g id="xtick_4">
     <g id="line2d_7">
      <path d="M 164.557239 371.9975 
L 164.557239 39.3575 
" clip-path="url(#pc57336d674)" style="fill: none; stroke-dasharray: 2.96,1.28; stroke-dashoffset: 0; stroke: #2f3549; stroke-opacity: 0.5; stroke-width: 0.8"/>
     </g>
     <g id="line2d_8">
      <g>
       <use xlink:href="#m78615d2d34" x="164.557239" y="371.9975" style="fill: #a9b1d6; stroke: #a9b1d6; stroke-width: 0.8"/>
      </g>
     </g>
     <g id="text_4">
      <!-- 7 -->
      <g style="fill: #a9b1d6" transform="translate(161.375989 386.595937) scale(0.1 -0.1)">
       <defs>
        <path id="DejaVuSans-37" d="M 525 4666 
L 3525 4666 
L 3525 4397 
L 1831 0 
L 1172 0 
L 2766 4134 
L 525 4134 
L 525 4666 
z
" transform="scale(0.015625)"/>
       </defs>
       <use xlink:href="#DejaVuSans-37"/>
      </g>
     </g>
    </g>
    <g id="xtick_5">
     <g id="line2d_9">
      <path d="M 199.541565 371.9975 
L 199.541565 39.3575 
" clip-path="url(#pc57336d674)" style="fill: none; stroke-dasharray: 2.96,1.28; stroke-dashoffset: 0; stroke: #2f3549; stroke-opacity: 0.5; stroke-width: 0.8"/>
     </g>
     <g id="line2d_10">
      <g>
       <use xlink:href="#m78615d2d34" x="199.541565" y="371.9975" style="fill: #a9b1d6; stroke: #a9b1d6; stroke-width: 0.8"/>
      </g>
     </g>
     <g id="text_5">
      <!-- 9 -->
      <g style="fill: #a9b1d6" transform="translate(196.360315 386.595937) scale(0.1 -0.1)">
       <defs>
        <path id="DejaVuSans-39" d="M 703 97 
L 703 672 
Q 941 559 1184 500 
Q 1428 441 1663 441 
Q 2288 441 2617 861 
Q 2947 1281 2994 2138 
Q 2813 1869 2534 1725 
Q 2256 1581 1919 1581 
Q 1219 1581 811 2004 
Q 403 2428 403 3163 
Q 403 3881 828 4315 
Q 1253 4750 1959 4750 
Q 2769 4750 3195 4129 
Q 3622 3509 3622 2328 
Q 3622 1225 3098 567 
Q 2575 -91 1691 -91 
Q 1453 -91 1209 -44 
Q 966 3 703 97 
z
M 1959 2075 
Q 2384 2075 2632 2365 
Q 2881 2656 2881 3163 
Q 2881 3666 2632 3958 
Q 2384 4250 1959 4250 
Q 1534 4250 1286 3958 
Q 1038 3666 1038 3163 
Q 1038 2656 1286 2365 
Q 1534 2075 1959 2075 
z
" transform="scale(0.015625)"/>
       </defs>
       <use xlink:href="#DejaVuSans-39"/>
      </g>
     </g>
    </g>
    <g id="xtick_6">
     <g id="line2d_11">
      <path d="M 234.525891 371.9975 
L 234.525891 39.3575 
" clip-path="url(#pc57336d674)" style="fill: none; stroke-dasharray: 2.96,1.28; stroke-dashoffset: 0; stroke: #2f3549; stroke-opacity: 0.5; stroke-width: 0.8"/>
     </g>
     <g id="line2d_12">
      <g>
       <use xlink:href="#m78615d2d34" x="234.525891" y="371.9975" style="fill: #a9b1d6; stroke: #a9b1d6; stroke-width: 0.8"/>
      </g>
     </g>
     <g id="text_6">
      <!-- 11 -->
      <g style="fill: #a9b1d6" transform="translate(228.163391 386.595937) scale(0.1 -0.1)">
       <use xlink:href="#DejaVuSans-31"/>
       <use xlink:href="#DejaVuSans-31" transform="translate(63.623047 0)"/>
      </g>
     </g>
    </g>
    <g id="xtick_7">
     <g id="line2d_13">
      <path d="M 269.510217 371.9975 
L 269.510217 39.3575 
" clip-path="url(#pc57336d674)" style="fill: none; stroke-dasharray: 2.96,1.28; stroke-dashoffset: 0; stroke: #2f3549; stroke-opacity: 0.5; stroke-width: 0.8"/>
     </g>
     <g id="line2d_14">
      <g>
       <use xlink:href="#m78615d2d34" x="269.510217" y="371.9975" style="fill: #a9b1d6; stroke: #a9b1d6; stroke-width: 0.8"/>
      </g>
     </g>
     <g id="text_7">
      <!-- 13 -->
      <g style="fill: #a9b1d6" transform="translate(263.147717 386.595937) scale(0.1 -0.1)">
       <use xlink:href="#DejaVuSans-31"/>
       <use xlink:href="#DejaVuSans-33" transform="translate(63.623047 0)"/>
      </g>
     </g>
    </g>
    <g id="xtick_8">
     <g id="line2d_15">
      <path d="M 304.494543 371.9975 
L 304.494543 39.3575 
" clip-path="url(#pc57336d674)" style="fill: none; stroke-dasharray: 2.96,1.28; stroke-dashoffset: 0; stroke: #2f3549; stroke-opacity: 0.5; stroke-width: 0.8"/>
     </g>
     <g id="line2d_16">
      <g>
       <use xlink:href="#m78615d2d34" x="304.494543" y="371.9975" style="fill: #a9b1d6; stroke: #a9b1d6; stroke-width: 0.8"/>
      </g>
     </g>
     <g id="text_8">
      <!-- 15 -->
      <g style="fill: #a9b1d6" transform="translate(298.132043 386.595937) scale(0.1 -0.1)">
       <use xlink:href="#DejaVuSans-31"/>
       <use xlink:href="#DejaVuSans-35" transform="translate(63.623047 0)"/>
      </g>
     </g>
    </g>
    <g id="xtick_9">
     <g id="line2d_17">
      <path d="M 339.47887 371.9975 
L 339.47887 39.3575 
" clip-path="url(#pc57336d674)" style="fill: none; stroke-dasharray: 2.96,1.28; stroke-dashoffset: 0; stroke: #2f3549; stroke-opacity: 0.5; stroke-width: 0.8"/>
     </g>
     <g id="line2d_18">
      <g>
       <use xlink:href="#m78615d2d34" x="339.47887" y="371.9975" style="fill: #a9b1d6; stroke: #a9b1d6; stroke-width: 0.8"/>
      </g>
     </g>
     <g id="text_9">
      <!-- 17 -->
      <g style="fill: #a9b1d6" transform="translate(333.11637 386.595937) scale(0.1 -0.1)">
       <use xlink:href="#DejaVuSans-31"/>
       <use xlink:href="#DejaVuSans-37" transform="translate(63.623047 0)"/>
      </g>
     </g>
    </g>
    <g id="xtick_10">
     <g id="line2d_19">
      <path d="M 374.463196 371.9975 
L 374.463196 39.3575 
" clip-path="url(#pc57336d674)" style="fill: none; stroke-dasharray: 2.96,1.28; stroke-dashoffset: 0; stroke: #2f3549; stroke-opacity: 0.5; stroke-width: 0.8"/>
     </g>
     <g id="line2d_20">
      <g>
       <use xlink:href="#m78615d2d34" x="374.463196" y="371.9975" style="fill: #a9b1d6; stroke: #a9b1d6; stroke-width: 0.8"/>
      </g>
     </g>
     <g id="text_10">
      <!-- 19 -->
      <g style="fill: #a9b1d6" transform="translate(368.100696 386.595937) scale(0.1 -0.1)">
       <use xlink:href="#DejaVuSans-31"/>
       <use xlink:href="#DejaVuSans-39" transform="translate(63.623047 0)"/>
      </g>
     </g>
    </g>
    <g id="xtick_11">
     <g id="line2d_21">
      <path d="M 409.447522 371.9975 
L 409.447522 39.3575 
" clip-path="url(#pc57336d674)" style="fill: none; stroke-dasharray: 2.96,1.28; stroke-dashoffset: 0; stroke: #2f3549; stroke-opacity: 0.5; stroke-width: 0.8"/>
     </g>
     <g id="line2d_22">
      <g>
       <use xlink:href="#m78615d2d34" x="409.447522" y="371.9975" style="fill: #a9b1d6; stroke: #a9b1d6; stroke-width: 0.8"/>
      </g>
     </g>
     <g id="text_11">
      <!-- 21 -->
      <g style="fill: #a9b1d6" transform="translate(403.085022 386.595937) scale(0.1 -0.1)">
       <defs>
        <path id="DejaVuSans-32" d="M 1228 531 
L 3431 531 
L 3431 0 
L 469 0 
L 469 531 
Q 828 903 1448 1529 
Q 2069 2156 2228 2338 
Q 2531 2678 2651 2914 
Q 2772 3150 2772 3378 
Q 2772 3750 2511 3984 
Q 2250 4219 1831 4219 
Q 1534 4219 1204 4116 
Q 875 4013 500 3803 
L 500 4441 
Q 881 4594 1212 4672 
Q 1544 4750 1819 4750 
Q 2544 4750 2975 4387 
Q 3406 4025 3406 3419 
Q 3406 3131 3298 2873 
Q 3191 2616 2906 2266 
Q 2828 2175 2409 1742 
Q 1991 1309 1228 531 
z
" transform="scale(0.015625)"/>
       </defs>
       <use xlink:href="#DejaVuSans-32"/>
       <use xlink:href="#DejaVuSans-31" transform="translate(63.623047 0)"/>
      </g>
     </g>
    </g>
    <g id="xtick_12">
     <g id="line2d_23">
      <path d="M 444.431848 371.9975 
L 444.431848 39.3575 
" clip-path="url(#pc57336d674)" style="fill: none; stroke-dasharray: 2.96,1.28; stroke-dashoffset: 0; stroke: #2f3549; stroke-opacity: 0.5; stroke-width: 0.8"/>
     </g>
     <g id="line2d_24">
      <g>
       <use xlink:href="#m78615d2d34" x="444.431848" y="371.9975" style="fill: #a9b1d6; stroke: #a9b1d6; stroke-width: 0.8"/>
      </g>
     </g>
     <g id="text_12">
      <!-- 23 -->
      <g style="fill: #a9b1d6" transform="translate(438.069348 386.595937) scale(0.1 -0.1)">
       <use xlink:href="#DejaVuSans-32"/>
       <use xlink:href="#DejaVuSans-33" transform="translate(63.623047 0)"/>
      </g>
     </g>
    </g>
    <g id="xtick_13">
     <g id="line2d_25">
      <path d="M 479.416174 371.9975 
L 479.416174 39.3575 
" clip-path="url(#pc57336d674)" style="fill: none; stroke-dasharray: 2.96,1.28; stroke-dashoffset: 0; stroke: #2f3549; stroke-opacity: 0.5; stroke-width: 0.8"/>
     </g>
     <g id="line2d_26">
      <g>
       <use xlink:href="#m78615d2d34" x="479.416174" y="371.9975" style="fill: #a9b1d6; stroke: #a9b1d6; stroke-width: 0.8"/>
      </g>
     </g>
     <g id="text_13">
      <!-- 25 -->
      <g style="fill: #a9b1d6" transform="translate(473.053674 386.595937) scale(0.1 -0.1)">
       <use xlink:href="#DejaVuSans-32"/>
       <use xlink:href="#DejaVuSans-35" transform="translate(63.623047 0)"/>
      </g>
     </g>
    </g>
    <g id="xtick_14">
     <g id="line2d_27">
      <path d="M 514.4005 371.9975 
L 514.4005 39.3575 
" clip-path="url(#pc57336d674)" style="fill: none; stroke-dasharray: 2.96,1.28; stroke-dashoffset: 0; stroke: #2f3549; stroke-opacity: 0.5; stroke-width: 0.8"/>
     </g>
     <g id="line2d_28">
      <g>
       <use xlink:href="#m78615d2d34" x="514.4005" y="371.9975" style="fill: #a9b1d6; stroke: #a9b1d6; stroke-width: 0.8"/>
      </g>
     </g>
     <g id="text_14">
      <!-- 27 -->
      <g style="fill: #a9b1d6" transform="translate(508.038 386.595937) scale(0.1 -0.1)">
       <use xlink:href="#DejaVuSans-32"/>
       <use xlink:href="#DejaVuSans-37" transform="translate(63.623047 0)"/>
      </g>
     </g>
    </g>
    <g id="xtick_15">
     <g id="line2d_29">
      <path d="M 549.384826 371.9975 
L 549.384826 39.3575 
" clip-path="url(#pc57336d674)" style="fill: none; stroke-dasharray: 2.96,1.28; stroke-dashoffset: 0; stroke: #2f3549; stroke-opacity: 0.5; stroke-width: 0.8"/>
     </g>
     <g id="line2d_30">
      <g>
       <use xlink:href="#m78615d2d34" x="549.384826" y="371.9975" style="fill: #a9b1d6; stroke: #a9b1d6; stroke-width: 0.8"/>
      </g>
     </g>
     <g id="text_15">
      <!-- 29 -->
      <g style="fill: #a9b1d6" transform="translate(543.022326 386.595937) scale(0.1 -0.1)">
       <use xlink:href="#DejaVuSans-32"/>
       <use xlink:href="#DejaVuSans-39" transform="translate(63.623047 0)"/>
      </g>
     </g>
    </g>
    <g id="xtick_16">
     <g id="line2d_31">
      <path d="M 584.369152 371.9975 
L 584.369152 39.3575 
" clip-path="url(#pc57336d674)" style="fill: none; stroke-dasharray: 2.96,1.28; stroke-dashoffset: 0; stroke: #2f3549; stroke-opacity: 0.5; stroke-width: 0.8"/>
     </g>
     <g id="line2d_32">
      <g>
       <use xlink:href="#m78615d2d34" x="584.369152" y="371.9975" style="fill: #a9b1d6; stroke: #a9b1d6; stroke-width: 0.8"/>
      </g>
     </g>
     <g id="text_16">
      <!-- 31 -->
      <g style="fill: #a9b1d6" transform="translate(578.006652 386.595937) scale(0.1 -0.1)">
       <use xlink:href="#DejaVuSans-33"/>
       <use xlink:href="#DejaVuSans-31" transform="translate(63.623047 0)"/>
      </g>
     </g>
    </g>
    <g id="text_17">
     <!-- Tag des Monats -->
     <g style="fill: #a9b1d6" transform="translate(274.56875 400.274062) scale(0.1 -0.1)">
      <defs>
       <path id="DejaVuSans-54" d="M -19 4666 
L 3928 4666 
L 3928 4134 
L 2272 4134 
L 2272 0 
L 1638 0 
L 1638 4134 
L -19 4134 
L -19 4666 
z
" transform="scale(0.015625)"/>
       <path id="DejaVuSans-61" d="M 2194 1759 
Q 1497 1759 1228 1600 
Q 959 1441 959 1056 
Q 959 750 1161 570 
Q 1363 391 1709 391 
Q 2188 391 2477 730 
Q 2766 1069 2766 1631 
L 2766 1759 
L 2194 1759 
z
M 3341 1997 
L 3341 0 
L 2766 0 
L 2766 531 
Q 2569 213 2275 61 
Q 1981 -91 1556 -91 
Q 1019 -91 701 211 
Q 384 513 384 1019 
Q 384 1609 779 1909 
Q 1175 2209 1959 2209 
L 2766 2209 
L 2766 2266 
Q 2766 2663 2505 2880 
Q 2244 3097 1772 3097 
Q 1472 3097 1187 3025 
Q 903 2953 641 2809 
L 641 3341 
Q 956 3463 1253 3523 
Q 1550 3584 1831 3584 
Q 2591 3584 2966 3190 
Q 3341 2797 3341 1997 
z
" transform="scale(0.015625)"/>
       <path id="DejaVuSans-67" d="M 2906 1791 
Q 2906 2416 2648 2759 
Q 2391 3103 1925 3103 
Q 1463 3103 1205 2759 
Q 947 2416 947 1791 
Q 947 1169 1205 825 
Q 1463 481 1925 481 
Q 2391 481 2648 825 
Q 2906 1169 2906 1791 
z
M 3481 434 
Q 3481 -459 3084 -895 
Q 2688 -1331 1869 -1331 
Q 1566 -1331 1297 -1286 
Q 1028 -1241 775 -1147 
L 775 -588 
Q 1028 -725 1275 -790 
Q 1522 -856 1778 -856 
Q 2344 -856 2625 -561 
Q 2906 -266 2906 331 
L 2906 616 
Q 2728 306 2450 153 
Q 2172 0 1784 0 
Q 1141 0 747 490 
Q 353 981 353 1791 
Q 353 2603 747 3093 
Q 1141 3584 1784 3584 
Q 2172 3584 2450 3431 
Q 2728 3278 2906 2969 
L 2906 3500 
L 3481 3500 
L 3481 434 
z
" transform="scale(0.015625)"/>
       <path id="DejaVuSans-20" transform="scale(0.015625)"/>
       <path id="DejaVuSans-64" d="M 2906 2969 
L 2906 4863 
L 3481 4863 
L 3481 0 
L 2906 0 
L 2906 525 
Q 2725 213 2448 61 
Q 2172 -91 1784 -91 
Q 1150 -91 751 415 
Q 353 922 353 1747 
Q 353 2572 751 3078 
Q 1150 3584 1784 3584 
Q 2172 3584 2448 3432 
Q 2725 3281 2906 2969 
z
M 947 1747 
Q 947 1113 1208 752 
Q 1469 391 1925 391 
Q 2381 391 2643 752 
Q 2906 1113 2906 1747 
Q 2906 2381 2643 2742 
Q 2381 3103 1925 3103 
Q 1469 3103 1208 2742 
Q 947 2381 947 1747 
z
" transform="scale(0.015625)"/>
       <path id="DejaVuSans-65" d="M 3597 1894 
L 3597 1613 
L 953 1613 
Q 991 1019 1311 708 
Q 1631 397 2203 397 
Q 2534 397 2845 478 
Q 3156 559 3463 722 
L 3463 178 
Q 3153 47 2828 -22 
Q 2503 -91 2169 -91 
Q 1331 -91 842 396 
Q 353 884 353 1716 
Q 353 2575 817 3079 
Q 1281 3584 2069 3584 
Q 2775 3584 3186 3129 
Q 3597 2675 3597 1894 
z
M 3022 2063 
Q 3016 2534 2758 2815 
Q 2500 3097 2075 3097 
Q 1594 3097 1305 2825 
Q 1016 2553 972 2059 
L 3022 2063 
z
" transform="scale(0.015625)"/>
       <path id="DejaVuSans-73" d="M 2834 3397 
L 2834 2853 
Q 2591 2978 2328 3040 
Q 2066 3103 1784 3103 
Q 1356 3103 1142 2972 
Q 928 2841 928 2578 
Q 928 2378 1081 2264 
Q 1234 2150 1697 2047 
L 1894 2003 
Q 2506 1872 2764 1633 
Q 3022 1394 3022 966 
Q 3022 478 2636 193 
Q 2250 -91 1575 -91 
Q 1294 -91 989 -36 
Q 684 19 347 128 
L 347 722 
Q 666 556 975 473 
Q 1284 391 1588 391 
Q 1994 391 2212 530 
Q 2431 669 2431 922 
Q 2431 1156 2273 1281 
Q 2116 1406 1581 1522 
L 1381 1569 
Q 847 1681 609 1914 
Q 372 2147 372 2553 
Q 372 3047 722 3315 
Q 1072 3584 1716 3584 
Q 2034 3584 2315 3537 
Q 2597 3491 2834 3397 
z
" transform="scale(0.015625)"/>
       <path id="DejaVuSans-4d" d="M 628 4666 
L 1569 4666 
L 2759 1491 
L 3956 4666 
L 4897 4666 
L 4897 0 
L 4281 0 
L 4281 4097 
L 3078 897 
L 2444 897 
L 1241 4097 
L 1241 0 
L 628 0 
L 628 4666 
z
" transform="scale(0.015625)"/>
       <path id="DejaVuSans-6f" d="M 1959 3097 
Q 1497 3097 1228 2736 
Q 959 2375 959 1747 
Q 959 1119 1226 758 
Q 1494 397 1959 397 
Q 2419 397 2687 759 
Q 2956 1122 2956 1747 
Q 2956 2369 2687 2733 
Q 2419 3097 1959 3097 
z
M 1959 3584 
Q 2709 3584 3137 3096 
Q 3566 2609 3566 1747 
Q 3566 888 3137 398 
Q 2709 -91 1959 -91 
Q 1206 -91 779 398 
Q 353 888 353 1747 
Q 353 2609 779 3096 
Q 1206 3584 1959 3584 
z
" transform="scale(0.015625)"/>
       <path id="DejaVuSans-6e" d="M 3513 2113 
L 3513 0 
L 2938 0 
L 2938 2094 
Q 2938 2591 2744 2837 
Q 2550 3084 2163 3084 
Q 1697 3084 1428 2787 
Q 1159 2491 1159 1978 
L 1159 0 
L 581 0 
L 581 3500 
L 1159 3500 
L 1159 2956 
Q 1366 3272 1645 3428 
Q 1925 3584 2291 3584 
Q 2894 3584 3203 3211 
Q 3513 2838 3513 2113 
z
" transform="scale(0.015625)"/>
       <path id="DejaVuSans-74" d="M 1172 4494 
L 1172 3500 
L 2356 3500 
L 2356 3053 
L 1172 3053 
L 1172 1153 
Q 1172 725 1289 603 
Q 1406 481 1766 481 
L 2356 481 
L 2356 0 
L 1766 0 
Q 1100 0 847 248 
Q 594 497 594 1153 
L 594 3053 
L 172 3053 
L 172 3500 
L 594 3500 
L 594 4494 
L 1172 4494 
z
" transform="scale(0.015625)"/>
      </defs>
      <use xlink:href="#DejaVuSans-54"/>
      <use xlink:href="#DejaVuSans-61" transform="translate(44.583984 0)"/>
      <use xlink:href="#DejaVuSans-67" transform="translate(105.863281 0)"/>
      <use xlink:href="#DejaVuSans-20" transform="translate(169.339844 0)"/>
      <use xlink:href="#DejaVuSans-64" transform="translate(201.126953 0)"/>
      <use xlink:href="#DejaVuSans-65" transform="translate(264.603516 0)"/>
      <use xlink:href="#DejaVuSans-73" transform="translate(326.126953 0)"/>
      <use xlink:href="#DejaVuSans-20" transform="translate(378.226562 0)"/>
      <use xlink:href="#DejaVuSans-4d" transform="translate(410.013672 0)"/>
      <use xlink:href="#DejaVuSans-6f" transform="translate(496.292969 0)"/>
      <use xlink:href="#DejaVuSans-6e" transform="translate(557.474609 0)"/>
      <use xlink:href="#DejaVuSans-61" transform="translate(620.853516 0)"/>
      <use xlink:href="#DejaVuSans-74" transform="translate(682.132812 0)"/>
      <use xlink:href="#DejaVuSans-73" transform="translate(721.341797 0)"/>
     </g>
    </g>
   </g>
   <g id="matplotlib.axis_2">
    <g id="ytick_1">
     <g id="line2d_33">
      <path d="M 34.240625 356.8775 
L 592.240625 356.8775 
" clip-path="url(#pc57336d674)" style="fill: none; stroke-dasharray: 2.96,1.28; stroke-dashoffset: 0; stroke: #2f3549; stroke-opacity: 0.5; stroke-width: 0.8"/>
     </g>
     <g id="line2d_34">
      <defs>
       <path id="mc334018fca" d="M 0 0 
L -3.5 0 
" style="stroke: #a9b1d6; stroke-width: 0.8"/>
      </defs>
      <g>
       <use xlink:href="#mc334018fca" x="34.240625" y="356.8775" style="fill: #a9b1d6; stroke: #a9b1d6; stroke-width: 0.8"/>
      </g>
     </g>
     <g id="text_18">
      <!-- 0 -->
      <g style="fill: #a9b1d6" transform="translate(20.878125 360.676719) scale(0.1 -0.1)">
       <defs>
        <path id="DejaVuSans-30" d="M 2034 4250 
Q 1547 4250 1301 3770 
Q 1056 3291 1056 2328 
Q 1056 1369 1301 889 
Q 1547 409 2034 409 
Q 2525 409 2770 889 
Q 3016 1369 3016 2328 
Q 3016 3291 2770 3770 
Q 2525 4250 2034 4250 
z
M 2034 4750 
Q 2819 4750 3233 4129 
Q 3647 3509 3647 2328 
Q 3647 1150 3233 529 
Q 2819 -91 2034 -91 
Q 1250 -91 836 529 
Q 422 1150 422 2328 
Q 422 3509 836 4129 
Q 1250 4750 2034 4750 
z
" transform="scale(0.015625)"/>
       </defs>
       <use xlink:href="#DejaVuSans-30"/>
      </g>
     </g>
    </g>
    <g id="ytick_2">
     <g id="line2d_35">
      <path d="M 34.240625 291.493716 
L 592.240625 291.493716 
" clip-path="url(#pc57336d674)" style="fill: none; stroke-dasharray: 2.96,1.28; stroke-dashoffset: 0; stroke: #2f3549; stroke-opacity: 0.5; stroke-width: 0.8"/>
     </g>
     <g id="line2d_36">
      <g>
       <use xlink:href="#mc334018fca" x="34.240625" y="291.493716" style="fill: #a9b1d6; stroke: #a9b1d6; stroke-width: 0.8"/>
      </g>
     </g>
     <g id="text_19">
      <!-- 2 -->
      <g style="fill: #a9b1d6" transform="translate(20.878125 295.292935) scale(0.1 -0.1)">
       <use xlink:href="#DejaVuSans-32"/>
      </g>
     </g>
    </g>
    <g id="ytick_3">
     <g id="line2d_37">
      <path d="M 34.240625 226.109932 
L 592.240625 226.109932 
" clip-path="url(#pc57336d674)" style="fill: none; stroke-dasharray: 2.96,1.28; stroke-dashoffset: 0; stroke: #2f3549; stroke-opacity: 0.5; stroke-width: 0.8"/>
     </g>
     <g id="line2d_38">
      <g>
       <use xlink:href="#mc334018fca" x="34.240625" y="226.109932" style="fill: #a9b1d6; stroke: #a9b1d6; stroke-width: 0.8"/>
      </g>
     </g>
     <g id="text_20">
      <!-- 4 -->
      <g style="fill: #a9b1d6" transform="translate(20.878125 229.909151) scale(0.1 -0.1)">
       <defs>
        <path id="DejaVuSans-34" d="M 2419 4116 
L 825 1625 
L 2419 1625 
L 2419 4116 
z
M 2253 4666 
L 3047 4666 
L 3047 1625 
L 3713 1625 
L 3713 1100 
L 3047 1100 
L 3047 0 
L 2419 0 
L 2419 1100 
L 313 1100 
L 313 1709 
L 2253 4666 
z
" transform="scale(0.015625)"/>
       </defs>
       <use xlink:href="#DejaVuSans-34"/>
      </g>
     </g>
    </g>
    <g id="ytick_4">
     <g id="line2d_39">
      <path d="M 34.240625 160.726149 
L 592.240625 160.726149 
" clip-path="url(#pc57336d674)" style="fill: none; stroke-dasharray: 2.96,1.28; stroke-dashoffset: 0; stroke: #2f3549; stroke-opacity: 0.5; stroke-width: 0.8"/>
     </g>
     <g id="line2d_40">
      <g>
       <use xlink:href="#mc334018fca" x="34.240625" y="160.726149" style="fill: #a9b1d6; stroke: #a9b1d6; stroke-width: 0.8"/>
      </g>
     </g>
     <g id="text_21">
      <!-- 6 -->
      <g style="fill: #a9b1d6" transform="translate(20.878125 164.525367) scale(0.1 -0.1)">
       <defs>
        <path id="DejaVuSans-36" d="M 2113 2584 
Q 1688 2584 1439 2293 
Q 1191 2003 1191 1497 
Q 1191 994 1439 701 
Q 1688 409 2113 409 
Q 2538 409 2786 701 
Q 3034 994 3034 1497 
Q 3034 2003 2786 2293 
Q 2538 2584 2113 2584 
z
M 3366 4563 
L 3366 3988 
Q 3128 4100 2886 4159 
Q 2644 4219 2406 4219 
Q 1781 4219 1451 3797 
Q 1122 3375 1075 2522 
Q 1259 2794 1537 2939 
Q 1816 3084 2150 3084 
Q 2853 3084 3261 2657 
Q 3669 2231 3669 1497 
Q 3669 778 3244 343 
Q 2819 -91 2113 -91 
Q 1303 -91 875 529 
Q 447 1150 447 2328 
Q 447 3434 972 4092 
Q 1497 4750 2381 4750 
Q 2619 4750 2861 4703 
Q 3103 4656 3366 4563 
z
" transform="scale(0.015625)"/>
       </defs>
       <use xlink:href="#DejaVuSans-36"/>
      </g>
     </g>
    </g>
    <g id="ytick_5">
     <g id="line2d_41">
      <path d="M 34.240625 95.342365 
L 592.240625 95.342365 
" clip-path="url(#pc57336d674)" style="fill: none; stroke-dasharray: 2.96,1.28; stroke-dashoffset: 0; stroke: #2f3549; stroke-opacity: 0.5; stroke-width: 0.8"/>
     </g>
     <g id="line2d_42">
      <g>
       <use xlink:href="#mc334018fca" x="34.240625" y="95.342365" style="fill: #a9b1d6; stroke: #a9b1d6; stroke-width: 0.8"/>
      </g>
     </g>
     <g id="text_22">
      <!-- 8 -->
      <g style="fill: #a9b1d6" transform="translate(20.878125 99.141584) scale(0.1 -0.1)">
       <defs>
        <path id="DejaVuSans-38" d="M 2034 2216 
Q 1584 2216 1326 1975 
Q 1069 1734 1069 1313 
Q 1069 891 1326 650 
Q 1584 409 2034 409 
Q 2484 409 2743 651 
Q 3003 894 3003 1313 
Q 3003 1734 2745 1975 
Q 2488 2216 2034 2216 
z
M 1403 2484 
Q 997 2584 770 2862 
Q 544 3141 544 3541 
Q 544 4100 942 4425 
Q 1341 4750 2034 4750 
Q 2731 4750 3128 4425 
Q 3525 4100 3525 3541 
Q 3525 3141 3298 2862 
Q 3072 2584 2669 2484 
Q 3125 2378 3379 2068 
Q 3634 1759 3634 1313 
Q 3634 634 3220 271 
Q 2806 -91 2034 -91 
Q 1263 -91 848 271 
Q 434 634 434 1313 
Q 434 1759 690 2068 
Q 947 2378 1403 2484 
z
M 1172 3481 
Q 1172 3119 1398 2916 
Q 1625 2713 2034 2713 
Q 2441 2713 2670 2916 
Q 2900 3119 2900 3481 
Q 2900 3844 2670 4047 
Q 2441 4250 2034 4250 
Q 1625 4250 1398 4047 
Q 1172 3844 1172 3481 
z
" transform="scale(0.015625)"/>
       </defs>
       <use xlink:href="#DejaVuSans-38"/>
      </g>
     </g>
    </g>
    <g id="text_23">
     <!-- Stunden -->
     <g style="fill: #a9b1d6" transform="translate(14.798437 226.568906) rotate(-90) scale(0.1 -0.1)">
      <defs>
       <path id="DejaVuSans-53" d="M 3425 4513 
L 3425 3897 
Q 3066 4069 2747 4153 
Q 2428 4238 2131 4238 
Q 1616 4238 1336 4038 
Q 1056 3838 1056 3469 
Q 1056 3159 1242 3001 
Q 1428 2844 1947 2747 
L 2328 2669 
Q 3034 2534 3370 2195 
Q 3706 1856 3706 1288 
Q 3706 609 3251 259 
Q 2797 -91 1919 -91 
Q 1588 -91 1214 -16 
Q 841 59 441 206 
L 441 856 
Q 825 641 1194 531 
Q 1563 422 1919 422 
Q 2459 422 2753 634 
Q 3047 847 3047 1241 
Q 3047 1584 2836 1778 
Q 2625 1972 2144 2069 
L 1759 2144 
Q 1053 2284 737 2584 
Q 422 2884 422 3419 
Q 422 4038 858 4394 
Q 1294 4750 2059 4750 
Q 2388 4750 2728 4690 
Q 3069 4631 3425 4513 
z
" transform="scale(0.015625)"/>
       <path id="DejaVuSans-75" d="M 544 1381 
L 544 3500 
L 1119 3500 
L 1119 1403 
Q 1119 906 1312 657 
Q 1506 409 1894 409 
Q 2359 409 2629 706 
Q 2900 1003 2900 1516 
L 2900 3500 
L 3475 3500 
L 3475 0 
L 2900 0 
L 2900 538 
Q 2691 219 2414 64 
Q 2138 -91 1772 -91 
Q 1169 -91 856 284 
Q 544 659 544 1381 
z
M 1991 3584 
L 1991 3584 
z
" transform="scale(0.015625)"/>
      </defs>
      <use xlink:href="#DejaVuSans-53"/>
      <use xlink:href="#DejaVuSans-74" transform="translate(63.476562 0)"/>
      <use xlink:href="#DejaVuSans-75" transform="translate(102.685547 0)"/>
      <use xlink:href="#DejaVuSans-6e" transform="translate(166.064453 0)"/>
      <use xlink:href="#DejaVuSans-64" transform="translate(229.443359 0)"/>
      <use xlink:href="#DejaVuSans-65" transform="translate(292.919922 0)"/>
      <use xlink:href="#DejaVuSans-6e" transform="translate(354.443359 0)"/>
     </g>
    </g>
   </g>
   <g id="line2d_43">
    <path d="M 59.604261 239.731554 
L 77.096424 351.428851 
L 94.588587 212.488311 
L 112.08075 209.763986 
L 129.572913 237.00723 
L 147.065076 179.796419 
L 164.557239 147.104527 
L 182.049402 266.974797 
L 199.541565 147.104527 
L 217.033728 179.796419 
L 234.525891 193.418041 
L 252.018054 217.936959 
L 269.510217 103.515338 
L 287.00238 275.14777 
L 304.494543 356.8775 
L 321.986707 296.942365 
L 339.47887 242.455878 
L 356.971033 337.80723 
L 374.463196 190.693716 
L 391.955359 264.250473 
L 409.447522 152.553176 
L 426.939685 133.482905 
L 444.431848 166.174797 
L 461.924011 166.174797 
L 479.416174 234.282905 
L 496.908337 155.2775 
L 514.4005 59.926149 
L 531.892663 158.001824 
L 549.384826 250.628851 
L 566.876989 87.169392 
" clip-path="url(#pc57336d674)" style="fill: none; stroke: #9ece6a; stroke-width: 2; stroke-linecap: square"/>
    <defs>
     <path id="m71c610b1a1" d="M 0 2 
C 0.530406 2 1.03916 1.789267 1.414214 1.414214 
C 1.789267 1.03916 2 0.530406 2 0 
C 2 -0.530406 1.789267 -1.03916 1.414214 -1.414214 
C 1.03916 -1.789267 0.530406 -2 0 -2 
C -0.530406 -2 -1.03916 -1.789267 -1.414214 -1.414214 
C -1.789267 -1.03916 -2 -0.530406 -2 0 
C -2 0.530406 -1.789267 1.03916 -1.414214 1.414214 
C -1.03916 1.789267 -0.530406 2 0 2 
z
" style="stroke: #9ece6a"/>
    </defs>
    <g clip-path="url(#pc57336d674)">
     <use xlink:href="#m71c610b1a1" x="59.604261" y="239.731554" style="fill: #9ece6a; stroke: #9ece6a"/>
     <use xlink:href="#m71c610b1a1" x="77.096424" y="351.428851" style="fill: #9ece6a; stroke: #9ece6a"/>
     <use xlink:href="#m71c610b1a1" x="94.588587" y="212.488311" style="fill: #9ece6a; stroke: #9ece6a"/>
     <use xlink:href="#m71c610b1a1" x="112.08075" y="209.763986" style="fill: #9ece6a; stroke: #9ece6a"/>
     <use xlink:href="#m71c610b1a1" x="129.572913" y="237.00723" style="fill: #9ece6a; stroke: #9ece6a"/>
     <use xlink:href="#m71c610b1a1" x="147.065076" y="179.796419" style="fill: #9ece6a; stroke: #9ece6a"/>
     <use xlink:href="#m71c610b1a1" x="164.557239" y="147.104527" style="fill: #9ece6a; stroke: #9ece6a"/>
     <use xlink:href="#m71c610b1a1" x="182.049402" y="266.974797" style="fill: #9ece6a; stroke: #9ece6a"/>
     <use xlink:href="#m71c610b1a1" x="199.541565" y="147.104527" style="fill: #9ece6a; stroke: #9ece6a"/>
     <use xlink:href="#m71c610b1a1" x="217.033728" y="179.796419" style="fill: #9ece6a; stroke: #9ece6a"/>
     <use xlink:href="#m71c610b1a1" x="234.525891" y="193.418041" style="fill: #9ece6a; stroke: #9ece6a"/>
     <use xlink:href="#m71c610b1a1" x="252.018054" y="217.936959" style="fill: #9ece6a; stroke: #9ece6a"/>
     <use xlink:href="#m71c610b1a1" x="269.510217" y="103.515338" style="fill: #9ece6a; stroke: #9ece6a"/>
     <use xlink:href="#m71c610b1a1" x="287.00238" y="275.14777" style="fill: #9ece6a; stroke: #9ece6a"/>
     <use xlink:href="#m71c610b1a1" x="304.494543" y="356.8775" style="fill: #9ece6a; stroke: #9ece6a"/>
     <use xlink:href="#m71c610b1a1" x="321.986707" y="296.942365" style="fill: #9ece6a; stroke: #9ece6a"/>
     <use xlink:href="#m71c610b1a1" x="339.47887" y="242.455878" style="fill: #9ece6a; stroke: #9ece6a"/>
     <use xlink:href="#m71c610b1a1" x="356.971033" y="337.80723" style="fill: #9ece6a; stroke: #9ece6a"/>
     <use xlink:href="#m71c610b1a1" x="374.463196" y="190.693716" style="fill: #9ece6a; stroke: #9ece6a"/>
     <use xlink:href="#m71c610b1a1" x="391.955359" y="264.250473" style="fill: #9ece6a; stroke: #9ece6a"/>
     <use xlink:href="#m71c610b1a1" x="409.447522" y="152.553176" style="fill: #9ece6a; stroke: #9ece6a"/>
     <use xlink:href="#m71c610b1a1" x="426.939685" y="133.482905" style="fill: #9ece6a; stroke: #9ece6a"/>
     <use xlink:href="#m71c610b1a1" x="444.431848" y="166.174797" style="fill: #9ece6a; stroke: #9ece6a"/>
     <use xlink:href="#m71c610b1a1" x="461.924011" y="166.174797" style="fill: #9ece6a; stroke: #9ece6a"/>
     <use xlink:href="#m71c610b1a1" x="479.416174" y="234.282905" style="fill: #9ece6a; stroke: #9ece6a"/>
     <use xlink:href="#m71c610b1a1" x="496.908337" y="155.2775" style="fill: #9ece6a; stroke: #9ece6a"/>
     <use xlink:href="#m71c610b1a1" x="514.4005" y="59.926149" style="fill: #9ece6a; stroke: #9ece6a"/>
     <use xlink:href="#m71c610b1a1" x="531.892663" y="158.001824" style="fill: #9ece6a; stroke: #9ece6a"/>
     <use xlink:href="#m71c610b1a1" x="549.384826" y="250.628851" style="fill: #9ece6a; stroke: #9ece6a"/>
     <use xlink:href="#m71c610b1a1" x="566.876989" y="87.169392" style="fill: #9ece6a; stroke: #9ece6a"/>
    </g>
   </g>
   <g id="line2d_44">
    <path d="M 59.604261 217.936959 
L 77.096424 256.0775 
L 94.588587 155.2775 
L 112.08075 261.526149 
L 129.572913 166.174797 
L 147.065076 193.418041 
L 164.557239 117.136959 
L 182.049402 138.931554 
L 199.541565 160.726149 
L 217.033728 152.553176 
L 234.525891 158.001824 
L 252.018054 179.796419 
L 269.510217 144.380203 
L 287.00238 147.104527 
L 304.494543 166.174797 
L 321.986707 245.180203 
L 339.47887 209.763986 
L 356.971033 149.828851 
L 374.463196 302.391014 
L 391.955359 196.142365 
L 409.447522 122.585608 
L 426.939685 174.34777 
L 444.431848 166.174797 
L 461.924011 108.963986 
L 479.416174 177.072095 
L 496.908337 147.104527 
L 514.4005 152.553176 
L 531.892663 119.861284 
L 549.384826 54.4775 
L 566.876989 100.791014 
" clip-path="url(#pc57336d674)" style="fill: none; stroke: #2ac3de; stroke-width: 2; stroke-linecap: square"/>
    <defs>
     <path id="m007ddce0ba" d="M 0 2 
C 0.530406 2 1.03916 1.789267 1.414214 1.414214 
C 1.789267 1.03916 2 0.530406 2 0 
C 2 -0.530406 1.789267 -1.03916 1.414214 -1.414214 
C 1.03916 -1.789267 0.530406 -2 0 -2 
C -0.530406 -2 -1.03916 -1.789267 -1.414214 -1.414214 
C -1.789267 -1.03916 -2 -0.530406 -2 0 
C -2 0.530406 -1.789267 1.03916 -1.414214 1.414214 
C -1.03916 1.789267 -0.530406 2 0 2 
z
" style="stroke: #2ac3de"/>
    </defs>
    <g clip-path="url(#pc57336d674)">
     <use xlink:href="#m007ddce0ba" x="59.604261" y="217.936959" style="fill: #2ac3de; stroke: #2ac3de"/>
     <use xlink:href="#m007ddce0ba" x="77.096424" y="256.0775" style="fill: #2ac3de; stroke: #2ac3de"/>
     <use xlink:href="#m007ddce0ba" x="94.588587" y="155.2775" style="fill: #2ac3de; stroke: #2ac3de"/>
     <use xlink:href="#m007ddce0ba" x="112.08075" y="261.526149" style="fill: #2ac3de; stroke: #2ac3de"/>
     <use xlink:href="#m007ddce0ba" x="129.572913" y="166.174797" style="fill: #2ac3de; stroke: #2ac3de"/>
     <use xlink:href="#m007ddce0ba" x="147.065076" y="193.418041" style="fill: #2ac3de; stroke: #2ac3de"/>
     <use xlink:href="#m007ddce0ba" x="164.557239" y="117.136959" style="fill: #2ac3de; stroke: #2ac3de"/>
     <use xlink:href="#m007ddce0ba" x="182.049402" y="138.931554" style="fill: #2ac3de; stroke: #2ac3de"/>
     <use xlink:href="#m007ddce0ba" x="199.541565" y="160.726149" style="fill: #2ac3de; stroke: #2ac3de"/>
     <use xlink:href="#m007ddce0ba" x="217.033728" y="152.553176" style="fill: #2ac3de; stroke: #2ac3de"/>
     <use xlink:href="#m007ddce0ba" x="234.525891" y="158.001824" style="fill: #2ac3de; stroke: #2ac3de"/>
     <use xlink:href="#m007ddce0ba" x="252.018054" y="179.796419" style="fill: #2ac3de; stroke: #2ac3de"/>
     <use xlink:href="#m007ddce0ba" x="269.510217" y="144.380203" style="fill: #2ac3de; stroke: #2ac3de"/>
     <use xlink:href="#m007ddce0ba" x="287.00238" y="147.104527" style="fill: #2ac3de; stroke: #2ac3de"/>
     <use xlink:href="#m007ddce0ba" x="304.494543" y="166.174797" style="fill: #2ac3de; stroke: #2ac3de"/>
     <use xlink:href="#m007ddce0ba" x="321.986707" y="245.180203" style="fill: #2ac3de; stroke: #2ac3de"/>
     <use xlink:href="#m007ddce0ba" x="339.47887" y="209.763986" style="fill: #2ac3de; stroke: #2ac3de"/>
     <use xlink:href="#m007ddce0ba" x="356.971033" y="149.828851" style="fill: #2ac3de; stroke: #2ac3de"/>
     <use xlink:href="#m007ddce0ba" x="374.463196" y="302.391014" style="fill: #2ac3de; stroke: #2ac3de"/>
     <use xlink:href="#m007ddce0ba" x="391.955359" y="196.142365" style="fill: #2ac3de; stroke: #2ac3de"/>
     <use xlink:href="#m007ddce0ba" x="409.447522" y="122.585608" style="fill: #2ac3de; stroke: #2ac3de"/>
     <use xlink:href="#m007ddce0ba" x="426.939685" y="174.34777" style="fill: #2ac3de; stroke: #2ac3de"/>
     <use xlink:href="#m007ddce0ba" x="444.431848" y="166.174797" style="fill: #2ac3de; stroke: #2ac3de"/>
     <use xlink:href="#m007ddce0ba" x="461.924011" y="108.963986" style="fill: #2ac3de; stroke: #2ac3de"/>
     <use xlink:href="#m007ddce0ba" x="479.416174" y="177.072095" style="fill: #2ac3de; stroke: #2ac3de"/>
     <use xlink:href="#m007ddce0ba" x="496.908337" y="147.104527" style="fill: #2ac3de; stroke: #2ac3de"/>
     <use xlink:href="#m007ddce0ba" x="514.4005" y="152.553176" style="fill: #2ac3de; stroke: #2ac3de"/>
     <use xlink:href="#m007ddce0ba" x="531.892663" y="119.861284" style="fill: #2ac3de; stroke: #2ac3de"/>
     <use xlink:href="#m007ddce0ba" x="549.384826" y="54.4775" style="fill: #2ac3de; stroke: #2ac3de"/>
     <use xlink:href="#m007ddce0ba" x="566.876989" y="100.791014" style="fill: #2ac3de; stroke: #2ac3de"/>
    </g>
   </g>
   <g id="line2d_45">
    <path d="M 59.604261 204.315338 
L 77.096424 209.763986 
L 94.588587 207.039662 
L 112.08075 207.039662 
L 129.572913 198.866689 
L 147.065076 209.763986 
L 164.557239 168.899122 
L 182.049402 187.969392 
L 199.541565 163.450473 
L 217.033728 223.385608 
L 234.525891 217.936959 
L 252.018054 196.142365 
L 269.510217 185.245068 
L 287.00238 108.963986 
L 304.494543 196.142365 
L 321.986707 185.245068 
L 339.47887 166.174797 
L 356.971033 329.634257 
L 374.463196 318.736959 
L 391.955359 141.655878 
L 409.447522 182.520743 
L 426.939685 196.142365 
L 444.431848 87.169392 
L 461.924011 321.461284 
L 479.416174 138.931554 
L 496.908337 152.553176 
L 514.4005 158.001824 
L 531.892663 152.553176 
L 549.384826 125.309932 
L 566.876989 147.104527 
" clip-path="url(#pc57336d674)" style="fill: none; stroke: #f7768e; stroke-width: 2; stroke-linecap: square"/>
    <defs>
     <path id="m230f288d76" d="M 0 2 
C 0.530406 2 1.03916 1.789267 1.414214 1.414214 
C 1.789267 1.03916 2 0.530406 2 0 
C 2 -0.530406 1.789267 -1.03916 1.414214 -1.414214 
C 1.03916 -1.789267 0.530406 -2 0 -2 
C -0.530406 -2 -1.03916 -1.789267 -1.414214 -1.414214 
C -1.789267 -1.03916 -2 -0.530406 -2 0 
C -2 0.530406 -1.789267 1.03916 -1.414214 1.414214 
C -1.03916 1.789267 -0.530406 2 0 2 
z
" style="stroke: #f7768e"/>
    </defs>
    <g clip-path="url(#pc57336d674)">
     <use xlink:href="#m230f288d76" x="59.604261" y="204.315338" style="fill: #f7768e; stroke: #f7768e"/>
     <use xlink:href="#m230f288d76" x="77.096424" y="209.763986" style="fill: #f7768e; stroke: #f7768e"/>
     <use xlink:href="#m230f288d76" x="94.588587" y="207.039662" style="fill: #f7768e; stroke: #f7768e"/>
     <use xlink:href="#m230f288d76" x="112.08075" y="207.039662" style="fill: #f7768e; stroke: #f7768e"/>
     <use xlink:href="#m230f288d76" x="129.572913" y="198.866689" style="fill: #f7768e; stroke: #f7768e"/>
     <use xlink:href="#m230f288d76" x="147.065076" y="209.763986" style="fill: #f7768e; stroke: #f7768e"/>
     <use xlink:href="#m230f288d76" x="164.557239" y="168.899122" style="fill: #f7768e; stroke: #f7768e"/>
     <use xlink:href="#m230f288d76" x="182.049402" y="187.969392" style="fill: #f7768e; stroke: #f7768e"/>
     <use xlink:href="#m230f288d76" x="199.541565" y="163.450473" style="fill: #f7768e; stroke: #f7768e"/>
     <use xlink:href="#m230f288d76" x="217.033728" y="223.385608" style="fill: #f7768e; stroke: #f7768e"/>
     <use xlink:href="#m230f288d76" x="234.525891" y="217.936959" style="fill: #f7768e; stroke: #f7768e"/>
     <use xlink:href="#m230f288d76" x="252.018054" y="196.142365" style="fill: #f7768e; stroke: #f7768e"/>
     <use xlink:href="#m230f288d76" x="269.510217" y="185.245068" style="fill: #f7768e; stroke: #f7768e"/>
     <use xlink:href="#m230f288d76" x="287.00238" y="108.963986" style="fill: #f7768e; stroke: #f7768e"/>
     <use xlink:href="#m230f288d76" x="304.494543" y="196.142365" style="fill: #f7768e; stroke: #f7768e"/>
     <use xlink:href="#m230f288d76" x="321.986707" y="185.245068" style="fill: #f7768e; stroke: #f7768e"/>
     <use xlink:href="#m230f288d76" x="339.47887" y="166.174797" style="fill: #f7768e; stroke: #f7768e"/>
     <use xlink:href="#m230f288d76" x="356.971033" y="329.634257" style="fill: #f7768e; stroke: #f7768e"/>
     <use xlink:href="#m230f288d76" x="374.463196" y="318.736959" style="fill: #f7768e; stroke: #f7768e"/>
     <use xlink:href="#m230f288d76" x="391.955359" y="141.655878" style="fill: #f7768e; stroke: #f7768e"/>
     <use xlink:href="#m230f288d76" x="409.447522" y="182.520743" style="fill: #f7768e; stroke: #f7768e"/>
     <use xlink:href="#m230f288d76" x="426.939685" y="196.142365" style="fill: #f7768e; stroke: #f7768e"/>
     <use xlink:href="#m230f288d76" x="444.431848" y="87.169392" style="fill: #f7768e; stroke: #f7768e"/>
     <use xlink:href="#m230f288d76" x="461.924011" y="321.461284" style="fill: #f7768e; stroke: #f7768e"/>
     <use xlink:href="#m230f288d76" x="479.416174" y="138.931554" style="fill: #f7768e; stroke: #f7768e"/>
     <use xlink:href="#m230f288d76" x="496.908337" y="152.553176" style="fill: #f7768e; stroke: #f7768e"/>
     <use xlink:href="#m230f288d76" x="514.4005" y="158.001824" style="fill: #f7768e; stroke: #f7768e"/>
     <use xlink:href="#m230f288d76" x="531.892663" y="152.553176" style="fill: #f7768e; stroke: #f7768e"/>
     <use xlink:href="#m230f288d76" x="549.384826" y="125.309932" style="fill: #f7768e; stroke: #f7768e"/>
     <use xlink:href="#m230f288d76" x="566.876989" y="147.104527" style="fill: #f7768e; stroke: #f7768e"/>
    </g>
   </g>
   <g id="line2d_46">
    <path d="M 59.604261 177.072095 
L 77.096424 220.661284 
L 94.588587 212.488311 
L 112.08075 245.180203 
L 129.572913 136.20723 
L 147.065076 217.936959 
L 164.557239 223.385608 
L 182.049402 217.936959 
L 199.541565 166.174797 
L 217.033728 340.531554 
L 234.525891 209.763986 
L 252.018054 354.153176 
L 269.510217 133.482905 
L 287.00238 340.531554 
L 304.494543 185.245068 
L 321.986707 166.174797 
L 339.47887 212.488311 
L 356.971033 158.001824 
L 374.463196 310.563986 
L 391.955359 354.153176 
L 409.447522 174.34777 
L 426.939685 196.142365 
L 444.431848 196.142365 
L 461.924011 215.212635 
L 479.416174 130.758581 
L 496.908337 291.493716 
" clip-path="url(#pc57336d674)" style="fill: none; stroke: #e0af68; stroke-width: 2; stroke-linecap: square"/>
    <defs>
     <path id="m8285ca7ea9" d="M 0 2 
C 0.530406 2 1.03916 1.789267 1.414214 1.414214 
C 1.789267 1.03916 2 0.530406 2 0 
C 2 -0.530406 1.789267 -1.03916 1.414214 -1.414214 
C 1.03916 -1.789267 0.530406 -2 0 -2 
C -0.530406 -2 -1.03916 -1.789267 -1.414214 -1.414214 
C -1.789267 -1.03916 -2 -0.530406 -2 0 
C -2 0.530406 -1.789267 1.03916 -1.414214 1.414214 
C -1.03916 1.789267 -0.530406 2 0 2 
z
" style="stroke: #e0af68"/>
    </defs>
    <g clip-path="url(#pc57336d674)">
     <use xlink:href="#m8285ca7ea9" x="59.604261" y="177.072095" style="fill: #e0af68; stroke: #e0af68"/>
     <use xlink:href="#m8285ca7ea9" x="77.096424" y="220.661284" style="fill: #e0af68; stroke: #e0af68"/>
     <use xlink:href="#m8285ca7ea9" x="94.588587" y="212.488311" style="fill: #e0af68; stroke: #e0af68"/>
     <use xlink:href="#m8285ca7ea9" x="112.08075" y="245.180203" style="fill: #e0af68; stroke: #e0af68"/>
     <use xlink:href="#m8285ca7ea9" x="129.572913" y="136.20723" style="fill: #e0af68; stroke: #e0af68"/>
     <use xlink:href="#m8285ca7ea9" x="147.065076" y="217.936959" style="fill: #e0af68; stroke: #e0af68"/>
     <use xlink:href="#m8285ca7ea9" x="164.557239" y="223.385608" style="fill: #e0af68; stroke: #e0af68"/>
     <use xlink:href="#m8285ca7ea9" x="182.049402" y="217.936959" style="fill: #e0af68; stroke: #e0af68"/>
     <use xlink:href="#m8285ca7ea9" x="199.541565" y="166.174797" style="fill: #e0af68; stroke: #e0af68"/>
     <use xlink:href="#m8285ca7ea9" x="217.033728" y="340.531554" style="fill: #e0af68; stroke: #e0af68"/>
     <use xlink:href="#m8285ca7ea9" x="234.525891" y="209.763986" style="fill: #e0af68; stroke: #e0af68"/>
     <use xlink:href="#m8285ca7ea9" x="252.018054" y="354.153176" style="fill: #e0af68; stroke: #e0af68"/>
     <use xlink:href="#m8285ca7ea9" x="269.510217" y="133.482905" style="fill: #e0af68; stroke: #e0af68"/>
     <use xlink:href="#m8285ca7ea9" x="287.00238" y="340.531554" style="fill: #e0af68; stroke: #e0af68"/>
     <use xlink:href="#m8285ca7ea9" x="304.494543" y="185.245068" style="fill: #e0af68; stroke: #e0af68"/>
     <use xlink:href="#m8285ca7ea9" x="321.986707" y="166.174797" style="fill: #e0af68; stroke: #e0af68"/>
     <use xlink:href="#m8285ca7ea9" x="339.47887" y="212.488311" style="fill: #e0af68; stroke: #e0af68"/>
     <use xlink:href="#m8285ca7ea9" x="356.971033" y="158.001824" style="fill: #e0af68; stroke: #e0af68"/>
     <use xlink:href="#m8285ca7ea9" x="374.463196" y="310.563986" style="fill: #e0af68; stroke: #e0af68"/>
     <use xlink:href="#m8285ca7ea9" x="391.955359" y="354.153176" style="fill: #e0af68; stroke: #e0af68"/>
     <use xlink:href="#m8285ca7ea9" x="409.447522" y="174.34777" style="fill: #e0af68; stroke: #e0af68"/>
     <use xlink:href="#m8285ca7ea9" x="426.939685" y="196.142365" style="fill: #e0af68; stroke: #e0af68"/>
     <use xlink:href="#m8285ca7ea9" x="444.431848" y="196.142365" style="fill: #e0af68; stroke: #e0af68"/>
     <use xlink:href="#m8285ca7ea9" x="461.924011" y="215.212635" style="fill: #e0af68; stroke: #e0af68"/>
     <use xlink:href="#m8285ca7ea9" x="479.416174" y="130.758581" style="fill: #e0af68; stroke: #e0af68"/>
     <use xlink:href="#m8285ca7ea9" x="496.908337" y="291.493716" style="fill: #e0af68; stroke: #e0af68"/>
    </g>
   </g>
   <g id="patch_3">
    <path d="M 34.240625 371.9975 
L 34.240625 39.3575 
" style="fill: none; stroke: #a9b1d6; stroke-width: 0.8; stroke-linejoin: miter; stroke-linecap: square"/>
   </g>
   <g id="patch_4">
    <path d="M 592.240625 371.9975 
L 592.240625 39.3575 
" style="fill: none; stroke: #a9b1d6; stroke-width: 0.8; stroke-linejoin: miter; stroke-linecap: square"/>
   </g>
   <g id="patch_5">
    <path d="M 34.240625 371.9975 
L 592.240625 371.9975 
" style="fill: none; stroke: #a9b1d6; stroke-width: 0.8; stroke-linejoin: miter; stroke-linecap: square"/>
   </g>
   <g id="patch_6">
    <path d="M 34.240625 39.3575 
L 592.240625 39.3575 
" style="fill: none; stroke: #a9b1d6; stroke-width: 0.8; stroke-linejoin: miter; stroke-linecap: square"/>
   </g>
   <g id="text_24">
    <!-- April - Sonnenstunden am Tag -->
    <g style="fill: #a9b1d6" transform="translate(193.035625 19.3575) scale(0.16 -0.16)">
     <defs>
      <path id="DejaVuSans-41" d="M 2188 4044 
L 1331 1722 
L 3047 1722 
L 2188 4044 
z
M 1831 4666 
L 2547 4666 
L 4325 0 
L 3669 0 
L 3244 1197 
L 1141 1197 
L 716 0 
L 50 0 
L 1831 4666 
z
" transform="scale(0.015625)"/>
      <path id="DejaVuSans-70" d="M 1159 525 
L 1159 -1331 
L 581 -1331 
L 581 3500 
L 1159 3500 
L 1159 2969 
Q 1341 3281 1617 3432 
Q 1894 3584 2278 3584 
Q 2916 3584 3314 3078 
Q 3713 2572 3713 1747 
Q 3713 922 3314 415 
Q 2916 -91 2278 -91 
Q 1894 -91 1617 61 
Q 1341 213 1159 525 
z
M 3116 1747 
Q 3116 2381 2855 2742 
Q 2594 3103 2138 3103 
Q 1681 3103 1420 2742 
Q 1159 2381 1159 1747 
Q 1159 1113 1420 752 
Q 1681 391 2138 391 
Q 2594 391 2855 752 
Q 3116 1113 3116 1747 
z
" transform="scale(0.015625)"/>
      <path id="DejaVuSans-72" d="M 2631 2963 
Q 2534 3019 2420 3045 
Q 2306 3072 2169 3072 
Q 1681 3072 1420 2755 
Q 1159 2438 1159 1844 
L 1159 0 
L 581 0 
L 581 3500 
L 1159 3500 
L 1159 2956 
Q 1341 3275 1631 3429 
Q 1922 3584 2338 3584 
Q 2397 3584 2469 3576 
Q 2541 3569 2628 3553 
L 2631 2963 
z
" transform="scale(0.015625)"/>
      <path id="DejaVuSans-69" d="M 603 3500 
L 1178 3500 
L 1178 0 
L 603 0 
L 603 3500 
z
M 603 4863 
L 1178 4863 
L 1178 4134 
L 603 4134 
L 603 4863 
z
" transform="scale(0.015625)"/>
      <path id="DejaVuSans-6c" d="M 603 4863 
L 1178 4863 
L 1178 0 
L 603 0 
L 603 4863 
z
" transform="scale(0.015625)"/>
      <path id="DejaVuSans-2d" d="M 313 2009 
L 1997 2009 
L 1997 1497 
L 313 1497 
L 313 2009 
z
" transform="scale(0.015625)"/>
      <path id="DejaVuSans-6d" d="M 3328 2828 
Q 3544 3216 3844 3400 
Q 4144 3584 4550 3584 
Q 5097 3584 5394 3201 
Q 5691 2819 5691 2113 
L 5691 0 
L 5113 0 
L 5113 2094 
Q 5113 2597 4934 2840 
Q 4756 3084 4391 3084 
Q 3944 3084 3684 2787 
Q 3425 2491 3425 1978 
L 3425 0 
L 2847 0 
L 2847 2094 
Q 2847 2600 2669 2842 
Q 2491 3084 2119 3084 
Q 1678 3084 1418 2786 
Q 1159 2488 1159 1978 
L 1159 0 
L 581 0 
L 581 3500 
L 1159 3500 
L 1159 2956 
Q 1356 3278 1631 3431 
Q 1906 3584 2284 3584 
Q 2666 3584 2933 3390 
Q 3200 3197 3328 2828 
z
" transform="scale(0.015625)"/>
     </defs>
     <use xlink:href="#DejaVuSans-41"/>
     <use xlink:href="#DejaVuSans-70" transform="translate(68.408203 0)"/>
     <use xlink:href="#DejaVuSans-72" transform="translate(131.884766 0)"/>
     <use xlink:href="#DejaVuSans-69" transform="translate(172.998047 0)"/>
     <use xlink:href="#DejaVuSans-6c" transform="translate(200.78125 0)"/>
     <use xlink:href="#DejaVuSans-20" transform="translate(228.564453 0)"/>
     <use xlink:href="#DejaVuSans-2d" transform="translate(260.351562 0)"/>
     <use xlink:href="#DejaVuSans-20" transform="translate(296.435547 0)"/>
     <use xlink:href="#DejaVuSans-53" transform="translate(328.222656 0)"/>
     <use xlink:href="#DejaVuSans-6f" transform="translate(391.699219 0)"/>
     <use xlink:href="#DejaVuSans-6e" transform="translate(452.880859 0)"/>
     <use xlink:href="#DejaVuSans-6e" transform="translate(516.259766 0)"/>
     <use xlink:href="#DejaVuSans-65" transform="translate(579.638672 0)"/>
     <use xlink:href="#DejaVuSans-6e" transform="translate(641.162109 0)"/>
     <use xlink:href="#DejaVuSans-73" transform="translate(704.541016 0)"/>
     <use xlink:href="#DejaVuSans-74" transform="translate(756.640625 0)"/>
     <use xlink:href="#DejaVuSans-75" transform="translate(795.849609 0)"/>
     <use xlink:href="#DejaVuSans-6e" transform="translate(859.228516 0)"/>
     <use xlink:href="#DejaVuSans-64" transform="translate(922.607422 0)"/>
     <use xlink:href="#DejaVuSans-65" transform="translate(986.083984 0)"/>
     <use xlink:href="#DejaVuSans-6e" transform="translate(1047.607422 0)"/>
     <use xlink:href="#DejaVuSans-20" transform="translate(1110.986328 0)"/>
     <use xlink:href="#DejaVuSans-61" transform="translate(1142.773438 0)"/>
     <use xlink:href="#DejaVuSans-6d" transform="translate(1204.052734 0)"/>
     <use xlink:href="#DejaVuSans-20" transform="translate(1301.464844 0)"/>
     <use xlink:href="#DejaVuSans-54" transform="translate(1333.251953 0)"/>
     <use xlink:href="#DejaVuSans-61" transform="translate(1377.835938 0)"/>
     <use xlink:href="#DejaVuSans-67" transform="translate(1439.115234 0)"/>
    </g>
   </g>
   <g id="legend_1">
    <g id="patch_7">
     <path d="M 41.240625 120.748125 
L 98.690625 120.748125 
Q 100.690625 120.748125 100.690625 118.748125 
L 100.690625 46.3575 
Q 100.690625 44.3575 98.690625 44.3575 
L 41.240625 44.3575 
Q 39.240625 44.3575 39.240625 46.3575 
L 39.240625 118.748125 
Q 39.240625 120.748125 41.240625 120.748125 
z
" style="fill: #1a1b26; opacity: 0.8; stroke: #a9b1d6; stroke-linejoin: miter"/>
    </g>
    <g id="text_25">
     <!-- Jahr -->
     <g style="fill: #a9b1d6" transform="translate(60.202344 55.955938) scale(0.1 -0.1)">
      <defs>
       <path id="DejaVuSans-4a" d="M 628 4666 
L 1259 4666 
L 1259 325 
Q 1259 -519 939 -900 
Q 619 -1281 -91 -1281 
L -331 -1281 
L -331 -750 
L -134 -750 
Q 284 -750 456 -515 
Q 628 -281 628 325 
L 628 4666 
z
" transform="scale(0.015625)"/>
       <path id="DejaVuSans-68" d="M 3513 2113 
L 3513 0 
L 2938 0 
L 2938 2094 
Q 2938 2591 2744 2837 
Q 2550 3084 2163 3084 
Q 1697 3084 1428 2787 
Q 1159 2491 1159 1978 
L 1159 0 
L 581 0 
L 581 4863 
L 1159 4863 
L 1159 2956 
Q 1366 3272 1645 3428 
Q 1925 3584 2291 3584 
Q 2894 3584 3203 3211 
Q 3513 2838 3513 2113 
z
" transform="scale(0.015625)"/>
      </defs>
      <use xlink:href="#DejaVuSans-4a"/>
      <use xlink:href="#DejaVuSans-61" transform="translate(29.492188 0)"/>
      <use xlink:href="#DejaVuSans-68" transform="translate(90.771484 0)"/>
      <use xlink:href="#DejaVuSans-72" transform="translate(154.150391 0)"/>
     </g>
    </g>
    <g id="line2d_47">
     <path d="M 43.240625 67.134063 
L 53.240625 67.134063 
L 63.240625 67.134063 
" style="fill: none; stroke: #9ece6a; stroke-width: 2; stroke-linecap: square"/>
     <g>
      <use xlink:href="#m71c610b1a1" x="53.240625" y="67.134063" style="fill: #9ece6a; stroke: #9ece6a"/>
     </g>
    </g>
    <g id="text_26">
     <!-- 2023 -->
     <g style="fill: #a9b1d6" transform="translate(71.240625 70.634063) scale(0.1 -0.1)">
      <use xlink:href="#DejaVuSans-32"/>
      <use xlink:href="#DejaVuSans-30" transform="translate(63.623047 0)"/>
      <use xlink:href="#DejaVuSans-32" transform="translate(127.246094 0)"/>
      <use xlink:href="#DejaVuSans-33" transform="translate(190.869141 0)"/>
     </g>
    </g>
    <g id="line2d_48">
     <path d="M 43.240625 81.812188 
L 53.240625 81.812188 
L 63.240625 81.812188 
" style="fill: none; stroke: #2ac3de; stroke-width: 2; stroke-linecap: square"/>
     <g>
      <use xlink:href="#m007ddce0ba" x="53.240625" y="81.812188" style="fill: #2ac3de; stroke: #2ac3de"/>
     </g>
    </g>
    <g id="text_27">
     <!-- 2024 -->
     <g style="fill: #a9b1d6" transform="translate(71.240625 85.312188) scale(0.1 -0.1)">
      <use xlink:href="#DejaVuSans-32"/>
      <use xlink:href="#DejaVuSans-30" transform="translate(63.623047 0)"/>
      <use xlink:href="#DejaVuSans-32" transform="translate(127.246094 0)"/>
      <use xlink:href="#DejaVuSans-34" transform="translate(190.869141 0)"/>
     </g>
    </g>
    <g id="line2d_49">
     <path d="M 43.240625 96.490313 
L 53.240625 96.490313 
L 63.240625 96.490313 
" style="fill: none; stroke: #f7768e; stroke-width: 2; stroke-linecap: square"/>
     <g>
      <use xlink:href="#m230f288d76" x="53.240625" y="96.490313" style="fill: #f7768e; stroke: #f7768e"/>
     </g>
    </g>
    <g id="text_28">
     <!-- 2025 -->
     <g style="fill: #a9b1d6" transform="translate(71.240625 99.990313) scale(0.1 -0.1)">
      <use xlink:href="#DejaVuSans-32"/>
      <use xlink:href="#DejaVuSans-30" transform="translate(63.623047 0)"/>
      <use xlink:href="#DejaVuSans-32" transform="translate(127.246094 0)"/>
      <use xlink:href="#DejaVuSans-35" transform="translate(190.869141 0)"/>
     </g>
    </g>
    <g id="line2d_50">
     <path d="M 43.240625 111.168438 
L 53.240625 111.168438 
L 63.240625 111.168438 
" style="fill: none; stroke: #e0af68; stroke-width: 2; stroke-linecap: square"/>
     <g>
      <use xlink:href="#m8285ca7ea9" x="53.240625" y="111.168438" style="fill: #e0af68; stroke: #e0af68"/>
     </g>
    </g>
    <g id="text_29">
     <!-- 2026 -->
     <g style="fill: #a9b1d6" transform="translate(71.240625 114.668438) scale(0.1 -0.1)">
      <use xlink:href="#DejaVuSans-32"/>
      <use xlink:href="#DejaVuSans-30" transform="translate(63.623047 0)"/>
      <use xlink:href="#DejaVuSans-32" transform="translate(127.246094 0)"/>
      <use xlink:href="#DejaVuSans-36" transform="translate(190.869141 0)"/>
     </g>
    </g>
   </g>
  </g>
 </g>
 <defs>
  <clipPath id="pc57336d674">
   <rect x="34.240625" y="39.3575" width="558" height="332.64"/>
  </clipPath>
 </defs>
</svg>
