<?xml version="1.0" encoding="utf-8" standalone="no"?>
<!DOCTYPE svg PUBLIC "-//W3C//DTD SVG 1.1//EN"
  "http://www.w3.org/Graphics/SVG/1.1/DTD/svg11.dtd">
<svg xmlns:xlink="http://www.w3.org/1999/xlink" width="607.820313pt" height="409.55375pt" viewBox="0 0 607.820313 409.55375" xmlns="http://www.w3.org/2000/svg" version="1.1">
 <metadata>
  <rdf:RDF xmlns:dc="http://purl.org/dc/elements/1.1/" xmlns:cc="http://creativecommons.org/ns#" xmlns:rdf="http://www.w3.org/1999/02/22-rdf-syntax-ns#">
   <cc:Work>
    <dc:type rdf:resource="http://purl.org/dc/dcmitype/StillImage"/>
    <dc:date>2026-04-26T14:38:56.602412</dc:date>
    <dc:format>image/svg+xml</dc:format>
    <dc:creator>
     <cc:Agent>
      <dc:title>Matplotlib v3.10.8, https://matplotlib.org/</dc:title>
     </cc:Agent>
    </dc:creator>
   </cc:Work>
  </rdf:RDF>
 </metadata>
 <defs>
  <style type="text/css">*{stroke-linejoin: round; stroke-linecap: butt}</style>
 </defs>
 <g id="figure_1">
  <g id="patch_1">
   <path d="M 0 409.55375 
L 607.820313 409.55375 
L 607.820313 0 
L 0 0 
z
" style="fill: #1a1b26"/>
  </g>
  <g id="axes_1">
   <g id="patch_2">
    <path d="M 42.620312 371.9975 
L 600.620312 371.9975 
L 600.620312 39.3575 
L 42.620312 39.3575 
z
" style="fill: #1a1b26"/>
   </g>
   <g id="matplotlib.axis_1">
    <g id="xtick_1">
     <g id="line2d_1">
      <path d="M 67.983949 371.9975 
L 67.983949 39.3575 
" clip-path="url(#p824b648378)" style="fill: none; stroke-dasharray: 2.96,1.28; stroke-dashoffset: 0; stroke: #2f3549; stroke-opacity: 0.5; stroke-width: 0.8"/>
     </g>
     <g id="line2d_2">
      <defs>
       <path id="mbd7acd663a" d="M 0 0 
L 0 3.5 
" style="stroke: #a9b1d6; stroke-width: 0.8"/>
      </defs>
      <g>
       <use xlink:href="#mbd7acd663a" x="67.983949" y="371.9975" style="fill: #a9b1d6; stroke: #a9b1d6; stroke-width: 0.8"/>
      </g>
     </g>
     <g id="text_1">
      <!-- 1 -->
      <g style="fill: #a9b1d6" transform="translate(64.802699 386.595937) scale(0.1 -0.1)">
       <defs>
        <path id="DejaVuSans-31" d="M 794 531 
L 1825 531 
L 1825 4091 
L 703 3866 
L 703 4441 
L 1819 4666 
L 2450 4666 
L 2450 531 
L 3481 531 
L 3481 0 
L 794 0 
L 794 531 
z
" transform="scale(0.015625)"/>
       </defs>
       <use xlink:href="#DejaVuSans-31"/>
      </g>
     </g>
    </g>
    <g id="xtick_2">
     <g id="line2d_3">
      <path d="M 101.802131 371.9975 
L 101.802131 39.3575 
" clip-path="url(#p824b648378)" style="fill: none; stroke-dasharray: 2.96,1.28; stroke-dashoffset: 0; stroke: #2f3549; stroke-opacity: 0.5; stroke-width: 0.8"/>
     </g>
     <g id="line2d_4">
      <g>
       <use xlink:href="#mbd7acd663a" x="101.802131" y="371.9975" style="fill: #a9b1d6; stroke: #a9b1d6; stroke-width: 0.8"/>
      </g>
     </g>
     <g id="text_2">
      <!-- 3 -->
      <g style="fill: #a9b1d6" transform="translate(98.620881 386.595937) scale(0.1 -0.1)">
       <defs>
        <path id="DejaVuSans-33" d="M 2597 2516 
Q 3050 2419 3304 2112 
Q 3559 1806 3559 1356 
Q 3559 666 3084 287 
Q 2609 -91 1734 -91 
Q 1441 -91 1130 -33 
Q 819 25 488 141 
L 488 750 
Q 750 597 1062 519 
Q 1375 441 1716 441 
Q 2309 441 2620 675 
Q 2931 909 2931 1356 
Q 2931 1769 2642 2001 
Q 2353 2234 1838 2234 
L 1294 2234 
L 1294 2753 
L 1863 2753 
Q 2328 2753 2575 2939 
Q 2822 3125 2822 3475 
Q 2822 3834 2567 4026 
Q 2313 4219 1838 4219 
Q 1578 4219 1281 4162 
Q 984 4106 628 3988 
L 628 4550 
Q 988 4650 1302 4700 
Q 1616 4750 1894 4750 
Q 2613 4750 3031 4423 
Q 3450 4097 3450 3541 
Q 3450 3153 3228 2886 
Q 3006 2619 2597 2516 
z
" transform="scale(0.015625)"/>
       </defs>
       <use xlink:href="#DejaVuSans-33"/>
      </g>
     </g>
    </g>
    <g id="xtick_3">
     <g id="line2d_5">
      <path d="M 135.620313 371.9975 
L 135.620313 39.3575 
" clip-path="url(#p824b648378)" style="fill: none; stroke-dasharray: 2.96,1.28; stroke-dashoffset: 0; stroke: #2f3549; stroke-opacity: 0.5; stroke-width: 0.8"/>
     </g>
     <g id="line2d_6">
      <g>
       <use xlink:href="#mbd7acd663a" x="135.620313" y="371.9975" style="fill: #a9b1d6; stroke: #a9b1d6; stroke-width: 0.8"/>
      </g>
     </g>
     <g id="text_3">
      <!-- 5 -->
      <g style="fill: #a9b1d6" transform="translate(132.439063 386.595937) scale(0.1 -0.1)">
       <defs>
        <path id="DejaVuSans-35" d="M 691 4666 
L 3169 4666 
L 3169 4134 
L 1269 4134 
L 1269 2991 
Q 1406 3038 1543 3061 
Q 1681 3084 1819 3084 
Q 2600 3084 3056 2656 
Q 3513 2228 3513 1497 
Q 3513 744 3044 326 
Q 2575 -91 1722 -91 
Q 1428 -91 1123 -41 
Q 819 9 494 109 
L 494 744 
Q 775 591 1075 516 
Q 1375 441 1709 441 
Q 2250 441 2565 725 
Q 2881 1009 2881 1497 
Q 2881 1984 2565 2268 
Q 2250 2553 1709 2553 
Q 1456 2553 1204 2497 
Q 953 2441 691 2322 
L 691 4666 
z
" transform="scale(0.015625)"/>
       </defs>
       <use xlink:href="#DejaVuSans-35"/>
      </g>
     </g>
    </g>
    <g id="xtick_4">
     <g id="line2d_7">
      <path d="M 169.438494 371.9975 
L 169.438494 39.3575 
" clip-path="url(#p824b648378)" style="fill: none; stroke-dasharray: 2.96,1.28; stroke-dashoffset: 0; stroke: #2f3549; stroke-opacity: 0.5; stroke-width: 0.8"/>
     </g>
     <g id="line2d_8">
      <g>
       <use xlink:href="#mbd7acd663a" x="169.438494" y="371.9975" style="fill: #a9b1d6; stroke: #a9b1d6; stroke-width: 0.8"/>
      </g>
     </g>
     <g id="text_4">
      <!-- 7 -->
      <g style="fill: #a9b1d6" transform="translate(166.257244 386.595937) scale(0.1 -0.1)">
       <defs>
        <path id="DejaVuSans-37" d="M 525 4666 
L 3525 4666 
L 3525 4397 
L 1831 0 
L 1172 0 
L 2766 4134 
L 525 4134 
L 525 4666 
z
" transform="scale(0.015625)"/>
       </defs>
       <use xlink:href="#DejaVuSans-37"/>
      </g>
     </g>
    </g>
    <g id="xtick_5">
     <g id="line2d_9">
      <path d="M 203.256676 371.9975 
L 203.256676 39.3575 
" clip-path="url(#p824b648378)" style="fill: none; stroke-dasharray: 2.96,1.28; stroke-dashoffset: 0; stroke: #2f3549; stroke-opacity: 0.5; stroke-width: 0.8"/>
     </g>
     <g id="line2d_10">
      <g>
       <use xlink:href="#mbd7acd663a" x="203.256676" y="371.9975" style="fill: #a9b1d6; stroke: #a9b1d6; stroke-width: 0.8"/>
      </g>
     </g>
     <g id="text_5">
      <!-- 9 -->
      <g style="fill: #a9b1d6" transform="translate(200.075426 386.595937) scale(0.1 -0.1)">
       <defs>
        <path id="DejaVuSans-39" d="M 703 97 
L 703 672 
Q 941 559 1184 500 
Q 1428 441 1663 441 
Q 2288 441 2617 861 
Q 2947 1281 2994 2138 
Q 2813 1869 2534 1725 
Q 2256 1581 1919 1581 
Q 1219 1581 811 2004 
Q 403 2428 403 3163 
Q 403 3881 828 4315 
Q 1253 4750 1959 4750 
Q 2769 4750 3195 4129 
Q 3622 3509 3622 2328 
Q 3622 1225 3098 567 
Q 2575 -91 1691 -91 
Q 1453 -91 1209 -44 
Q 966 3 703 97 
z
M 1959 2075 
Q 2384 2075 2632 2365 
Q 2881 2656 2881 3163 
Q 2881 3666 2632 3958 
Q 2384 4250 1959 4250 
Q 1534 4250 1286 3958 
Q 1038 3666 1038 3163 
Q 1038 2656 1286 2365 
Q 1534 2075 1959 2075 
z
" transform="scale(0.015625)"/>
       </defs>
       <use xlink:href="#DejaVuSans-39"/>
      </g>
     </g>
    </g>
    <g id="xtick_6">
     <g id="line2d_11">
      <path d="M 237.074858 371.9975 
L 237.074858 39.3575 
" clip-path="url(#p824b648378)" style="fill: none; stroke-dasharray: 2.96,1.28; stroke-dashoffset: 0; stroke: #2f3549; stroke-opacity: 0.5; stroke-width: 0.8"/>
     </g>
     <g id="line2d_12">
      <g>
       <use xlink:href="#mbd7acd663a" x="237.074858" y="371.9975" style="fill: #a9b1d6; stroke: #a9b1d6; stroke-width: 0.8"/>
      </g>
     </g>
     <g id="text_6">
      <!-- 11 -->
      <g style="fill: #a9b1d6" transform="translate(230.712358 386.595937) scale(0.1 -0.1)">
       <use xlink:href="#DejaVuSans-31"/>
       <use xlink:href="#DejaVuSans-31" transform="translate(63.623047 0)"/>
      </g>
     </g>
    </g>
    <g id="xtick_7">
     <g id="line2d_13">
      <path d="M 270.89304 371.9975 
L 270.89304 39.3575 
" clip-path="url(#p824b648378)" style="fill: none; stroke-dasharray: 2.96,1.28; stroke-dashoffset: 0; stroke: #2f3549; stroke-opacity: 0.5; stroke-width: 0.8"/>
     </g>
     <g id="line2d_14">
      <g>
       <use xlink:href="#mbd7acd663a" x="270.89304" y="371.9975" style="fill: #a9b1d6; stroke: #a9b1d6; stroke-width: 0.8"/>
      </g>
     </g>
     <g id="text_7">
      <!-- 13 -->
      <g style="fill: #a9b1d6" transform="translate(264.53054 386.595937) scale(0.1 -0.1)">
       <use xlink:href="#DejaVuSans-31"/>
       <use xlink:href="#DejaVuSans-33" transform="translate(63.623047 0)"/>
      </g>
     </g>
    </g>
    <g id="xtick_8">
     <g id="line2d_15">
      <path d="M 304.711222 371.9975 
L 304.711222 39.3575 
" clip-path="url(#p824b648378)" style="fill: none; stroke-dasharray: 2.96,1.28; stroke-dashoffset: 0; stroke: #2f3549; stroke-opacity: 0.5; stroke-width: 0.8"/>
     </g>
     <g id="line2d_16">
      <g>
       <use xlink:href="#mbd7acd663a" x="304.711222" y="371.9975" style="fill: #a9b1d6; stroke: #a9b1d6; stroke-width: 0.8"/>
      </g>
     </g>
     <g id="text_8">
      <!-- 15 -->
      <g style="fill: #a9b1d6" transform="translate(298.348722 386.595937) scale(0.1 -0.1)">
       <use xlink:href="#DejaVuSans-31"/>
       <use xlink:href="#DejaVuSans-35" transform="translate(63.623047 0)"/>
      </g>
     </g>
    </g>
    <g id="xtick_9">
     <g id="line2d_17">
      <path d="M 338.529403 371.9975 
L 338.529403 39.3575 
" clip-path="url(#p824b648378)" style="fill: none; stroke-dasharray: 2.96,1.28; stroke-dashoffset: 0; stroke: #2f3549; stroke-opacity: 0.5; stroke-width: 0.8"/>
     </g>
     <g id="line2d_18">
      <g>
       <use xlink:href="#mbd7acd663a" x="338.529403" y="371.9975" style="fill: #a9b1d6; stroke: #a9b1d6; stroke-width: 0.8"/>
      </g>
     </g>
     <g id="text_9">
      <!-- 17 -->
      <g style="fill: #a9b1d6" transform="translate(332.166903 386.595937) scale(0.1 -0.1)">
       <use xlink:href="#DejaVuSans-31"/>
       <use xlink:href="#DejaVuSans-37" transform="translate(63.623047 0)"/>
      </g>
     </g>
    </g>
    <g id="xtick_10">
     <g id="line2d_19">
      <path d="M 372.347585 371.9975 
L 372.347585 39.3575 
" clip-path="url(#p824b648378)" style="fill: none; stroke-dasharray: 2.96,1.28; stroke-dashoffset: 0; stroke: #2f3549; stroke-opacity: 0.5; stroke-width: 0.8"/>
     </g>
     <g id="line2d_20">
      <g>
       <use xlink:href="#mbd7acd663a" x="372.347585" y="371.9975" style="fill: #a9b1d6; stroke: #a9b1d6; stroke-width: 0.8"/>
      </g>
     </g>
     <g id="text_10">
      <!-- 19 -->
      <g style="fill: #a9b1d6" transform="translate(365.985085 386.595937) scale(0.1 -0.1)">
       <use xlink:href="#DejaVuSans-31"/>
       <use xlink:href="#DejaVuSans-39" transform="translate(63.623047 0)"/>
      </g>
     </g>
    </g>
    <g id="xtick_11">
     <g id="line2d_21">
      <path d="M 406.165767 371.9975 
L 406.165767 39.3575 
" clip-path="url(#p824b648378)" style="fill: none; stroke-dasharray: 2.96,1.28; stroke-dashoffset: 0; stroke: #2f3549; stroke-opacity: 0.5; stroke-width: 0.8"/>
     </g>
     <g id="line2d_22">
      <g>
       <use xlink:href="#mbd7acd663a" x="406.165767" y="371.9975" style="fill: #a9b1d6; stroke: #a9b1d6; stroke-width: 0.8"/>
      </g>
     </g>
     <g id="text_11">
      <!-- 21 -->
      <g style="fill: #a9b1d6" transform="translate(399.803267 386.595937) scale(0.1 -0.1)">
       <defs>
        <path id="DejaVuSans-32" d="M 1228 531 
L 3431 531 
L 3431 0 
L 469 0 
L 469 531 
Q 828 903 1448 1529 
Q 2069 2156 2228 2338 
Q 2531 2678 2651 2914 
Q 2772 3150 2772 3378 
Q 2772 3750 2511 3984 
Q 2250 4219 1831 4219 
Q 1534 4219 1204 4116 
Q 875 4013 500 3803 
L 500 4441 
Q 881 4594 1212 4672 
Q 1544 4750 1819 4750 
Q 2544 4750 2975 4387 
Q 3406 4025 3406 3419 
Q 3406 3131 3298 2873 
Q 3191 2616 2906 2266 
Q 2828 2175 2409 1742 
Q 1991 1309 1228 531 
z
" transform="scale(0.015625)"/>
       </defs>
       <use xlink:href="#DejaVuSans-32"/>
       <use xlink:href="#DejaVuSans-31" transform="translate(63.623047 0)"/>
      </g>
     </g>
    </g>
    <g id="xtick_12">
     <g id="line2d_23">
      <path d="M 439.983949 371.9975 
L 439.983949 39.3575 
" clip-path="url(#p824b648378)" style="fill: none; stroke-dasharray: 2.96,1.28; stroke-dashoffset: 0; stroke: #2f3549; stroke-opacity: 0.5; stroke-width: 0.8"/>
     </g>
     <g id="line2d_24">
      <g>
       <use xlink:href="#mbd7acd663a" x="439.983949" y="371.9975" style="fill: #a9b1d6; stroke: #a9b1d6; stroke-width: 0.8"/>
      </g>
     </g>
     <g id="text_12">
      <!-- 23 -->
      <g style="fill: #a9b1d6" transform="translate(433.621449 386.595937) scale(0.1 -0.1)">
       <use xlink:href="#DejaVuSans-32"/>
       <use xlink:href="#DejaVuSans-33" transform="translate(63.623047 0)"/>
      </g>
     </g>
    </g>
    <g id="xtick_13">
     <g id="line2d_25">
      <path d="M 473.802131 371.9975 
L 473.802131 39.3575 
" clip-path="url(#p824b648378)" style="fill: none; stroke-dasharray: 2.96,1.28; stroke-dashoffset: 0; stroke: #2f3549; stroke-opacity: 0.5; stroke-width: 0.8"/>
     </g>
     <g id="line2d_26">
      <g>
       <use xlink:href="#mbd7acd663a" x="473.802131" y="371.9975" style="fill: #a9b1d6; stroke: #a9b1d6; stroke-width: 0.8"/>
      </g>
     </g>
     <g id="text_13">
      <!-- 25 -->
      <g style="fill: #a9b1d6" transform="translate(467.439631 386.595937) scale(0.1 -0.1)">
       <use xlink:href="#DejaVuSans-32"/>
       <use xlink:href="#DejaVuSans-35" transform="translate(63.623047 0)"/>
      </g>
     </g>
    </g>
    <g id="xtick_14">
     <g id="line2d_27">
      <path d="M 507.620313 371.9975 
L 507.620313 39.3575 
" clip-path="url(#p824b648378)" style="fill: none; stroke-dasharray: 2.96,1.28; stroke-dashoffset: 0; stroke: #2f3549; stroke-opacity: 0.5; stroke-width: 0.8"/>
     </g>
     <g id="line2d_28">
      <g>
       <use xlink:href="#mbd7acd663a" x="507.620313" y="371.9975" style="fill: #a9b1d6; stroke: #a9b1d6; stroke-width: 0.8"/>
      </g>
     </g>
     <g id="text_14">
      <!-- 27 -->
      <g style="fill: #a9b1d6" transform="translate(501.257812 386.595937) scale(0.1 -0.1)">
       <use xlink:href="#DejaVuSans-32"/>
       <use xlink:href="#DejaVuSans-37" transform="translate(63.623047 0)"/>
      </g>
     </g>
    </g>
    <g id="xtick_15">
     <g id="line2d_29">
      <path d="M 541.438494 371.9975 
L 541.438494 39.3575 
" clip-path="url(#p824b648378)" style="fill: none; stroke-dasharray: 2.96,1.28; stroke-dashoffset: 0; stroke: #2f3549; stroke-opacity: 0.5; stroke-width: 0.8"/>
     </g>
     <g id="line2d_30">
      <g>
       <use xlink:href="#mbd7acd663a" x="541.438494" y="371.9975" style="fill: #a9b1d6; stroke: #a9b1d6; stroke-width: 0.8"/>
      </g>
     </g>
     <g id="text_15">
      <!-- 29 -->
      <g style="fill: #a9b1d6" transform="translate(535.075994 386.595937) scale(0.1 -0.1)">
       <use xlink:href="#DejaVuSans-32"/>
       <use xlink:href="#DejaVuSans-39" transform="translate(63.623047 0)"/>
      </g>
     </g>
    </g>
    <g id="xtick_16">
     <g id="line2d_31">
      <path d="M 575.256676 371.9975 
L 575.256676 39.3575 
" clip-path="url(#p824b648378)" style="fill: none; stroke-dasharray: 2.96,1.28; stroke-dashoffset: 0; stroke: #2f3549; stroke-opacity: 0.5; stroke-width: 0.8"/>
     </g>
     <g id="line2d_32">
      <g>
       <use xlink:href="#mbd7acd663a" x="575.256676" y="371.9975" style="fill: #a9b1d6; stroke: #a9b1d6; stroke-width: 0.8"/>
      </g>
     </g>
     <g id="text_16">
      <!-- 31 -->
      <g style="fill: #a9b1d6" transform="translate(568.894176 386.595937) scale(0.1 -0.1)">
       <use xlink:href="#DejaVuSans-33"/>
       <use xlink:href="#DejaVuSans-31" transform="translate(63.623047 0)"/>
      </g>
     </g>
    </g>
    <g id="text_17">
     <!-- Tag des Monats -->
     <g style="fill: #a9b1d6" transform="translate(282.948438 400.274062) scale(0.1 -0.1)">
      <defs>
       <path id="DejaVuSans-54" d="M -19 4666 
L 3928 4666 
L 3928 4134 
L 2272 4134 
L 2272 0 
L 1638 0 
L 1638 4134 
L -19 4134 
L -19 4666 
z
" transform="scale(0.015625)"/>
       <path id="DejaVuSans-61" d="M 2194 1759 
Q 1497 1759 1228 1600 
Q 959 1441 959 1056 
Q 959 750 1161 570 
Q 1363 391 1709 391 
Q 2188 391 2477 730 
Q 2766 1069 2766 1631 
L 2766 1759 
L 2194 1759 
z
M 3341 1997 
L 3341 0 
L 2766 0 
L 2766 531 
Q 2569 213 2275 61 
Q 1981 -91 1556 -91 
Q 1019 -91 701 211 
Q 384 513 384 1019 
Q 384 1609 779 1909 
Q 1175 2209 1959 2209 
L 2766 2209 
L 2766 2266 
Q 2766 2663 2505 2880 
Q 2244 3097 1772 3097 
Q 1472 3097 1187 3025 
Q 903 2953 641 2809 
L 641 3341 
Q 956 3463 1253 3523 
Q 1550 3584 1831 3584 
Q 2591 3584 2966 3190 
Q 3341 2797 3341 1997 
z
" transform="scale(0.015625)"/>
       <path id="DejaVuSans-67" d="M 2906 1791 
Q 2906 2416 2648 2759 
Q 2391 3103 1925 3103 
Q 1463 3103 1205 2759 
Q 947 2416 947 1791 
Q 947 1169 1205 825 
Q 1463 481 1925 481 
Q 2391 481 2648 825 
Q 2906 1169 2906 1791 
z
M 3481 434 
Q 3481 -459 3084 -895 
Q 2688 -1331 1869 -1331 
Q 1566 -1331 1297 -1286 
Q 1028 -1241 775 -1147 
L 775 -588 
Q 1028 -725 1275 -790 
Q 1522 -856 1778 -856 
Q 2344 -856 2625 -561 
Q 2906 -266 2906 331 
L 2906 616 
Q 2728 306 2450 153 
Q 2172 0 1784 0 
Q 1141 0 747 490 
Q 353 981 353 1791 
Q 353 2603 747 3093 
Q 1141 3584 1784 3584 
Q 2172 3584 2450 3431 
Q 2728 3278 2906 2969 
L 2906 3500 
L 3481 3500 
L 3481 434 
z
" transform="scale(0.015625)"/>
       <path id="DejaVuSans-20" transform="scale(0.015625)"/>
       <path id="DejaVuSans-64" d="M 2906 2969 
L 2906 4863 
L 3481 4863 
L 3481 0 
L 2906 0 
L 2906 525 
Q 2725 213 2448 61 
Q 2172 -91 1784 -91 
Q 1150 -91 751 415 
Q 353 922 353 1747 
Q 353 2572 751 3078 
Q 1150 3584 1784 3584 
Q 2172 3584 2448 3432 
Q 2725 3281 2906 2969 
z
M 947 1747 
Q 947 1113 1208 752 
Q 1469 391 1925 391 
Q 2381 391 2643 752 
Q 2906 1113 2906 1747 
Q 2906 2381 2643 2742 
Q 2381 3103 1925 3103 
Q 1469 3103 1208 2742 
Q 947 2381 947 1747 
z
" transform="scale(0.015625)"/>
       <path id="DejaVuSans-65" d="M 3597 1894 
L 3597 1613 
L 953 1613 
Q 991 1019 1311 708 
Q 1631 397 2203 397 
Q 2534 397 2845 478 
Q 3156 559 3463 722 
L 3463 178 
Q 3153 47 2828 -22 
Q 2503 -91 2169 -91 
Q 1331 -91 842 396 
Q 353 884 353 1716 
Q 353 2575 817 3079 
Q 1281 3584 2069 3584 
Q 2775 3584 3186 3129 
Q 3597 2675 3597 1894 
z
M 3022 2063 
Q 3016 2534 2758 2815 
Q 2500 3097 2075 3097 
Q 1594 3097 1305 2825 
Q 1016 2553 972 2059 
L 3022 2063 
z
" transform="scale(0.015625)"/>
       <path id="DejaVuSans-73" d="M 2834 3397 
L 2834 2853 
Q 2591 2978 2328 3040 
Q 2066 3103 1784 3103 
Q 1356 3103 1142 2972 
Q 928 2841 928 2578 
Q 928 2378 1081 2264 
Q 1234 2150 1697 2047 
L 1894 2003 
Q 2506 1872 2764 1633 
Q 3022 1394 3022 966 
Q 3022 478 2636 193 
Q 2250 -91 1575 -91 
Q 1294 -91 989 -36 
Q 684 19 347 128 
L 347 722 
Q 666 556 975 473 
Q 1284 391 1588 391 
Q 1994 391 2212 530 
Q 2431 669 2431 922 
Q 2431 1156 2273 1281 
Q 2116 1406 1581 1522 
L 1381 1569 
Q 847 1681 609 1914 
Q 372 2147 372 2553 
Q 372 3047 722 3315 
Q 1072 3584 1716 3584 
Q 2034 3584 2315 3537 
Q 2597 3491 2834 3397 
z
" transform="scale(0.015625)"/>
       <path id="DejaVuSans-4d" d="M 628 4666 
L 1569 4666 
L 2759 1491 
L 3956 4666 
L 4897 4666 
L 4897 0 
L 4281 0 
L 4281 4097 
L 3078 897 
L 2444 897 
L 1241 4097 
L 1241 0 
L 628 0 
L 628 4666 
z
" transform="scale(0.015625)"/>
       <path id="DejaVuSans-6f" d="M 1959 3097 
Q 1497 3097 1228 2736 
Q 959 2375 959 1747 
Q 959 1119 1226 758 
Q 1494 397 1959 397 
Q 2419 397 2687 759 
Q 2956 1122 2956 1747 
Q 2956 2369 2687 2733 
Q 2419 3097 1959 3097 
z
M 1959 3584 
Q 2709 3584 3137 3096 
Q 3566 2609 3566 1747 
Q 3566 888 3137 398 
Q 2709 -91 1959 -91 
Q 1206 -91 779 398 
Q 353 888 353 1747 
Q 353 2609 779 3096 
Q 1206 3584 1959 3584 
z
" transform="scale(0.015625)"/>
       <path id="DejaVuSans-6e" d="M 3513 2113 
L 3513 0 
L 2938 0 
L 2938 2094 
Q 2938 2591 2744 2837 
Q 2550 3084 2163 3084 
Q 1697 3084 1428 2787 
Q 1159 2491 1159 1978 
L 1159 0 
L 581 0 
L 581 3500 
L 1159 3500 
L 1159 2956 
Q 1366 3272 1645 3428 
Q 1925 3584 2291 3584 
Q 2894 3584 3203 3211 
Q 3513 2838 3513 2113 
z
" transform="scale(0.015625)"/>
       <path id="DejaVuSans-74" d="M 1172 4494 
L 1172 3500 
L 2356 3500 
L 2356 3053 
L 1172 3053 
L 1172 1153 
Q 1172 725 1289 603 
Q 1406 481 1766 481 
L 2356 481 
L 2356 0 
L 1766 0 
Q 1100 0 847 248 
Q 594 497 594 1153 
L 594 3053 
L 172 3053 
L 172 3500 
L 594 3500 
L 594 4494 
L 1172 4494 
z
" transform="scale(0.015625)"/>
      </defs>
      <use xlink:href="#DejaVuSans-54"/>
      <use xlink:href="#DejaVuSans-61" transform="translate(44.583984 0)"/>
      <use xlink:href="#DejaVuSans-67" transform="translate(105.863281 0)"/>
      <use xlink:href="#DejaVuSans-20" transform="translate(169.339844 0)"/>
      <use xlink:href="#DejaVuSans-64" transform="translate(201.126953 0)"/>
      <use xlink:href="#DejaVuSans-65" transform="translate(264.603516 0)"/>
      <use xlink:href="#DejaVuSans-73" transform="translate(326.126953 0)"/>
      <use xlink:href="#DejaVuSans-20" transform="translate(378.226562 0)"/>
      <use xlink:href="#DejaVuSans-4d" transform="translate(410.013672 0)"/>
      <use xlink:href="#DejaVuSans-6f" transform="translate(496.292969 0)"/>
      <use xlink:href="#DejaVuSans-6e" transform="translate(557.474609 0)"/>
      <use xlink:href="#DejaVuSans-61" transform="translate(620.853516 0)"/>
      <use xlink:href="#DejaVuSans-74" transform="translate(682.132812 0)"/>
      <use xlink:href="#DejaVuSans-73" transform="translate(721.341797 0)"/>
     </g>
    </g>
   </g>
   <g id="matplotlib.axis_2">
    <g id="ytick_1">
     <g id="line2d_33">
      <path d="M 42.620312 343.4375 
L 600.620312 343.4375 
" clip-path="url(#p824b648378)" style="fill: none; stroke-dasharray: 2.96,1.28; stroke-dashoffset: 0; stroke: #2f3549; stroke-opacity: 0.5; stroke-width: 0.8"/>
     </g>
     <g id="line2d_34">
      <defs>
       <path id="m08680dc1c3" d="M 0 0 
L -3.5 0 
" style="stroke: #a9b1d6; stroke-width: 0.8"/>
      </defs>
      <g>
       <use xlink:href="#m08680dc1c3" x="42.620312" y="343.4375" style="fill: #a9b1d6; stroke: #a9b1d6; stroke-width: 0.8"/>
      </g>
     </g>
     <g id="text_18">
      <!-- −5 -->
      <g style="fill: #a9b1d6" transform="translate(20.878125 347.236719) scale(0.1 -0.1)">
       <defs>
        <path id="DejaVuSans-2212" d="M 678 2272 
L 4684 2272 
L 4684 1741 
L 678 1741 
L 678 2272 
z
" transform="scale(0.015625)"/>
       </defs>
       <use xlink:href="#DejaVuSans-2212"/>
       <use xlink:href="#DejaVuSans-35" transform="translate(83.789062 0)"/>
      </g>
     </g>
    </g>
    <g id="ytick_2">
     <g id="line2d_35">
      <path d="M 42.620312 276.2375 
L 600.620312 276.2375 
" clip-path="url(#p824b648378)" style="fill: none; stroke-dasharray: 2.96,1.28; stroke-dashoffset: 0; stroke: #2f3549; stroke-opacity: 0.5; stroke-width: 0.8"/>
     </g>
     <g id="line2d_36">
      <g>
       <use xlink:href="#m08680dc1c3" x="42.620312" y="276.2375" style="fill: #a9b1d6; stroke: #a9b1d6; stroke-width: 0.8"/>
      </g>
     </g>
     <g id="text_19">
      <!-- 0 -->
      <g style="fill: #a9b1d6" transform="translate(29.257812 280.036719) scale(0.1 -0.1)">
       <defs>
        <path id="DejaVuSans-30" d="M 2034 4250 
Q 1547 4250 1301 3770 
Q 1056 3291 1056 2328 
Q 1056 1369 1301 889 
Q 1547 409 2034 409 
Q 2525 409 2770 889 
Q 3016 1369 3016 2328 
Q 3016 3291 2770 3770 
Q 2525 4250 2034 4250 
z
M 2034 4750 
Q 2819 4750 3233 4129 
Q 3647 3509 3647 2328 
Q 3647 1150 3233 529 
Q 2819 -91 2034 -91 
Q 1250 -91 836 529 
Q 422 1150 422 2328 
Q 422 3509 836 4129 
Q 1250 4750 2034 4750 
z
" transform="scale(0.015625)"/>
       </defs>
       <use xlink:href="#DejaVuSans-30"/>
      </g>
     </g>
    </g>
    <g id="ytick_3">
     <g id="line2d_37">
      <path d="M 42.620312 209.0375 
L 600.620312 209.0375 
" clip-path="url(#p824b648378)" style="fill: none; stroke-dasharray: 2.96,1.28; stroke-dashoffset: 0; stroke: #2f3549; stroke-opacity: 0.5; stroke-width: 0.8"/>
     </g>
     <g id="line2d_38">
      <g>
       <use xlink:href="#m08680dc1c3" x="42.620312" y="209.0375" style="fill: #a9b1d6; stroke: #a9b1d6; stroke-width: 0.8"/>
      </g>
     </g>
     <g id="text_20">
      <!-- 5 -->
      <g style="fill: #a9b1d6" transform="translate(29.257812 212.836719) scale(0.1 -0.1)">
       <use xlink:href="#DejaVuSans-35"/>
      </g>
     </g>
    </g>
    <g id="ytick_4">
     <g id="line2d_39">
      <path d="M 42.620312 141.8375 
L 600.620312 141.8375 
" clip-path="url(#p824b648378)" style="fill: none; stroke-dasharray: 2.96,1.28; stroke-dashoffset: 0; stroke: #2f3549; stroke-opacity: 0.5; stroke-width: 0.8"/>
     </g>
     <g id="line2d_40">
      <g>
       <use xlink:href="#m08680dc1c3" x="42.620312" y="141.8375" style="fill: #a9b1d6; stroke: #a9b1d6; stroke-width: 0.8"/>
      </g>
     </g>
     <g id="text_21">
      <!-- 10 -->
      <g style="fill: #a9b1d6" transform="translate(22.895312 145.636719) scale(0.1 -0.1)">
       <use xlink:href="#DejaVuSans-31"/>
       <use xlink:href="#DejaVuSans-30" transform="translate(63.623047 0)"/>
      </g>
     </g>
    </g>
    <g id="ytick_5">
     <g id="line2d_41">
      <path d="M 42.620312 74.6375 
L 600.620312 74.6375 
" clip-path="url(#p824b648378)" style="fill: none; stroke-dasharray: 2.96,1.28; stroke-dashoffset: 0; stroke: #2f3549; stroke-opacity: 0.5; stroke-width: 0.8"/>
     </g>
     <g id="line2d_42">
      <g>
       <use xlink:href="#m08680dc1c3" x="42.620312" y="74.6375" style="fill: #a9b1d6; stroke: #a9b1d6; stroke-width: 0.8"/>
      </g>
     </g>
     <g id="text_22">
      <!-- 15 -->
      <g style="fill: #a9b1d6" transform="translate(22.895312 78.436719) scale(0.1 -0.1)">
       <use xlink:href="#DejaVuSans-31"/>
       <use xlink:href="#DejaVuSans-35" transform="translate(63.623047 0)"/>
      </g>
     </g>
    </g>
    <g id="text_23">
     <!-- °C -->
     <g style="fill: #a9b1d6" transform="translate(14.798437 211.668906) rotate(-90) scale(0.1 -0.1)">
      <defs>
       <path id="DejaVuSans-b0" d="M 1600 4347 
Q 1350 4347 1178 4173 
Q 1006 4000 1006 3750 
Q 1006 3503 1178 3333 
Q 1350 3163 1600 3163 
Q 1850 3163 2022 3333 
Q 2194 3503 2194 3750 
Q 2194 3997 2020 4172 
Q 1847 4347 1600 4347 
z
M 1600 4750 
Q 1800 4750 1984 4673 
Q 2169 4597 2303 4453 
Q 2447 4313 2519 4134 
Q 2591 3956 2591 3750 
Q 2591 3338 2302 3052 
Q 2013 2766 1594 2766 
Q 1172 2766 890 3047 
Q 609 3328 609 3750 
Q 609 4169 896 4459 
Q 1184 4750 1600 4750 
z
" transform="scale(0.015625)"/>
       <path id="DejaVuSans-43" d="M 4122 4306 
L 4122 3641 
Q 3803 3938 3442 4084 
Q 3081 4231 2675 4231 
Q 1875 4231 1450 3742 
Q 1025 3253 1025 2328 
Q 1025 1406 1450 917 
Q 1875 428 2675 428 
Q 3081 428 3442 575 
Q 3803 722 4122 1019 
L 4122 359 
Q 3791 134 3420 21 
Q 3050 -91 2638 -91 
Q 1578 -91 968 557 
Q 359 1206 359 2328 
Q 359 3453 968 4101 
Q 1578 4750 2638 4750 
Q 3056 4750 3426 4639 
Q 3797 4528 4122 4306 
z
" transform="scale(0.015625)"/>
      </defs>
      <use xlink:href="#DejaVuSans-b0"/>
      <use xlink:href="#DejaVuSans-43" transform="translate(50 0)"/>
     </g>
    </g>
   </g>
   <g id="line2d_43">
    <path d="M 67.983949 54.4775 
L 84.89304 61.1975 
L 101.802131 131.0855 
L 118.711222 117.6455 
L 135.620313 114.9575 
L 152.529403 127.0535 
L 169.438494 112.2695 
L 186.347585 145.8695 
L 203.256676 148.5575 
L 220.165767 170.0615 
L 237.074858 137.8055 
L 253.983949 137.8055 
L 270.89304 136.4615 
L 287.802131 145.8695 
L 304.711222 135.1175 
L 321.620313 161.9975 
L 338.529403 200.9735 
L 355.438494 264.1415 
L 372.347585 252.0455 
L 389.256676 249.3575 
L 406.165767 258.7655 
L 423.074858 264.1415 
L 439.983949 261.4535 
L 456.89304 261.4535 
L 473.802131 261.4535 
L 490.711222 268.1735 
L 507.620313 257.4215 
L 524.529403 264.1415 
L 541.438494 269.5175 
L 558.347585 210.3815 
L 575.256676 199.6295 
" clip-path="url(#p824b648378)" style="fill: none; stroke: #9ece6a; stroke-width: 2; stroke-linecap: square"/>
    <defs>
     <path id="m7fb3941b0d" d="M 0 2 
C 0.530406 2 1.03916 1.789267 1.414214 1.414214 
C 1.789267 1.03916 2 0.530406 2 0 
C 2 -0.530406 1.789267 -1.03916 1.414214 -1.414214 
C 1.03916 -1.789267 0.530406 -2 0 -2 
C -0.530406 -2 -1.03916 -1.789267 -1.414214 -1.414214 
C -1.789267 -1.03916 -2 -0.530406 -2 0 
C -2 0.530406 -1.789267 1.03916 -1.414214 1.414214 
C -1.03916 1.789267 -0.530406 2 0 2 
z
" style="stroke: #9ece6a"/>
    </defs>
    <g clip-path="url(#p824b648378)">
     <use xlink:href="#m7fb3941b0d" x="67.983949" y="54.4775" style="fill: #9ece6a; stroke: #9ece6a"/>
     <use xlink:href="#m7fb3941b0d" x="84.89304" y="61.1975" style="fill: #9ece6a; stroke: #9ece6a"/>
     <use xlink:href="#m7fb3941b0d" x="101.802131" y="131.0855" style="fill: #9ece6a; stroke: #9ece6a"/>
     <use xlink:href="#m7fb3941b0d" x="118.711222" y="117.6455" style="fill: #9ece6a; stroke: #9ece6a"/>
     <use xlink:href="#m7fb3941b0d" x="135.620313" y="114.9575" style="fill: #9ece6a; stroke: #9ece6a"/>
     <use xlink:href="#m7fb3941b0d" x="152.529403" y="127.0535" style="fill: #9ece6a; stroke: #9ece6a"/>
     <use xlink:href="#m7fb3941b0d" x="169.438494" y="112.2695" style="fill: #9ece6a; stroke: #9ece6a"/>
     <use xlink:href="#m7fb3941b0d" x="186.347585" y="145.8695" style="fill: #9ece6a; stroke: #9ece6a"/>
     <use xlink:href="#m7fb3941b0d" x="203.256676" y="148.5575" style="fill: #9ece6a; stroke: #9ece6a"/>
     <use xlink:href="#m7fb3941b0d" x="220.165767" y="170.0615" style="fill: #9ece6a; stroke: #9ece6a"/>
     <use xlink:href="#m7fb3941b0d" x="237.074858" y="137.8055" style="fill: #9ece6a; stroke: #9ece6a"/>
     <use xlink:href="#m7fb3941b0d" x="253.983949" y="137.8055" style="fill: #9ece6a; stroke: #9ece6a"/>
     <use xlink:href="#m7fb3941b0d" x="270.89304" y="136.4615" style="fill: #9ece6a; stroke: #9ece6a"/>
     <use xlink:href="#m7fb3941b0d" x="287.802131" y="145.8695" style="fill: #9ece6a; stroke: #9ece6a"/>
     <use xlink:href="#m7fb3941b0d" x="304.711222" y="135.1175" style="fill: #9ece6a; stroke: #9ece6a"/>
     <use xlink:href="#m7fb3941b0d" x="321.620313" y="161.9975" style="fill: #9ece6a; stroke: #9ece6a"/>
     <use xlink:href="#m7fb3941b0d" x="338.529403" y="200.9735" style="fill: #9ece6a; stroke: #9ece6a"/>
     <use xlink:href="#m7fb3941b0d" x="355.438494" y="264.1415" style="fill: #9ece6a; stroke: #9ece6a"/>
     <use xlink:href="#m7fb3941b0d" x="372.347585" y="252.0455" style="fill: #9ece6a; stroke: #9ece6a"/>
     <use xlink:href="#m7fb3941b0d" x="389.256676" y="249.3575" style="fill: #9ece6a; stroke: #9ece6a"/>
     <use xlink:href="#m7fb3941b0d" x="406.165767" y="258.7655" style="fill: #9ece6a; stroke: #9ece6a"/>
     <use xlink:href="#m7fb3941b0d" x="423.074858" y="264.1415" style="fill: #9ece6a; stroke: #9ece6a"/>
     <use xlink:href="#m7fb3941b0d" x="439.983949" y="261.4535" style="fill: #9ece6a; stroke: #9ece6a"/>
     <use xlink:href="#m7fb3941b0d" x="456.89304" y="261.4535" style="fill: #9ece6a; stroke: #9ece6a"/>
     <use xlink:href="#m7fb3941b0d" x="473.802131" y="261.4535" style="fill: #9ece6a; stroke: #9ece6a"/>
     <use xlink:href="#m7fb3941b0d" x="490.711222" y="268.1735" style="fill: #9ece6a; stroke: #9ece6a"/>
     <use xlink:href="#m7fb3941b0d" x="507.620313" y="257.4215" style="fill: #9ece6a; stroke: #9ece6a"/>
     <use xlink:href="#m7fb3941b0d" x="524.529403" y="264.1415" style="fill: #9ece6a; stroke: #9ece6a"/>
     <use xlink:href="#m7fb3941b0d" x="541.438494" y="269.5175" style="fill: #9ece6a; stroke: #9ece6a"/>
     <use xlink:href="#m7fb3941b0d" x="558.347585" y="210.3815" style="fill: #9ece6a; stroke: #9ece6a"/>
     <use xlink:href="#m7fb3941b0d" x="575.256676" y="199.6295" style="fill: #9ece6a; stroke: #9ece6a"/>
    </g>
   </g>
   <g id="line2d_44">
    <path d="M 67.983949 152.5895 
L 84.89304 160.6535 
L 101.802131 116.3015 
L 118.711222 159.3095 
L 135.620313 131.0855 
L 152.529403 195.5975 
L 169.438494 280.2695 
L 186.347585 309.8375 
L 203.256676 356.8775 
L 220.165767 295.0535 
L 237.074858 300.4295 
L 253.983949 273.5495 
L 270.89304 245.3255 
L 287.802131 237.2615 
L 304.711222 243.9815 
L 321.620313 245.3255 
L 338.529403 246.6695 
L 355.438494 277.5815 
L 372.347585 281.6135 
L 389.256676 254.7335 
L 406.165767 225.1655 
L 423.074858 152.5895 
L 439.983949 172.7495 
L 456.89304 94.7975 
L 473.802131 156.6215 
L 490.711222 120.3335 
L 507.620313 178.1255 
L 524.529403 135.1175 
L 541.438494 96.1415 
L 558.347585 120.3335 
L 575.256676 170.0615 
" clip-path="url(#p824b648378)" style="fill: none; stroke: #2ac3de; stroke-width: 2; stroke-linecap: square"/>
    <defs>
     <path id="mad72228107" d="M 0 2 
C 0.530406 2 1.03916 1.789267 1.414214 1.414214 
C 1.789267 1.03916 2 0.530406 2 0 
C 2 -0.530406 1.789267 -1.03916 1.414214 -1.414214 
C 1.03916 -1.789267 0.530406 -2 0 -2 
C -0.530406 -2 -1.03916 -1.789267 -1.414214 -1.414214 
C -1.789267 -1.03916 -2 -0.530406 -2 0 
C -2 0.530406 -1.789267 1.03916 -1.414214 1.414214 
C -1.03916 1.789267 -0.530406 2 0 2 
z
" style="stroke: #2ac3de"/>
    </defs>
    <g clip-path="url(#p824b648378)">
     <use xlink:href="#mad72228107" x="67.983949" y="152.5895" style="fill: #2ac3de; stroke: #2ac3de"/>
     <use xlink:href="#mad72228107" x="84.89304" y="160.6535" style="fill: #2ac3de; stroke: #2ac3de"/>
     <use xlink:href="#mad72228107" x="101.802131" y="116.3015" style="fill: #2ac3de; stroke: #2ac3de"/>
     <use xlink:href="#mad72228107" x="118.711222" y="159.3095" style="fill: #2ac3de; stroke: #2ac3de"/>
     <use xlink:href="#mad72228107" x="135.620313" y="131.0855" style="fill: #2ac3de; stroke: #2ac3de"/>
     <use xlink:href="#mad72228107" x="152.529403" y="195.5975" style="fill: #2ac3de; stroke: #2ac3de"/>
     <use xlink:href="#mad72228107" x="169.438494" y="280.2695" style="fill: #2ac3de; stroke: #2ac3de"/>
     <use xlink:href="#mad72228107" x="186.347585" y="309.8375" style="fill: #2ac3de; stroke: #2ac3de"/>
     <use xlink:href="#mad72228107" x="203.256676" y="356.8775" style="fill: #2ac3de; stroke: #2ac3de"/>
     <use xlink:href="#mad72228107" x="220.165767" y="295.0535" style="fill: #2ac3de; stroke: #2ac3de"/>
     <use xlink:href="#mad72228107" x="237.074858" y="300.4295" style="fill: #2ac3de; stroke: #2ac3de"/>
     <use xlink:href="#mad72228107" x="253.983949" y="273.5495" style="fill: #2ac3de; stroke: #2ac3de"/>
     <use xlink:href="#mad72228107" x="270.89304" y="245.3255" style="fill: #2ac3de; stroke: #2ac3de"/>
     <use xlink:href="#mad72228107" x="287.802131" y="237.2615" style="fill: #2ac3de; stroke: #2ac3de"/>
     <use xlink:href="#mad72228107" x="304.711222" y="243.9815" style="fill: #2ac3de; stroke: #2ac3de"/>
     <use xlink:href="#mad72228107" x="321.620313" y="245.3255" style="fill: #2ac3de; stroke: #2ac3de"/>
     <use xlink:href="#mad72228107" x="338.529403" y="246.6695" style="fill: #2ac3de; stroke: #2ac3de"/>
     <use xlink:href="#mad72228107" x="355.438494" y="277.5815" style="fill: #2ac3de; stroke: #2ac3de"/>
     <use xlink:href="#mad72228107" x="372.347585" y="281.6135" style="fill: #2ac3de; stroke: #2ac3de"/>
     <use xlink:href="#mad72228107" x="389.256676" y="254.7335" style="fill: #2ac3de; stroke: #2ac3de"/>
     <use xlink:href="#mad72228107" x="406.165767" y="225.1655" style="fill: #2ac3de; stroke: #2ac3de"/>
     <use xlink:href="#mad72228107" x="423.074858" y="152.5895" style="fill: #2ac3de; stroke: #2ac3de"/>
     <use xlink:href="#mad72228107" x="439.983949" y="172.7495" style="fill: #2ac3de; stroke: #2ac3de"/>
     <use xlink:href="#mad72228107" x="456.89304" y="94.7975" style="fill: #2ac3de; stroke: #2ac3de"/>
     <use xlink:href="#mad72228107" x="473.802131" y="156.6215" style="fill: #2ac3de; stroke: #2ac3de"/>
     <use xlink:href="#mad72228107" x="490.711222" y="120.3335" style="fill: #2ac3de; stroke: #2ac3de"/>
     <use xlink:href="#mad72228107" x="507.620313" y="178.1255" style="fill: #2ac3de; stroke: #2ac3de"/>
     <use xlink:href="#mad72228107" x="524.529403" y="135.1175" style="fill: #2ac3de; stroke: #2ac3de"/>
     <use xlink:href="#mad72228107" x="541.438494" y="96.1415" style="fill: #2ac3de; stroke: #2ac3de"/>
     <use xlink:href="#mad72228107" x="558.347585" y="120.3335" style="fill: #2ac3de; stroke: #2ac3de"/>
     <use xlink:href="#mad72228107" x="575.256676" y="170.0615" style="fill: #2ac3de; stroke: #2ac3de"/>
    </g>
   </g>
   <g id="line2d_45">
    <path d="M 67.983949 157.9655 
L 84.89304 151.2455 
L 101.802131 226.5095 
L 118.711222 260.1095 
L 135.620313 159.3095 
L 152.529403 94.7975 
L 169.438494 144.5255 
L 186.347585 217.1015 
L 203.256676 117.6455 
L 220.165767 230.5415 
L 237.074858 245.3255 
L 253.983949 274.8935 
L 270.89304 245.3255 
L 287.802131 205.0055 
L 304.711222 215.7575 
L 321.620313 226.5095 
L 338.529403 258.7655 
L 355.438494 266.8295 
L 372.347585 166.0295 
L 389.256676 164.6855 
L 406.165767 230.5415 
L 423.074858 182.1575 
L 439.983949 196.9415 
L 456.89304 140.4935 
L 473.802131 66.5735 
L 490.711222 131.0855 
L 507.620313 104.2055 
L 524.529403 144.5255 
L 541.438494 145.8695 
L 558.347585 102.8615 
L 575.256676 183.5015 
" clip-path="url(#p824b648378)" style="fill: none; stroke: #f7768e; stroke-width: 2; stroke-linecap: square"/>
    <defs>
     <path id="m4bc9b6f7fc" d="M 0 2 
C 0.530406 2 1.03916 1.789267 1.414214 1.414214 
C 1.789267 1.03916 2 0.530406 2 0 
C 2 -0.530406 1.789267 -1.03916 1.414214 -1.414214 
C 1.03916 -1.789267 0.530406 -2 0 -2 
C -0.530406 -2 -1.03916 -1.789267 -1.414214 -1.414214 
C -1.789267 -1.03916 -2 -0.530406 -2 0 
C -2 0.530406 -1.789267 1.03916 -1.414214 1.414214 
C -1.03916 1.789267 -0.530406 2 0 2 
z
" style="stroke: #f7768e"/>
    </defs>
    <g clip-path="url(#p824b648378)">
     <use xlink:href="#m4bc9b6f7fc" x="67.983949" y="157.9655" style="fill: #f7768e; stroke: #f7768e"/>
     <use xlink:href="#m4bc9b6f7fc" x="84.89304" y="151.2455" style="fill: #f7768e; stroke: #f7768e"/>
     <use xlink:href="#m4bc9b6f7fc" x="101.802131" y="226.5095" style="fill: #f7768e; stroke: #f7768e"/>
     <use xlink:href="#m4bc9b6f7fc" x="118.711222" y="260.1095" style="fill: #f7768e; stroke: #f7768e"/>
     <use xlink:href="#m4bc9b6f7fc" x="135.620313" y="159.3095" style="fill: #f7768e; stroke: #f7768e"/>
     <use xlink:href="#m4bc9b6f7fc" x="152.529403" y="94.7975" style="fill: #f7768e; stroke: #f7768e"/>
     <use xlink:href="#m4bc9b6f7fc" x="169.438494" y="144.5255" style="fill: #f7768e; stroke: #f7768e"/>
     <use xlink:href="#m4bc9b6f7fc" x="186.347585" y="217.1015" style="fill: #f7768e; stroke: #f7768e"/>
     <use xlink:href="#m4bc9b6f7fc" x="203.256676" y="117.6455" style="fill: #f7768e; stroke: #f7768e"/>
     <use xlink:href="#m4bc9b6f7fc" x="220.165767" y="230.5415" style="fill: #f7768e; stroke: #f7768e"/>
     <use xlink:href="#m4bc9b6f7fc" x="237.074858" y="245.3255" style="fill: #f7768e; stroke: #f7768e"/>
     <use xlink:href="#m4bc9b6f7fc" x="253.983949" y="274.8935" style="fill: #f7768e; stroke: #f7768e"/>
     <use xlink:href="#m4bc9b6f7fc" x="270.89304" y="245.3255" style="fill: #f7768e; stroke: #f7768e"/>
     <use xlink:href="#m4bc9b6f7fc" x="287.802131" y="205.0055" style="fill: #f7768e; stroke: #f7768e"/>
     <use xlink:href="#m4bc9b6f7fc" x="304.711222" y="215.7575" style="fill: #f7768e; stroke: #f7768e"/>
     <use xlink:href="#m4bc9b6f7fc" x="321.620313" y="226.5095" style="fill: #f7768e; stroke: #f7768e"/>
     <use xlink:href="#m4bc9b6f7fc" x="338.529403" y="258.7655" style="fill: #f7768e; stroke: #f7768e"/>
     <use xlink:href="#m4bc9b6f7fc" x="355.438494" y="266.8295" style="fill: #f7768e; stroke: #f7768e"/>
     <use xlink:href="#m4bc9b6f7fc" x="372.347585" y="166.0295" style="fill: #f7768e; stroke: #f7768e"/>
     <use xlink:href="#m4bc9b6f7fc" x="389.256676" y="164.6855" style="fill: #f7768e; stroke: #f7768e"/>
     <use xlink:href="#m4bc9b6f7fc" x="406.165767" y="230.5415" style="fill: #f7768e; stroke: #f7768e"/>
     <use xlink:href="#m4bc9b6f7fc" x="423.074858" y="182.1575" style="fill: #f7768e; stroke: #f7768e"/>
     <use xlink:href="#m4bc9b6f7fc" x="439.983949" y="196.9415" style="fill: #f7768e; stroke: #f7768e"/>
     <use xlink:href="#m4bc9b6f7fc" x="456.89304" y="140.4935" style="fill: #f7768e; stroke: #f7768e"/>
     <use xlink:href="#m4bc9b6f7fc" x="473.802131" y="66.5735" style="fill: #f7768e; stroke: #f7768e"/>
     <use xlink:href="#m4bc9b6f7fc" x="490.711222" y="131.0855" style="fill: #f7768e; stroke: #f7768e"/>
     <use xlink:href="#m4bc9b6f7fc" x="507.620313" y="104.2055" style="fill: #f7768e; stroke: #f7768e"/>
     <use xlink:href="#m4bc9b6f7fc" x="524.529403" y="144.5255" style="fill: #f7768e; stroke: #f7768e"/>
     <use xlink:href="#m4bc9b6f7fc" x="541.438494" y="145.8695" style="fill: #f7768e; stroke: #f7768e"/>
     <use xlink:href="#m4bc9b6f7fc" x="558.347585" y="102.8615" style="fill: #f7768e; stroke: #f7768e"/>
     <use xlink:href="#m4bc9b6f7fc" x="575.256676" y="183.5015" style="fill: #f7768e; stroke: #f7768e"/>
    </g>
   </g>
   <g id="line2d_46">
    <path d="M 67.983949 245.3255 
L 84.89304 234.5735 
L 101.802131 249.3575 
L 118.711222 257.4215 
L 135.620313 265.4855 
L 152.529403 289.6775 
L 169.438494 276.2375 
L 186.347585 253.3895 
L 203.256676 277.5815 
L 220.165767 311.1815 
L 237.074858 329.9975 
L 253.983949 243.9815 
L 270.89304 191.5655 
L 287.802131 176.7815 
L 304.711222 155.2775 
L 321.620313 88.0775 
L 338.529403 194.2535 
L 355.438494 182.1575 
L 372.347585 187.5335 
L 389.256676 225.1655 
L 406.165767 194.2535 
L 423.074858 270.8615 
L 439.983949 304.4615 
L 456.89304 280.2695 
L 473.802131 274.8935 
L 490.711222 280.2695 
L 507.620313 254.7335 
L 524.529403 266.8295 
L 541.438494 285.6455 
L 558.347585 274.8935 
L 575.256676 278.9255 
" clip-path="url(#p824b648378)" style="fill: none; stroke: #e0af68; stroke-width: 2; stroke-linecap: square"/>
    <defs>
     <path id="m477246b59b" d="M 0 2 
C 0.530406 2 1.03916 1.789267 1.414214 1.414214 
C 1.789267 1.03916 2 0.530406 2 0 
C 2 -0.530406 1.789267 -1.03916 1.414214 -1.414214 
C 1.03916 -1.789267 0.530406 -2 0 -2 
C -0.530406 -2 -1.03916 -1.789267 -1.414214 -1.414214 
C -1.789267 -1.03916 -2 -0.530406 -2 0 
C -2 0.530406 -1.789267 1.03916 -1.414214 1.414214 
C -1.03916 1.789267 -0.530406 2 0 2 
z
" style="stroke: #e0af68"/>
    </defs>
    <g clip-path="url(#p824b648378)">
     <use xlink:href="#m477246b59b" x="67.983949" y="245.3255" style="fill: #e0af68; stroke: #e0af68"/>
     <use xlink:href="#m477246b59b" x="84.89304" y="234.5735" style="fill: #e0af68; stroke: #e0af68"/>
     <use xlink:href="#m477246b59b" x="101.802131" y="249.3575" style="fill: #e0af68; stroke: #e0af68"/>
     <use xlink:href="#m477246b59b" x="118.711222" y="257.4215" style="fill: #e0af68; stroke: #e0af68"/>
     <use xlink:href="#m477246b59b" x="135.620313" y="265.4855" style="fill: #e0af68; stroke: #e0af68"/>
     <use xlink:href="#m477246b59b" x="152.529403" y="289.6775" style="fill: #e0af68; stroke: #e0af68"/>
     <use xlink:href="#m477246b59b" x="169.438494" y="276.2375" style="fill: #e0af68; stroke: #e0af68"/>
     <use xlink:href="#m477246b59b" x="186.347585" y="253.3895" style="fill: #e0af68; stroke: #e0af68"/>
     <use xlink:href="#m477246b59b" x="203.256676" y="277.5815" style="fill: #e0af68; stroke: #e0af68"/>
     <use xlink:href="#m477246b59b" x="220.165767" y="311.1815" style="fill: #e0af68; stroke: #e0af68"/>
     <use xlink:href="#m477246b59b" x="237.074858" y="329.9975" style="fill: #e0af68; stroke: #e0af68"/>
     <use xlink:href="#m477246b59b" x="253.983949" y="243.9815" style="fill: #e0af68; stroke: #e0af68"/>
     <use xlink:href="#m477246b59b" x="270.89304" y="191.5655" style="fill: #e0af68; stroke: #e0af68"/>
     <use xlink:href="#m477246b59b" x="287.802131" y="176.7815" style="fill: #e0af68; stroke: #e0af68"/>
     <use xlink:href="#m477246b59b" x="304.711222" y="155.2775" style="fill: #e0af68; stroke: #e0af68"/>
     <use xlink:href="#m477246b59b" x="321.620313" y="88.0775" style="fill: #e0af68; stroke: #e0af68"/>
     <use xlink:href="#m477246b59b" x="338.529403" y="194.2535" style="fill: #e0af68; stroke: #e0af68"/>
     <use xlink:href="#m477246b59b" x="355.438494" y="182.1575" style="fill: #e0af68; stroke: #e0af68"/>
     <use xlink:href="#m477246b59b" x="372.347585" y="187.5335" style="fill: #e0af68; stroke: #e0af68"/>
     <use xlink:href="#m477246b59b" x="389.256676" y="225.1655" style="fill: #e0af68; stroke: #e0af68"/>
     <use xlink:href="#m477246b59b" x="406.165767" y="194.2535" style="fill: #e0af68; stroke: #e0af68"/>
     <use xlink:href="#m477246b59b" x="423.074858" y="270.8615" style="fill: #e0af68; stroke: #e0af68"/>
     <use xlink:href="#m477246b59b" x="439.983949" y="304.4615" style="fill: #e0af68; stroke: #e0af68"/>
     <use xlink:href="#m477246b59b" x="456.89304" y="280.2695" style="fill: #e0af68; stroke: #e0af68"/>
     <use xlink:href="#m477246b59b" x="473.802131" y="274.8935" style="fill: #e0af68; stroke: #e0af68"/>
     <use xlink:href="#m477246b59b" x="490.711222" y="280.2695" style="fill: #e0af68; stroke: #e0af68"/>
     <use xlink:href="#m477246b59b" x="507.620313" y="254.7335" style="fill: #e0af68; stroke: #e0af68"/>
     <use xlink:href="#m477246b59b" x="524.529403" y="266.8295" style="fill: #e0af68; stroke: #e0af68"/>
     <use xlink:href="#m477246b59b" x="541.438494" y="285.6455" style="fill: #e0af68; stroke: #e0af68"/>
     <use xlink:href="#m477246b59b" x="558.347585" y="274.8935" style="fill: #e0af68; stroke: #e0af68"/>
     <use xlink:href="#m477246b59b" x="575.256676" y="278.9255" style="fill: #e0af68; stroke: #e0af68"/>
    </g>
   </g>
   <g id="patch_3">
    <path d="M 42.620312 371.9975 
L 42.620312 39.3575 
" style="fill: none; stroke: #a9b1d6; stroke-width: 0.8; stroke-linejoin: miter; stroke-linecap: square"/>
   </g>
   <g id="patch_4">
    <path d="M 600.620312 371.9975 
L 600.620312 39.3575 
" style="fill: none; stroke: #a9b1d6; stroke-width: 0.8; stroke-linejoin: miter; stroke-linecap: square"/>
   </g>
   <g id="patch_5">
    <path d="M 42.620312 371.9975 
L 600.620313 371.9975 
" style="fill: none; stroke: #a9b1d6; stroke-width: 0.8; stroke-linejoin: miter; stroke-linecap: square"/>
   </g>
   <g id="patch_6">
    <path d="M 42.620312 39.3575 
L 600.620313 39.3575 
" style="fill: none; stroke: #a9b1d6; stroke-width: 0.8; stroke-linejoin: miter; stroke-linecap: square"/>
   </g>
   <g id="text_24">
    <!-- Januar - Höchstwerte am Tag -->
    <g style="fill: #a9b1d6" transform="translate(206.231562 19.3575) scale(0.16 -0.16)">
     <defs>
      <path id="DejaVuSans-4a" d="M 628 4666 
L 1259 4666 
L 1259 325 
Q 1259 -519 939 -900 
Q 619 -1281 -91 -1281 
L -331 -1281 
L -331 -750 
L -134 -750 
Q 284 -750 456 -515 
Q 628 -281 628 325 
L 628 4666 
z
" transform="scale(0.015625)"/>
      <path id="DejaVuSans-75" d="M 544 1381 
L 544 3500 
L 1119 3500 
L 1119 1403 
Q 1119 906 1312 657 
Q 1506 409 1894 409 
Q 2359 409 2629 706 
Q 2900 1003 2900 1516 
L 2900 3500 
L 3475 3500 
L 3475 0 
L 2900 0 
L 2900 538 
Q 2691 219 2414 64 
Q 2138 -91 1772 -91 
Q 1169 -91 856 284 
Q 544 659 544 1381 
z
M 1991 3584 
L 1991 3584 
z
" transform="scale(0.015625)"/>
      <path id="DejaVuSans-72" d="M 2631 2963 
Q 2534 3019 2420 3045 
Q 2306 3072 2169 3072 
Q 1681 3072 1420 2755 
Q 1159 2438 1159 1844 
L 1159 0 
L 581 0 
L 581 3500 
L 1159 3500 
L 1159 2956 
Q 1341 3275 1631 3429 
Q 1922 3584 2338 3584 
Q 2397 3584 2469 3576 
Q 2541 3569 2628 3553 
L 2631 2963 
z
" transform="scale(0.015625)"/>
      <path id="DejaVuSans-2d" d="M 313 2009 
L 1997 2009 
L 1997 1497 
L 313 1497 
L 313 2009 
z
" transform="scale(0.015625)"/>
      <path id="DejaVuSans-48" d="M 628 4666 
L 1259 4666 
L 1259 2753 
L 3553 2753 
L 3553 4666 
L 4184 4666 
L 4184 0 
L 3553 0 
L 3553 2222 
L 1259 2222 
L 1259 0 
L 628 0 
L 628 4666 
z
" transform="scale(0.015625)"/>
      <path id="DejaVuSans-f6" d="M 1959 3097 
Q 1497 3097 1228 2736 
Q 959 2375 959 1747 
Q 959 1119 1226 758 
Q 1494 397 1959 397 
Q 2419 397 2687 759 
Q 2956 1122 2956 1747 
Q 2956 2369 2687 2733 
Q 2419 3097 1959 3097 
z
M 1959 3584 
Q 2709 3584 3137 3096 
Q 3566 2609 3566 1747 
Q 3566 888 3137 398 
Q 2709 -91 1959 -91 
Q 1206 -91 779 398 
Q 353 888 353 1747 
Q 353 2609 779 3096 
Q 1206 3584 1959 3584 
z
M 2254 4850 
L 2888 4850 
L 2888 4219 
L 2254 4219 
L 2254 4850 
z
M 1032 4850 
L 1666 4850 
L 1666 4219 
L 1032 4219 
L 1032 4850 
z
" transform="scale(0.015625)"/>
      <path id="DejaVuSans-63" d="M 3122 3366 
L 3122 2828 
Q 2878 2963 2633 3030 
Q 2388 3097 2138 3097 
Q 1578 3097 1268 2742 
Q 959 2388 959 1747 
Q 959 1106 1268 751 
Q 1578 397 2138 397 
Q 2388 397 2633 464 
Q 2878 531 3122 666 
L 3122 134 
Q 2881 22 2623 -34 
Q 2366 -91 2075 -91 
Q 1284 -91 818 406 
Q 353 903 353 1747 
Q 353 2603 823 3093 
Q 1294 3584 2113 3584 
Q 2378 3584 2631 3529 
Q 2884 3475 3122 3366 
z
" transform="scale(0.015625)"/>
      <path id="DejaVuSans-68" d="M 3513 2113 
L 3513 0 
L 2938 0 
L 2938 2094 
Q 2938 2591 2744 2837 
Q 2550 3084 2163 3084 
Q 1697 3084 1428 2787 
Q 1159 2491 1159 1978 
L 1159 0 
L 581 0 
L 581 4863 
L 1159 4863 
L 1159 2956 
Q 1366 3272 1645 3428 
Q 1925 3584 2291 3584 
Q 2894 3584 3203 3211 
Q 3513 2838 3513 2113 
z
" transform="scale(0.015625)"/>
      <path id="DejaVuSans-77" d="M 269 3500 
L 844 3500 
L 1563 769 
L 2278 3500 
L 2956 3500 
L 3675 769 
L 4391 3500 
L 4966 3500 
L 4050 0 
L 3372 0 
L 2619 2869 
L 1863 0 
L 1184 0 
L 269 3500 
z
" transform="scale(0.015625)"/>
      <path id="DejaVuSans-6d" d="M 3328 2828 
Q 3544 3216 3844 3400 
Q 4144 3584 4550 3584 
Q 5097 3584 5394 3201 
Q 5691 2819 5691 2113 
L 5691 0 
L 5113 0 
L 5113 2094 
Q 5113 2597 4934 2840 
Q 4756 3084 4391 3084 
Q 3944 3084 3684 2787 
Q 3425 2491 3425 1978 
L 3425 0 
L 2847 0 
L 2847 2094 
Q 2847 2600 2669 2842 
Q 2491 3084 2119 3084 
Q 1678 3084 1418 2786 
Q 1159 2488 1159 1978 
L 1159 0 
L 581 0 
L 581 3500 
L 1159 3500 
L 1159 2956 
Q 1356 3278 1631 3431 
Q 1906 3584 2284 3584 
Q 2666 3584 2933 3390 
Q 3200 3197 3328 2828 
z
" transform="scale(0.015625)"/>
     </defs>
     <use xlink:href="#DejaVuSans-4a"/>
     <use xlink:href="#DejaVuSans-61" transform="translate(29.492188 0)"/>
     <use xlink:href="#DejaVuSans-6e" transform="translate(90.771484 0)"/>
     <use xlink:href="#DejaVuSans-75" transform="translate(154.150391 0)"/>
     <use xlink:href="#DejaVuSans-61" transform="translate(217.529297 0)"/>
     <use xlink:href="#DejaVuSans-72" transform="translate(278.808594 0)"/>
     <use xlink:href="#DejaVuSans-20" transform="translate(319.921875 0)"/>
     <use xlink:href="#DejaVuSans-2d" transform="translate(351.708984 0)"/>
     <use xlink:href="#DejaVuSans-20" transform="translate(387.792969 0)"/>
     <use xlink:href="#DejaVuSans-48" transform="translate(419.580078 0)"/>
     <use xlink:href="#DejaVuSans-f6" transform="translate(494.775391 0)"/>
     <use xlink:href="#DejaVuSans-63" transform="translate(555.957031 0)"/>
     <use xlink:href="#DejaVuSans-68" transform="translate(610.9375 0)"/>
     <use xlink:href="#DejaVuSans-73" transform="translate(674.316406 0)"/>
     <use xlink:href="#DejaVuSans-74" transform="translate(726.416016 0)"/>
     <use xlink:href="#DejaVuSans-77" transform="translate(765.625 0)"/>
     <use xlink:href="#DejaVuSans-65" transform="translate(847.412109 0)"/>
     <use xlink:href="#DejaVuSans-72" transform="translate(908.935547 0)"/>
     <use xlink:href="#DejaVuSans-74" transform="translate(950.048828 0)"/>
     <use xlink:href="#DejaVuSans-65" transform="translate(989.257812 0)"/>
     <use xlink:href="#DejaVuSans-20" transform="translate(1050.78125 0)"/>
     <use xlink:href="#DejaVuSans-61" transform="translate(1082.568359 0)"/>
     <use xlink:href="#DejaVuSans-6d" transform="translate(1143.847656 0)"/>
     <use xlink:href="#DejaVuSans-20" transform="translate(1241.259766 0)"/>
     <use xlink:href="#DejaVuSans-54" transform="translate(1273.046875 0)"/>
     <use xlink:href="#DejaVuSans-61" transform="translate(1317.630859 0)"/>
     <use xlink:href="#DejaVuSans-67" transform="translate(1378.910156 0)"/>
    </g>
   </g>
   <g id="legend_1">
    <g id="patch_7">
     <path d="M 49.620312 366.9975 
L 107.070312 366.9975 
Q 109.070312 366.9975 109.070312 364.9975 
L 109.070312 292.606875 
Q 109.070312 290.606875 107.070312 290.606875 
L 49.620312 290.606875 
Q 47.620312 290.606875 47.620312 292.606875 
L 47.620312 364.9975 
Q 47.620312 366.9975 49.620312 366.9975 
z
" style="fill: #1a1b26; opacity: 0.8; stroke: #a9b1d6; stroke-linejoin: miter"/>
    </g>
    <g id="text_25">
     <!-- Jahr -->
     <g style="fill: #a9b1d6" transform="translate(68.582031 302.205312) scale(0.1 -0.1)">
      <use xlink:href="#DejaVuSans-4a"/>
      <use xlink:href="#DejaVuSans-61" transform="translate(29.492188 0)"/>
      <use xlink:href="#DejaVuSans-68" transform="translate(90.771484 0)"/>
      <use xlink:href="#DejaVuSans-72" transform="translate(154.150391 0)"/>
     </g>
    </g>
    <g id="line2d_47">
     <path d="M 51.620312 313.383438 
L 61.620312 313.383438 
L 71.620312 313.383438 
" style="fill: none; stroke: #9ece6a; stroke-width: 2; stroke-linecap: square"/>
     <g>
      <use xlink:href="#m7fb3941b0d" x="61.620312" y="313.383438" style="fill: #9ece6a; stroke: #9ece6a"/>
     </g>
    </g>
    <g id="text_26">
     <!-- 2023 -->
     <g style="fill: #a9b1d6" transform="translate(79.620312 316.883438) scale(0.1 -0.1)">
      <use xlink:href="#DejaVuSans-32"/>
      <use xlink:href="#DejaVuSans-30" transform="translate(63.623047 0)"/>
      <use xlink:href="#DejaVuSans-32" transform="translate(127.246094 0)"/>
      <use xlink:href="#DejaVuSans-33" transform="translate(190.869141 0)"/>
     </g>
    </g>
    <g id="line2d_48">
     <path d="M 51.620312 328.061562 
L 61.620312 328.061562 
L 71.620312 328.061562 
" style="fill: none; stroke: #2ac3de; stroke-width: 2; stroke-linecap: square"/>
     <g>
      <use xlink:href="#mad72228107" x="61.620312" y="328.061562" style="fill: #2ac3de; stroke: #2ac3de"/>
     </g>
    </g>
    <g id="text_27">
     <!-- 2024 -->
     <g style="fill: #a9b1d6" transform="translate(79.620312 331.561562) scale(0.1 -0.1)">
      <defs>
       <path id="DejaVuSans-34" d="M 2419 4116 
L 825 1625 
L 2419 1625 
L 2419 4116 
z
M 2253 4666 
L 3047 4666 
L 3047 1625 
L 3713 1625 
L 3713 1100 
L 3047 1100 
L 3047 0 
L 2419 0 
L 2419 1100 
L 313 1100 
L 313 1709 
L 2253 4666 
z
" transform="scale(0.015625)"/>
      </defs>
      <use xlink:href="#DejaVuSans-32"/>
      <use xlink:href="#DejaVuSans-30" transform="translate(63.623047 0)"/>
      <use xlink:href="#DejaVuSans-32" transform="translate(127.246094 0)"/>
      <use xlink:href="#DejaVuSans-34" transform="translate(190.869141 0)"/>
     </g>
    </g>
    <g id="line2d_49">
     <path d="M 51.620312 342.739688 
L 61.620312 342.739688 
L 71.620312 342.739688 
" style="fill: none; stroke: #f7768e; stroke-width: 2; stroke-linecap: square"/>
     <g>
      <use xlink:href="#m4bc9b6f7fc" x="61.620312" y="342.739688" style="fill: #f7768e; stroke: #f7768e"/>
     </g>
    </g>
    <g id="text_28">
     <!-- 2025 -->
     <g style="fill: #a9b1d6" transform="translate(79.620312 346.239688) scale(0.1 -0.1)">
      <use xlink:href="#DejaVuSans-32"/>
      <use xlink:href="#DejaVuSans-30" transform="translate(63.623047 0)"/>
      <use xlink:href="#DejaVuSans-32" transform="translate(127.246094 0)"/>
      <use xlink:href="#DejaVuSans-35" transform="translate(190.869141 0)"/>
     </g>
    </g>
    <g id="line2d_50">
     <path d="M 51.620312 357.417812 
L 61.620312 357.417812 
L 71.620312 357.417812 
" style="fill: none; stroke: #e0af68; stroke-width: 2; stroke-linecap: square"/>
     <g>
      <use xlink:href="#m477246b59b" x="61.620312" y="357.417812" style="fill: #e0af68; stroke: #e0af68"/>
     </g>
    </g>
    <g id="text_29">
     <!-- 2026 -->
     <g style="fill: #a9b1d6" transform="translate(79.620312 360.917812) scale(0.1 -0.1)">
      <defs>
       <path id="DejaVuSans-36" d="M 2113 2584 
Q 1688 2584 1439 2293 
Q 1191 2003 1191 1497 
Q 1191 994 1439 701 
Q 1688 409 2113 409 
Q 2538 409 2786 701 
Q 3034 994 3034 1497 
Q 3034 2003 2786 2293 
Q 2538 2584 2113 2584 
z
M 3366 4563 
L 3366 3988 
Q 3128 4100 2886 4159 
Q 2644 4219 2406 4219 
Q 1781 4219 1451 3797 
Q 1122 3375 1075 2522 
Q 1259 2794 1537 2939 
Q 1816 3084 2150 3084 
Q 2853 3084 3261 2657 
Q 3669 2231 3669 1497 
Q 3669 778 3244 343 
Q 2819 -91 2113 -91 
Q 1303 -91 875 529 
Q 447 1150 447 2328 
Q 447 3434 972 4092 
Q 1497 4750 2381 4750 
Q 2619 4750 2861 4703 
Q 3103 4656 3366 4563 
z
" transform="scale(0.015625)"/>
      </defs>
      <use xlink:href="#DejaVuSans-32"/>
      <use xlink:href="#DejaVuSans-30" transform="translate(63.623047 0)"/>
      <use xlink:href="#DejaVuSans-32" transform="translate(127.246094 0)"/>
      <use xlink:href="#DejaVuSans-36" transform="translate(190.869141 0)"/>
     </g>
    </g>
   </g>
  </g>
 </g>
 <defs>
  <clipPath id="p824b648378">
   <rect x="42.620312" y="39.3575" width="558" height="332.64"/>
  </clipPath>
 </defs>
</svg>
