<?xml version="1.0" encoding="utf-8" standalone="no"?>
<!DOCTYPE svg PUBLIC "-//W3C//DTD SVG 1.1//EN"
  "http://www.w3.org/Graphics/SVG/1.1/DTD/svg11.dtd">
<svg xmlns:xlink="http://www.w3.org/1999/xlink" width="605.803125pt" height="409.55375pt" viewBox="0 0 605.803125 409.55375" xmlns="http://www.w3.org/2000/svg" version="1.1">
 <metadata>
  <rdf:RDF xmlns:dc="http://purl.org/dc/elements/1.1/" xmlns:cc="http://creativecommons.org/ns#" xmlns:rdf="http://www.w3.org/1999/02/22-rdf-syntax-ns#">
   <cc:Work>
    <dc:type rdf:resource="http://purl.org/dc/dcmitype/StillImage"/>
    <dc:date>2026-04-26T14:39:02.578693</dc:date>
    <dc:format>image/svg+xml</dc:format>
    <dc:creator>
     <cc:Agent>
      <dc:title>Matplotlib v3.10.8, https://matplotlib.org/</dc:title>
     </cc:Agent>
    </dc:creator>
   </cc:Work>
  </rdf:RDF>
 </metadata>
 <defs>
  <style type="text/css">*{stroke-linejoin: round; stroke-linecap: butt}</style>
 </defs>
 <g id="figure_1">
  <g id="patch_1">
   <path d="M 0 409.55375 
L 605.803125 409.55375 
L 605.803125 0 
L 0 0 
z
" style="fill: #1a1b26"/>
  </g>
  <g id="axes_1">
   <g id="patch_2">
    <path d="M 40.603125 371.9975 
L 598.603125 371.9975 
L 598.603125 39.3575 
L 40.603125 39.3575 
z
" style="fill: #1a1b26"/>
   </g>
   <g id="matplotlib.axis_1">
    <g id="xtick_1">
     <g id="line2d_1">
      <path d="M 65.966761 371.9975 
L 65.966761 39.3575 
" clip-path="url(#p5b11e04620)" style="fill: none; stroke-dasharray: 2.96,1.28; stroke-dashoffset: 0; stroke: #2f3549; stroke-opacity: 0.5; stroke-width: 0.8"/>
     </g>
     <g id="line2d_2">
      <defs>
       <path id="mb5a7ddf4f8" d="M 0 0 
L 0 3.5 
" style="stroke: #a9b1d6; stroke-width: 0.8"/>
      </defs>
      <g>
       <use xlink:href="#mb5a7ddf4f8" x="65.966761" y="371.9975" style="fill: #a9b1d6; stroke: #a9b1d6; stroke-width: 0.8"/>
      </g>
     </g>
     <g id="text_1">
      <!-- 1 -->
      <g style="fill: #a9b1d6" transform="translate(62.785511 386.595937) scale(0.1 -0.1)">
       <defs>
        <path id="DejaVuSans-31" d="M 794 531 
L 1825 531 
L 1825 4091 
L 703 3866 
L 703 4441 
L 1819 4666 
L 2450 4666 
L 2450 531 
L 3481 531 
L 3481 0 
L 794 0 
L 794 531 
z
" transform="scale(0.015625)"/>
       </defs>
       <use xlink:href="#DejaVuSans-31"/>
      </g>
     </g>
    </g>
    <g id="xtick_2">
     <g id="line2d_3">
      <path d="M 100.951087 371.9975 
L 100.951087 39.3575 
" clip-path="url(#p5b11e04620)" style="fill: none; stroke-dasharray: 2.96,1.28; stroke-dashoffset: 0; stroke: #2f3549; stroke-opacity: 0.5; stroke-width: 0.8"/>
     </g>
     <g id="line2d_4">
      <g>
       <use xlink:href="#mb5a7ddf4f8" x="100.951087" y="371.9975" style="fill: #a9b1d6; stroke: #a9b1d6; stroke-width: 0.8"/>
      </g>
     </g>
     <g id="text_2">
      <!-- 3 -->
      <g style="fill: #a9b1d6" transform="translate(97.769837 386.595937) scale(0.1 -0.1)">
       <defs>
        <path id="DejaVuSans-33" d="M 2597 2516 
Q 3050 2419 3304 2112 
Q 3559 1806 3559 1356 
Q 3559 666 3084 287 
Q 2609 -91 1734 -91 
Q 1441 -91 1130 -33 
Q 819 25 488 141 
L 488 750 
Q 750 597 1062 519 
Q 1375 441 1716 441 
Q 2309 441 2620 675 
Q 2931 909 2931 1356 
Q 2931 1769 2642 2001 
Q 2353 2234 1838 2234 
L 1294 2234 
L 1294 2753 
L 1863 2753 
Q 2328 2753 2575 2939 
Q 2822 3125 2822 3475 
Q 2822 3834 2567 4026 
Q 2313 4219 1838 4219 
Q 1578 4219 1281 4162 
Q 984 4106 628 3988 
L 628 4550 
Q 988 4650 1302 4700 
Q 1616 4750 1894 4750 
Q 2613 4750 3031 4423 
Q 3450 4097 3450 3541 
Q 3450 3153 3228 2886 
Q 3006 2619 2597 2516 
z
" transform="scale(0.015625)"/>
       </defs>
       <use xlink:href="#DejaVuSans-33"/>
      </g>
     </g>
    </g>
    <g id="xtick_3">
     <g id="line2d_5">
      <path d="M 135.935413 371.9975 
L 135.935413 39.3575 
" clip-path="url(#p5b11e04620)" style="fill: none; stroke-dasharray: 2.96,1.28; stroke-dashoffset: 0; stroke: #2f3549; stroke-opacity: 0.5; stroke-width: 0.8"/>
     </g>
     <g id="line2d_6">
      <g>
       <use xlink:href="#mb5a7ddf4f8" x="135.935413" y="371.9975" style="fill: #a9b1d6; stroke: #a9b1d6; stroke-width: 0.8"/>
      </g>
     </g>
     <g id="text_3">
      <!-- 5 -->
      <g style="fill: #a9b1d6" transform="translate(132.754163 386.595937) scale(0.1 -0.1)">
       <defs>
        <path id="DejaVuSans-35" d="M 691 4666 
L 3169 4666 
L 3169 4134 
L 1269 4134 
L 1269 2991 
Q 1406 3038 1543 3061 
Q 1681 3084 1819 3084 
Q 2600 3084 3056 2656 
Q 3513 2228 3513 1497 
Q 3513 744 3044 326 
Q 2575 -91 1722 -91 
Q 1428 -91 1123 -41 
Q 819 9 494 109 
L 494 744 
Q 775 591 1075 516 
Q 1375 441 1709 441 
Q 2250 441 2565 725 
Q 2881 1009 2881 1497 
Q 2881 1984 2565 2268 
Q 2250 2553 1709 2553 
Q 1456 2553 1204 2497 
Q 953 2441 691 2322 
L 691 4666 
z
" transform="scale(0.015625)"/>
       </defs>
       <use xlink:href="#DejaVuSans-35"/>
      </g>
     </g>
    </g>
    <g id="xtick_4">
     <g id="line2d_7">
      <path d="M 170.919739 371.9975 
L 170.919739 39.3575 
" clip-path="url(#p5b11e04620)" style="fill: none; stroke-dasharray: 2.96,1.28; stroke-dashoffset: 0; stroke: #2f3549; stroke-opacity: 0.5; stroke-width: 0.8"/>
     </g>
     <g id="line2d_8">
      <g>
       <use xlink:href="#mb5a7ddf4f8" x="170.919739" y="371.9975" style="fill: #a9b1d6; stroke: #a9b1d6; stroke-width: 0.8"/>
      </g>
     </g>
     <g id="text_4">
      <!-- 7 -->
      <g style="fill: #a9b1d6" transform="translate(167.738489 386.595937) scale(0.1 -0.1)">
       <defs>
        <path id="DejaVuSans-37" d="M 525 4666 
L 3525 4666 
L 3525 4397 
L 1831 0 
L 1172 0 
L 2766 4134 
L 525 4134 
L 525 4666 
z
" transform="scale(0.015625)"/>
       </defs>
       <use xlink:href="#DejaVuSans-37"/>
      </g>
     </g>
    </g>
    <g id="xtick_5">
     <g id="line2d_9">
      <path d="M 205.904065 371.9975 
L 205.904065 39.3575 
" clip-path="url(#p5b11e04620)" style="fill: none; stroke-dasharray: 2.96,1.28; stroke-dashoffset: 0; stroke: #2f3549; stroke-opacity: 0.5; stroke-width: 0.8"/>
     </g>
     <g id="line2d_10">
      <g>
       <use xlink:href="#mb5a7ddf4f8" x="205.904065" y="371.9975" style="fill: #a9b1d6; stroke: #a9b1d6; stroke-width: 0.8"/>
      </g>
     </g>
     <g id="text_5">
      <!-- 9 -->
      <g style="fill: #a9b1d6" transform="translate(202.722815 386.595937) scale(0.1 -0.1)">
       <defs>
        <path id="DejaVuSans-39" d="M 703 97 
L 703 672 
Q 941 559 1184 500 
Q 1428 441 1663 441 
Q 2288 441 2617 861 
Q 2947 1281 2994 2138 
Q 2813 1869 2534 1725 
Q 2256 1581 1919 1581 
Q 1219 1581 811 2004 
Q 403 2428 403 3163 
Q 403 3881 828 4315 
Q 1253 4750 1959 4750 
Q 2769 4750 3195 4129 
Q 3622 3509 3622 2328 
Q 3622 1225 3098 567 
Q 2575 -91 1691 -91 
Q 1453 -91 1209 -44 
Q 966 3 703 97 
z
M 1959 2075 
Q 2384 2075 2632 2365 
Q 2881 2656 2881 3163 
Q 2881 3666 2632 3958 
Q 2384 4250 1959 4250 
Q 1534 4250 1286 3958 
Q 1038 3666 1038 3163 
Q 1038 2656 1286 2365 
Q 1534 2075 1959 2075 
z
" transform="scale(0.015625)"/>
       </defs>
       <use xlink:href="#DejaVuSans-39"/>
      </g>
     </g>
    </g>
    <g id="xtick_6">
     <g id="line2d_11">
      <path d="M 240.888391 371.9975 
L 240.888391 39.3575 
" clip-path="url(#p5b11e04620)" style="fill: none; stroke-dasharray: 2.96,1.28; stroke-dashoffset: 0; stroke: #2f3549; stroke-opacity: 0.5; stroke-width: 0.8"/>
     </g>
     <g id="line2d_12">
      <g>
       <use xlink:href="#mb5a7ddf4f8" x="240.888391" y="371.9975" style="fill: #a9b1d6; stroke: #a9b1d6; stroke-width: 0.8"/>
      </g>
     </g>
     <g id="text_6">
      <!-- 11 -->
      <g style="fill: #a9b1d6" transform="translate(234.525891 386.595937) scale(0.1 -0.1)">
       <use xlink:href="#DejaVuSans-31"/>
       <use xlink:href="#DejaVuSans-31" transform="translate(63.623047 0)"/>
      </g>
     </g>
    </g>
    <g id="xtick_7">
     <g id="line2d_13">
      <path d="M 275.872717 371.9975 
L 275.872717 39.3575 
" clip-path="url(#p5b11e04620)" style="fill: none; stroke-dasharray: 2.96,1.28; stroke-dashoffset: 0; stroke: #2f3549; stroke-opacity: 0.5; stroke-width: 0.8"/>
     </g>
     <g id="line2d_14">
      <g>
       <use xlink:href="#mb5a7ddf4f8" x="275.872717" y="371.9975" style="fill: #a9b1d6; stroke: #a9b1d6; stroke-width: 0.8"/>
      </g>
     </g>
     <g id="text_7">
      <!-- 13 -->
      <g style="fill: #a9b1d6" transform="translate(269.510217 386.595937) scale(0.1 -0.1)">
       <use xlink:href="#DejaVuSans-31"/>
       <use xlink:href="#DejaVuSans-33" transform="translate(63.623047 0)"/>
      </g>
     </g>
    </g>
    <g id="xtick_8">
     <g id="line2d_15">
      <path d="M 310.857043 371.9975 
L 310.857043 39.3575 
" clip-path="url(#p5b11e04620)" style="fill: none; stroke-dasharray: 2.96,1.28; stroke-dashoffset: 0; stroke: #2f3549; stroke-opacity: 0.5; stroke-width: 0.8"/>
     </g>
     <g id="line2d_16">
      <g>
       <use xlink:href="#mb5a7ddf4f8" x="310.857043" y="371.9975" style="fill: #a9b1d6; stroke: #a9b1d6; stroke-width: 0.8"/>
      </g>
     </g>
     <g id="text_8">
      <!-- 15 -->
      <g style="fill: #a9b1d6" transform="translate(304.494543 386.595937) scale(0.1 -0.1)">
       <use xlink:href="#DejaVuSans-31"/>
       <use xlink:href="#DejaVuSans-35" transform="translate(63.623047 0)"/>
      </g>
     </g>
    </g>
    <g id="xtick_9">
     <g id="line2d_17">
      <path d="M 345.84137 371.9975 
L 345.84137 39.3575 
" clip-path="url(#p5b11e04620)" style="fill: none; stroke-dasharray: 2.96,1.28; stroke-dashoffset: 0; stroke: #2f3549; stroke-opacity: 0.5; stroke-width: 0.8"/>
     </g>
     <g id="line2d_18">
      <g>
       <use xlink:href="#mb5a7ddf4f8" x="345.84137" y="371.9975" style="fill: #a9b1d6; stroke: #a9b1d6; stroke-width: 0.8"/>
      </g>
     </g>
     <g id="text_9">
      <!-- 17 -->
      <g style="fill: #a9b1d6" transform="translate(339.47887 386.595937) scale(0.1 -0.1)">
       <use xlink:href="#DejaVuSans-31"/>
       <use xlink:href="#DejaVuSans-37" transform="translate(63.623047 0)"/>
      </g>
     </g>
    </g>
    <g id="xtick_10">
     <g id="line2d_19">
      <path d="M 380.825696 371.9975 
L 380.825696 39.3575 
" clip-path="url(#p5b11e04620)" style="fill: none; stroke-dasharray: 2.96,1.28; stroke-dashoffset: 0; stroke: #2f3549; stroke-opacity: 0.5; stroke-width: 0.8"/>
     </g>
     <g id="line2d_20">
      <g>
       <use xlink:href="#mb5a7ddf4f8" x="380.825696" y="371.9975" style="fill: #a9b1d6; stroke: #a9b1d6; stroke-width: 0.8"/>
      </g>
     </g>
     <g id="text_10">
      <!-- 19 -->
      <g style="fill: #a9b1d6" transform="translate(374.463196 386.595937) scale(0.1 -0.1)">
       <use xlink:href="#DejaVuSans-31"/>
       <use xlink:href="#DejaVuSans-39" transform="translate(63.623047 0)"/>
      </g>
     </g>
    </g>
    <g id="xtick_11">
     <g id="line2d_21">
      <path d="M 415.810022 371.9975 
L 415.810022 39.3575 
" clip-path="url(#p5b11e04620)" style="fill: none; stroke-dasharray: 2.96,1.28; stroke-dashoffset: 0; stroke: #2f3549; stroke-opacity: 0.5; stroke-width: 0.8"/>
     </g>
     <g id="line2d_22">
      <g>
       <use xlink:href="#mb5a7ddf4f8" x="415.810022" y="371.9975" style="fill: #a9b1d6; stroke: #a9b1d6; stroke-width: 0.8"/>
      </g>
     </g>
     <g id="text_11">
      <!-- 21 -->
      <g style="fill: #a9b1d6" transform="translate(409.447522 386.595937) scale(0.1 -0.1)">
       <defs>
        <path id="DejaVuSans-32" d="M 1228 531 
L 3431 531 
L 3431 0 
L 469 0 
L 469 531 
Q 828 903 1448 1529 
Q 2069 2156 2228 2338 
Q 2531 2678 2651 2914 
Q 2772 3150 2772 3378 
Q 2772 3750 2511 3984 
Q 2250 4219 1831 4219 
Q 1534 4219 1204 4116 
Q 875 4013 500 3803 
L 500 4441 
Q 881 4594 1212 4672 
Q 1544 4750 1819 4750 
Q 2544 4750 2975 4387 
Q 3406 4025 3406 3419 
Q 3406 3131 3298 2873 
Q 3191 2616 2906 2266 
Q 2828 2175 2409 1742 
Q 1991 1309 1228 531 
z
" transform="scale(0.015625)"/>
       </defs>
       <use xlink:href="#DejaVuSans-32"/>
       <use xlink:href="#DejaVuSans-31" transform="translate(63.623047 0)"/>
      </g>
     </g>
    </g>
    <g id="xtick_12">
     <g id="line2d_23">
      <path d="M 450.794348 371.9975 
L 450.794348 39.3575 
" clip-path="url(#p5b11e04620)" style="fill: none; stroke-dasharray: 2.96,1.28; stroke-dashoffset: 0; stroke: #2f3549; stroke-opacity: 0.5; stroke-width: 0.8"/>
     </g>
     <g id="line2d_24">
      <g>
       <use xlink:href="#mb5a7ddf4f8" x="450.794348" y="371.9975" style="fill: #a9b1d6; stroke: #a9b1d6; stroke-width: 0.8"/>
      </g>
     </g>
     <g id="text_12">
      <!-- 23 -->
      <g style="fill: #a9b1d6" transform="translate(444.431848 386.595937) scale(0.1 -0.1)">
       <use xlink:href="#DejaVuSans-32"/>
       <use xlink:href="#DejaVuSans-33" transform="translate(63.623047 0)"/>
      </g>
     </g>
    </g>
    <g id="xtick_13">
     <g id="line2d_25">
      <path d="M 485.778674 371.9975 
L 485.778674 39.3575 
" clip-path="url(#p5b11e04620)" style="fill: none; stroke-dasharray: 2.96,1.28; stroke-dashoffset: 0; stroke: #2f3549; stroke-opacity: 0.5; stroke-width: 0.8"/>
     </g>
     <g id="line2d_26">
      <g>
       <use xlink:href="#mb5a7ddf4f8" x="485.778674" y="371.9975" style="fill: #a9b1d6; stroke: #a9b1d6; stroke-width: 0.8"/>
      </g>
     </g>
     <g id="text_13">
      <!-- 25 -->
      <g style="fill: #a9b1d6" transform="translate(479.416174 386.595937) scale(0.1 -0.1)">
       <use xlink:href="#DejaVuSans-32"/>
       <use xlink:href="#DejaVuSans-35" transform="translate(63.623047 0)"/>
      </g>
     </g>
    </g>
    <g id="xtick_14">
     <g id="line2d_27">
      <path d="M 520.763 371.9975 
L 520.763 39.3575 
" clip-path="url(#p5b11e04620)" style="fill: none; stroke-dasharray: 2.96,1.28; stroke-dashoffset: 0; stroke: #2f3549; stroke-opacity: 0.5; stroke-width: 0.8"/>
     </g>
     <g id="line2d_28">
      <g>
       <use xlink:href="#mb5a7ddf4f8" x="520.763" y="371.9975" style="fill: #a9b1d6; stroke: #a9b1d6; stroke-width: 0.8"/>
      </g>
     </g>
     <g id="text_14">
      <!-- 27 -->
      <g style="fill: #a9b1d6" transform="translate(514.4005 386.595937) scale(0.1 -0.1)">
       <use xlink:href="#DejaVuSans-32"/>
       <use xlink:href="#DejaVuSans-37" transform="translate(63.623047 0)"/>
      </g>
     </g>
    </g>
    <g id="xtick_15">
     <g id="line2d_29">
      <path d="M 555.747326 371.9975 
L 555.747326 39.3575 
" clip-path="url(#p5b11e04620)" style="fill: none; stroke-dasharray: 2.96,1.28; stroke-dashoffset: 0; stroke: #2f3549; stroke-opacity: 0.5; stroke-width: 0.8"/>
     </g>
     <g id="line2d_30">
      <g>
       <use xlink:href="#mb5a7ddf4f8" x="555.747326" y="371.9975" style="fill: #a9b1d6; stroke: #a9b1d6; stroke-width: 0.8"/>
      </g>
     </g>
     <g id="text_15">
      <!-- 29 -->
      <g style="fill: #a9b1d6" transform="translate(549.384826 386.595937) scale(0.1 -0.1)">
       <use xlink:href="#DejaVuSans-32"/>
       <use xlink:href="#DejaVuSans-39" transform="translate(63.623047 0)"/>
      </g>
     </g>
    </g>
    <g id="xtick_16">
     <g id="line2d_31">
      <path d="M 590.731652 371.9975 
L 590.731652 39.3575 
" clip-path="url(#p5b11e04620)" style="fill: none; stroke-dasharray: 2.96,1.28; stroke-dashoffset: 0; stroke: #2f3549; stroke-opacity: 0.5; stroke-width: 0.8"/>
     </g>
     <g id="line2d_32">
      <g>
       <use xlink:href="#mb5a7ddf4f8" x="590.731652" y="371.9975" style="fill: #a9b1d6; stroke: #a9b1d6; stroke-width: 0.8"/>
      </g>
     </g>
     <g id="text_16">
      <!-- 31 -->
      <g style="fill: #a9b1d6" transform="translate(584.369152 386.595937) scale(0.1 -0.1)">
       <use xlink:href="#DejaVuSans-33"/>
       <use xlink:href="#DejaVuSans-31" transform="translate(63.623047 0)"/>
      </g>
     </g>
    </g>
    <g id="text_17">
     <!-- Tag des Monats -->
     <g style="fill: #a9b1d6" transform="translate(280.93125 400.274062) scale(0.1 -0.1)">
      <defs>
       <path id="DejaVuSans-54" d="M -19 4666 
L 3928 4666 
L 3928 4134 
L 2272 4134 
L 2272 0 
L 1638 0 
L 1638 4134 
L -19 4134 
L -19 4666 
z
" transform="scale(0.015625)"/>
       <path id="DejaVuSans-61" d="M 2194 1759 
Q 1497 1759 1228 1600 
Q 959 1441 959 1056 
Q 959 750 1161 570 
Q 1363 391 1709 391 
Q 2188 391 2477 730 
Q 2766 1069 2766 1631 
L 2766 1759 
L 2194 1759 
z
M 3341 1997 
L 3341 0 
L 2766 0 
L 2766 531 
Q 2569 213 2275 61 
Q 1981 -91 1556 -91 
Q 1019 -91 701 211 
Q 384 513 384 1019 
Q 384 1609 779 1909 
Q 1175 2209 1959 2209 
L 2766 2209 
L 2766 2266 
Q 2766 2663 2505 2880 
Q 2244 3097 1772 3097 
Q 1472 3097 1187 3025 
Q 903 2953 641 2809 
L 641 3341 
Q 956 3463 1253 3523 
Q 1550 3584 1831 3584 
Q 2591 3584 2966 3190 
Q 3341 2797 3341 1997 
z
" transform="scale(0.015625)"/>
       <path id="DejaVuSans-67" d="M 2906 1791 
Q 2906 2416 2648 2759 
Q 2391 3103 1925 3103 
Q 1463 3103 1205 2759 
Q 947 2416 947 1791 
Q 947 1169 1205 825 
Q 1463 481 1925 481 
Q 2391 481 2648 825 
Q 2906 1169 2906 1791 
z
M 3481 434 
Q 3481 -459 3084 -895 
Q 2688 -1331 1869 -1331 
Q 1566 -1331 1297 -1286 
Q 1028 -1241 775 -1147 
L 775 -588 
Q 1028 -725 1275 -790 
Q 1522 -856 1778 -856 
Q 2344 -856 2625 -561 
Q 2906 -266 2906 331 
L 2906 616 
Q 2728 306 2450 153 
Q 2172 0 1784 0 
Q 1141 0 747 490 
Q 353 981 353 1791 
Q 353 2603 747 3093 
Q 1141 3584 1784 3584 
Q 2172 3584 2450 3431 
Q 2728 3278 2906 2969 
L 2906 3500 
L 3481 3500 
L 3481 434 
z
" transform="scale(0.015625)"/>
       <path id="DejaVuSans-20" transform="scale(0.015625)"/>
       <path id="DejaVuSans-64" d="M 2906 2969 
L 2906 4863 
L 3481 4863 
L 3481 0 
L 2906 0 
L 2906 525 
Q 2725 213 2448 61 
Q 2172 -91 1784 -91 
Q 1150 -91 751 415 
Q 353 922 353 1747 
Q 353 2572 751 3078 
Q 1150 3584 1784 3584 
Q 2172 3584 2448 3432 
Q 2725 3281 2906 2969 
z
M 947 1747 
Q 947 1113 1208 752 
Q 1469 391 1925 391 
Q 2381 391 2643 752 
Q 2906 1113 2906 1747 
Q 2906 2381 2643 2742 
Q 2381 3103 1925 3103 
Q 1469 3103 1208 2742 
Q 947 2381 947 1747 
z
" transform="scale(0.015625)"/>
       <path id="DejaVuSans-65" d="M 3597 1894 
L 3597 1613 
L 953 1613 
Q 991 1019 1311 708 
Q 1631 397 2203 397 
Q 2534 397 2845 478 
Q 3156 559 3463 722 
L 3463 178 
Q 3153 47 2828 -22 
Q 2503 -91 2169 -91 
Q 1331 -91 842 396 
Q 353 884 353 1716 
Q 353 2575 817 3079 
Q 1281 3584 2069 3584 
Q 2775 3584 3186 3129 
Q 3597 2675 3597 1894 
z
M 3022 2063 
Q 3016 2534 2758 2815 
Q 2500 3097 2075 3097 
Q 1594 3097 1305 2825 
Q 1016 2553 972 2059 
L 3022 2063 
z
" transform="scale(0.015625)"/>
       <path id="DejaVuSans-73" d="M 2834 3397 
L 2834 2853 
Q 2591 2978 2328 3040 
Q 2066 3103 1784 3103 
Q 1356 3103 1142 2972 
Q 928 2841 928 2578 
Q 928 2378 1081 2264 
Q 1234 2150 1697 2047 
L 1894 2003 
Q 2506 1872 2764 1633 
Q 3022 1394 3022 966 
Q 3022 478 2636 193 
Q 2250 -91 1575 -91 
Q 1294 -91 989 -36 
Q 684 19 347 128 
L 347 722 
Q 666 556 975 473 
Q 1284 391 1588 391 
Q 1994 391 2212 530 
Q 2431 669 2431 922 
Q 2431 1156 2273 1281 
Q 2116 1406 1581 1522 
L 1381 1569 
Q 847 1681 609 1914 
Q 372 2147 372 2553 
Q 372 3047 722 3315 
Q 1072 3584 1716 3584 
Q 2034 3584 2315 3537 
Q 2597 3491 2834 3397 
z
" transform="scale(0.015625)"/>
       <path id="DejaVuSans-4d" d="M 628 4666 
L 1569 4666 
L 2759 1491 
L 3956 4666 
L 4897 4666 
L 4897 0 
L 4281 0 
L 4281 4097 
L 3078 897 
L 2444 897 
L 1241 4097 
L 1241 0 
L 628 0 
L 628 4666 
z
" transform="scale(0.015625)"/>
       <path id="DejaVuSans-6f" d="M 1959 3097 
Q 1497 3097 1228 2736 
Q 959 2375 959 1747 
Q 959 1119 1226 758 
Q 1494 397 1959 397 
Q 2419 397 2687 759 
Q 2956 1122 2956 1747 
Q 2956 2369 2687 2733 
Q 2419 3097 1959 3097 
z
M 1959 3584 
Q 2709 3584 3137 3096 
Q 3566 2609 3566 1747 
Q 3566 888 3137 398 
Q 2709 -91 1959 -91 
Q 1206 -91 779 398 
Q 353 888 353 1747 
Q 353 2609 779 3096 
Q 1206 3584 1959 3584 
z
" transform="scale(0.015625)"/>
       <path id="DejaVuSans-6e" d="M 3513 2113 
L 3513 0 
L 2938 0 
L 2938 2094 
Q 2938 2591 2744 2837 
Q 2550 3084 2163 3084 
Q 1697 3084 1428 2787 
Q 1159 2491 1159 1978 
L 1159 0 
L 581 0 
L 581 3500 
L 1159 3500 
L 1159 2956 
Q 1366 3272 1645 3428 
Q 1925 3584 2291 3584 
Q 2894 3584 3203 3211 
Q 3513 2838 3513 2113 
z
" transform="scale(0.015625)"/>
       <path id="DejaVuSans-74" d="M 1172 4494 
L 1172 3500 
L 2356 3500 
L 2356 3053 
L 1172 3053 
L 1172 1153 
Q 1172 725 1289 603 
Q 1406 481 1766 481 
L 2356 481 
L 2356 0 
L 1766 0 
Q 1100 0 847 248 
Q 594 497 594 1153 
L 594 3053 
L 172 3053 
L 172 3500 
L 594 3500 
L 594 4494 
L 1172 4494 
z
" transform="scale(0.015625)"/>
      </defs>
      <use xlink:href="#DejaVuSans-54"/>
      <use xlink:href="#DejaVuSans-61" transform="translate(44.583984 0)"/>
      <use xlink:href="#DejaVuSans-67" transform="translate(105.863281 0)"/>
      <use xlink:href="#DejaVuSans-20" transform="translate(169.339844 0)"/>
      <use xlink:href="#DejaVuSans-64" transform="translate(201.126953 0)"/>
      <use xlink:href="#DejaVuSans-65" transform="translate(264.603516 0)"/>
      <use xlink:href="#DejaVuSans-73" transform="translate(326.126953 0)"/>
      <use xlink:href="#DejaVuSans-20" transform="translate(378.226562 0)"/>
      <use xlink:href="#DejaVuSans-4d" transform="translate(410.013672 0)"/>
      <use xlink:href="#DejaVuSans-6f" transform="translate(496.292969 0)"/>
      <use xlink:href="#DejaVuSans-6e" transform="translate(557.474609 0)"/>
      <use xlink:href="#DejaVuSans-61" transform="translate(620.853516 0)"/>
      <use xlink:href="#DejaVuSans-74" transform="translate(682.132812 0)"/>
      <use xlink:href="#DejaVuSans-73" transform="translate(721.341797 0)"/>
     </g>
    </g>
   </g>
   <g id="matplotlib.axis_2">
    <g id="ytick_1">
     <g id="line2d_33">
      <path d="M 40.603125 360.856447 
L 598.603125 360.856447 
" clip-path="url(#p5b11e04620)" style="fill: none; stroke-dasharray: 2.96,1.28; stroke-dashoffset: 0; stroke: #2f3549; stroke-opacity: 0.5; stroke-width: 0.8"/>
     </g>
     <g id="line2d_34">
      <defs>
       <path id="m9d9650aacf" d="M 0 0 
L -3.5 0 
" style="stroke: #a9b1d6; stroke-width: 0.8"/>
      </defs>
      <g>
       <use xlink:href="#m9d9650aacf" x="40.603125" y="360.856447" style="fill: #a9b1d6; stroke: #a9b1d6; stroke-width: 0.8"/>
      </g>
     </g>
     <g id="text_18">
      <!-- 18 -->
      <g style="fill: #a9b1d6" transform="translate(20.878125 364.655666) scale(0.1 -0.1)">
       <defs>
        <path id="DejaVuSans-38" d="M 2034 2216 
Q 1584 2216 1326 1975 
Q 1069 1734 1069 1313 
Q 1069 891 1326 650 
Q 1584 409 2034 409 
Q 2484 409 2743 651 
Q 3003 894 3003 1313 
Q 3003 1734 2745 1975 
Q 2488 2216 2034 2216 
z
M 1403 2484 
Q 997 2584 770 2862 
Q 544 3141 544 3541 
Q 544 4100 942 4425 
Q 1341 4750 2034 4750 
Q 2731 4750 3128 4425 
Q 3525 4100 3525 3541 
Q 3525 3141 3298 2862 
Q 3072 2584 2669 2484 
Q 3125 2378 3379 2068 
Q 3634 1759 3634 1313 
Q 3634 634 3220 271 
Q 2806 -91 2034 -91 
Q 1263 -91 848 271 
Q 434 634 434 1313 
Q 434 1759 690 2068 
Q 947 2378 1403 2484 
z
M 1172 3481 
Q 1172 3119 1398 2916 
Q 1625 2713 2034 2713 
Q 2441 2713 2670 2916 
Q 2900 3119 2900 3481 
Q 2900 3844 2670 4047 
Q 2441 4250 2034 4250 
Q 1625 4250 1398 4047 
Q 1172 3844 1172 3481 
z
" transform="scale(0.015625)"/>
       </defs>
       <use xlink:href="#DejaVuSans-31"/>
       <use xlink:href="#DejaVuSans-38" transform="translate(63.623047 0)"/>
      </g>
     </g>
    </g>
    <g id="ytick_2">
     <g id="line2d_35">
      <path d="M 40.603125 321.066974 
L 598.603125 321.066974 
" clip-path="url(#p5b11e04620)" style="fill: none; stroke-dasharray: 2.96,1.28; stroke-dashoffset: 0; stroke: #2f3549; stroke-opacity: 0.5; stroke-width: 0.8"/>
     </g>
     <g id="line2d_36">
      <g>
       <use xlink:href="#m9d9650aacf" x="40.603125" y="321.066974" style="fill: #a9b1d6; stroke: #a9b1d6; stroke-width: 0.8"/>
      </g>
     </g>
     <g id="text_19">
      <!-- 20 -->
      <g style="fill: #a9b1d6" transform="translate(20.878125 324.866192) scale(0.1 -0.1)">
       <defs>
        <path id="DejaVuSans-30" d="M 2034 4250 
Q 1547 4250 1301 3770 
Q 1056 3291 1056 2328 
Q 1056 1369 1301 889 
Q 1547 409 2034 409 
Q 2525 409 2770 889 
Q 3016 1369 3016 2328 
Q 3016 3291 2770 3770 
Q 2525 4250 2034 4250 
z
M 2034 4750 
Q 2819 4750 3233 4129 
Q 3647 3509 3647 2328 
Q 3647 1150 3233 529 
Q 2819 -91 2034 -91 
Q 1250 -91 836 529 
Q 422 1150 422 2328 
Q 422 3509 836 4129 
Q 1250 4750 2034 4750 
z
" transform="scale(0.015625)"/>
       </defs>
       <use xlink:href="#DejaVuSans-32"/>
       <use xlink:href="#DejaVuSans-30" transform="translate(63.623047 0)"/>
      </g>
     </g>
    </g>
    <g id="ytick_3">
     <g id="line2d_37">
      <path d="M 40.603125 281.2775 
L 598.603125 281.2775 
" clip-path="url(#p5b11e04620)" style="fill: none; stroke-dasharray: 2.96,1.28; stroke-dashoffset: 0; stroke: #2f3549; stroke-opacity: 0.5; stroke-width: 0.8"/>
     </g>
     <g id="line2d_38">
      <g>
       <use xlink:href="#m9d9650aacf" x="40.603125" y="281.2775" style="fill: #a9b1d6; stroke: #a9b1d6; stroke-width: 0.8"/>
      </g>
     </g>
     <g id="text_20">
      <!-- 22 -->
      <g style="fill: #a9b1d6" transform="translate(20.878125 285.076719) scale(0.1 -0.1)">
       <use xlink:href="#DejaVuSans-32"/>
       <use xlink:href="#DejaVuSans-32" transform="translate(63.623047 0)"/>
      </g>
     </g>
    </g>
    <g id="ytick_4">
     <g id="line2d_39">
      <path d="M 40.603125 241.488026 
L 598.603125 241.488026 
" clip-path="url(#p5b11e04620)" style="fill: none; stroke-dasharray: 2.96,1.28; stroke-dashoffset: 0; stroke: #2f3549; stroke-opacity: 0.5; stroke-width: 0.8"/>
     </g>
     <g id="line2d_40">
      <g>
       <use xlink:href="#m9d9650aacf" x="40.603125" y="241.488026" style="fill: #a9b1d6; stroke: #a9b1d6; stroke-width: 0.8"/>
      </g>
     </g>
     <g id="text_21">
      <!-- 24 -->
      <g style="fill: #a9b1d6" transform="translate(20.878125 245.287245) scale(0.1 -0.1)">
       <defs>
        <path id="DejaVuSans-34" d="M 2419 4116 
L 825 1625 
L 2419 1625 
L 2419 4116 
z
M 2253 4666 
L 3047 4666 
L 3047 1625 
L 3713 1625 
L 3713 1100 
L 3047 1100 
L 3047 0 
L 2419 0 
L 2419 1100 
L 313 1100 
L 313 1709 
L 2253 4666 
z
" transform="scale(0.015625)"/>
       </defs>
       <use xlink:href="#DejaVuSans-32"/>
       <use xlink:href="#DejaVuSans-34" transform="translate(63.623047 0)"/>
      </g>
     </g>
    </g>
    <g id="ytick_5">
     <g id="line2d_41">
      <path d="M 40.603125 201.698553 
L 598.603125 201.698553 
" clip-path="url(#p5b11e04620)" style="fill: none; stroke-dasharray: 2.96,1.28; stroke-dashoffset: 0; stroke: #2f3549; stroke-opacity: 0.5; stroke-width: 0.8"/>
     </g>
     <g id="line2d_42">
      <g>
       <use xlink:href="#m9d9650aacf" x="40.603125" y="201.698553" style="fill: #a9b1d6; stroke: #a9b1d6; stroke-width: 0.8"/>
      </g>
     </g>
     <g id="text_22">
      <!-- 26 -->
      <g style="fill: #a9b1d6" transform="translate(20.878125 205.497771) scale(0.1 -0.1)">
       <defs>
        <path id="DejaVuSans-36" d="M 2113 2584 
Q 1688 2584 1439 2293 
Q 1191 2003 1191 1497 
Q 1191 994 1439 701 
Q 1688 409 2113 409 
Q 2538 409 2786 701 
Q 3034 994 3034 1497 
Q 3034 2003 2786 2293 
Q 2538 2584 2113 2584 
z
M 3366 4563 
L 3366 3988 
Q 3128 4100 2886 4159 
Q 2644 4219 2406 4219 
Q 1781 4219 1451 3797 
Q 1122 3375 1075 2522 
Q 1259 2794 1537 2939 
Q 1816 3084 2150 3084 
Q 2853 3084 3261 2657 
Q 3669 2231 3669 1497 
Q 3669 778 3244 343 
Q 2819 -91 2113 -91 
Q 1303 -91 875 529 
Q 447 1150 447 2328 
Q 447 3434 972 4092 
Q 1497 4750 2381 4750 
Q 2619 4750 2861 4703 
Q 3103 4656 3366 4563 
z
" transform="scale(0.015625)"/>
       </defs>
       <use xlink:href="#DejaVuSans-32"/>
       <use xlink:href="#DejaVuSans-36" transform="translate(63.623047 0)"/>
      </g>
     </g>
    </g>
    <g id="ytick_6">
     <g id="line2d_43">
      <path d="M 40.603125 161.909079 
L 598.603125 161.909079 
" clip-path="url(#p5b11e04620)" style="fill: none; stroke-dasharray: 2.96,1.28; stroke-dashoffset: 0; stroke: #2f3549; stroke-opacity: 0.5; stroke-width: 0.8"/>
     </g>
     <g id="line2d_44">
      <g>
       <use xlink:href="#m9d9650aacf" x="40.603125" y="161.909079" style="fill: #a9b1d6; stroke: #a9b1d6; stroke-width: 0.8"/>
      </g>
     </g>
     <g id="text_23">
      <!-- 28 -->
      <g style="fill: #a9b1d6" transform="translate(20.878125 165.708298) scale(0.1 -0.1)">
       <use xlink:href="#DejaVuSans-32"/>
       <use xlink:href="#DejaVuSans-38" transform="translate(63.623047 0)"/>
      </g>
     </g>
    </g>
    <g id="ytick_7">
     <g id="line2d_45">
      <path d="M 40.603125 122.119605 
L 598.603125 122.119605 
" clip-path="url(#p5b11e04620)" style="fill: none; stroke-dasharray: 2.96,1.28; stroke-dashoffset: 0; stroke: #2f3549; stroke-opacity: 0.5; stroke-width: 0.8"/>
     </g>
     <g id="line2d_46">
      <g>
       <use xlink:href="#m9d9650aacf" x="40.603125" y="122.119605" style="fill: #a9b1d6; stroke: #a9b1d6; stroke-width: 0.8"/>
      </g>
     </g>
     <g id="text_24">
      <!-- 30 -->
      <g style="fill: #a9b1d6" transform="translate(20.878125 125.918824) scale(0.1 -0.1)">
       <use xlink:href="#DejaVuSans-33"/>
       <use xlink:href="#DejaVuSans-30" transform="translate(63.623047 0)"/>
      </g>
     </g>
    </g>
    <g id="ytick_8">
     <g id="line2d_47">
      <path d="M 40.603125 82.330132 
L 598.603125 82.330132 
" clip-path="url(#p5b11e04620)" style="fill: none; stroke-dasharray: 2.96,1.28; stroke-dashoffset: 0; stroke: #2f3549; stroke-opacity: 0.5; stroke-width: 0.8"/>
     </g>
     <g id="line2d_48">
      <g>
       <use xlink:href="#m9d9650aacf" x="40.603125" y="82.330132" style="fill: #a9b1d6; stroke: #a9b1d6; stroke-width: 0.8"/>
      </g>
     </g>
     <g id="text_25">
      <!-- 32 -->
      <g style="fill: #a9b1d6" transform="translate(20.878125 86.12935) scale(0.1 -0.1)">
       <use xlink:href="#DejaVuSans-33"/>
       <use xlink:href="#DejaVuSans-32" transform="translate(63.623047 0)"/>
      </g>
     </g>
    </g>
    <g id="ytick_9">
     <g id="line2d_49">
      <path d="M 40.603125 42.540658 
L 598.603125 42.540658 
" clip-path="url(#p5b11e04620)" style="fill: none; stroke-dasharray: 2.96,1.28; stroke-dashoffset: 0; stroke: #2f3549; stroke-opacity: 0.5; stroke-width: 0.8"/>
     </g>
     <g id="line2d_50">
      <g>
       <use xlink:href="#m9d9650aacf" x="40.603125" y="42.540658" style="fill: #a9b1d6; stroke: #a9b1d6; stroke-width: 0.8"/>
      </g>
     </g>
     <g id="text_26">
      <!-- 34 -->
      <g style="fill: #a9b1d6" transform="translate(20.878125 46.339877) scale(0.1 -0.1)">
       <use xlink:href="#DejaVuSans-33"/>
       <use xlink:href="#DejaVuSans-34" transform="translate(63.623047 0)"/>
      </g>
     </g>
    </g>
    <g id="text_27">
     <!-- °C -->
     <g style="fill: #a9b1d6" transform="translate(14.798437 211.668906) rotate(-90) scale(0.1 -0.1)">
      <defs>
       <path id="DejaVuSans-b0" d="M 1600 4347 
Q 1350 4347 1178 4173 
Q 1006 4000 1006 3750 
Q 1006 3503 1178 3333 
Q 1350 3163 1600 3163 
Q 1850 3163 2022 3333 
Q 2194 3503 2194 3750 
Q 2194 3997 2020 4172 
Q 1847 4347 1600 4347 
z
M 1600 4750 
Q 1800 4750 1984 4673 
Q 2169 4597 2303 4453 
Q 2447 4313 2519 4134 
Q 2591 3956 2591 3750 
Q 2591 3338 2302 3052 
Q 2013 2766 1594 2766 
Q 1172 2766 890 3047 
Q 609 3328 609 3750 
Q 609 4169 896 4459 
Q 1184 4750 1600 4750 
z
" transform="scale(0.015625)"/>
       <path id="DejaVuSans-43" d="M 4122 4306 
L 4122 3641 
Q 3803 3938 3442 4084 
Q 3081 4231 2675 4231 
Q 1875 4231 1450 3742 
Q 1025 3253 1025 2328 
Q 1025 1406 1450 917 
Q 1875 428 2675 428 
Q 3081 428 3442 575 
Q 3803 722 4122 1019 
L 4122 359 
Q 3791 134 3420 21 
Q 3050 -91 2638 -91 
Q 1578 -91 968 557 
Q 359 1206 359 2328 
Q 359 3453 968 4101 
Q 1578 4750 2638 4750 
Q 3056 4750 3426 4639 
Q 3797 4528 4122 4306 
z
" transform="scale(0.015625)"/>
      </defs>
      <use xlink:href="#DejaVuSans-b0"/>
      <use xlink:href="#DejaVuSans-43" transform="translate(50 0)"/>
     </g>
    </g>
   </g>
   <g id="line2d_51">
    <path d="M 65.966761 237.509079 
L 83.458924 323.056447 
L 100.951087 281.2775 
L 118.44325 235.519605 
L 135.935413 187.772237 
L 153.427576 338.972237 
L 170.919739 205.6775 
L 188.411902 185.782763 
L 205.904065 126.098553 
L 223.396228 145.993289 
L 240.888391 169.866974 
L 258.380554 203.688026 
L 275.872717 213.635395 
L 293.36488 265.361711 
L 310.857043 191.751184 
L 328.349207 325.045921 
L 345.84137 201.698553 
L 363.333533 132.066974 
L 380.825696 100.235395 
L 398.317859 106.203816 
L 415.810022 120.130132 
L 433.302185 70.393289 
L 450.794348 283.266974 
L 468.286511 203.688026 
L 485.778674 124.109079 
L 503.270837 84.319605 
L 520.763 253.424868 
L 538.255163 229.551184 
L 555.747326 134.056447 
L 573.239489 205.6775 
" clip-path="url(#p5b11e04620)" style="fill: none; stroke: #9ece6a; stroke-width: 2; stroke-linecap: square"/>
    <defs>
     <path id="m279d1006e8" d="M 0 2 
C 0.530406 2 1.03916 1.789267 1.414214 1.414214 
C 1.789267 1.03916 2 0.530406 2 0 
C 2 -0.530406 1.789267 -1.03916 1.414214 -1.414214 
C 1.03916 -1.789267 0.530406 -2 0 -2 
C -0.530406 -2 -1.03916 -1.789267 -1.414214 -1.414214 
C -1.789267 -1.03916 -2 -0.530406 -2 0 
C -2 0.530406 -1.789267 1.03916 -1.414214 1.414214 
C -1.03916 1.789267 -0.530406 2 0 2 
z
" style="stroke: #9ece6a"/>
    </defs>
    <g clip-path="url(#p5b11e04620)">
     <use xlink:href="#m279d1006e8" x="65.966761" y="237.509079" style="fill: #9ece6a; stroke: #9ece6a"/>
     <use xlink:href="#m279d1006e8" x="83.458924" y="323.056447" style="fill: #9ece6a; stroke: #9ece6a"/>
     <use xlink:href="#m279d1006e8" x="100.951087" y="281.2775" style="fill: #9ece6a; stroke: #9ece6a"/>
     <use xlink:href="#m279d1006e8" x="118.44325" y="235.519605" style="fill: #9ece6a; stroke: #9ece6a"/>
     <use xlink:href="#m279d1006e8" x="135.935413" y="187.772237" style="fill: #9ece6a; stroke: #9ece6a"/>
     <use xlink:href="#m279d1006e8" x="153.427576" y="338.972237" style="fill: #9ece6a; stroke: #9ece6a"/>
     <use xlink:href="#m279d1006e8" x="170.919739" y="205.6775" style="fill: #9ece6a; stroke: #9ece6a"/>
     <use xlink:href="#m279d1006e8" x="188.411902" y="185.782763" style="fill: #9ece6a; stroke: #9ece6a"/>
     <use xlink:href="#m279d1006e8" x="205.904065" y="126.098553" style="fill: #9ece6a; stroke: #9ece6a"/>
     <use xlink:href="#m279d1006e8" x="223.396228" y="145.993289" style="fill: #9ece6a; stroke: #9ece6a"/>
     <use xlink:href="#m279d1006e8" x="240.888391" y="169.866974" style="fill: #9ece6a; stroke: #9ece6a"/>
     <use xlink:href="#m279d1006e8" x="258.380554" y="203.688026" style="fill: #9ece6a; stroke: #9ece6a"/>
     <use xlink:href="#m279d1006e8" x="275.872717" y="213.635395" style="fill: #9ece6a; stroke: #9ece6a"/>
     <use xlink:href="#m279d1006e8" x="293.36488" y="265.361711" style="fill: #9ece6a; stroke: #9ece6a"/>
     <use xlink:href="#m279d1006e8" x="310.857043" y="191.751184" style="fill: #9ece6a; stroke: #9ece6a"/>
     <use xlink:href="#m279d1006e8" x="328.349207" y="325.045921" style="fill: #9ece6a; stroke: #9ece6a"/>
     <use xlink:href="#m279d1006e8" x="345.84137" y="201.698553" style="fill: #9ece6a; stroke: #9ece6a"/>
     <use xlink:href="#m279d1006e8" x="363.333533" y="132.066974" style="fill: #9ece6a; stroke: #9ece6a"/>
     <use xlink:href="#m279d1006e8" x="380.825696" y="100.235395" style="fill: #9ece6a; stroke: #9ece6a"/>
     <use xlink:href="#m279d1006e8" x="398.317859" y="106.203816" style="fill: #9ece6a; stroke: #9ece6a"/>
     <use xlink:href="#m279d1006e8" x="415.810022" y="120.130132" style="fill: #9ece6a; stroke: #9ece6a"/>
     <use xlink:href="#m279d1006e8" x="433.302185" y="70.393289" style="fill: #9ece6a; stroke: #9ece6a"/>
     <use xlink:href="#m279d1006e8" x="450.794348" y="283.266974" style="fill: #9ece6a; stroke: #9ece6a"/>
     <use xlink:href="#m279d1006e8" x="468.286511" y="203.688026" style="fill: #9ece6a; stroke: #9ece6a"/>
     <use xlink:href="#m279d1006e8" x="485.778674" y="124.109079" style="fill: #9ece6a; stroke: #9ece6a"/>
     <use xlink:href="#m279d1006e8" x="503.270837" y="84.319605" style="fill: #9ece6a; stroke: #9ece6a"/>
     <use xlink:href="#m279d1006e8" x="520.763" y="253.424868" style="fill: #9ece6a; stroke: #9ece6a"/>
     <use xlink:href="#m279d1006e8" x="538.255163" y="229.551184" style="fill: #9ece6a; stroke: #9ece6a"/>
     <use xlink:href="#m279d1006e8" x="555.747326" y="134.056447" style="fill: #9ece6a; stroke: #9ece6a"/>
     <use xlink:href="#m279d1006e8" x="573.239489" y="205.6775" style="fill: #9ece6a; stroke: #9ece6a"/>
    </g>
   </g>
   <g id="line2d_52">
    <path d="M 65.966761 207.666974 
L 83.458924 287.245921 
L 100.951087 356.8775 
L 118.44325 251.435395 
L 135.935413 279.288026 
L 153.427576 269.340658 
L 170.919739 273.319605 
L 188.411902 181.803816 
L 205.904065 239.498553 
L 223.396228 251.435395 
L 240.888391 333.003816 
L 258.380554 295.203816 
L 275.872717 301.172237 
L 293.36488 295.203816 
L 310.857043 239.498553 
L 328.349207 209.656447 
L 345.84137 203.688026 
L 363.333533 144.003816 
L 380.825696 336.982763 
L 398.317859 271.330132 
L 415.810022 132.066974 
L 433.302185 215.624868 
L 450.794348 203.688026 
L 468.286511 205.6775 
L 485.778674 187.772237 
L 503.270837 90.288026 
L 520.763 110.182763 
L 538.255163 124.109079 
L 555.747326 96.256447 
L 573.239489 187.772237 
" clip-path="url(#p5b11e04620)" style="fill: none; stroke: #2ac3de; stroke-width: 2; stroke-linecap: square"/>
    <defs>
     <path id="m3d1dfb18df" d="M 0 2 
C 0.530406 2 1.03916 1.789267 1.414214 1.414214 
C 1.789267 1.03916 2 0.530406 2 0 
C 2 -0.530406 1.789267 -1.03916 1.414214 -1.414214 
C 1.03916 -1.789267 0.530406 -2 0 -2 
C -0.530406 -2 -1.03916 -1.789267 -1.414214 -1.414214 
C -1.789267 -1.03916 -2 -0.530406 -2 0 
C -2 0.530406 -1.789267 1.03916 -1.414214 1.414214 
C -1.03916 1.789267 -0.530406 2 0 2 
z
" style="stroke: #2ac3de"/>
    </defs>
    <g clip-path="url(#p5b11e04620)">
     <use xlink:href="#m3d1dfb18df" x="65.966761" y="207.666974" style="fill: #2ac3de; stroke: #2ac3de"/>
     <use xlink:href="#m3d1dfb18df" x="83.458924" y="287.245921" style="fill: #2ac3de; stroke: #2ac3de"/>
     <use xlink:href="#m3d1dfb18df" x="100.951087" y="356.8775" style="fill: #2ac3de; stroke: #2ac3de"/>
     <use xlink:href="#m3d1dfb18df" x="118.44325" y="251.435395" style="fill: #2ac3de; stroke: #2ac3de"/>
     <use xlink:href="#m3d1dfb18df" x="135.935413" y="279.288026" style="fill: #2ac3de; stroke: #2ac3de"/>
     <use xlink:href="#m3d1dfb18df" x="153.427576" y="269.340658" style="fill: #2ac3de; stroke: #2ac3de"/>
     <use xlink:href="#m3d1dfb18df" x="170.919739" y="273.319605" style="fill: #2ac3de; stroke: #2ac3de"/>
     <use xlink:href="#m3d1dfb18df" x="188.411902" y="181.803816" style="fill: #2ac3de; stroke: #2ac3de"/>
     <use xlink:href="#m3d1dfb18df" x="205.904065" y="239.498553" style="fill: #2ac3de; stroke: #2ac3de"/>
     <use xlink:href="#m3d1dfb18df" x="223.396228" y="251.435395" style="fill: #2ac3de; stroke: #2ac3de"/>
     <use xlink:href="#m3d1dfb18df" x="240.888391" y="333.003816" style="fill: #2ac3de; stroke: #2ac3de"/>
     <use xlink:href="#m3d1dfb18df" x="258.380554" y="295.203816" style="fill: #2ac3de; stroke: #2ac3de"/>
     <use xlink:href="#m3d1dfb18df" x="275.872717" y="301.172237" style="fill: #2ac3de; stroke: #2ac3de"/>
     <use xlink:href="#m3d1dfb18df" x="293.36488" y="295.203816" style="fill: #2ac3de; stroke: #2ac3de"/>
     <use xlink:href="#m3d1dfb18df" x="310.857043" y="239.498553" style="fill: #2ac3de; stroke: #2ac3de"/>
     <use xlink:href="#m3d1dfb18df" x="328.349207" y="209.656447" style="fill: #2ac3de; stroke: #2ac3de"/>
     <use xlink:href="#m3d1dfb18df" x="345.84137" y="203.688026" style="fill: #2ac3de; stroke: #2ac3de"/>
     <use xlink:href="#m3d1dfb18df" x="363.333533" y="144.003816" style="fill: #2ac3de; stroke: #2ac3de"/>
     <use xlink:href="#m3d1dfb18df" x="380.825696" y="336.982763" style="fill: #2ac3de; stroke: #2ac3de"/>
     <use xlink:href="#m3d1dfb18df" x="398.317859" y="271.330132" style="fill: #2ac3de; stroke: #2ac3de"/>
     <use xlink:href="#m3d1dfb18df" x="415.810022" y="132.066974" style="fill: #2ac3de; stroke: #2ac3de"/>
     <use xlink:href="#m3d1dfb18df" x="433.302185" y="215.624868" style="fill: #2ac3de; stroke: #2ac3de"/>
     <use xlink:href="#m3d1dfb18df" x="450.794348" y="203.688026" style="fill: #2ac3de; stroke: #2ac3de"/>
     <use xlink:href="#m3d1dfb18df" x="468.286511" y="205.6775" style="fill: #2ac3de; stroke: #2ac3de"/>
     <use xlink:href="#m3d1dfb18df" x="485.778674" y="187.772237" style="fill: #2ac3de; stroke: #2ac3de"/>
     <use xlink:href="#m3d1dfb18df" x="503.270837" y="90.288026" style="fill: #2ac3de; stroke: #2ac3de"/>
     <use xlink:href="#m3d1dfb18df" x="520.763" y="110.182763" style="fill: #2ac3de; stroke: #2ac3de"/>
     <use xlink:href="#m3d1dfb18df" x="538.255163" y="124.109079" style="fill: #2ac3de; stroke: #2ac3de"/>
     <use xlink:href="#m3d1dfb18df" x="555.747326" y="96.256447" style="fill: #2ac3de; stroke: #2ac3de"/>
     <use xlink:href="#m3d1dfb18df" x="573.239489" y="187.772237" style="fill: #2ac3de; stroke: #2ac3de"/>
    </g>
   </g>
   <g id="line2d_53">
    <path d="M 65.966761 177.824868 
L 83.458924 243.4775 
L 100.951087 201.698553 
L 118.44325 247.456447 
L 135.935413 257.403816 
L 153.427576 261.382763 
L 170.919739 239.498553 
L 188.411902 342.951184 
L 205.904065 315.098553 
L 223.396228 299.182763 
L 240.888391 289.235395 
L 258.380554 237.509079 
L 275.872717 199.709079 
L 293.36488 116.151184 
L 310.857043 118.140658 
L 328.349207 253.424868 
L 345.84137 189.761711 
L 363.333533 153.951184 
L 380.825696 251.435395 
L 398.317859 235.519605 
L 415.810022 167.8775 
L 433.302185 74.372237 
L 450.794348 175.835395 
L 468.286511 205.6775 
L 485.778674 114.161711 
L 503.270837 54.4775 
L 520.763 221.593289 
L 538.255163 102.224868 
L 555.747326 94.266974 
L 573.239489 165.888026 
" clip-path="url(#p5b11e04620)" style="fill: none; stroke: #f7768e; stroke-width: 2; stroke-linecap: square"/>
    <defs>
     <path id="m8786c7e13b" d="M 0 2 
C 0.530406 2 1.03916 1.789267 1.414214 1.414214 
C 1.789267 1.03916 2 0.530406 2 0 
C 2 -0.530406 1.789267 -1.03916 1.414214 -1.414214 
C 1.03916 -1.789267 0.530406 -2 0 -2 
C -0.530406 -2 -1.03916 -1.789267 -1.414214 -1.414214 
C -1.789267 -1.03916 -2 -0.530406 -2 0 
C -2 0.530406 -1.789267 1.03916 -1.414214 1.414214 
C -1.03916 1.789267 -0.530406 2 0 2 
z
" style="stroke: #f7768e"/>
    </defs>
    <g clip-path="url(#p5b11e04620)">
     <use xlink:href="#m8786c7e13b" x="65.966761" y="177.824868" style="fill: #f7768e; stroke: #f7768e"/>
     <use xlink:href="#m8786c7e13b" x="83.458924" y="243.4775" style="fill: #f7768e; stroke: #f7768e"/>
     <use xlink:href="#m8786c7e13b" x="100.951087" y="201.698553" style="fill: #f7768e; stroke: #f7768e"/>
     <use xlink:href="#m8786c7e13b" x="118.44325" y="247.456447" style="fill: #f7768e; stroke: #f7768e"/>
     <use xlink:href="#m8786c7e13b" x="135.935413" y="257.403816" style="fill: #f7768e; stroke: #f7768e"/>
     <use xlink:href="#m8786c7e13b" x="153.427576" y="261.382763" style="fill: #f7768e; stroke: #f7768e"/>
     <use xlink:href="#m8786c7e13b" x="170.919739" y="239.498553" style="fill: #f7768e; stroke: #f7768e"/>
     <use xlink:href="#m8786c7e13b" x="188.411902" y="342.951184" style="fill: #f7768e; stroke: #f7768e"/>
     <use xlink:href="#m8786c7e13b" x="205.904065" y="315.098553" style="fill: #f7768e; stroke: #f7768e"/>
     <use xlink:href="#m8786c7e13b" x="223.396228" y="299.182763" style="fill: #f7768e; stroke: #f7768e"/>
     <use xlink:href="#m8786c7e13b" x="240.888391" y="289.235395" style="fill: #f7768e; stroke: #f7768e"/>
     <use xlink:href="#m8786c7e13b" x="258.380554" y="237.509079" style="fill: #f7768e; stroke: #f7768e"/>
     <use xlink:href="#m8786c7e13b" x="275.872717" y="199.709079" style="fill: #f7768e; stroke: #f7768e"/>
     <use xlink:href="#m8786c7e13b" x="293.36488" y="116.151184" style="fill: #f7768e; stroke: #f7768e"/>
     <use xlink:href="#m8786c7e13b" x="310.857043" y="118.140658" style="fill: #f7768e; stroke: #f7768e"/>
     <use xlink:href="#m8786c7e13b" x="328.349207" y="253.424868" style="fill: #f7768e; stroke: #f7768e"/>
     <use xlink:href="#m8786c7e13b" x="345.84137" y="189.761711" style="fill: #f7768e; stroke: #f7768e"/>
     <use xlink:href="#m8786c7e13b" x="363.333533" y="153.951184" style="fill: #f7768e; stroke: #f7768e"/>
     <use xlink:href="#m8786c7e13b" x="380.825696" y="251.435395" style="fill: #f7768e; stroke: #f7768e"/>
     <use xlink:href="#m8786c7e13b" x="398.317859" y="235.519605" style="fill: #f7768e; stroke: #f7768e"/>
     <use xlink:href="#m8786c7e13b" x="415.810022" y="167.8775" style="fill: #f7768e; stroke: #f7768e"/>
     <use xlink:href="#m8786c7e13b" x="433.302185" y="74.372237" style="fill: #f7768e; stroke: #f7768e"/>
     <use xlink:href="#m8786c7e13b" x="450.794348" y="175.835395" style="fill: #f7768e; stroke: #f7768e"/>
     <use xlink:href="#m8786c7e13b" x="468.286511" y="205.6775" style="fill: #f7768e; stroke: #f7768e"/>
     <use xlink:href="#m8786c7e13b" x="485.778674" y="114.161711" style="fill: #f7768e; stroke: #f7768e"/>
     <use xlink:href="#m8786c7e13b" x="503.270837" y="54.4775" style="fill: #f7768e; stroke: #f7768e"/>
     <use xlink:href="#m8786c7e13b" x="520.763" y="221.593289" style="fill: #f7768e; stroke: #f7768e"/>
     <use xlink:href="#m8786c7e13b" x="538.255163" y="102.224868" style="fill: #f7768e; stroke: #f7768e"/>
     <use xlink:href="#m8786c7e13b" x="555.747326" y="94.266974" style="fill: #f7768e; stroke: #f7768e"/>
     <use xlink:href="#m8786c7e13b" x="573.239489" y="165.888026" style="fill: #f7768e; stroke: #f7768e"/>
    </g>
   </g>
   <g id="patch_3">
    <path d="M 40.603125 371.9975 
L 40.603125 39.3575 
" style="fill: none; stroke: #a9b1d6; stroke-width: 0.8; stroke-linejoin: miter; stroke-linecap: square"/>
   </g>
   <g id="patch_4">
    <path d="M 598.603125 371.9975 
L 598.603125 39.3575 
" style="fill: none; stroke: #a9b1d6; stroke-width: 0.8; stroke-linejoin: miter; stroke-linecap: square"/>
   </g>
   <g id="patch_5">
    <path d="M 40.603125 371.9975 
L 598.603125 371.9975 
" style="fill: none; stroke: #a9b1d6; stroke-width: 0.8; stroke-linejoin: miter; stroke-linecap: square"/>
   </g>
   <g id="patch_6">
    <path d="M 40.603125 39.3575 
L 598.603125 39.3575 
" style="fill: none; stroke: #a9b1d6; stroke-width: 0.8; stroke-linejoin: miter; stroke-linecap: square"/>
   </g>
   <g id="text_28">
    <!-- Juni - Höchstwerte am Tag -->
    <g style="fill: #a9b1d6" transform="translate(215.085625 19.3575) scale(0.16 -0.16)">
     <defs>
      <path id="DejaVuSans-4a" d="M 628 4666 
L 1259 4666 
L 1259 325 
Q 1259 -519 939 -900 
Q 619 -1281 -91 -1281 
L -331 -1281 
L -331 -750 
L -134 -750 
Q 284 -750 456 -515 
Q 628 -281 628 325 
L 628 4666 
z
" transform="scale(0.015625)"/>
      <path id="DejaVuSans-75" d="M 544 1381 
L 544 3500 
L 1119 3500 
L 1119 1403 
Q 1119 906 1312 657 
Q 1506 409 1894 409 
Q 2359 409 2629 706 
Q 2900 1003 2900 1516 
L 2900 3500 
L 3475 3500 
L 3475 0 
L 2900 0 
L 2900 538 
Q 2691 219 2414 64 
Q 2138 -91 1772 -91 
Q 1169 -91 856 284 
Q 544 659 544 1381 
z
M 1991 3584 
L 1991 3584 
z
" transform="scale(0.015625)"/>
      <path id="DejaVuSans-69" d="M 603 3500 
L 1178 3500 
L 1178 0 
L 603 0 
L 603 3500 
z
M 603 4863 
L 1178 4863 
L 1178 4134 
L 603 4134 
L 603 4863 
z
" transform="scale(0.015625)"/>
      <path id="DejaVuSans-2d" d="M 313 2009 
L 1997 2009 
L 1997 1497 
L 313 1497 
L 313 2009 
z
" transform="scale(0.015625)"/>
      <path id="DejaVuSans-48" d="M 628 4666 
L 1259 4666 
L 1259 2753 
L 3553 2753 
L 3553 4666 
L 4184 4666 
L 4184 0 
L 3553 0 
L 3553 2222 
L 1259 2222 
L 1259 0 
L 628 0 
L 628 4666 
z
" transform="scale(0.015625)"/>
      <path id="DejaVuSans-f6" d="M 1959 3097 
Q 1497 3097 1228 2736 
Q 959 2375 959 1747 
Q 959 1119 1226 758 
Q 1494 397 1959 397 
Q 2419 397 2687 759 
Q 2956 1122 2956 1747 
Q 2956 2369 2687 2733 
Q 2419 3097 1959 3097 
z
M 1959 3584 
Q 2709 3584 3137 3096 
Q 3566 2609 3566 1747 
Q 3566 888 3137 398 
Q 2709 -91 1959 -91 
Q 1206 -91 779 398 
Q 353 888 353 1747 
Q 353 2609 779 3096 
Q 1206 3584 1959 3584 
z
M 2254 4850 
L 2888 4850 
L 2888 4219 
L 2254 4219 
L 2254 4850 
z
M 1032 4850 
L 1666 4850 
L 1666 4219 
L 1032 4219 
L 1032 4850 
z
" transform="scale(0.015625)"/>
      <path id="DejaVuSans-63" d="M 3122 3366 
L 3122 2828 
Q 2878 2963 2633 3030 
Q 2388 3097 2138 3097 
Q 1578 3097 1268 2742 
Q 959 2388 959 1747 
Q 959 1106 1268 751 
Q 1578 397 2138 397 
Q 2388 397 2633 464 
Q 2878 531 3122 666 
L 3122 134 
Q 2881 22 2623 -34 
Q 2366 -91 2075 -91 
Q 1284 -91 818 406 
Q 353 903 353 1747 
Q 353 2603 823 3093 
Q 1294 3584 2113 3584 
Q 2378 3584 2631 3529 
Q 2884 3475 3122 3366 
z
" transform="scale(0.015625)"/>
      <path id="DejaVuSans-68" d="M 3513 2113 
L 3513 0 
L 2938 0 
L 2938 2094 
Q 2938 2591 2744 2837 
Q 2550 3084 2163 3084 
Q 1697 3084 1428 2787 
Q 1159 2491 1159 1978 
L 1159 0 
L 581 0 
L 581 4863 
L 1159 4863 
L 1159 2956 
Q 1366 3272 1645 3428 
Q 1925 3584 2291 3584 
Q 2894 3584 3203 3211 
Q 3513 2838 3513 2113 
z
" transform="scale(0.015625)"/>
      <path id="DejaVuSans-77" d="M 269 3500 
L 844 3500 
L 1563 769 
L 2278 3500 
L 2956 3500 
L 3675 769 
L 4391 3500 
L 4966 3500 
L 4050 0 
L 3372 0 
L 2619 2869 
L 1863 0 
L 1184 0 
L 269 3500 
z
" transform="scale(0.015625)"/>
      <path id="DejaVuSans-72" d="M 2631 2963 
Q 2534 3019 2420 3045 
Q 2306 3072 2169 3072 
Q 1681 3072 1420 2755 
Q 1159 2438 1159 1844 
L 1159 0 
L 581 0 
L 581 3500 
L 1159 3500 
L 1159 2956 
Q 1341 3275 1631 3429 
Q 1922 3584 2338 3584 
Q 2397 3584 2469 3576 
Q 2541 3569 2628 3553 
L 2631 2963 
z
" transform="scale(0.015625)"/>
      <path id="DejaVuSans-6d" d="M 3328 2828 
Q 3544 3216 3844 3400 
Q 4144 3584 4550 3584 
Q 5097 3584 5394 3201 
Q 5691 2819 5691 2113 
L 5691 0 
L 5113 0 
L 5113 2094 
Q 5113 2597 4934 2840 
Q 4756 3084 4391 3084 
Q 3944 3084 3684 2787 
Q 3425 2491 3425 1978 
L 3425 0 
L 2847 0 
L 2847 2094 
Q 2847 2600 2669 2842 
Q 2491 3084 2119 3084 
Q 1678 3084 1418 2786 
Q 1159 2488 1159 1978 
L 1159 0 
L 581 0 
L 581 3500 
L 1159 3500 
L 1159 2956 
Q 1356 3278 1631 3431 
Q 1906 3584 2284 3584 
Q 2666 3584 2933 3390 
Q 3200 3197 3328 2828 
z
" transform="scale(0.015625)"/>
     </defs>
     <use xlink:href="#DejaVuSans-4a"/>
     <use xlink:href="#DejaVuSans-75" transform="translate(29.492188 0)"/>
     <use xlink:href="#DejaVuSans-6e" transform="translate(92.871094 0)"/>
     <use xlink:href="#DejaVuSans-69" transform="translate(156.25 0)"/>
     <use xlink:href="#DejaVuSans-20" transform="translate(184.033203 0)"/>
     <use xlink:href="#DejaVuSans-2d" transform="translate(215.820312 0)"/>
     <use xlink:href="#DejaVuSans-20" transform="translate(251.904297 0)"/>
     <use xlink:href="#DejaVuSans-48" transform="translate(283.691406 0)"/>
     <use xlink:href="#DejaVuSans-f6" transform="translate(358.886719 0)"/>
     <use xlink:href="#DejaVuSans-63" transform="translate(420.068359 0)"/>
     <use xlink:href="#DejaVuSans-68" transform="translate(475.048828 0)"/>
     <use xlink:href="#DejaVuSans-73" transform="translate(538.427734 0)"/>
     <use xlink:href="#DejaVuSans-74" transform="translate(590.527344 0)"/>
     <use xlink:href="#DejaVuSans-77" transform="translate(629.736328 0)"/>
     <use xlink:href="#DejaVuSans-65" transform="translate(711.523438 0)"/>
     <use xlink:href="#DejaVuSans-72" transform="translate(773.046875 0)"/>
     <use xlink:href="#DejaVuSans-74" transform="translate(814.160156 0)"/>
     <use xlink:href="#DejaVuSans-65" transform="translate(853.369141 0)"/>
     <use xlink:href="#DejaVuSans-20" transform="translate(914.892578 0)"/>
     <use xlink:href="#DejaVuSans-61" transform="translate(946.679688 0)"/>
     <use xlink:href="#DejaVuSans-6d" transform="translate(1007.958984 0)"/>
     <use xlink:href="#DejaVuSans-20" transform="translate(1105.371094 0)"/>
     <use xlink:href="#DejaVuSans-54" transform="translate(1137.158203 0)"/>
     <use xlink:href="#DejaVuSans-61" transform="translate(1181.742188 0)"/>
     <use xlink:href="#DejaVuSans-67" transform="translate(1243.021484 0)"/>
    </g>
   </g>
   <g id="legend_1">
    <g id="patch_7">
     <path d="M 47.603125 106.07 
L 105.053125 106.07 
Q 107.053125 106.07 107.053125 104.07 
L 107.053125 46.3575 
Q 107.053125 44.3575 105.053125 44.3575 
L 47.603125 44.3575 
Q 45.603125 44.3575 45.603125 46.3575 
L 45.603125 104.07 
Q 45.603125 106.07 47.603125 106.07 
z
" style="fill: #1a1b26; opacity: 0.8; stroke: #a9b1d6; stroke-linejoin: miter"/>
    </g>
    <g id="text_29">
     <!-- Jahr -->
     <g style="fill: #a9b1d6" transform="translate(66.564844 55.955938) scale(0.1 -0.1)">
      <use xlink:href="#DejaVuSans-4a"/>
      <use xlink:href="#DejaVuSans-61" transform="translate(29.492188 0)"/>
      <use xlink:href="#DejaVuSans-68" transform="translate(90.771484 0)"/>
      <use xlink:href="#DejaVuSans-72" transform="translate(154.150391 0)"/>
     </g>
    </g>
    <g id="line2d_54">
     <path d="M 49.603125 67.134063 
L 59.603125 67.134063 
L 69.603125 67.134063 
" style="fill: none; stroke: #9ece6a; stroke-width: 2; stroke-linecap: square"/>
     <g>
      <use xlink:href="#m279d1006e8" x="59.603125" y="67.134063" style="fill: #9ece6a; stroke: #9ece6a"/>
     </g>
    </g>
    <g id="text_30">
     <!-- 2023 -->
     <g style="fill: #a9b1d6" transform="translate(77.603125 70.634063) scale(0.1 -0.1)">
      <use xlink:href="#DejaVuSans-32"/>
      <use xlink:href="#DejaVuSans-30" transform="translate(63.623047 0)"/>
      <use xlink:href="#DejaVuSans-32" transform="translate(127.246094 0)"/>
      <use xlink:href="#DejaVuSans-33" transform="translate(190.869141 0)"/>
     </g>
    </g>
    <g id="line2d_55">
     <path d="M 49.603125 81.812188 
L 59.603125 81.812188 
L 69.603125 81.812188 
" style="fill: none; stroke: #2ac3de; stroke-width: 2; stroke-linecap: square"/>
     <g>
      <use xlink:href="#m3d1dfb18df" x="59.603125" y="81.812188" style="fill: #2ac3de; stroke: #2ac3de"/>
     </g>
    </g>
    <g id="text_31">
     <!-- 2024 -->
     <g style="fill: #a9b1d6" transform="translate(77.603125 85.312188) scale(0.1 -0.1)">
      <use xlink:href="#DejaVuSans-32"/>
      <use xlink:href="#DejaVuSans-30" transform="translate(63.623047 0)"/>
      <use xlink:href="#DejaVuSans-32" transform="translate(127.246094 0)"/>
      <use xlink:href="#DejaVuSans-34" transform="translate(190.869141 0)"/>
     </g>
    </g>
    <g id="line2d_56">
     <path d="M 49.603125 96.490313 
L 59.603125 96.490313 
L 69.603125 96.490313 
" style="fill: none; stroke: #f7768e; stroke-width: 2; stroke-linecap: square"/>
     <g>
      <use xlink:href="#m8786c7e13b" x="59.603125" y="96.490313" style="fill: #f7768e; stroke: #f7768e"/>
     </g>
    </g>
    <g id="text_32">
     <!-- 2025 -->
     <g style="fill: #a9b1d6" transform="translate(77.603125 99.990313) scale(0.1 -0.1)">
      <use xlink:href="#DejaVuSans-32"/>
      <use xlink:href="#DejaVuSans-30" transform="translate(63.623047 0)"/>
      <use xlink:href="#DejaVuSans-32" transform="translate(127.246094 0)"/>
      <use xlink:href="#DejaVuSans-35" transform="translate(190.869141 0)"/>
     </g>
    </g>
   </g>
  </g>
 </g>
 <defs>
  <clipPath id="p5b11e04620">
   <rect x="40.603125" y="39.3575" width="558" height="332.64"/>
  </clipPath>
 </defs>
</svg>
