<?xml version="1.0" encoding="utf-8" standalone="no"?>
<!DOCTYPE svg PUBLIC "-//W3C//DTD SVG 1.1//EN"
  "http://www.w3.org/Graphics/SVG/1.1/DTD/svg11.dtd">
<svg xmlns:xlink="http://www.w3.org/1999/xlink" width="607.73875pt" height="411.489375pt" viewBox="0 0 607.73875 411.489375" xmlns="http://www.w3.org/2000/svg" version="1.1">
 <metadata>
  <rdf:RDF xmlns:dc="http://purl.org/dc/elements/1.1/" xmlns:cc="http://creativecommons.org/ns#" xmlns:rdf="http://www.w3.org/1999/02/22-rdf-syntax-ns#">
   <cc:Work>
    <dc:type rdf:resource="http://purl.org/dc/dcmitype/StillImage"/>
    <dc:date>2026-04-26T14:28:04.444541</dc:date>
    <dc:format>image/svg+xml</dc:format>
    <dc:creator>
     <cc:Agent>
      <dc:title>Matplotlib v3.10.8, https://matplotlib.org/</dc:title>
     </cc:Agent>
    </dc:creator>
   </cc:Work>
  </rdf:RDF>
 </metadata>
 <defs>
  <style type="text/css">*{stroke-linejoin: round; stroke-linecap: butt}</style>
 </defs>
 <g id="figure_1">
  <g id="patch_1">
   <path d="M 0 411.489375 
L 607.73875 411.489375 
L 607.73875 0 
L 0 0 
z
" style="fill: #1a1b26"/>
  </g>
  <g id="axes_1">
   <g id="patch_2">
    <path d="M 42.53875 371.9975 
L 600.53875 371.9975 
L 600.53875 39.3575 
L 42.53875 39.3575 
z
" style="fill: #1a1b26"/>
   </g>
   <g id="matplotlib.axis_1">
    <g id="xtick_1">
     <g id="line2d_1">
      <path d="M 67.902386 371.9975 
L 67.902386 39.3575 
" clip-path="url(#p4c8b817dd7)" style="fill: none; stroke-dasharray: 2.96,1.28; stroke-dashoffset: 0; stroke: #2f3549; stroke-opacity: 0.5; stroke-width: 0.8"/>
     </g>
     <g id="line2d_2">
      <defs>
       <path id="me25a52bbba" d="M 0 0 
L 0 3.5 
" style="stroke: #a9b1d6; stroke-width: 0.8"/>
      </defs>
      <g>
       <use xlink:href="#me25a52bbba" x="67.902386" y="371.9975" style="fill: #a9b1d6; stroke: #a9b1d6; stroke-width: 0.8"/>
      </g>
     </g>
     <g id="text_1">
      <!-- 1 -->
      <g style="fill: #a9b1d6" transform="translate(64.721136 386.595937) scale(0.1 -0.1)">
       <defs>
        <path id="DejaVuSans-31" d="M 794 531 
L 1825 531 
L 1825 4091 
L 703 3866 
L 703 4441 
L 1819 4666 
L 2450 4666 
L 2450 531 
L 3481 531 
L 3481 0 
L 794 0 
L 794 531 
z
" transform="scale(0.015625)"/>
       </defs>
       <use xlink:href="#DejaVuSans-31"/>
      </g>
     </g>
    </g>
    <g id="xtick_2">
     <g id="line2d_3">
      <path d="M 101.720568 371.9975 
L 101.720568 39.3575 
" clip-path="url(#p4c8b817dd7)" style="fill: none; stroke-dasharray: 2.96,1.28; stroke-dashoffset: 0; stroke: #2f3549; stroke-opacity: 0.5; stroke-width: 0.8"/>
     </g>
     <g id="line2d_4">
      <g>
       <use xlink:href="#me25a52bbba" x="101.720568" y="371.9975" style="fill: #a9b1d6; stroke: #a9b1d6; stroke-width: 0.8"/>
      </g>
     </g>
     <g id="text_2">
      <!-- 3 -->
      <g style="fill: #a9b1d6" transform="translate(98.539318 386.595937) scale(0.1 -0.1)">
       <defs>
        <path id="DejaVuSans-33" d="M 2597 2516 
Q 3050 2419 3304 2112 
Q 3559 1806 3559 1356 
Q 3559 666 3084 287 
Q 2609 -91 1734 -91 
Q 1441 -91 1130 -33 
Q 819 25 488 141 
L 488 750 
Q 750 597 1062 519 
Q 1375 441 1716 441 
Q 2309 441 2620 675 
Q 2931 909 2931 1356 
Q 2931 1769 2642 2001 
Q 2353 2234 1838 2234 
L 1294 2234 
L 1294 2753 
L 1863 2753 
Q 2328 2753 2575 2939 
Q 2822 3125 2822 3475 
Q 2822 3834 2567 4026 
Q 2313 4219 1838 4219 
Q 1578 4219 1281 4162 
Q 984 4106 628 3988 
L 628 4550 
Q 988 4650 1302 4700 
Q 1616 4750 1894 4750 
Q 2613 4750 3031 4423 
Q 3450 4097 3450 3541 
Q 3450 3153 3228 2886 
Q 3006 2619 2597 2516 
z
" transform="scale(0.015625)"/>
       </defs>
       <use xlink:href="#DejaVuSans-33"/>
      </g>
     </g>
    </g>
    <g id="xtick_3">
     <g id="line2d_5">
      <path d="M 135.53875 371.9975 
L 135.53875 39.3575 
" clip-path="url(#p4c8b817dd7)" style="fill: none; stroke-dasharray: 2.96,1.28; stroke-dashoffset: 0; stroke: #2f3549; stroke-opacity: 0.5; stroke-width: 0.8"/>
     </g>
     <g id="line2d_6">
      <g>
       <use xlink:href="#me25a52bbba" x="135.53875" y="371.9975" style="fill: #a9b1d6; stroke: #a9b1d6; stroke-width: 0.8"/>
      </g>
     </g>
     <g id="text_3">
      <!-- 5 -->
      <g style="fill: #a9b1d6" transform="translate(132.3575 386.595937) scale(0.1 -0.1)">
       <defs>
        <path id="DejaVuSans-35" d="M 691 4666 
L 3169 4666 
L 3169 4134 
L 1269 4134 
L 1269 2991 
Q 1406 3038 1543 3061 
Q 1681 3084 1819 3084 
Q 2600 3084 3056 2656 
Q 3513 2228 3513 1497 
Q 3513 744 3044 326 
Q 2575 -91 1722 -91 
Q 1428 -91 1123 -41 
Q 819 9 494 109 
L 494 744 
Q 775 591 1075 516 
Q 1375 441 1709 441 
Q 2250 441 2565 725 
Q 2881 1009 2881 1497 
Q 2881 1984 2565 2268 
Q 2250 2553 1709 2553 
Q 1456 2553 1204 2497 
Q 953 2441 691 2322 
L 691 4666 
z
" transform="scale(0.015625)"/>
       </defs>
       <use xlink:href="#DejaVuSans-35"/>
      </g>
     </g>
    </g>
    <g id="xtick_4">
     <g id="line2d_7">
      <path d="M 169.356932 371.9975 
L 169.356932 39.3575 
" clip-path="url(#p4c8b817dd7)" style="fill: none; stroke-dasharray: 2.96,1.28; stroke-dashoffset: 0; stroke: #2f3549; stroke-opacity: 0.5; stroke-width: 0.8"/>
     </g>
     <g id="line2d_8">
      <g>
       <use xlink:href="#me25a52bbba" x="169.356932" y="371.9975" style="fill: #a9b1d6; stroke: #a9b1d6; stroke-width: 0.8"/>
      </g>
     </g>
     <g id="text_4">
      <!-- 7 -->
      <g style="fill: #a9b1d6" transform="translate(166.175682 386.595937) scale(0.1 -0.1)">
       <defs>
        <path id="DejaVuSans-37" d="M 525 4666 
L 3525 4666 
L 3525 4397 
L 1831 0 
L 1172 0 
L 2766 4134 
L 525 4134 
L 525 4666 
z
" transform="scale(0.015625)"/>
       </defs>
       <use xlink:href="#DejaVuSans-37"/>
      </g>
     </g>
    </g>
    <g id="xtick_5">
     <g id="line2d_9">
      <path d="M 203.175114 371.9975 
L 203.175114 39.3575 
" clip-path="url(#p4c8b817dd7)" style="fill: none; stroke-dasharray: 2.96,1.28; stroke-dashoffset: 0; stroke: #2f3549; stroke-opacity: 0.5; stroke-width: 0.8"/>
     </g>
     <g id="line2d_10">
      <g>
       <use xlink:href="#me25a52bbba" x="203.175114" y="371.9975" style="fill: #a9b1d6; stroke: #a9b1d6; stroke-width: 0.8"/>
      </g>
     </g>
     <g id="text_5">
      <!-- 9 -->
      <g style="fill: #a9b1d6" transform="translate(199.993864 386.595937) scale(0.1 -0.1)">
       <defs>
        <path id="DejaVuSans-39" d="M 703 97 
L 703 672 
Q 941 559 1184 500 
Q 1428 441 1663 441 
Q 2288 441 2617 861 
Q 2947 1281 2994 2138 
Q 2813 1869 2534 1725 
Q 2256 1581 1919 1581 
Q 1219 1581 811 2004 
Q 403 2428 403 3163 
Q 403 3881 828 4315 
Q 1253 4750 1959 4750 
Q 2769 4750 3195 4129 
Q 3622 3509 3622 2328 
Q 3622 1225 3098 567 
Q 2575 -91 1691 -91 
Q 1453 -91 1209 -44 
Q 966 3 703 97 
z
M 1959 2075 
Q 2384 2075 2632 2365 
Q 2881 2656 2881 3163 
Q 2881 3666 2632 3958 
Q 2384 4250 1959 4250 
Q 1534 4250 1286 3958 
Q 1038 3666 1038 3163 
Q 1038 2656 1286 2365 
Q 1534 2075 1959 2075 
z
" transform="scale(0.015625)"/>
       </defs>
       <use xlink:href="#DejaVuSans-39"/>
      </g>
     </g>
    </g>
    <g id="xtick_6">
     <g id="line2d_11">
      <path d="M 236.993295 371.9975 
L 236.993295 39.3575 
" clip-path="url(#p4c8b817dd7)" style="fill: none; stroke-dasharray: 2.96,1.28; stroke-dashoffset: 0; stroke: #2f3549; stroke-opacity: 0.5; stroke-width: 0.8"/>
     </g>
     <g id="line2d_12">
      <g>
       <use xlink:href="#me25a52bbba" x="236.993295" y="371.9975" style="fill: #a9b1d6; stroke: #a9b1d6; stroke-width: 0.8"/>
      </g>
     </g>
     <g id="text_6">
      <!-- 11 -->
      <g style="fill: #a9b1d6" transform="translate(230.630795 386.595937) scale(0.1 -0.1)">
       <use xlink:href="#DejaVuSans-31"/>
       <use xlink:href="#DejaVuSans-31" transform="translate(63.623047 0)"/>
      </g>
     </g>
    </g>
    <g id="xtick_7">
     <g id="line2d_13">
      <path d="M 270.811477 371.9975 
L 270.811477 39.3575 
" clip-path="url(#p4c8b817dd7)" style="fill: none; stroke-dasharray: 2.96,1.28; stroke-dashoffset: 0; stroke: #2f3549; stroke-opacity: 0.5; stroke-width: 0.8"/>
     </g>
     <g id="line2d_14">
      <g>
       <use xlink:href="#me25a52bbba" x="270.811477" y="371.9975" style="fill: #a9b1d6; stroke: #a9b1d6; stroke-width: 0.8"/>
      </g>
     </g>
     <g id="text_7">
      <!-- 13 -->
      <g style="fill: #a9b1d6" transform="translate(264.448977 386.595937) scale(0.1 -0.1)">
       <use xlink:href="#DejaVuSans-31"/>
       <use xlink:href="#DejaVuSans-33" transform="translate(63.623047 0)"/>
      </g>
     </g>
    </g>
    <g id="xtick_8">
     <g id="line2d_15">
      <path d="M 304.629659 371.9975 
L 304.629659 39.3575 
" clip-path="url(#p4c8b817dd7)" style="fill: none; stroke-dasharray: 2.96,1.28; stroke-dashoffset: 0; stroke: #2f3549; stroke-opacity: 0.5; stroke-width: 0.8"/>
     </g>
     <g id="line2d_16">
      <g>
       <use xlink:href="#me25a52bbba" x="304.629659" y="371.9975" style="fill: #a9b1d6; stroke: #a9b1d6; stroke-width: 0.8"/>
      </g>
     </g>
     <g id="text_8">
      <!-- 15 -->
      <g style="fill: #a9b1d6" transform="translate(298.267159 386.595937) scale(0.1 -0.1)">
       <use xlink:href="#DejaVuSans-31"/>
       <use xlink:href="#DejaVuSans-35" transform="translate(63.623047 0)"/>
      </g>
     </g>
    </g>
    <g id="xtick_9">
     <g id="line2d_17">
      <path d="M 338.447841 371.9975 
L 338.447841 39.3575 
" clip-path="url(#p4c8b817dd7)" style="fill: none; stroke-dasharray: 2.96,1.28; stroke-dashoffset: 0; stroke: #2f3549; stroke-opacity: 0.5; stroke-width: 0.8"/>
     </g>
     <g id="line2d_18">
      <g>
       <use xlink:href="#me25a52bbba" x="338.447841" y="371.9975" style="fill: #a9b1d6; stroke: #a9b1d6; stroke-width: 0.8"/>
      </g>
     </g>
     <g id="text_9">
      <!-- 17 -->
      <g style="fill: #a9b1d6" transform="translate(332.085341 386.595937) scale(0.1 -0.1)">
       <use xlink:href="#DejaVuSans-31"/>
       <use xlink:href="#DejaVuSans-37" transform="translate(63.623047 0)"/>
      </g>
     </g>
    </g>
    <g id="xtick_10">
     <g id="line2d_19">
      <path d="M 372.266023 371.9975 
L 372.266023 39.3575 
" clip-path="url(#p4c8b817dd7)" style="fill: none; stroke-dasharray: 2.96,1.28; stroke-dashoffset: 0; stroke: #2f3549; stroke-opacity: 0.5; stroke-width: 0.8"/>
     </g>
     <g id="line2d_20">
      <g>
       <use xlink:href="#me25a52bbba" x="372.266023" y="371.9975" style="fill: #a9b1d6; stroke: #a9b1d6; stroke-width: 0.8"/>
      </g>
     </g>
     <g id="text_10">
      <!-- 19 -->
      <g style="fill: #a9b1d6" transform="translate(365.903523 386.595937) scale(0.1 -0.1)">
       <use xlink:href="#DejaVuSans-31"/>
       <use xlink:href="#DejaVuSans-39" transform="translate(63.623047 0)"/>
      </g>
     </g>
    </g>
    <g id="xtick_11">
     <g id="line2d_21">
      <path d="M 406.084205 371.9975 
L 406.084205 39.3575 
" clip-path="url(#p4c8b817dd7)" style="fill: none; stroke-dasharray: 2.96,1.28; stroke-dashoffset: 0; stroke: #2f3549; stroke-opacity: 0.5; stroke-width: 0.8"/>
     </g>
     <g id="line2d_22">
      <g>
       <use xlink:href="#me25a52bbba" x="406.084205" y="371.9975" style="fill: #a9b1d6; stroke: #a9b1d6; stroke-width: 0.8"/>
      </g>
     </g>
     <g id="text_11">
      <!-- 21 -->
      <g style="fill: #a9b1d6" transform="translate(399.721705 386.595937) scale(0.1 -0.1)">
       <defs>
        <path id="DejaVuSans-32" d="M 1228 531 
L 3431 531 
L 3431 0 
L 469 0 
L 469 531 
Q 828 903 1448 1529 
Q 2069 2156 2228 2338 
Q 2531 2678 2651 2914 
Q 2772 3150 2772 3378 
Q 2772 3750 2511 3984 
Q 2250 4219 1831 4219 
Q 1534 4219 1204 4116 
Q 875 4013 500 3803 
L 500 4441 
Q 881 4594 1212 4672 
Q 1544 4750 1819 4750 
Q 2544 4750 2975 4387 
Q 3406 4025 3406 3419 
Q 3406 3131 3298 2873 
Q 3191 2616 2906 2266 
Q 2828 2175 2409 1742 
Q 1991 1309 1228 531 
z
" transform="scale(0.015625)"/>
       </defs>
       <use xlink:href="#DejaVuSans-32"/>
       <use xlink:href="#DejaVuSans-31" transform="translate(63.623047 0)"/>
      </g>
     </g>
    </g>
    <g id="xtick_12">
     <g id="line2d_23">
      <path d="M 439.902386 371.9975 
L 439.902386 39.3575 
" clip-path="url(#p4c8b817dd7)" style="fill: none; stroke-dasharray: 2.96,1.28; stroke-dashoffset: 0; stroke: #2f3549; stroke-opacity: 0.5; stroke-width: 0.8"/>
     </g>
     <g id="line2d_24">
      <g>
       <use xlink:href="#me25a52bbba" x="439.902386" y="371.9975" style="fill: #a9b1d6; stroke: #a9b1d6; stroke-width: 0.8"/>
      </g>
     </g>
     <g id="text_12">
      <!-- 23 -->
      <g style="fill: #a9b1d6" transform="translate(433.539886 386.595937) scale(0.1 -0.1)">
       <use xlink:href="#DejaVuSans-32"/>
       <use xlink:href="#DejaVuSans-33" transform="translate(63.623047 0)"/>
      </g>
     </g>
    </g>
    <g id="xtick_13">
     <g id="line2d_25">
      <path d="M 473.720568 371.9975 
L 473.720568 39.3575 
" clip-path="url(#p4c8b817dd7)" style="fill: none; stroke-dasharray: 2.96,1.28; stroke-dashoffset: 0; stroke: #2f3549; stroke-opacity: 0.5; stroke-width: 0.8"/>
     </g>
     <g id="line2d_26">
      <g>
       <use xlink:href="#me25a52bbba" x="473.720568" y="371.9975" style="fill: #a9b1d6; stroke: #a9b1d6; stroke-width: 0.8"/>
      </g>
     </g>
     <g id="text_13">
      <!-- 25 -->
      <g style="fill: #a9b1d6" transform="translate(467.358068 386.595937) scale(0.1 -0.1)">
       <use xlink:href="#DejaVuSans-32"/>
       <use xlink:href="#DejaVuSans-35" transform="translate(63.623047 0)"/>
      </g>
     </g>
    </g>
    <g id="xtick_14">
     <g id="line2d_27">
      <path d="M 507.53875 371.9975 
L 507.53875 39.3575 
" clip-path="url(#p4c8b817dd7)" style="fill: none; stroke-dasharray: 2.96,1.28; stroke-dashoffset: 0; stroke: #2f3549; stroke-opacity: 0.5; stroke-width: 0.8"/>
     </g>
     <g id="line2d_28">
      <g>
       <use xlink:href="#me25a52bbba" x="507.53875" y="371.9975" style="fill: #a9b1d6; stroke: #a9b1d6; stroke-width: 0.8"/>
      </g>
     </g>
     <g id="text_14">
      <!-- 27 -->
      <g style="fill: #a9b1d6" transform="translate(501.17625 386.595937) scale(0.1 -0.1)">
       <use xlink:href="#DejaVuSans-32"/>
       <use xlink:href="#DejaVuSans-37" transform="translate(63.623047 0)"/>
      </g>
     </g>
    </g>
    <g id="xtick_15">
     <g id="line2d_29">
      <path d="M 541.356932 371.9975 
L 541.356932 39.3575 
" clip-path="url(#p4c8b817dd7)" style="fill: none; stroke-dasharray: 2.96,1.28; stroke-dashoffset: 0; stroke: #2f3549; stroke-opacity: 0.5; stroke-width: 0.8"/>
     </g>
     <g id="line2d_30">
      <g>
       <use xlink:href="#me25a52bbba" x="541.356932" y="371.9975" style="fill: #a9b1d6; stroke: #a9b1d6; stroke-width: 0.8"/>
      </g>
     </g>
     <g id="text_15">
      <!-- 29 -->
      <g style="fill: #a9b1d6" transform="translate(534.994432 386.595937) scale(0.1 -0.1)">
       <use xlink:href="#DejaVuSans-32"/>
       <use xlink:href="#DejaVuSans-39" transform="translate(63.623047 0)"/>
      </g>
     </g>
    </g>
    <g id="xtick_16">
     <g id="line2d_31">
      <path d="M 575.175114 371.9975 
L 575.175114 39.3575 
" clip-path="url(#p4c8b817dd7)" style="fill: none; stroke-dasharray: 2.96,1.28; stroke-dashoffset: 0; stroke: #2f3549; stroke-opacity: 0.5; stroke-width: 0.8"/>
     </g>
     <g id="line2d_32">
      <g>
       <use xlink:href="#me25a52bbba" x="575.175114" y="371.9975" style="fill: #a9b1d6; stroke: #a9b1d6; stroke-width: 0.8"/>
      </g>
     </g>
     <g id="text_16">
      <!-- 31 -->
      <g style="fill: #a9b1d6" transform="translate(568.812614 386.595937) scale(0.1 -0.1)">
       <use xlink:href="#DejaVuSans-33"/>
       <use xlink:href="#DejaVuSans-31" transform="translate(63.623047 0)"/>
      </g>
     </g>
    </g>
    <g id="text_17">
     <!-- Tag des Monats -->
     <g style="fill: #a9b1d6" transform="translate(275.1325 401.79375) scale(0.12 -0.12)">
      <defs>
       <path id="DejaVuSans-54" d="M -19 4666 
L 3928 4666 
L 3928 4134 
L 2272 4134 
L 2272 0 
L 1638 0 
L 1638 4134 
L -19 4134 
L -19 4666 
z
" transform="scale(0.015625)"/>
       <path id="DejaVuSans-61" d="M 2194 1759 
Q 1497 1759 1228 1600 
Q 959 1441 959 1056 
Q 959 750 1161 570 
Q 1363 391 1709 391 
Q 2188 391 2477 730 
Q 2766 1069 2766 1631 
L 2766 1759 
L 2194 1759 
z
M 3341 1997 
L 3341 0 
L 2766 0 
L 2766 531 
Q 2569 213 2275 61 
Q 1981 -91 1556 -91 
Q 1019 -91 701 211 
Q 384 513 384 1019 
Q 384 1609 779 1909 
Q 1175 2209 1959 2209 
L 2766 2209 
L 2766 2266 
Q 2766 2663 2505 2880 
Q 2244 3097 1772 3097 
Q 1472 3097 1187 3025 
Q 903 2953 641 2809 
L 641 3341 
Q 956 3463 1253 3523 
Q 1550 3584 1831 3584 
Q 2591 3584 2966 3190 
Q 3341 2797 3341 1997 
z
" transform="scale(0.015625)"/>
       <path id="DejaVuSans-67" d="M 2906 1791 
Q 2906 2416 2648 2759 
Q 2391 3103 1925 3103 
Q 1463 3103 1205 2759 
Q 947 2416 947 1791 
Q 947 1169 1205 825 
Q 1463 481 1925 481 
Q 2391 481 2648 825 
Q 2906 1169 2906 1791 
z
M 3481 434 
Q 3481 -459 3084 -895 
Q 2688 -1331 1869 -1331 
Q 1566 -1331 1297 -1286 
Q 1028 -1241 775 -1147 
L 775 -588 
Q 1028 -725 1275 -790 
Q 1522 -856 1778 -856 
Q 2344 -856 2625 -561 
Q 2906 -266 2906 331 
L 2906 616 
Q 2728 306 2450 153 
Q 2172 0 1784 0 
Q 1141 0 747 490 
Q 353 981 353 1791 
Q 353 2603 747 3093 
Q 1141 3584 1784 3584 
Q 2172 3584 2450 3431 
Q 2728 3278 2906 2969 
L 2906 3500 
L 3481 3500 
L 3481 434 
z
" transform="scale(0.015625)"/>
       <path id="DejaVuSans-20" transform="scale(0.015625)"/>
       <path id="DejaVuSans-64" d="M 2906 2969 
L 2906 4863 
L 3481 4863 
L 3481 0 
L 2906 0 
L 2906 525 
Q 2725 213 2448 61 
Q 2172 -91 1784 -91 
Q 1150 -91 751 415 
Q 353 922 353 1747 
Q 353 2572 751 3078 
Q 1150 3584 1784 3584 
Q 2172 3584 2448 3432 
Q 2725 3281 2906 2969 
z
M 947 1747 
Q 947 1113 1208 752 
Q 1469 391 1925 391 
Q 2381 391 2643 752 
Q 2906 1113 2906 1747 
Q 2906 2381 2643 2742 
Q 2381 3103 1925 3103 
Q 1469 3103 1208 2742 
Q 947 2381 947 1747 
z
" transform="scale(0.015625)"/>
       <path id="DejaVuSans-65" d="M 3597 1894 
L 3597 1613 
L 953 1613 
Q 991 1019 1311 708 
Q 1631 397 2203 397 
Q 2534 397 2845 478 
Q 3156 559 3463 722 
L 3463 178 
Q 3153 47 2828 -22 
Q 2503 -91 2169 -91 
Q 1331 -91 842 396 
Q 353 884 353 1716 
Q 353 2575 817 3079 
Q 1281 3584 2069 3584 
Q 2775 3584 3186 3129 
Q 3597 2675 3597 1894 
z
M 3022 2063 
Q 3016 2534 2758 2815 
Q 2500 3097 2075 3097 
Q 1594 3097 1305 2825 
Q 1016 2553 972 2059 
L 3022 2063 
z
" transform="scale(0.015625)"/>
       <path id="DejaVuSans-73" d="M 2834 3397 
L 2834 2853 
Q 2591 2978 2328 3040 
Q 2066 3103 1784 3103 
Q 1356 3103 1142 2972 
Q 928 2841 928 2578 
Q 928 2378 1081 2264 
Q 1234 2150 1697 2047 
L 1894 2003 
Q 2506 1872 2764 1633 
Q 3022 1394 3022 966 
Q 3022 478 2636 193 
Q 2250 -91 1575 -91 
Q 1294 -91 989 -36 
Q 684 19 347 128 
L 347 722 
Q 666 556 975 473 
Q 1284 391 1588 391 
Q 1994 391 2212 530 
Q 2431 669 2431 922 
Q 2431 1156 2273 1281 
Q 2116 1406 1581 1522 
L 1381 1569 
Q 847 1681 609 1914 
Q 372 2147 372 2553 
Q 372 3047 722 3315 
Q 1072 3584 1716 3584 
Q 2034 3584 2315 3537 
Q 2597 3491 2834 3397 
z
" transform="scale(0.015625)"/>
       <path id="DejaVuSans-4d" d="M 628 4666 
L 1569 4666 
L 2759 1491 
L 3956 4666 
L 4897 4666 
L 4897 0 
L 4281 0 
L 4281 4097 
L 3078 897 
L 2444 897 
L 1241 4097 
L 1241 0 
L 628 0 
L 628 4666 
z
" transform="scale(0.015625)"/>
       <path id="DejaVuSans-6f" d="M 1959 3097 
Q 1497 3097 1228 2736 
Q 959 2375 959 1747 
Q 959 1119 1226 758 
Q 1494 397 1959 397 
Q 2419 397 2687 759 
Q 2956 1122 2956 1747 
Q 2956 2369 2687 2733 
Q 2419 3097 1959 3097 
z
M 1959 3584 
Q 2709 3584 3137 3096 
Q 3566 2609 3566 1747 
Q 3566 888 3137 398 
Q 2709 -91 1959 -91 
Q 1206 -91 779 398 
Q 353 888 353 1747 
Q 353 2609 779 3096 
Q 1206 3584 1959 3584 
z
" transform="scale(0.015625)"/>
       <path id="DejaVuSans-6e" d="M 3513 2113 
L 3513 0 
L 2938 0 
L 2938 2094 
Q 2938 2591 2744 2837 
Q 2550 3084 2163 3084 
Q 1697 3084 1428 2787 
Q 1159 2491 1159 1978 
L 1159 0 
L 581 0 
L 581 3500 
L 1159 3500 
L 1159 2956 
Q 1366 3272 1645 3428 
Q 1925 3584 2291 3584 
Q 2894 3584 3203 3211 
Q 3513 2838 3513 2113 
z
" transform="scale(0.015625)"/>
       <path id="DejaVuSans-74" d="M 1172 4494 
L 1172 3500 
L 2356 3500 
L 2356 3053 
L 1172 3053 
L 1172 1153 
Q 1172 725 1289 603 
Q 1406 481 1766 481 
L 2356 481 
L 2356 0 
L 1766 0 
Q 1100 0 847 248 
Q 594 497 594 1153 
L 594 3053 
L 172 3053 
L 172 3500 
L 594 3500 
L 594 4494 
L 1172 4494 
z
" transform="scale(0.015625)"/>
      </defs>
      <use xlink:href="#DejaVuSans-54"/>
      <use xlink:href="#DejaVuSans-61" transform="translate(44.583984 0)"/>
      <use xlink:href="#DejaVuSans-67" transform="translate(105.863281 0)"/>
      <use xlink:href="#DejaVuSans-20" transform="translate(169.339844 0)"/>
      <use xlink:href="#DejaVuSans-64" transform="translate(201.126953 0)"/>
      <use xlink:href="#DejaVuSans-65" transform="translate(264.603516 0)"/>
      <use xlink:href="#DejaVuSans-73" transform="translate(326.126953 0)"/>
      <use xlink:href="#DejaVuSans-20" transform="translate(378.226562 0)"/>
      <use xlink:href="#DejaVuSans-4d" transform="translate(410.013672 0)"/>
      <use xlink:href="#DejaVuSans-6f" transform="translate(496.292969 0)"/>
      <use xlink:href="#DejaVuSans-6e" transform="translate(557.474609 0)"/>
      <use xlink:href="#DejaVuSans-61" transform="translate(620.853516 0)"/>
      <use xlink:href="#DejaVuSans-74" transform="translate(682.132812 0)"/>
      <use xlink:href="#DejaVuSans-73" transform="translate(721.341797 0)"/>
     </g>
    </g>
   </g>
   <g id="matplotlib.axis_2">
    <g id="ytick_1">
     <g id="line2d_33">
      <path d="M 42.53875 355.805047 
L 600.53875 355.805047 
" clip-path="url(#p4c8b817dd7)" style="fill: none; stroke-dasharray: 2.96,1.28; stroke-dashoffset: 0; stroke: #2f3549; stroke-opacity: 0.5; stroke-width: 0.8"/>
     </g>
     <g id="line2d_34">
      <defs>
       <path id="m3a423d72d1" d="M 0 0 
L -3.5 0 
" style="stroke: #a9b1d6; stroke-width: 0.8"/>
      </defs>
      <g>
       <use xlink:href="#m3a423d72d1" x="42.53875" y="355.805047" style="fill: #a9b1d6; stroke: #a9b1d6; stroke-width: 0.8"/>
      </g>
     </g>
     <g id="text_18">
      <!-- 12 -->
      <g style="fill: #a9b1d6" transform="translate(22.81375 359.604266) scale(0.1 -0.1)">
       <use xlink:href="#DejaVuSans-31"/>
       <use xlink:href="#DejaVuSans-32" transform="translate(63.623047 0)"/>
      </g>
     </g>
    </g>
    <g id="ytick_2">
     <g id="line2d_35">
      <path d="M 42.53875 310.047048 
L 600.53875 310.047048 
" clip-path="url(#p4c8b817dd7)" style="fill: none; stroke-dasharray: 2.96,1.28; stroke-dashoffset: 0; stroke: #2f3549; stroke-opacity: 0.5; stroke-width: 0.8"/>
     </g>
     <g id="line2d_36">
      <g>
       <use xlink:href="#m3a423d72d1" x="42.53875" y="310.047048" style="fill: #a9b1d6; stroke: #a9b1d6; stroke-width: 0.8"/>
      </g>
     </g>
     <g id="text_19">
      <!-- 14 -->
      <g style="fill: #a9b1d6" transform="translate(22.81375 313.846266) scale(0.1 -0.1)">
       <defs>
        <path id="DejaVuSans-34" d="M 2419 4116 
L 825 1625 
L 2419 1625 
L 2419 4116 
z
M 2253 4666 
L 3047 4666 
L 3047 1625 
L 3713 1625 
L 3713 1100 
L 3047 1100 
L 3047 0 
L 2419 0 
L 2419 1100 
L 313 1100 
L 313 1709 
L 2253 4666 
z
" transform="scale(0.015625)"/>
       </defs>
       <use xlink:href="#DejaVuSans-31"/>
       <use xlink:href="#DejaVuSans-34" transform="translate(63.623047 0)"/>
      </g>
     </g>
    </g>
    <g id="ytick_3">
     <g id="line2d_37">
      <path d="M 42.53875 264.289048 
L 600.53875 264.289048 
" clip-path="url(#p4c8b817dd7)" style="fill: none; stroke-dasharray: 2.96,1.28; stroke-dashoffset: 0; stroke: #2f3549; stroke-opacity: 0.5; stroke-width: 0.8"/>
     </g>
     <g id="line2d_38">
      <g>
       <use xlink:href="#m3a423d72d1" x="42.53875" y="264.289048" style="fill: #a9b1d6; stroke: #a9b1d6; stroke-width: 0.8"/>
      </g>
     </g>
     <g id="text_20">
      <!-- 16 -->
      <g style="fill: #a9b1d6" transform="translate(22.81375 268.088267) scale(0.1 -0.1)">
       <defs>
        <path id="DejaVuSans-36" d="M 2113 2584 
Q 1688 2584 1439 2293 
Q 1191 2003 1191 1497 
Q 1191 994 1439 701 
Q 1688 409 2113 409 
Q 2538 409 2786 701 
Q 3034 994 3034 1497 
Q 3034 2003 2786 2293 
Q 2538 2584 2113 2584 
z
M 3366 4563 
L 3366 3988 
Q 3128 4100 2886 4159 
Q 2644 4219 2406 4219 
Q 1781 4219 1451 3797 
Q 1122 3375 1075 2522 
Q 1259 2794 1537 2939 
Q 1816 3084 2150 3084 
Q 2853 3084 3261 2657 
Q 3669 2231 3669 1497 
Q 3669 778 3244 343 
Q 2819 -91 2113 -91 
Q 1303 -91 875 529 
Q 447 1150 447 2328 
Q 447 3434 972 4092 
Q 1497 4750 2381 4750 
Q 2619 4750 2861 4703 
Q 3103 4656 3366 4563 
z
" transform="scale(0.015625)"/>
       </defs>
       <use xlink:href="#DejaVuSans-31"/>
       <use xlink:href="#DejaVuSans-36" transform="translate(63.623047 0)"/>
      </g>
     </g>
    </g>
    <g id="ytick_4">
     <g id="line2d_39">
      <path d="M 42.53875 218.531049 
L 600.53875 218.531049 
" clip-path="url(#p4c8b817dd7)" style="fill: none; stroke-dasharray: 2.96,1.28; stroke-dashoffset: 0; stroke: #2f3549; stroke-opacity: 0.5; stroke-width: 0.8"/>
     </g>
     <g id="line2d_40">
      <g>
       <use xlink:href="#m3a423d72d1" x="42.53875" y="218.531049" style="fill: #a9b1d6; stroke: #a9b1d6; stroke-width: 0.8"/>
      </g>
     </g>
     <g id="text_21">
      <!-- 18 -->
      <g style="fill: #a9b1d6" transform="translate(22.81375 222.330268) scale(0.1 -0.1)">
       <defs>
        <path id="DejaVuSans-38" d="M 2034 2216 
Q 1584 2216 1326 1975 
Q 1069 1734 1069 1313 
Q 1069 891 1326 650 
Q 1584 409 2034 409 
Q 2484 409 2743 651 
Q 3003 894 3003 1313 
Q 3003 1734 2745 1975 
Q 2488 2216 2034 2216 
z
M 1403 2484 
Q 997 2584 770 2862 
Q 544 3141 544 3541 
Q 544 4100 942 4425 
Q 1341 4750 2034 4750 
Q 2731 4750 3128 4425 
Q 3525 4100 3525 3541 
Q 3525 3141 3298 2862 
Q 3072 2584 2669 2484 
Q 3125 2378 3379 2068 
Q 3634 1759 3634 1313 
Q 3634 634 3220 271 
Q 2806 -91 2034 -91 
Q 1263 -91 848 271 
Q 434 634 434 1313 
Q 434 1759 690 2068 
Q 947 2378 1403 2484 
z
M 1172 3481 
Q 1172 3119 1398 2916 
Q 1625 2713 2034 2713 
Q 2441 2713 2670 2916 
Q 2900 3119 2900 3481 
Q 2900 3844 2670 4047 
Q 2441 4250 2034 4250 
Q 1625 4250 1398 4047 
Q 1172 3844 1172 3481 
z
" transform="scale(0.015625)"/>
       </defs>
       <use xlink:href="#DejaVuSans-31"/>
       <use xlink:href="#DejaVuSans-38" transform="translate(63.623047 0)"/>
      </g>
     </g>
    </g>
    <g id="ytick_5">
     <g id="line2d_41">
      <path d="M 42.53875 172.77305 
L 600.53875 172.77305 
" clip-path="url(#p4c8b817dd7)" style="fill: none; stroke-dasharray: 2.96,1.28; stroke-dashoffset: 0; stroke: #2f3549; stroke-opacity: 0.5; stroke-width: 0.8"/>
     </g>
     <g id="line2d_42">
      <g>
       <use xlink:href="#m3a423d72d1" x="42.53875" y="172.77305" style="fill: #a9b1d6; stroke: #a9b1d6; stroke-width: 0.8"/>
      </g>
     </g>
     <g id="text_22">
      <!-- 20 -->
      <g style="fill: #a9b1d6" transform="translate(22.81375 176.572269) scale(0.1 -0.1)">
       <defs>
        <path id="DejaVuSans-30" d="M 2034 4250 
Q 1547 4250 1301 3770 
Q 1056 3291 1056 2328 
Q 1056 1369 1301 889 
Q 1547 409 2034 409 
Q 2525 409 2770 889 
Q 3016 1369 3016 2328 
Q 3016 3291 2770 3770 
Q 2525 4250 2034 4250 
z
M 2034 4750 
Q 2819 4750 3233 4129 
Q 3647 3509 3647 2328 
Q 3647 1150 3233 529 
Q 2819 -91 2034 -91 
Q 1250 -91 836 529 
Q 422 1150 422 2328 
Q 422 3509 836 4129 
Q 1250 4750 2034 4750 
z
" transform="scale(0.015625)"/>
       </defs>
       <use xlink:href="#DejaVuSans-32"/>
       <use xlink:href="#DejaVuSans-30" transform="translate(63.623047 0)"/>
      </g>
     </g>
    </g>
    <g id="ytick_6">
     <g id="line2d_43">
      <path d="M 42.53875 127.015051 
L 600.53875 127.015051 
" clip-path="url(#p4c8b817dd7)" style="fill: none; stroke-dasharray: 2.96,1.28; stroke-dashoffset: 0; stroke: #2f3549; stroke-opacity: 0.5; stroke-width: 0.8"/>
     </g>
     <g id="line2d_44">
      <g>
       <use xlink:href="#m3a423d72d1" x="42.53875" y="127.015051" style="fill: #a9b1d6; stroke: #a9b1d6; stroke-width: 0.8"/>
      </g>
     </g>
     <g id="text_23">
      <!-- 22 -->
      <g style="fill: #a9b1d6" transform="translate(22.81375 130.814269) scale(0.1 -0.1)">
       <use xlink:href="#DejaVuSans-32"/>
       <use xlink:href="#DejaVuSans-32" transform="translate(63.623047 0)"/>
      </g>
     </g>
    </g>
    <g id="ytick_7">
     <g id="line2d_45">
      <path d="M 42.53875 81.257051 
L 600.53875 81.257051 
" clip-path="url(#p4c8b817dd7)" style="fill: none; stroke-dasharray: 2.96,1.28; stroke-dashoffset: 0; stroke: #2f3549; stroke-opacity: 0.5; stroke-width: 0.8"/>
     </g>
     <g id="line2d_46">
      <g>
       <use xlink:href="#m3a423d72d1" x="42.53875" y="81.257051" style="fill: #a9b1d6; stroke: #a9b1d6; stroke-width: 0.8"/>
      </g>
     </g>
     <g id="text_24">
      <!-- 24 -->
      <g style="fill: #a9b1d6" transform="translate(22.81375 85.05627) scale(0.1 -0.1)">
       <use xlink:href="#DejaVuSans-32"/>
       <use xlink:href="#DejaVuSans-34" transform="translate(63.623047 0)"/>
      </g>
     </g>
    </g>
    <g id="text_25">
     <!-- Temperatur in °C -->
     <g style="fill: #a9b1d6" transform="translate(16.318125 256.596875) rotate(-90) scale(0.12 -0.12)">
      <defs>
       <path id="DejaVuSans-6d" d="M 3328 2828 
Q 3544 3216 3844 3400 
Q 4144 3584 4550 3584 
Q 5097 3584 5394 3201 
Q 5691 2819 5691 2113 
L 5691 0 
L 5113 0 
L 5113 2094 
Q 5113 2597 4934 2840 
Q 4756 3084 4391 3084 
Q 3944 3084 3684 2787 
Q 3425 2491 3425 1978 
L 3425 0 
L 2847 0 
L 2847 2094 
Q 2847 2600 2669 2842 
Q 2491 3084 2119 3084 
Q 1678 3084 1418 2786 
Q 1159 2488 1159 1978 
L 1159 0 
L 581 0 
L 581 3500 
L 1159 3500 
L 1159 2956 
Q 1356 3278 1631 3431 
Q 1906 3584 2284 3584 
Q 2666 3584 2933 3390 
Q 3200 3197 3328 2828 
z
" transform="scale(0.015625)"/>
       <path id="DejaVuSans-70" d="M 1159 525 
L 1159 -1331 
L 581 -1331 
L 581 3500 
L 1159 3500 
L 1159 2969 
Q 1341 3281 1617 3432 
Q 1894 3584 2278 3584 
Q 2916 3584 3314 3078 
Q 3713 2572 3713 1747 
Q 3713 922 3314 415 
Q 2916 -91 2278 -91 
Q 1894 -91 1617 61 
Q 1341 213 1159 525 
z
M 3116 1747 
Q 3116 2381 2855 2742 
Q 2594 3103 2138 3103 
Q 1681 3103 1420 2742 
Q 1159 2381 1159 1747 
Q 1159 1113 1420 752 
Q 1681 391 2138 391 
Q 2594 391 2855 752 
Q 3116 1113 3116 1747 
z
" transform="scale(0.015625)"/>
       <path id="DejaVuSans-72" d="M 2631 2963 
Q 2534 3019 2420 3045 
Q 2306 3072 2169 3072 
Q 1681 3072 1420 2755 
Q 1159 2438 1159 1844 
L 1159 0 
L 581 0 
L 581 3500 
L 1159 3500 
L 1159 2956 
Q 1341 3275 1631 3429 
Q 1922 3584 2338 3584 
Q 2397 3584 2469 3576 
Q 2541 3569 2628 3553 
L 2631 2963 
z
" transform="scale(0.015625)"/>
       <path id="DejaVuSans-75" d="M 544 1381 
L 544 3500 
L 1119 3500 
L 1119 1403 
Q 1119 906 1312 657 
Q 1506 409 1894 409 
Q 2359 409 2629 706 
Q 2900 1003 2900 1516 
L 2900 3500 
L 3475 3500 
L 3475 0 
L 2900 0 
L 2900 538 
Q 2691 219 2414 64 
Q 2138 -91 1772 -91 
Q 1169 -91 856 284 
Q 544 659 544 1381 
z
M 1991 3584 
L 1991 3584 
z
" transform="scale(0.015625)"/>
       <path id="DejaVuSans-69" d="M 603 3500 
L 1178 3500 
L 1178 0 
L 603 0 
L 603 3500 
z
M 603 4863 
L 1178 4863 
L 1178 4134 
L 603 4134 
L 603 4863 
z
" transform="scale(0.015625)"/>
       <path id="DejaVuSans-b0" d="M 1600 4347 
Q 1350 4347 1178 4173 
Q 1006 4000 1006 3750 
Q 1006 3503 1178 3333 
Q 1350 3163 1600 3163 
Q 1850 3163 2022 3333 
Q 2194 3503 2194 3750 
Q 2194 3997 2020 4172 
Q 1847 4347 1600 4347 
z
M 1600 4750 
Q 1800 4750 1984 4673 
Q 2169 4597 2303 4453 
Q 2447 4313 2519 4134 
Q 2591 3956 2591 3750 
Q 2591 3338 2302 3052 
Q 2013 2766 1594 2766 
Q 1172 2766 890 3047 
Q 609 3328 609 3750 
Q 609 4169 896 4459 
Q 1184 4750 1600 4750 
z
" transform="scale(0.015625)"/>
       <path id="DejaVuSans-43" d="M 4122 4306 
L 4122 3641 
Q 3803 3938 3442 4084 
Q 3081 4231 2675 4231 
Q 1875 4231 1450 3742 
Q 1025 3253 1025 2328 
Q 1025 1406 1450 917 
Q 1875 428 2675 428 
Q 3081 428 3442 575 
Q 3803 722 4122 1019 
L 4122 359 
Q 3791 134 3420 21 
Q 3050 -91 2638 -91 
Q 1578 -91 968 557 
Q 359 1206 359 2328 
Q 359 3453 968 4101 
Q 1578 4750 2638 4750 
Q 3056 4750 3426 4639 
Q 3797 4528 4122 4306 
z
" transform="scale(0.015625)"/>
      </defs>
      <use xlink:href="#DejaVuSans-54"/>
      <use xlink:href="#DejaVuSans-65" transform="translate(44.083984 0)"/>
      <use xlink:href="#DejaVuSans-6d" transform="translate(105.607422 0)"/>
      <use xlink:href="#DejaVuSans-70" transform="translate(203.019531 0)"/>
      <use xlink:href="#DejaVuSans-65" transform="translate(266.496094 0)"/>
      <use xlink:href="#DejaVuSans-72" transform="translate(328.019531 0)"/>
      <use xlink:href="#DejaVuSans-61" transform="translate(369.132812 0)"/>
      <use xlink:href="#DejaVuSans-74" transform="translate(430.412109 0)"/>
      <use xlink:href="#DejaVuSans-75" transform="translate(469.621094 0)"/>
      <use xlink:href="#DejaVuSans-72" transform="translate(533 0)"/>
      <use xlink:href="#DejaVuSans-20" transform="translate(574.113281 0)"/>
      <use xlink:href="#DejaVuSans-69" transform="translate(605.900391 0)"/>
      <use xlink:href="#DejaVuSans-6e" transform="translate(633.683594 0)"/>
      <use xlink:href="#DejaVuSans-20" transform="translate(697.0625 0)"/>
      <use xlink:href="#DejaVuSans-b0" transform="translate(728.849609 0)"/>
      <use xlink:href="#DejaVuSans-43" transform="translate(778.849609 0)"/>
     </g>
    </g>
   </g>
   <g id="line2d_47">
    <path d="M 67.902386 218.507217 
L 84.811477 212.398206 
L 101.720568 167.386952 
L 118.629659 208.648592 
L 135.53875 226.741979 
L 152.447841 243.785334 
L 169.356932 271.144804 
L 186.266023 286.604017 
L 203.175114 273.257934 
L 220.084205 256.321119 
L 236.993295 200.156353 
L 253.902386 152.118397 
L 270.811477 124.599602 
L 287.720568 106.439839 
L 304.629659 102.054697 
L 321.53875 117.037265 
L 338.447841 99.218655 
L 355.356932 108.193685 
L 372.266023 69.531564 
L 389.175114 70.319773 
L 406.084205 103.293977 
L 422.993295 116.830718 
L 439.902386 146.39444 
L 456.811477 140.019538 
L 473.720568 97.288239 
L 490.629659 144.492064 
L 507.53875 222.225054 
L 524.447841 287.46198 
L 541.356932 308.44234 
L 558.266023 254.295374 
L 575.175114 289.16996 
" clip-path="url(#p4c8b817dd7)" style="fill: none; stroke: #9ece6a; stroke-width: 2; stroke-linecap: square"/>
    <defs>
     <path id="m80a2f0619e" d="M 0 2 
C 0.530406 2 1.03916 1.789267 1.414214 1.414214 
C 1.789267 1.03916 2 0.530406 2 0 
C 2 -0.530406 1.789267 -1.03916 1.414214 -1.414214 
C 1.03916 -1.789267 0.530406 -2 0 -2 
C -0.530406 -2 -1.03916 -1.789267 -1.414214 -1.414214 
C -1.789267 -1.03916 -2 -0.530406 -2 0 
C -2 0.530406 -1.789267 1.03916 -1.414214 1.414214 
C -1.03916 1.789267 -0.530406 2 0 2 
z
" style="stroke: #9ece6a"/>
    </defs>
    <g clip-path="url(#p4c8b817dd7)">
     <use xlink:href="#m80a2f0619e" x="67.902386" y="218.507217" style="fill: #9ece6a; stroke: #9ece6a"/>
     <use xlink:href="#m80a2f0619e" x="84.811477" y="212.398206" style="fill: #9ece6a; stroke: #9ece6a"/>
     <use xlink:href="#m80a2f0619e" x="101.720568" y="167.386952" style="fill: #9ece6a; stroke: #9ece6a"/>
     <use xlink:href="#m80a2f0619e" x="118.629659" y="208.648592" style="fill: #9ece6a; stroke: #9ece6a"/>
     <use xlink:href="#m80a2f0619e" x="135.53875" y="226.741979" style="fill: #9ece6a; stroke: #9ece6a"/>
     <use xlink:href="#m80a2f0619e" x="152.447841" y="243.785334" style="fill: #9ece6a; stroke: #9ece6a"/>
     <use xlink:href="#m80a2f0619e" x="169.356932" y="271.144804" style="fill: #9ece6a; stroke: #9ece6a"/>
     <use xlink:href="#m80a2f0619e" x="186.266023" y="286.604017" style="fill: #9ece6a; stroke: #9ece6a"/>
     <use xlink:href="#m80a2f0619e" x="203.175114" y="273.257934" style="fill: #9ece6a; stroke: #9ece6a"/>
     <use xlink:href="#m80a2f0619e" x="220.084205" y="256.321119" style="fill: #9ece6a; stroke: #9ece6a"/>
     <use xlink:href="#m80a2f0619e" x="236.993295" y="200.156353" style="fill: #9ece6a; stroke: #9ece6a"/>
     <use xlink:href="#m80a2f0619e" x="253.902386" y="152.118397" style="fill: #9ece6a; stroke: #9ece6a"/>
     <use xlink:href="#m80a2f0619e" x="270.811477" y="124.599602" style="fill: #9ece6a; stroke: #9ece6a"/>
     <use xlink:href="#m80a2f0619e" x="287.720568" y="106.439839" style="fill: #9ece6a; stroke: #9ece6a"/>
     <use xlink:href="#m80a2f0619e" x="304.629659" y="102.054697" style="fill: #9ece6a; stroke: #9ece6a"/>
     <use xlink:href="#m80a2f0619e" x="321.53875" y="117.037265" style="fill: #9ece6a; stroke: #9ece6a"/>
     <use xlink:href="#m80a2f0619e" x="338.447841" y="99.218655" style="fill: #9ece6a; stroke: #9ece6a"/>
     <use xlink:href="#m80a2f0619e" x="355.356932" y="108.193685" style="fill: #9ece6a; stroke: #9ece6a"/>
     <use xlink:href="#m80a2f0619e" x="372.266023" y="69.531564" style="fill: #9ece6a; stroke: #9ece6a"/>
     <use xlink:href="#m80a2f0619e" x="389.175114" y="70.319773" style="fill: #9ece6a; stroke: #9ece6a"/>
     <use xlink:href="#m80a2f0619e" x="406.084205" y="103.293977" style="fill: #9ece6a; stroke: #9ece6a"/>
     <use xlink:href="#m80a2f0619e" x="422.993295" y="116.830718" style="fill: #9ece6a; stroke: #9ece6a"/>
     <use xlink:href="#m80a2f0619e" x="439.902386" y="146.39444" style="fill: #9ece6a; stroke: #9ece6a"/>
     <use xlink:href="#m80a2f0619e" x="456.811477" y="140.019538" style="fill: #9ece6a; stroke: #9ece6a"/>
     <use xlink:href="#m80a2f0619e" x="473.720568" y="97.288239" style="fill: #9ece6a; stroke: #9ece6a"/>
     <use xlink:href="#m80a2f0619e" x="490.629659" y="144.492064" style="fill: #9ece6a; stroke: #9ece6a"/>
     <use xlink:href="#m80a2f0619e" x="507.53875" y="222.225054" style="fill: #9ece6a; stroke: #9ece6a"/>
     <use xlink:href="#m80a2f0619e" x="524.447841" y="287.46198" style="fill: #9ece6a; stroke: #9ece6a"/>
     <use xlink:href="#m80a2f0619e" x="541.356932" y="308.44234" style="fill: #9ece6a; stroke: #9ece6a"/>
     <use xlink:href="#m80a2f0619e" x="558.266023" y="254.295374" style="fill: #9ece6a; stroke: #9ece6a"/>
     <use xlink:href="#m80a2f0619e" x="575.175114" y="289.16996" style="fill: #9ece6a; stroke: #9ece6a"/>
    </g>
   </g>
   <g id="line2d_48">
    <path d="M 67.902386 79.622837 
L 84.811477 205.613947 
L 101.720568 169.711888 
L 118.629659 187.382244 
L 135.53875 213.542156 
L 152.447841 185.70604 
L 169.356932 115.917147 
L 186.266023 156.209607 
L 203.175114 151.379596 
L 220.084205 123.789747 
L 236.993295 176.927813 
L 253.902386 148.186069 
L 270.811477 54.4775 
L 287.720568 107.941273 
L 304.629659 117.177878 
L 321.53875 106.733771 
L 338.447841 120.94576 
L 355.356932 156.455874 
L 372.266023 206.042928 
L 389.175114 173.928957 
L 406.084205 175.879192 
L 422.993295 226.594308 
L 439.902386 130.145025 
L 456.811477 78.810269 
L 473.720568 182.425128 
L 490.629659 242.657272 
L 507.53875 221.384945 
L 524.447841 134.67316 
L 541.356932 79.798216 
L 558.266023 116.648004 
L 575.175114 175.045062 
" clip-path="url(#p4c8b817dd7)" style="fill: none; stroke: #2ac3de; stroke-width: 2; stroke-linecap: square"/>
    <defs>
     <path id="m79643c20ae" d="M 0 2 
C 0.530406 2 1.03916 1.789267 1.414214 1.414214 
C 1.789267 1.03916 2 0.530406 2 0 
C 2 -0.530406 1.789267 -1.03916 1.414214 -1.414214 
C 1.03916 -1.789267 0.530406 -2 0 -2 
C -0.530406 -2 -1.03916 -1.789267 -1.414214 -1.414214 
C -1.789267 -1.03916 -2 -0.530406 -2 0 
C -2 0.530406 -1.789267 1.03916 -1.414214 1.414214 
C -1.03916 1.789267 -0.530406 2 0 2 
z
" style="stroke: #2ac3de"/>
    </defs>
    <g clip-path="url(#p4c8b817dd7)">
     <use xlink:href="#m79643c20ae" x="67.902386" y="79.622837" style="fill: #2ac3de; stroke: #2ac3de"/>
     <use xlink:href="#m79643c20ae" x="84.811477" y="205.613947" style="fill: #2ac3de; stroke: #2ac3de"/>
     <use xlink:href="#m79643c20ae" x="101.720568" y="169.711888" style="fill: #2ac3de; stroke: #2ac3de"/>
     <use xlink:href="#m79643c20ae" x="118.629659" y="187.382244" style="fill: #2ac3de; stroke: #2ac3de"/>
     <use xlink:href="#m79643c20ae" x="135.53875" y="213.542156" style="fill: #2ac3de; stroke: #2ac3de"/>
     <use xlink:href="#m79643c20ae" x="152.447841" y="185.70604" style="fill: #2ac3de; stroke: #2ac3de"/>
     <use xlink:href="#m79643c20ae" x="169.356932" y="115.917147" style="fill: #2ac3de; stroke: #2ac3de"/>
     <use xlink:href="#m79643c20ae" x="186.266023" y="156.209607" style="fill: #2ac3de; stroke: #2ac3de"/>
     <use xlink:href="#m79643c20ae" x="203.175114" y="151.379596" style="fill: #2ac3de; stroke: #2ac3de"/>
     <use xlink:href="#m79643c20ae" x="220.084205" y="123.789747" style="fill: #2ac3de; stroke: #2ac3de"/>
     <use xlink:href="#m79643c20ae" x="236.993295" y="176.927813" style="fill: #2ac3de; stroke: #2ac3de"/>
     <use xlink:href="#m79643c20ae" x="253.902386" y="148.186069" style="fill: #2ac3de; stroke: #2ac3de"/>
     <use xlink:href="#m79643c20ae" x="270.811477" y="54.4775" style="fill: #2ac3de; stroke: #2ac3de"/>
     <use xlink:href="#m79643c20ae" x="287.720568" y="107.941273" style="fill: #2ac3de; stroke: #2ac3de"/>
     <use xlink:href="#m79643c20ae" x="304.629659" y="117.177878" style="fill: #2ac3de; stroke: #2ac3de"/>
     <use xlink:href="#m79643c20ae" x="321.53875" y="106.733771" style="fill: #2ac3de; stroke: #2ac3de"/>
     <use xlink:href="#m79643c20ae" x="338.447841" y="120.94576" style="fill: #2ac3de; stroke: #2ac3de"/>
     <use xlink:href="#m79643c20ae" x="355.356932" y="156.455874" style="fill: #2ac3de; stroke: #2ac3de"/>
     <use xlink:href="#m79643c20ae" x="372.266023" y="206.042928" style="fill: #2ac3de; stroke: #2ac3de"/>
     <use xlink:href="#m79643c20ae" x="389.175114" y="173.928957" style="fill: #2ac3de; stroke: #2ac3de"/>
     <use xlink:href="#m79643c20ae" x="406.084205" y="175.879192" style="fill: #2ac3de; stroke: #2ac3de"/>
     <use xlink:href="#m79643c20ae" x="422.993295" y="226.594308" style="fill: #2ac3de; stroke: #2ac3de"/>
     <use xlink:href="#m79643c20ae" x="439.902386" y="130.145025" style="fill: #2ac3de; stroke: #2ac3de"/>
     <use xlink:href="#m79643c20ae" x="456.811477" y="78.810269" style="fill: #2ac3de; stroke: #2ac3de"/>
     <use xlink:href="#m79643c20ae" x="473.720568" y="182.425128" style="fill: #2ac3de; stroke: #2ac3de"/>
     <use xlink:href="#m79643c20ae" x="490.629659" y="242.657272" style="fill: #2ac3de; stroke: #2ac3de"/>
     <use xlink:href="#m79643c20ae" x="507.53875" y="221.384945" style="fill: #2ac3de; stroke: #2ac3de"/>
     <use xlink:href="#m79643c20ae" x="524.447841" y="134.67316" style="fill: #2ac3de; stroke: #2ac3de"/>
     <use xlink:href="#m79643c20ae" x="541.356932" y="79.798216" style="fill: #2ac3de; stroke: #2ac3de"/>
     <use xlink:href="#m79643c20ae" x="558.266023" y="116.648004" style="fill: #2ac3de; stroke: #2ac3de"/>
     <use xlink:href="#m79643c20ae" x="575.175114" y="175.045062" style="fill: #2ac3de; stroke: #2ac3de"/>
    </g>
   </g>
   <g id="line2d_49">
    <path d="M 67.902386 212.080442 
L 84.811477 213.637485 
L 101.720568 247.225128 
L 118.629659 201.141421 
L 135.53875 229.501847 
L 152.447841 266.298905 
L 169.356932 228.778934 
L 186.266023 180.010122 
L 203.175114 132.218434 
L 220.084205 199.075955 
L 236.993295 225.498022 
L 253.902386 174.957677 
L 270.811477 125.863156 
L 287.720568 102.461978 
L 304.629659 81.415933 
L 321.53875 167.511677 
L 338.447841 274.600486 
L 355.356932 270.159736 
L 372.266023 231.424319 
L 389.175114 238.621671 
L 406.084205 252.347327 
L 422.993295 293.992027 
L 439.902386 309.999383 
L 456.811477 356.8775 
L 473.720568 312.008105 
L 490.629659 288.097507 
L 507.53875 175.291329 
L 524.447841 197.193204 
L 541.356932 207.552307 
L 558.266023 227.253668 
L 575.175114 230.097654 
" clip-path="url(#p4c8b817dd7)" style="fill: none; stroke: #f7768e; stroke-width: 2; stroke-linecap: square"/>
    <defs>
     <path id="m4dc35811fa" d="M 0 2 
C 0.530406 2 1.03916 1.789267 1.414214 1.414214 
C 1.789267 1.03916 2 0.530406 2 0 
C 2 -0.530406 1.789267 -1.03916 1.414214 -1.414214 
C 1.03916 -1.789267 0.530406 -2 0 -2 
C -0.530406 -2 -1.03916 -1.789267 -1.414214 -1.414214 
C -1.789267 -1.03916 -2 -0.530406 -2 0 
C -2 0.530406 -1.789267 1.03916 -1.414214 1.414214 
C -1.03916 1.789267 -0.530406 2 0 2 
z
" style="stroke: #f7768e"/>
    </defs>
    <g clip-path="url(#p4c8b817dd7)">
     <use xlink:href="#m4dc35811fa" x="67.902386" y="212.080442" style="fill: #f7768e; stroke: #f7768e"/>
     <use xlink:href="#m4dc35811fa" x="84.811477" y="213.637485" style="fill: #f7768e; stroke: #f7768e"/>
     <use xlink:href="#m4dc35811fa" x="101.720568" y="247.225128" style="fill: #f7768e; stroke: #f7768e"/>
     <use xlink:href="#m4dc35811fa" x="118.629659" y="201.141421" style="fill: #f7768e; stroke: #f7768e"/>
     <use xlink:href="#m4dc35811fa" x="135.53875" y="229.501847" style="fill: #f7768e; stroke: #f7768e"/>
     <use xlink:href="#m4dc35811fa" x="152.447841" y="266.298905" style="fill: #f7768e; stroke: #f7768e"/>
     <use xlink:href="#m4dc35811fa" x="169.356932" y="228.778934" style="fill: #f7768e; stroke: #f7768e"/>
     <use xlink:href="#m4dc35811fa" x="186.266023" y="180.010122" style="fill: #f7768e; stroke: #f7768e"/>
     <use xlink:href="#m4dc35811fa" x="203.175114" y="132.218434" style="fill: #f7768e; stroke: #f7768e"/>
     <use xlink:href="#m4dc35811fa" x="220.084205" y="199.075955" style="fill: #f7768e; stroke: #f7768e"/>
     <use xlink:href="#m4dc35811fa" x="236.993295" y="225.498022" style="fill: #f7768e; stroke: #f7768e"/>
     <use xlink:href="#m4dc35811fa" x="253.902386" y="174.957677" style="fill: #f7768e; stroke: #f7768e"/>
     <use xlink:href="#m4dc35811fa" x="270.811477" y="125.863156" style="fill: #f7768e; stroke: #f7768e"/>
     <use xlink:href="#m4dc35811fa" x="287.720568" y="102.461978" style="fill: #f7768e; stroke: #f7768e"/>
     <use xlink:href="#m4dc35811fa" x="304.629659" y="81.415933" style="fill: #f7768e; stroke: #f7768e"/>
     <use xlink:href="#m4dc35811fa" x="321.53875" y="167.511677" style="fill: #f7768e; stroke: #f7768e"/>
     <use xlink:href="#m4dc35811fa" x="338.447841" y="274.600486" style="fill: #f7768e; stroke: #f7768e"/>
     <use xlink:href="#m4dc35811fa" x="355.356932" y="270.159736" style="fill: #f7768e; stroke: #f7768e"/>
     <use xlink:href="#m4dc35811fa" x="372.266023" y="231.424319" style="fill: #f7768e; stroke: #f7768e"/>
     <use xlink:href="#m4dc35811fa" x="389.175114" y="238.621671" style="fill: #f7768e; stroke: #f7768e"/>
     <use xlink:href="#m4dc35811fa" x="406.084205" y="252.347327" style="fill: #f7768e; stroke: #f7768e"/>
     <use xlink:href="#m4dc35811fa" x="422.993295" y="293.992027" style="fill: #f7768e; stroke: #f7768e"/>
     <use xlink:href="#m4dc35811fa" x="439.902386" y="309.999383" style="fill: #f7768e; stroke: #f7768e"/>
     <use xlink:href="#m4dc35811fa" x="456.811477" y="356.8775" style="fill: #f7768e; stroke: #f7768e"/>
     <use xlink:href="#m4dc35811fa" x="473.720568" y="312.008105" style="fill: #f7768e; stroke: #f7768e"/>
     <use xlink:href="#m4dc35811fa" x="490.629659" y="288.097507" style="fill: #f7768e; stroke: #f7768e"/>
     <use xlink:href="#m4dc35811fa" x="507.53875" y="175.291329" style="fill: #f7768e; stroke: #f7768e"/>
     <use xlink:href="#m4dc35811fa" x="524.447841" y="197.193204" style="fill: #f7768e; stroke: #f7768e"/>
     <use xlink:href="#m4dc35811fa" x="541.356932" y="207.552307" style="fill: #f7768e; stroke: #f7768e"/>
     <use xlink:href="#m4dc35811fa" x="558.266023" y="227.253668" style="fill: #f7768e; stroke: #f7768e"/>
     <use xlink:href="#m4dc35811fa" x="575.175114" y="230.097654" style="fill: #f7768e; stroke: #f7768e"/>
    </g>
   </g>
   <g id="patch_3">
    <path d="M 42.53875 371.9975 
L 42.53875 39.3575 
" style="fill: none; stroke: #a9b1d6; stroke-width: 0.8; stroke-linejoin: miter; stroke-linecap: square"/>
   </g>
   <g id="patch_4">
    <path d="M 600.53875 371.9975 
L 600.53875 39.3575 
" style="fill: none; stroke: #a9b1d6; stroke-width: 0.8; stroke-linejoin: miter; stroke-linecap: square"/>
   </g>
   <g id="patch_5">
    <path d="M 42.53875 371.9975 
L 600.53875 371.9975 
" style="fill: none; stroke: #a9b1d6; stroke-width: 0.8; stroke-linejoin: miter; stroke-linecap: square"/>
   </g>
   <g id="patch_6">
    <path d="M 42.53875 39.3575 
L 600.53875 39.3575 
" style="fill: none; stroke: #a9b1d6; stroke-width: 0.8; stroke-linejoin: miter; stroke-linecap: square"/>
   </g>
   <g id="text_26">
    <!-- August - Durchschnittswerte am Tag -->
    <g style="fill: #a9b1d6" transform="translate(176.25625 19.3575) scale(0.16 -0.16)">
     <defs>
      <path id="DejaVuSans-41" d="M 2188 4044 
L 1331 1722 
L 3047 1722 
L 2188 4044 
z
M 1831 4666 
L 2547 4666 
L 4325 0 
L 3669 0 
L 3244 1197 
L 1141 1197 
L 716 0 
L 50 0 
L 1831 4666 
z
" transform="scale(0.015625)"/>
      <path id="DejaVuSans-2d" d="M 313 2009 
L 1997 2009 
L 1997 1497 
L 313 1497 
L 313 2009 
z
" transform="scale(0.015625)"/>
      <path id="DejaVuSans-44" d="M 1259 4147 
L 1259 519 
L 2022 519 
Q 2988 519 3436 956 
Q 3884 1394 3884 2338 
Q 3884 3275 3436 3711 
Q 2988 4147 2022 4147 
L 1259 4147 
z
M 628 4666 
L 1925 4666 
Q 3281 4666 3915 4102 
Q 4550 3538 4550 2338 
Q 4550 1131 3912 565 
Q 3275 0 1925 0 
L 628 0 
L 628 4666 
z
" transform="scale(0.015625)"/>
      <path id="DejaVuSans-63" d="M 3122 3366 
L 3122 2828 
Q 2878 2963 2633 3030 
Q 2388 3097 2138 3097 
Q 1578 3097 1268 2742 
Q 959 2388 959 1747 
Q 959 1106 1268 751 
Q 1578 397 2138 397 
Q 2388 397 2633 464 
Q 2878 531 3122 666 
L 3122 134 
Q 2881 22 2623 -34 
Q 2366 -91 2075 -91 
Q 1284 -91 818 406 
Q 353 903 353 1747 
Q 353 2603 823 3093 
Q 1294 3584 2113 3584 
Q 2378 3584 2631 3529 
Q 2884 3475 3122 3366 
z
" transform="scale(0.015625)"/>
      <path id="DejaVuSans-68" d="M 3513 2113 
L 3513 0 
L 2938 0 
L 2938 2094 
Q 2938 2591 2744 2837 
Q 2550 3084 2163 3084 
Q 1697 3084 1428 2787 
Q 1159 2491 1159 1978 
L 1159 0 
L 581 0 
L 581 4863 
L 1159 4863 
L 1159 2956 
Q 1366 3272 1645 3428 
Q 1925 3584 2291 3584 
Q 2894 3584 3203 3211 
Q 3513 2838 3513 2113 
z
" transform="scale(0.015625)"/>
      <path id="DejaVuSans-77" d="M 269 3500 
L 844 3500 
L 1563 769 
L 2278 3500 
L 2956 3500 
L 3675 769 
L 4391 3500 
L 4966 3500 
L 4050 0 
L 3372 0 
L 2619 2869 
L 1863 0 
L 1184 0 
L 269 3500 
z
" transform="scale(0.015625)"/>
     </defs>
     <use xlink:href="#DejaVuSans-41"/>
     <use xlink:href="#DejaVuSans-75" transform="translate(68.408203 0)"/>
     <use xlink:href="#DejaVuSans-67" transform="translate(131.787109 0)"/>
     <use xlink:href="#DejaVuSans-75" transform="translate(195.263672 0)"/>
     <use xlink:href="#DejaVuSans-73" transform="translate(258.642578 0)"/>
     <use xlink:href="#DejaVuSans-74" transform="translate(310.742188 0)"/>
     <use xlink:href="#DejaVuSans-20" transform="translate(349.951172 0)"/>
     <use xlink:href="#DejaVuSans-2d" transform="translate(381.738281 0)"/>
     <use xlink:href="#DejaVuSans-20" transform="translate(417.822266 0)"/>
     <use xlink:href="#DejaVuSans-44" transform="translate(449.609375 0)"/>
     <use xlink:href="#DejaVuSans-75" transform="translate(526.611328 0)"/>
     <use xlink:href="#DejaVuSans-72" transform="translate(589.990234 0)"/>
     <use xlink:href="#DejaVuSans-63" transform="translate(628.853516 0)"/>
     <use xlink:href="#DejaVuSans-68" transform="translate(683.833984 0)"/>
     <use xlink:href="#DejaVuSans-73" transform="translate(747.212891 0)"/>
     <use xlink:href="#DejaVuSans-63" transform="translate(799.3125 0)"/>
     <use xlink:href="#DejaVuSans-68" transform="translate(854.292969 0)"/>
     <use xlink:href="#DejaVuSans-6e" transform="translate(917.671875 0)"/>
     <use xlink:href="#DejaVuSans-69" transform="translate(981.050781 0)"/>
     <use xlink:href="#DejaVuSans-74" transform="translate(1008.833984 0)"/>
     <use xlink:href="#DejaVuSans-74" transform="translate(1048.042969 0)"/>
     <use xlink:href="#DejaVuSans-73" transform="translate(1087.251953 0)"/>
     <use xlink:href="#DejaVuSans-77" transform="translate(1139.351562 0)"/>
     <use xlink:href="#DejaVuSans-65" transform="translate(1221.138672 0)"/>
     <use xlink:href="#DejaVuSans-72" transform="translate(1282.662109 0)"/>
     <use xlink:href="#DejaVuSans-74" transform="translate(1323.775391 0)"/>
     <use xlink:href="#DejaVuSans-65" transform="translate(1362.984375 0)"/>
     <use xlink:href="#DejaVuSans-20" transform="translate(1424.507812 0)"/>
     <use xlink:href="#DejaVuSans-61" transform="translate(1456.294922 0)"/>
     <use xlink:href="#DejaVuSans-6d" transform="translate(1517.574219 0)"/>
     <use xlink:href="#DejaVuSans-20" transform="translate(1614.986328 0)"/>
     <use xlink:href="#DejaVuSans-54" transform="translate(1646.773438 0)"/>
     <use xlink:href="#DejaVuSans-61" transform="translate(1691.357422 0)"/>
     <use xlink:href="#DejaVuSans-67" transform="translate(1752.636719 0)"/>
    </g>
   </g>
   <g id="legend_1">
    <g id="patch_7">
     <path d="M 49.53875 366.9975 
L 106.98875 366.9975 
Q 108.98875 366.9975 108.98875 364.9975 
L 108.98875 307.285 
Q 108.98875 305.285 106.98875 305.285 
L 49.53875 305.285 
Q 47.53875 305.285 47.53875 307.285 
L 47.53875 364.9975 
Q 47.53875 366.9975 49.53875 366.9975 
z
" style="fill: #1a1b26; opacity: 0.8; stroke: #a9b1d6; stroke-linejoin: miter"/>
    </g>
    <g id="text_27">
     <!-- Jahr -->
     <g style="fill: #a9b1d6" transform="translate(68.500469 316.883438) scale(0.1 -0.1)">
      <defs>
       <path id="DejaVuSans-4a" d="M 628 4666 
L 1259 4666 
L 1259 325 
Q 1259 -519 939 -900 
Q 619 -1281 -91 -1281 
L -331 -1281 
L -331 -750 
L -134 -750 
Q 284 -750 456 -515 
Q 628 -281 628 325 
L 628 4666 
z
" transform="scale(0.015625)"/>
      </defs>
      <use xlink:href="#DejaVuSans-4a"/>
      <use xlink:href="#DejaVuSans-61" transform="translate(29.492188 0)"/>
      <use xlink:href="#DejaVuSans-68" transform="translate(90.771484 0)"/>
      <use xlink:href="#DejaVuSans-72" transform="translate(154.150391 0)"/>
     </g>
    </g>
    <g id="line2d_50">
     <path d="M 51.53875 328.061562 
L 61.53875 328.061562 
L 71.53875 328.061562 
" style="fill: none; stroke: #9ece6a; stroke-width: 2; stroke-linecap: square"/>
     <g>
      <use xlink:href="#m80a2f0619e" x="61.53875" y="328.061562" style="fill: #9ece6a; stroke: #9ece6a"/>
     </g>
    </g>
    <g id="text_28">
     <!-- 2023 -->
     <g style="fill: #a9b1d6" transform="translate(79.53875 331.561562) scale(0.1 -0.1)">
      <use xlink:href="#DejaVuSans-32"/>
      <use xlink:href="#DejaVuSans-30" transform="translate(63.623047 0)"/>
      <use xlink:href="#DejaVuSans-32" transform="translate(127.246094 0)"/>
      <use xlink:href="#DejaVuSans-33" transform="translate(190.869141 0)"/>
     </g>
    </g>
    <g id="line2d_51">
     <path d="M 51.53875 342.739687 
L 61.53875 342.739687 
L 71.53875 342.739687 
" style="fill: none; stroke: #2ac3de; stroke-width: 2; stroke-linecap: square"/>
     <g>
      <use xlink:href="#m79643c20ae" x="61.53875" y="342.739687" style="fill: #2ac3de; stroke: #2ac3de"/>
     </g>
    </g>
    <g id="text_29">
     <!-- 2024 -->
     <g style="fill: #a9b1d6" transform="translate(79.53875 346.239687) scale(0.1 -0.1)">
      <use xlink:href="#DejaVuSans-32"/>
      <use xlink:href="#DejaVuSans-30" transform="translate(63.623047 0)"/>
      <use xlink:href="#DejaVuSans-32" transform="translate(127.246094 0)"/>
      <use xlink:href="#DejaVuSans-34" transform="translate(190.869141 0)"/>
     </g>
    </g>
    <g id="line2d_52">
     <path d="M 51.53875 357.417812 
L 61.53875 357.417812 
L 71.53875 357.417812 
" style="fill: none; stroke: #f7768e; stroke-width: 2; stroke-linecap: square"/>
     <g>
      <use xlink:href="#m4dc35811fa" x="61.53875" y="357.417812" style="fill: #f7768e; stroke: #f7768e"/>
     </g>
    </g>
    <g id="text_30">
     <!-- 2025 -->
     <g style="fill: #a9b1d6" transform="translate(79.53875 360.917812) scale(0.1 -0.1)">
      <use xlink:href="#DejaVuSans-32"/>
      <use xlink:href="#DejaVuSans-30" transform="translate(63.623047 0)"/>
      <use xlink:href="#DejaVuSans-32" transform="translate(127.246094 0)"/>
      <use xlink:href="#DejaVuSans-35" transform="translate(190.869141 0)"/>
     </g>
    </g>
   </g>
  </g>
 </g>
 <defs>
  <clipPath id="p4c8b817dd7">
   <rect x="42.53875" y="39.3575" width="558" height="332.64"/>
  </clipPath>
 </defs>
</svg>
