<?xml version="1.0" encoding="utf-8" standalone="no"?>
<!DOCTYPE svg PUBLIC "-//W3C//DTD SVG 1.1//EN"
  "http://www.w3.org/Graphics/SVG/1.1/DTD/svg11.dtd">
<svg xmlns:xlink="http://www.w3.org/1999/xlink" width="615.34375pt" height="409.55375pt" viewBox="0 0 615.34375 409.55375" xmlns="http://www.w3.org/2000/svg" version="1.1">
 <metadata>
  <rdf:RDF xmlns:dc="http://purl.org/dc/elements/1.1/" xmlns:cc="http://creativecommons.org/ns#" xmlns:rdf="http://www.w3.org/1999/02/22-rdf-syntax-ns#">
   <cc:Work>
    <dc:type rdf:resource="http://purl.org/dc/dcmitype/StillImage"/>
    <dc:date>2026-04-26T14:35:01.168416</dc:date>
    <dc:format>image/svg+xml</dc:format>
    <dc:creator>
     <cc:Agent>
      <dc:title>Matplotlib v3.10.8, https://matplotlib.org/</dc:title>
     </cc:Agent>
    </dc:creator>
   </cc:Work>
  </rdf:RDF>
 </metadata>
 <defs>
  <style type="text/css">*{stroke-linejoin: round; stroke-linecap: butt}</style>
 </defs>
 <g id="figure_1">
  <g id="patch_1">
   <path d="M 0 409.55375 
L 615.34375 409.55375 
L 615.34375 0 
L 0 0 
z
" style="fill: #1a1b26"/>
  </g>
  <g id="axes_1">
   <g id="patch_2">
    <path d="M 50.14375 371.9975 
L 608.14375 371.9975 
L 608.14375 39.3575 
L 50.14375 39.3575 
z
" style="fill: #1a1b26"/>
   </g>
   <g id="matplotlib.axis_1">
    <g id="xtick_1">
     <g id="line2d_1">
      <path d="M 75.507386 371.9975 
L 75.507386 39.3575 
" clip-path="url(#p3bfe2aa783)" style="fill: none; stroke-dasharray: 2.96,1.28; stroke-dashoffset: 0; stroke: #2f3549; stroke-opacity: 0.5; stroke-width: 0.8"/>
     </g>
     <g id="line2d_2">
      <defs>
       <path id="m49c813ee25" d="M 0 0 
L 0 3.5 
" style="stroke: #a9b1d6; stroke-width: 0.8"/>
      </defs>
      <g>
       <use xlink:href="#m49c813ee25" x="75.507386" y="371.9975" style="fill: #a9b1d6; stroke: #a9b1d6; stroke-width: 0.8"/>
      </g>
     </g>
     <g id="text_1">
      <!-- 1 -->
      <g style="fill: #a9b1d6" transform="translate(72.326136 386.595937) scale(0.1 -0.1)">
       <defs>
        <path id="DejaVuSans-31" d="M 794 531 
L 1825 531 
L 1825 4091 
L 703 3866 
L 703 4441 
L 1819 4666 
L 2450 4666 
L 2450 531 
L 3481 531 
L 3481 0 
L 794 0 
L 794 531 
z
" transform="scale(0.015625)"/>
       </defs>
       <use xlink:href="#DejaVuSans-31"/>
      </g>
     </g>
    </g>
    <g id="xtick_2">
     <g id="line2d_3">
      <path d="M 110.491712 371.9975 
L 110.491712 39.3575 
" clip-path="url(#p3bfe2aa783)" style="fill: none; stroke-dasharray: 2.96,1.28; stroke-dashoffset: 0; stroke: #2f3549; stroke-opacity: 0.5; stroke-width: 0.8"/>
     </g>
     <g id="line2d_4">
      <g>
       <use xlink:href="#m49c813ee25" x="110.491712" y="371.9975" style="fill: #a9b1d6; stroke: #a9b1d6; stroke-width: 0.8"/>
      </g>
     </g>
     <g id="text_2">
      <!-- 3 -->
      <g style="fill: #a9b1d6" transform="translate(107.310462 386.595937) scale(0.1 -0.1)">
       <defs>
        <path id="DejaVuSans-33" d="M 2597 2516 
Q 3050 2419 3304 2112 
Q 3559 1806 3559 1356 
Q 3559 666 3084 287 
Q 2609 -91 1734 -91 
Q 1441 -91 1130 -33 
Q 819 25 488 141 
L 488 750 
Q 750 597 1062 519 
Q 1375 441 1716 441 
Q 2309 441 2620 675 
Q 2931 909 2931 1356 
Q 2931 1769 2642 2001 
Q 2353 2234 1838 2234 
L 1294 2234 
L 1294 2753 
L 1863 2753 
Q 2328 2753 2575 2939 
Q 2822 3125 2822 3475 
Q 2822 3834 2567 4026 
Q 2313 4219 1838 4219 
Q 1578 4219 1281 4162 
Q 984 4106 628 3988 
L 628 4550 
Q 988 4650 1302 4700 
Q 1616 4750 1894 4750 
Q 2613 4750 3031 4423 
Q 3450 4097 3450 3541 
Q 3450 3153 3228 2886 
Q 3006 2619 2597 2516 
z
" transform="scale(0.015625)"/>
       </defs>
       <use xlink:href="#DejaVuSans-33"/>
      </g>
     </g>
    </g>
    <g id="xtick_3">
     <g id="line2d_5">
      <path d="M 145.476038 371.9975 
L 145.476038 39.3575 
" clip-path="url(#p3bfe2aa783)" style="fill: none; stroke-dasharray: 2.96,1.28; stroke-dashoffset: 0; stroke: #2f3549; stroke-opacity: 0.5; stroke-width: 0.8"/>
     </g>
     <g id="line2d_6">
      <g>
       <use xlink:href="#m49c813ee25" x="145.476038" y="371.9975" style="fill: #a9b1d6; stroke: #a9b1d6; stroke-width: 0.8"/>
      </g>
     </g>
     <g id="text_3">
      <!-- 5 -->
      <g style="fill: #a9b1d6" transform="translate(142.294788 386.595937) scale(0.1 -0.1)">
       <defs>
        <path id="DejaVuSans-35" d="M 691 4666 
L 3169 4666 
L 3169 4134 
L 1269 4134 
L 1269 2991 
Q 1406 3038 1543 3061 
Q 1681 3084 1819 3084 
Q 2600 3084 3056 2656 
Q 3513 2228 3513 1497 
Q 3513 744 3044 326 
Q 2575 -91 1722 -91 
Q 1428 -91 1123 -41 
Q 819 9 494 109 
L 494 744 
Q 775 591 1075 516 
Q 1375 441 1709 441 
Q 2250 441 2565 725 
Q 2881 1009 2881 1497 
Q 2881 1984 2565 2268 
Q 2250 2553 1709 2553 
Q 1456 2553 1204 2497 
Q 953 2441 691 2322 
L 691 4666 
z
" transform="scale(0.015625)"/>
       </defs>
       <use xlink:href="#DejaVuSans-35"/>
      </g>
     </g>
    </g>
    <g id="xtick_4">
     <g id="line2d_7">
      <path d="M 180.460364 371.9975 
L 180.460364 39.3575 
" clip-path="url(#p3bfe2aa783)" style="fill: none; stroke-dasharray: 2.96,1.28; stroke-dashoffset: 0; stroke: #2f3549; stroke-opacity: 0.5; stroke-width: 0.8"/>
     </g>
     <g id="line2d_8">
      <g>
       <use xlink:href="#m49c813ee25" x="180.460364" y="371.9975" style="fill: #a9b1d6; stroke: #a9b1d6; stroke-width: 0.8"/>
      </g>
     </g>
     <g id="text_4">
      <!-- 7 -->
      <g style="fill: #a9b1d6" transform="translate(177.279114 386.595937) scale(0.1 -0.1)">
       <defs>
        <path id="DejaVuSans-37" d="M 525 4666 
L 3525 4666 
L 3525 4397 
L 1831 0 
L 1172 0 
L 2766 4134 
L 525 4134 
L 525 4666 
z
" transform="scale(0.015625)"/>
       </defs>
       <use xlink:href="#DejaVuSans-37"/>
      </g>
     </g>
    </g>
    <g id="xtick_5">
     <g id="line2d_9">
      <path d="M 215.44469 371.9975 
L 215.44469 39.3575 
" clip-path="url(#p3bfe2aa783)" style="fill: none; stroke-dasharray: 2.96,1.28; stroke-dashoffset: 0; stroke: #2f3549; stroke-opacity: 0.5; stroke-width: 0.8"/>
     </g>
     <g id="line2d_10">
      <g>
       <use xlink:href="#m49c813ee25" x="215.44469" y="371.9975" style="fill: #a9b1d6; stroke: #a9b1d6; stroke-width: 0.8"/>
      </g>
     </g>
     <g id="text_5">
      <!-- 9 -->
      <g style="fill: #a9b1d6" transform="translate(212.26344 386.595937) scale(0.1 -0.1)">
       <defs>
        <path id="DejaVuSans-39" d="M 703 97 
L 703 672 
Q 941 559 1184 500 
Q 1428 441 1663 441 
Q 2288 441 2617 861 
Q 2947 1281 2994 2138 
Q 2813 1869 2534 1725 
Q 2256 1581 1919 1581 
Q 1219 1581 811 2004 
Q 403 2428 403 3163 
Q 403 3881 828 4315 
Q 1253 4750 1959 4750 
Q 2769 4750 3195 4129 
Q 3622 3509 3622 2328 
Q 3622 1225 3098 567 
Q 2575 -91 1691 -91 
Q 1453 -91 1209 -44 
Q 966 3 703 97 
z
M 1959 2075 
Q 2384 2075 2632 2365 
Q 2881 2656 2881 3163 
Q 2881 3666 2632 3958 
Q 2384 4250 1959 4250 
Q 1534 4250 1286 3958 
Q 1038 3666 1038 3163 
Q 1038 2656 1286 2365 
Q 1534 2075 1959 2075 
z
" transform="scale(0.015625)"/>
       </defs>
       <use xlink:href="#DejaVuSans-39"/>
      </g>
     </g>
    </g>
    <g id="xtick_6">
     <g id="line2d_11">
      <path d="M 250.429016 371.9975 
L 250.429016 39.3575 
" clip-path="url(#p3bfe2aa783)" style="fill: none; stroke-dasharray: 2.96,1.28; stroke-dashoffset: 0; stroke: #2f3549; stroke-opacity: 0.5; stroke-width: 0.8"/>
     </g>
     <g id="line2d_12">
      <g>
       <use xlink:href="#m49c813ee25" x="250.429016" y="371.9975" style="fill: #a9b1d6; stroke: #a9b1d6; stroke-width: 0.8"/>
      </g>
     </g>
     <g id="text_6">
      <!-- 11 -->
      <g style="fill: #a9b1d6" transform="translate(244.066516 386.595937) scale(0.1 -0.1)">
       <use xlink:href="#DejaVuSans-31"/>
       <use xlink:href="#DejaVuSans-31" transform="translate(63.623047 0)"/>
      </g>
     </g>
    </g>
    <g id="xtick_7">
     <g id="line2d_13">
      <path d="M 285.413342 371.9975 
L 285.413342 39.3575 
" clip-path="url(#p3bfe2aa783)" style="fill: none; stroke-dasharray: 2.96,1.28; stroke-dashoffset: 0; stroke: #2f3549; stroke-opacity: 0.5; stroke-width: 0.8"/>
     </g>
     <g id="line2d_14">
      <g>
       <use xlink:href="#m49c813ee25" x="285.413342" y="371.9975" style="fill: #a9b1d6; stroke: #a9b1d6; stroke-width: 0.8"/>
      </g>
     </g>
     <g id="text_7">
      <!-- 13 -->
      <g style="fill: #a9b1d6" transform="translate(279.050842 386.595937) scale(0.1 -0.1)">
       <use xlink:href="#DejaVuSans-31"/>
       <use xlink:href="#DejaVuSans-33" transform="translate(63.623047 0)"/>
      </g>
     </g>
    </g>
    <g id="xtick_8">
     <g id="line2d_15">
      <path d="M 320.397668 371.9975 
L 320.397668 39.3575 
" clip-path="url(#p3bfe2aa783)" style="fill: none; stroke-dasharray: 2.96,1.28; stroke-dashoffset: 0; stroke: #2f3549; stroke-opacity: 0.5; stroke-width: 0.8"/>
     </g>
     <g id="line2d_16">
      <g>
       <use xlink:href="#m49c813ee25" x="320.397668" y="371.9975" style="fill: #a9b1d6; stroke: #a9b1d6; stroke-width: 0.8"/>
      </g>
     </g>
     <g id="text_8">
      <!-- 15 -->
      <g style="fill: #a9b1d6" transform="translate(314.035168 386.595937) scale(0.1 -0.1)">
       <use xlink:href="#DejaVuSans-31"/>
       <use xlink:href="#DejaVuSans-35" transform="translate(63.623047 0)"/>
      </g>
     </g>
    </g>
    <g id="xtick_9">
     <g id="line2d_17">
      <path d="M 355.381995 371.9975 
L 355.381995 39.3575 
" clip-path="url(#p3bfe2aa783)" style="fill: none; stroke-dasharray: 2.96,1.28; stroke-dashoffset: 0; stroke: #2f3549; stroke-opacity: 0.5; stroke-width: 0.8"/>
     </g>
     <g id="line2d_18">
      <g>
       <use xlink:href="#m49c813ee25" x="355.381995" y="371.9975" style="fill: #a9b1d6; stroke: #a9b1d6; stroke-width: 0.8"/>
      </g>
     </g>
     <g id="text_9">
      <!-- 17 -->
      <g style="fill: #a9b1d6" transform="translate(349.019495 386.595937) scale(0.1 -0.1)">
       <use xlink:href="#DejaVuSans-31"/>
       <use xlink:href="#DejaVuSans-37" transform="translate(63.623047 0)"/>
      </g>
     </g>
    </g>
    <g id="xtick_10">
     <g id="line2d_19">
      <path d="M 390.366321 371.9975 
L 390.366321 39.3575 
" clip-path="url(#p3bfe2aa783)" style="fill: none; stroke-dasharray: 2.96,1.28; stroke-dashoffset: 0; stroke: #2f3549; stroke-opacity: 0.5; stroke-width: 0.8"/>
     </g>
     <g id="line2d_20">
      <g>
       <use xlink:href="#m49c813ee25" x="390.366321" y="371.9975" style="fill: #a9b1d6; stroke: #a9b1d6; stroke-width: 0.8"/>
      </g>
     </g>
     <g id="text_10">
      <!-- 19 -->
      <g style="fill: #a9b1d6" transform="translate(384.003821 386.595937) scale(0.1 -0.1)">
       <use xlink:href="#DejaVuSans-31"/>
       <use xlink:href="#DejaVuSans-39" transform="translate(63.623047 0)"/>
      </g>
     </g>
    </g>
    <g id="xtick_11">
     <g id="line2d_21">
      <path d="M 425.350647 371.9975 
L 425.350647 39.3575 
" clip-path="url(#p3bfe2aa783)" style="fill: none; stroke-dasharray: 2.96,1.28; stroke-dashoffset: 0; stroke: #2f3549; stroke-opacity: 0.5; stroke-width: 0.8"/>
     </g>
     <g id="line2d_22">
      <g>
       <use xlink:href="#m49c813ee25" x="425.350647" y="371.9975" style="fill: #a9b1d6; stroke: #a9b1d6; stroke-width: 0.8"/>
      </g>
     </g>
     <g id="text_11">
      <!-- 21 -->
      <g style="fill: #a9b1d6" transform="translate(418.988147 386.595937) scale(0.1 -0.1)">
       <defs>
        <path id="DejaVuSans-32" d="M 1228 531 
L 3431 531 
L 3431 0 
L 469 0 
L 469 531 
Q 828 903 1448 1529 
Q 2069 2156 2228 2338 
Q 2531 2678 2651 2914 
Q 2772 3150 2772 3378 
Q 2772 3750 2511 3984 
Q 2250 4219 1831 4219 
Q 1534 4219 1204 4116 
Q 875 4013 500 3803 
L 500 4441 
Q 881 4594 1212 4672 
Q 1544 4750 1819 4750 
Q 2544 4750 2975 4387 
Q 3406 4025 3406 3419 
Q 3406 3131 3298 2873 
Q 3191 2616 2906 2266 
Q 2828 2175 2409 1742 
Q 1991 1309 1228 531 
z
" transform="scale(0.015625)"/>
       </defs>
       <use xlink:href="#DejaVuSans-32"/>
       <use xlink:href="#DejaVuSans-31" transform="translate(63.623047 0)"/>
      </g>
     </g>
    </g>
    <g id="xtick_12">
     <g id="line2d_23">
      <path d="M 460.334973 371.9975 
L 460.334973 39.3575 
" clip-path="url(#p3bfe2aa783)" style="fill: none; stroke-dasharray: 2.96,1.28; stroke-dashoffset: 0; stroke: #2f3549; stroke-opacity: 0.5; stroke-width: 0.8"/>
     </g>
     <g id="line2d_24">
      <g>
       <use xlink:href="#m49c813ee25" x="460.334973" y="371.9975" style="fill: #a9b1d6; stroke: #a9b1d6; stroke-width: 0.8"/>
      </g>
     </g>
     <g id="text_12">
      <!-- 23 -->
      <g style="fill: #a9b1d6" transform="translate(453.972473 386.595937) scale(0.1 -0.1)">
       <use xlink:href="#DejaVuSans-32"/>
       <use xlink:href="#DejaVuSans-33" transform="translate(63.623047 0)"/>
      </g>
     </g>
    </g>
    <g id="xtick_13">
     <g id="line2d_25">
      <path d="M 495.319299 371.9975 
L 495.319299 39.3575 
" clip-path="url(#p3bfe2aa783)" style="fill: none; stroke-dasharray: 2.96,1.28; stroke-dashoffset: 0; stroke: #2f3549; stroke-opacity: 0.5; stroke-width: 0.8"/>
     </g>
     <g id="line2d_26">
      <g>
       <use xlink:href="#m49c813ee25" x="495.319299" y="371.9975" style="fill: #a9b1d6; stroke: #a9b1d6; stroke-width: 0.8"/>
      </g>
     </g>
     <g id="text_13">
      <!-- 25 -->
      <g style="fill: #a9b1d6" transform="translate(488.956799 386.595937) scale(0.1 -0.1)">
       <use xlink:href="#DejaVuSans-32"/>
       <use xlink:href="#DejaVuSans-35" transform="translate(63.623047 0)"/>
      </g>
     </g>
    </g>
    <g id="xtick_14">
     <g id="line2d_27">
      <path d="M 530.303625 371.9975 
L 530.303625 39.3575 
" clip-path="url(#p3bfe2aa783)" style="fill: none; stroke-dasharray: 2.96,1.28; stroke-dashoffset: 0; stroke: #2f3549; stroke-opacity: 0.5; stroke-width: 0.8"/>
     </g>
     <g id="line2d_28">
      <g>
       <use xlink:href="#m49c813ee25" x="530.303625" y="371.9975" style="fill: #a9b1d6; stroke: #a9b1d6; stroke-width: 0.8"/>
      </g>
     </g>
     <g id="text_14">
      <!-- 27 -->
      <g style="fill: #a9b1d6" transform="translate(523.941125 386.595937) scale(0.1 -0.1)">
       <use xlink:href="#DejaVuSans-32"/>
       <use xlink:href="#DejaVuSans-37" transform="translate(63.623047 0)"/>
      </g>
     </g>
    </g>
    <g id="xtick_15">
     <g id="line2d_29">
      <path d="M 565.287951 371.9975 
L 565.287951 39.3575 
" clip-path="url(#p3bfe2aa783)" style="fill: none; stroke-dasharray: 2.96,1.28; stroke-dashoffset: 0; stroke: #2f3549; stroke-opacity: 0.5; stroke-width: 0.8"/>
     </g>
     <g id="line2d_30">
      <g>
       <use xlink:href="#m49c813ee25" x="565.287951" y="371.9975" style="fill: #a9b1d6; stroke: #a9b1d6; stroke-width: 0.8"/>
      </g>
     </g>
     <g id="text_15">
      <!-- 29 -->
      <g style="fill: #a9b1d6" transform="translate(558.925451 386.595937) scale(0.1 -0.1)">
       <use xlink:href="#DejaVuSans-32"/>
       <use xlink:href="#DejaVuSans-39" transform="translate(63.623047 0)"/>
      </g>
     </g>
    </g>
    <g id="xtick_16">
     <g id="line2d_31">
      <path d="M 600.272277 371.9975 
L 600.272277 39.3575 
" clip-path="url(#p3bfe2aa783)" style="fill: none; stroke-dasharray: 2.96,1.28; stroke-dashoffset: 0; stroke: #2f3549; stroke-opacity: 0.5; stroke-width: 0.8"/>
     </g>
     <g id="line2d_32">
      <g>
       <use xlink:href="#m49c813ee25" x="600.272277" y="371.9975" style="fill: #a9b1d6; stroke: #a9b1d6; stroke-width: 0.8"/>
      </g>
     </g>
     <g id="text_16">
      <!-- 31 -->
      <g style="fill: #a9b1d6" transform="translate(593.909777 386.595937) scale(0.1 -0.1)">
       <use xlink:href="#DejaVuSans-33"/>
       <use xlink:href="#DejaVuSans-31" transform="translate(63.623047 0)"/>
      </g>
     </g>
    </g>
    <g id="text_17">
     <!-- Tag des Monats -->
     <g style="fill: #a9b1d6" transform="translate(290.471875 400.274062) scale(0.1 -0.1)">
      <defs>
       <path id="DejaVuSans-54" d="M -19 4666 
L 3928 4666 
L 3928 4134 
L 2272 4134 
L 2272 0 
L 1638 0 
L 1638 4134 
L -19 4134 
L -19 4666 
z
" transform="scale(0.015625)"/>
       <path id="DejaVuSans-61" d="M 2194 1759 
Q 1497 1759 1228 1600 
Q 959 1441 959 1056 
Q 959 750 1161 570 
Q 1363 391 1709 391 
Q 2188 391 2477 730 
Q 2766 1069 2766 1631 
L 2766 1759 
L 2194 1759 
z
M 3341 1997 
L 3341 0 
L 2766 0 
L 2766 531 
Q 2569 213 2275 61 
Q 1981 -91 1556 -91 
Q 1019 -91 701 211 
Q 384 513 384 1019 
Q 384 1609 779 1909 
Q 1175 2209 1959 2209 
L 2766 2209 
L 2766 2266 
Q 2766 2663 2505 2880 
Q 2244 3097 1772 3097 
Q 1472 3097 1187 3025 
Q 903 2953 641 2809 
L 641 3341 
Q 956 3463 1253 3523 
Q 1550 3584 1831 3584 
Q 2591 3584 2966 3190 
Q 3341 2797 3341 1997 
z
" transform="scale(0.015625)"/>
       <path id="DejaVuSans-67" d="M 2906 1791 
Q 2906 2416 2648 2759 
Q 2391 3103 1925 3103 
Q 1463 3103 1205 2759 
Q 947 2416 947 1791 
Q 947 1169 1205 825 
Q 1463 481 1925 481 
Q 2391 481 2648 825 
Q 2906 1169 2906 1791 
z
M 3481 434 
Q 3481 -459 3084 -895 
Q 2688 -1331 1869 -1331 
Q 1566 -1331 1297 -1286 
Q 1028 -1241 775 -1147 
L 775 -588 
Q 1028 -725 1275 -790 
Q 1522 -856 1778 -856 
Q 2344 -856 2625 -561 
Q 2906 -266 2906 331 
L 2906 616 
Q 2728 306 2450 153 
Q 2172 0 1784 0 
Q 1141 0 747 490 
Q 353 981 353 1791 
Q 353 2603 747 3093 
Q 1141 3584 1784 3584 
Q 2172 3584 2450 3431 
Q 2728 3278 2906 2969 
L 2906 3500 
L 3481 3500 
L 3481 434 
z
" transform="scale(0.015625)"/>
       <path id="DejaVuSans-20" transform="scale(0.015625)"/>
       <path id="DejaVuSans-64" d="M 2906 2969 
L 2906 4863 
L 3481 4863 
L 3481 0 
L 2906 0 
L 2906 525 
Q 2725 213 2448 61 
Q 2172 -91 1784 -91 
Q 1150 -91 751 415 
Q 353 922 353 1747 
Q 353 2572 751 3078 
Q 1150 3584 1784 3584 
Q 2172 3584 2448 3432 
Q 2725 3281 2906 2969 
z
M 947 1747 
Q 947 1113 1208 752 
Q 1469 391 1925 391 
Q 2381 391 2643 752 
Q 2906 1113 2906 1747 
Q 2906 2381 2643 2742 
Q 2381 3103 1925 3103 
Q 1469 3103 1208 2742 
Q 947 2381 947 1747 
z
" transform="scale(0.015625)"/>
       <path id="DejaVuSans-65" d="M 3597 1894 
L 3597 1613 
L 953 1613 
Q 991 1019 1311 708 
Q 1631 397 2203 397 
Q 2534 397 2845 478 
Q 3156 559 3463 722 
L 3463 178 
Q 3153 47 2828 -22 
Q 2503 -91 2169 -91 
Q 1331 -91 842 396 
Q 353 884 353 1716 
Q 353 2575 817 3079 
Q 1281 3584 2069 3584 
Q 2775 3584 3186 3129 
Q 3597 2675 3597 1894 
z
M 3022 2063 
Q 3016 2534 2758 2815 
Q 2500 3097 2075 3097 
Q 1594 3097 1305 2825 
Q 1016 2553 972 2059 
L 3022 2063 
z
" transform="scale(0.015625)"/>
       <path id="DejaVuSans-73" d="M 2834 3397 
L 2834 2853 
Q 2591 2978 2328 3040 
Q 2066 3103 1784 3103 
Q 1356 3103 1142 2972 
Q 928 2841 928 2578 
Q 928 2378 1081 2264 
Q 1234 2150 1697 2047 
L 1894 2003 
Q 2506 1872 2764 1633 
Q 3022 1394 3022 966 
Q 3022 478 2636 193 
Q 2250 -91 1575 -91 
Q 1294 -91 989 -36 
Q 684 19 347 128 
L 347 722 
Q 666 556 975 473 
Q 1284 391 1588 391 
Q 1994 391 2212 530 
Q 2431 669 2431 922 
Q 2431 1156 2273 1281 
Q 2116 1406 1581 1522 
L 1381 1569 
Q 847 1681 609 1914 
Q 372 2147 372 2553 
Q 372 3047 722 3315 
Q 1072 3584 1716 3584 
Q 2034 3584 2315 3537 
Q 2597 3491 2834 3397 
z
" transform="scale(0.015625)"/>
       <path id="DejaVuSans-4d" d="M 628 4666 
L 1569 4666 
L 2759 1491 
L 3956 4666 
L 4897 4666 
L 4897 0 
L 4281 0 
L 4281 4097 
L 3078 897 
L 2444 897 
L 1241 4097 
L 1241 0 
L 628 0 
L 628 4666 
z
" transform="scale(0.015625)"/>
       <path id="DejaVuSans-6f" d="M 1959 3097 
Q 1497 3097 1228 2736 
Q 959 2375 959 1747 
Q 959 1119 1226 758 
Q 1494 397 1959 397 
Q 2419 397 2687 759 
Q 2956 1122 2956 1747 
Q 2956 2369 2687 2733 
Q 2419 3097 1959 3097 
z
M 1959 3584 
Q 2709 3584 3137 3096 
Q 3566 2609 3566 1747 
Q 3566 888 3137 398 
Q 2709 -91 1959 -91 
Q 1206 -91 779 398 
Q 353 888 353 1747 
Q 353 2609 779 3096 
Q 1206 3584 1959 3584 
z
" transform="scale(0.015625)"/>
       <path id="DejaVuSans-6e" d="M 3513 2113 
L 3513 0 
L 2938 0 
L 2938 2094 
Q 2938 2591 2744 2837 
Q 2550 3084 2163 3084 
Q 1697 3084 1428 2787 
Q 1159 2491 1159 1978 
L 1159 0 
L 581 0 
L 581 3500 
L 1159 3500 
L 1159 2956 
Q 1366 3272 1645 3428 
Q 1925 3584 2291 3584 
Q 2894 3584 3203 3211 
Q 3513 2838 3513 2113 
z
" transform="scale(0.015625)"/>
       <path id="DejaVuSans-74" d="M 1172 4494 
L 1172 3500 
L 2356 3500 
L 2356 3053 
L 1172 3053 
L 1172 1153 
Q 1172 725 1289 603 
Q 1406 481 1766 481 
L 2356 481 
L 2356 0 
L 1766 0 
Q 1100 0 847 248 
Q 594 497 594 1153 
L 594 3053 
L 172 3053 
L 172 3500 
L 594 3500 
L 594 4494 
L 1172 4494 
z
" transform="scale(0.015625)"/>
      </defs>
      <use xlink:href="#DejaVuSans-54"/>
      <use xlink:href="#DejaVuSans-61" transform="translate(44.583984 0)"/>
      <use xlink:href="#DejaVuSans-67" transform="translate(105.863281 0)"/>
      <use xlink:href="#DejaVuSans-20" transform="translate(169.339844 0)"/>
      <use xlink:href="#DejaVuSans-64" transform="translate(201.126953 0)"/>
      <use xlink:href="#DejaVuSans-65" transform="translate(264.603516 0)"/>
      <use xlink:href="#DejaVuSans-73" transform="translate(326.126953 0)"/>
      <use xlink:href="#DejaVuSans-20" transform="translate(378.226562 0)"/>
      <use xlink:href="#DejaVuSans-4d" transform="translate(410.013672 0)"/>
      <use xlink:href="#DejaVuSans-6f" transform="translate(496.292969 0)"/>
      <use xlink:href="#DejaVuSans-6e" transform="translate(557.474609 0)"/>
      <use xlink:href="#DejaVuSans-61" transform="translate(620.853516 0)"/>
      <use xlink:href="#DejaVuSans-74" transform="translate(682.132812 0)"/>
      <use xlink:href="#DejaVuSans-73" transform="translate(721.341797 0)"/>
     </g>
    </g>
   </g>
   <g id="matplotlib.axis_2">
    <g id="ytick_1">
     <g id="line2d_33">
      <path d="M 50.14375 367.537988 
L 608.14375 367.537988 
" clip-path="url(#p3bfe2aa783)" style="fill: none; stroke-dasharray: 2.96,1.28; stroke-dashoffset: 0; stroke: #2f3549; stroke-opacity: 0.5; stroke-width: 0.8"/>
     </g>
     <g id="line2d_34">
      <defs>
       <path id="m37460eb332" d="M 0 0 
L -3.5 0 
" style="stroke: #a9b1d6; stroke-width: 0.8"/>
      </defs>
      <g>
       <use xlink:href="#m37460eb332" x="50.14375" y="367.537988" style="fill: #a9b1d6; stroke: #a9b1d6; stroke-width: 0.8"/>
      </g>
     </g>
     <g id="text_18">
      <!-- 7.5 -->
      <g style="fill: #a9b1d6" transform="translate(27.240625 371.337207) scale(0.1 -0.1)">
       <defs>
        <path id="DejaVuSans-2e" d="M 684 794 
L 1344 794 
L 1344 0 
L 684 0 
L 684 794 
z
" transform="scale(0.015625)"/>
       </defs>
       <use xlink:href="#DejaVuSans-37"/>
       <use xlink:href="#DejaVuSans-2e" transform="translate(63.623047 0)"/>
       <use xlink:href="#DejaVuSans-35" transform="translate(95.410156 0)"/>
      </g>
     </g>
    </g>
    <g id="ytick_2">
     <g id="line2d_35">
      <path d="M 50.14375 322.174208 
L 608.14375 322.174208 
" clip-path="url(#p3bfe2aa783)" style="fill: none; stroke-dasharray: 2.96,1.28; stroke-dashoffset: 0; stroke: #2f3549; stroke-opacity: 0.5; stroke-width: 0.8"/>
     </g>
     <g id="line2d_36">
      <g>
       <use xlink:href="#m37460eb332" x="50.14375" y="322.174208" style="fill: #a9b1d6; stroke: #a9b1d6; stroke-width: 0.8"/>
      </g>
     </g>
     <g id="text_19">
      <!-- 10.0 -->
      <g style="fill: #a9b1d6" transform="translate(20.878125 325.973427) scale(0.1 -0.1)">
       <defs>
        <path id="DejaVuSans-30" d="M 2034 4250 
Q 1547 4250 1301 3770 
Q 1056 3291 1056 2328 
Q 1056 1369 1301 889 
Q 1547 409 2034 409 
Q 2525 409 2770 889 
Q 3016 1369 3016 2328 
Q 3016 3291 2770 3770 
Q 2525 4250 2034 4250 
z
M 2034 4750 
Q 2819 4750 3233 4129 
Q 3647 3509 3647 2328 
Q 3647 1150 3233 529 
Q 2819 -91 2034 -91 
Q 1250 -91 836 529 
Q 422 1150 422 2328 
Q 422 3509 836 4129 
Q 1250 4750 2034 4750 
z
" transform="scale(0.015625)"/>
       </defs>
       <use xlink:href="#DejaVuSans-31"/>
       <use xlink:href="#DejaVuSans-30" transform="translate(63.623047 0)"/>
       <use xlink:href="#DejaVuSans-2e" transform="translate(127.246094 0)"/>
       <use xlink:href="#DejaVuSans-30" transform="translate(159.033203 0)"/>
      </g>
     </g>
    </g>
    <g id="ytick_3">
     <g id="line2d_37">
      <path d="M 50.14375 276.810428 
L 608.14375 276.810428 
" clip-path="url(#p3bfe2aa783)" style="fill: none; stroke-dasharray: 2.96,1.28; stroke-dashoffset: 0; stroke: #2f3549; stroke-opacity: 0.5; stroke-width: 0.8"/>
     </g>
     <g id="line2d_38">
      <g>
       <use xlink:href="#m37460eb332" x="50.14375" y="276.810428" style="fill: #a9b1d6; stroke: #a9b1d6; stroke-width: 0.8"/>
      </g>
     </g>
     <g id="text_20">
      <!-- 12.5 -->
      <g style="fill: #a9b1d6" transform="translate(20.878125 280.609646) scale(0.1 -0.1)">
       <use xlink:href="#DejaVuSans-31"/>
       <use xlink:href="#DejaVuSans-32" transform="translate(63.623047 0)"/>
       <use xlink:href="#DejaVuSans-2e" transform="translate(127.246094 0)"/>
       <use xlink:href="#DejaVuSans-35" transform="translate(159.033203 0)"/>
      </g>
     </g>
    </g>
    <g id="ytick_4">
     <g id="line2d_39">
      <path d="M 50.14375 231.446647 
L 608.14375 231.446647 
" clip-path="url(#p3bfe2aa783)" style="fill: none; stroke-dasharray: 2.96,1.28; stroke-dashoffset: 0; stroke: #2f3549; stroke-opacity: 0.5; stroke-width: 0.8"/>
     </g>
     <g id="line2d_40">
      <g>
       <use xlink:href="#m37460eb332" x="50.14375" y="231.446647" style="fill: #a9b1d6; stroke: #a9b1d6; stroke-width: 0.8"/>
      </g>
     </g>
     <g id="text_21">
      <!-- 15.0 -->
      <g style="fill: #a9b1d6" transform="translate(20.878125 235.245866) scale(0.1 -0.1)">
       <use xlink:href="#DejaVuSans-31"/>
       <use xlink:href="#DejaVuSans-35" transform="translate(63.623047 0)"/>
       <use xlink:href="#DejaVuSans-2e" transform="translate(127.246094 0)"/>
       <use xlink:href="#DejaVuSans-30" transform="translate(159.033203 0)"/>
      </g>
     </g>
    </g>
    <g id="ytick_5">
     <g id="line2d_41">
      <path d="M 50.14375 186.082867 
L 608.14375 186.082867 
" clip-path="url(#p3bfe2aa783)" style="fill: none; stroke-dasharray: 2.96,1.28; stroke-dashoffset: 0; stroke: #2f3549; stroke-opacity: 0.5; stroke-width: 0.8"/>
     </g>
     <g id="line2d_42">
      <g>
       <use xlink:href="#m37460eb332" x="50.14375" y="186.082867" style="fill: #a9b1d6; stroke: #a9b1d6; stroke-width: 0.8"/>
      </g>
     </g>
     <g id="text_22">
      <!-- 17.5 -->
      <g style="fill: #a9b1d6" transform="translate(20.878125 189.882086) scale(0.1 -0.1)">
       <use xlink:href="#DejaVuSans-31"/>
       <use xlink:href="#DejaVuSans-37" transform="translate(63.623047 0)"/>
       <use xlink:href="#DejaVuSans-2e" transform="translate(127.246094 0)"/>
       <use xlink:href="#DejaVuSans-35" transform="translate(159.033203 0)"/>
      </g>
     </g>
    </g>
    <g id="ytick_6">
     <g id="line2d_43">
      <path d="M 50.14375 140.719087 
L 608.14375 140.719087 
" clip-path="url(#p3bfe2aa783)" style="fill: none; stroke-dasharray: 2.96,1.28; stroke-dashoffset: 0; stroke: #2f3549; stroke-opacity: 0.5; stroke-width: 0.8"/>
     </g>
     <g id="line2d_44">
      <g>
       <use xlink:href="#m37460eb332" x="50.14375" y="140.719087" style="fill: #a9b1d6; stroke: #a9b1d6; stroke-width: 0.8"/>
      </g>
     </g>
     <g id="text_23">
      <!-- 20.0 -->
      <g style="fill: #a9b1d6" transform="translate(20.878125 144.518306) scale(0.1 -0.1)">
       <use xlink:href="#DejaVuSans-32"/>
       <use xlink:href="#DejaVuSans-30" transform="translate(63.623047 0)"/>
       <use xlink:href="#DejaVuSans-2e" transform="translate(127.246094 0)"/>
       <use xlink:href="#DejaVuSans-30" transform="translate(159.033203 0)"/>
      </g>
     </g>
    </g>
    <g id="ytick_7">
     <g id="line2d_45">
      <path d="M 50.14375 95.355306 
L 608.14375 95.355306 
" clip-path="url(#p3bfe2aa783)" style="fill: none; stroke-dasharray: 2.96,1.28; stroke-dashoffset: 0; stroke: #2f3549; stroke-opacity: 0.5; stroke-width: 0.8"/>
     </g>
     <g id="line2d_46">
      <g>
       <use xlink:href="#m37460eb332" x="50.14375" y="95.355306" style="fill: #a9b1d6; stroke: #a9b1d6; stroke-width: 0.8"/>
      </g>
     </g>
     <g id="text_24">
      <!-- 22.5 -->
      <g style="fill: #a9b1d6" transform="translate(20.878125 99.154525) scale(0.1 -0.1)">
       <use xlink:href="#DejaVuSans-32"/>
       <use xlink:href="#DejaVuSans-32" transform="translate(63.623047 0)"/>
       <use xlink:href="#DejaVuSans-2e" transform="translate(127.246094 0)"/>
       <use xlink:href="#DejaVuSans-35" transform="translate(159.033203 0)"/>
      </g>
     </g>
    </g>
    <g id="ytick_8">
     <g id="line2d_47">
      <path d="M 50.14375 49.991526 
L 608.14375 49.991526 
" clip-path="url(#p3bfe2aa783)" style="fill: none; stroke-dasharray: 2.96,1.28; stroke-dashoffset: 0; stroke: #2f3549; stroke-opacity: 0.5; stroke-width: 0.8"/>
     </g>
     <g id="line2d_48">
      <g>
       <use xlink:href="#m37460eb332" x="50.14375" y="49.991526" style="fill: #a9b1d6; stroke: #a9b1d6; stroke-width: 0.8"/>
      </g>
     </g>
     <g id="text_25">
      <!-- 25.0 -->
      <g style="fill: #a9b1d6" transform="translate(20.878125 53.790745) scale(0.1 -0.1)">
       <use xlink:href="#DejaVuSans-32"/>
       <use xlink:href="#DejaVuSans-35" transform="translate(63.623047 0)"/>
       <use xlink:href="#DejaVuSans-2e" transform="translate(127.246094 0)"/>
       <use xlink:href="#DejaVuSans-30" transform="translate(159.033203 0)"/>
      </g>
     </g>
    </g>
    <g id="text_26">
     <!-- Temperatur in °C -->
     <g style="fill: #a9b1d6" transform="translate(14.798437 248.110312) rotate(-90) scale(0.1 -0.1)">
      <defs>
       <path id="DejaVuSans-6d" d="M 3328 2828 
Q 3544 3216 3844 3400 
Q 4144 3584 4550 3584 
Q 5097 3584 5394 3201 
Q 5691 2819 5691 2113 
L 5691 0 
L 5113 0 
L 5113 2094 
Q 5113 2597 4934 2840 
Q 4756 3084 4391 3084 
Q 3944 3084 3684 2787 
Q 3425 2491 3425 1978 
L 3425 0 
L 2847 0 
L 2847 2094 
Q 2847 2600 2669 2842 
Q 2491 3084 2119 3084 
Q 1678 3084 1418 2786 
Q 1159 2488 1159 1978 
L 1159 0 
L 581 0 
L 581 3500 
L 1159 3500 
L 1159 2956 
Q 1356 3278 1631 3431 
Q 1906 3584 2284 3584 
Q 2666 3584 2933 3390 
Q 3200 3197 3328 2828 
z
" transform="scale(0.015625)"/>
       <path id="DejaVuSans-70" d="M 1159 525 
L 1159 -1331 
L 581 -1331 
L 581 3500 
L 1159 3500 
L 1159 2969 
Q 1341 3281 1617 3432 
Q 1894 3584 2278 3584 
Q 2916 3584 3314 3078 
Q 3713 2572 3713 1747 
Q 3713 922 3314 415 
Q 2916 -91 2278 -91 
Q 1894 -91 1617 61 
Q 1341 213 1159 525 
z
M 3116 1747 
Q 3116 2381 2855 2742 
Q 2594 3103 2138 3103 
Q 1681 3103 1420 2742 
Q 1159 2381 1159 1747 
Q 1159 1113 1420 752 
Q 1681 391 2138 391 
Q 2594 391 2855 752 
Q 3116 1113 3116 1747 
z
" transform="scale(0.015625)"/>
       <path id="DejaVuSans-72" d="M 2631 2963 
Q 2534 3019 2420 3045 
Q 2306 3072 2169 3072 
Q 1681 3072 1420 2755 
Q 1159 2438 1159 1844 
L 1159 0 
L 581 0 
L 581 3500 
L 1159 3500 
L 1159 2956 
Q 1341 3275 1631 3429 
Q 1922 3584 2338 3584 
Q 2397 3584 2469 3576 
Q 2541 3569 2628 3553 
L 2631 2963 
z
" transform="scale(0.015625)"/>
       <path id="DejaVuSans-75" d="M 544 1381 
L 544 3500 
L 1119 3500 
L 1119 1403 
Q 1119 906 1312 657 
Q 1506 409 1894 409 
Q 2359 409 2629 706 
Q 2900 1003 2900 1516 
L 2900 3500 
L 3475 3500 
L 3475 0 
L 2900 0 
L 2900 538 
Q 2691 219 2414 64 
Q 2138 -91 1772 -91 
Q 1169 -91 856 284 
Q 544 659 544 1381 
z
M 1991 3584 
L 1991 3584 
z
" transform="scale(0.015625)"/>
       <path id="DejaVuSans-69" d="M 603 3500 
L 1178 3500 
L 1178 0 
L 603 0 
L 603 3500 
z
M 603 4863 
L 1178 4863 
L 1178 4134 
L 603 4134 
L 603 4863 
z
" transform="scale(0.015625)"/>
       <path id="DejaVuSans-b0" d="M 1600 4347 
Q 1350 4347 1178 4173 
Q 1006 4000 1006 3750 
Q 1006 3503 1178 3333 
Q 1350 3163 1600 3163 
Q 1850 3163 2022 3333 
Q 2194 3503 2194 3750 
Q 2194 3997 2020 4172 
Q 1847 4347 1600 4347 
z
M 1600 4750 
Q 1800 4750 1984 4673 
Q 2169 4597 2303 4453 
Q 2447 4313 2519 4134 
Q 2591 3956 2591 3750 
Q 2591 3338 2302 3052 
Q 2013 2766 1594 2766 
Q 1172 2766 890 3047 
Q 609 3328 609 3750 
Q 609 4169 896 4459 
Q 1184 4750 1600 4750 
z
" transform="scale(0.015625)"/>
       <path id="DejaVuSans-43" d="M 4122 4306 
L 4122 3641 
Q 3803 3938 3442 4084 
Q 3081 4231 2675 4231 
Q 1875 4231 1450 3742 
Q 1025 3253 1025 2328 
Q 1025 1406 1450 917 
Q 1875 428 2675 428 
Q 3081 428 3442 575 
Q 3803 722 4122 1019 
L 4122 359 
Q 3791 134 3420 21 
Q 3050 -91 2638 -91 
Q 1578 -91 968 557 
Q 359 1206 359 2328 
Q 359 3453 968 4101 
Q 1578 4750 2638 4750 
Q 3056 4750 3426 4639 
Q 3797 4528 4122 4306 
z
" transform="scale(0.015625)"/>
      </defs>
      <use xlink:href="#DejaVuSans-54"/>
      <use xlink:href="#DejaVuSans-65" transform="translate(44.083984 0)"/>
      <use xlink:href="#DejaVuSans-6d" transform="translate(105.607422 0)"/>
      <use xlink:href="#DejaVuSans-70" transform="translate(203.019531 0)"/>
      <use xlink:href="#DejaVuSans-65" transform="translate(266.496094 0)"/>
      <use xlink:href="#DejaVuSans-72" transform="translate(328.019531 0)"/>
      <use xlink:href="#DejaVuSans-61" transform="translate(369.132812 0)"/>
      <use xlink:href="#DejaVuSans-74" transform="translate(430.412109 0)"/>
      <use xlink:href="#DejaVuSans-75" transform="translate(469.621094 0)"/>
      <use xlink:href="#DejaVuSans-72" transform="translate(533 0)"/>
      <use xlink:href="#DejaVuSans-20" transform="translate(574.113281 0)"/>
      <use xlink:href="#DejaVuSans-69" transform="translate(605.900391 0)"/>
      <use xlink:href="#DejaVuSans-6e" transform="translate(633.683594 0)"/>
      <use xlink:href="#DejaVuSans-20" transform="translate(697.0625 0)"/>
      <use xlink:href="#DejaVuSans-b0" transform="translate(728.849609 0)"/>
      <use xlink:href="#DejaVuSans-43" transform="translate(778.849609 0)"/>
     </g>
    </g>
   </g>
   <g id="line2d_49">
    <path d="M 75.507386 223.174058 
L 92.999549 201.216728 
L 110.491712 216.306486 
L 127.983875 207.580259 
L 145.476038 158.694485 
L 162.968201 166.015695 
L 180.460364 152.412861 
L 197.952527 145.860315 
L 215.44469 149.186992 
L 232.936853 143.800044 
L 250.429016 145.65062 
L 267.921179 141.695668 
L 285.413342 159.059915 
L 302.905505 238.068499 
L 320.397668 239.952356 
L 337.889832 199.937722 
L 355.381995 156.873633 
L 372.874158 156.575862 
L 390.366321 177.035313 
L 407.858484 163.062724 
L 425.350647 156.609011 
L 442.84281 204.753145 
L 460.334973 247.512986 
L 477.827136 294.010861 
L 495.319299 279.004328 
L 512.811462 225.064216 
L 530.303625 194.368058 
L 547.795788 186.063966 
L 565.287951 164.957207 
L 582.780114 226.500735 
" clip-path="url(#p3bfe2aa783)" style="fill: none; stroke: #9ece6a; stroke-width: 2; stroke-linecap: square"/>
    <defs>
     <path id="ma12126493d" d="M 0 2 
C 0.530406 2 1.03916 1.789267 1.414214 1.414214 
C 1.789267 1.03916 2 0.530406 2 0 
C 2 -0.530406 1.789267 -1.03916 1.414214 -1.414214 
C 1.03916 -1.789267 0.530406 -2 0 -2 
C -0.530406 -2 -1.03916 -1.789267 -1.414214 -1.414214 
C -1.789267 -1.03916 -2 -0.530406 -2 0 
C -2 0.530406 -1.789267 1.03916 -1.414214 1.414214 
C -1.03916 1.789267 -0.530406 2 0 2 
z
" style="stroke: #9ece6a"/>
    </defs>
    <g clip-path="url(#p3bfe2aa783)">
     <use xlink:href="#ma12126493d" x="75.507386" y="223.174058" style="fill: #9ece6a; stroke: #9ece6a"/>
     <use xlink:href="#ma12126493d" x="92.999549" y="201.216728" style="fill: #9ece6a; stroke: #9ece6a"/>
     <use xlink:href="#ma12126493d" x="110.491712" y="216.306486" style="fill: #9ece6a; stroke: #9ece6a"/>
     <use xlink:href="#ma12126493d" x="127.983875" y="207.580259" style="fill: #9ece6a; stroke: #9ece6a"/>
     <use xlink:href="#ma12126493d" x="145.476038" y="158.694485" style="fill: #9ece6a; stroke: #9ece6a"/>
     <use xlink:href="#ma12126493d" x="162.968201" y="166.015695" style="fill: #9ece6a; stroke: #9ece6a"/>
     <use xlink:href="#ma12126493d" x="180.460364" y="152.412861" style="fill: #9ece6a; stroke: #9ece6a"/>
     <use xlink:href="#ma12126493d" x="197.952527" y="145.860315" style="fill: #9ece6a; stroke: #9ece6a"/>
     <use xlink:href="#ma12126493d" x="215.44469" y="149.186992" style="fill: #9ece6a; stroke: #9ece6a"/>
     <use xlink:href="#ma12126493d" x="232.936853" y="143.800044" style="fill: #9ece6a; stroke: #9ece6a"/>
     <use xlink:href="#ma12126493d" x="250.429016" y="145.65062" style="fill: #9ece6a; stroke: #9ece6a"/>
     <use xlink:href="#ma12126493d" x="267.921179" y="141.695668" style="fill: #9ece6a; stroke: #9ece6a"/>
     <use xlink:href="#ma12126493d" x="285.413342" y="159.059915" style="fill: #9ece6a; stroke: #9ece6a"/>
     <use xlink:href="#ma12126493d" x="302.905505" y="238.068499" style="fill: #9ece6a; stroke: #9ece6a"/>
     <use xlink:href="#ma12126493d" x="320.397668" y="239.952356" style="fill: #9ece6a; stroke: #9ece6a"/>
     <use xlink:href="#ma12126493d" x="337.889832" y="199.937722" style="fill: #9ece6a; stroke: #9ece6a"/>
     <use xlink:href="#ma12126493d" x="355.381995" y="156.873633" style="fill: #9ece6a; stroke: #9ece6a"/>
     <use xlink:href="#ma12126493d" x="372.874158" y="156.575862" style="fill: #9ece6a; stroke: #9ece6a"/>
     <use xlink:href="#ma12126493d" x="390.366321" y="177.035313" style="fill: #9ece6a; stroke: #9ece6a"/>
     <use xlink:href="#ma12126493d" x="407.858484" y="163.062724" style="fill: #9ece6a; stroke: #9ece6a"/>
     <use xlink:href="#ma12126493d" x="425.350647" y="156.609011" style="fill: #9ece6a; stroke: #9ece6a"/>
     <use xlink:href="#ma12126493d" x="442.84281" y="204.753145" style="fill: #9ece6a; stroke: #9ece6a"/>
     <use xlink:href="#ma12126493d" x="460.334973" y="247.512986" style="fill: #9ece6a; stroke: #9ece6a"/>
     <use xlink:href="#ma12126493d" x="477.827136" y="294.010861" style="fill: #9ece6a; stroke: #9ece6a"/>
     <use xlink:href="#ma12126493d" x="495.319299" y="279.004328" style="fill: #9ece6a; stroke: #9ece6a"/>
     <use xlink:href="#ma12126493d" x="512.811462" y="225.064216" style="fill: #9ece6a; stroke: #9ece6a"/>
     <use xlink:href="#ma12126493d" x="530.303625" y="194.368058" style="fill: #9ece6a; stroke: #9ece6a"/>
     <use xlink:href="#ma12126493d" x="547.795788" y="186.063966" style="fill: #9ece6a; stroke: #9ece6a"/>
     <use xlink:href="#ma12126493d" x="565.287951" y="164.957207" style="fill: #9ece6a; stroke: #9ece6a"/>
     <use xlink:href="#ma12126493d" x="582.780114" y="226.500735" style="fill: #9ece6a; stroke: #9ece6a"/>
    </g>
   </g>
   <g id="line2d_50">
    <path d="M 75.507386 128.332255 
L 92.999549 122.094735 
L 110.491712 79.723704 
L 127.983875 54.4775 
L 145.476038 60.034563 
L 162.968201 83.270899 
L 180.460364 111.446847 
L 197.952527 96.664059 
L 215.44469 176.323354 
L 232.936853 215.773224 
L 250.429016 238.755256 
L 267.921179 290.476267 
L 285.413342 322.471365 
L 302.905505 283.766207 
L 320.397668 292.687751 
L 337.889832 278.555432 
L 355.381995 191.942355 
L 372.874158 191.009878 
L 390.366321 196.302319 
L 407.858484 210.333588 
L 425.350647 226.160507 
L 442.84281 240.034263 
L 460.334973 200.838697 
L 477.827136 228.4791 
L 495.319299 203.938555 
L 512.811462 207.309336 
L 530.303625 204.127571 
L 547.795788 288.768824 
L 565.287951 356.8775 
L 582.780114 327.283934 
" clip-path="url(#p3bfe2aa783)" style="fill: none; stroke: #2ac3de; stroke-width: 2; stroke-linecap: square"/>
    <defs>
     <path id="m134e5487b2" d="M 0 2 
C 0.530406 2 1.03916 1.789267 1.414214 1.414214 
C 1.789267 1.03916 2 0.530406 2 0 
C 2 -0.530406 1.789267 -1.03916 1.414214 -1.414214 
C 1.03916 -1.789267 0.530406 -2 0 -2 
C -0.530406 -2 -1.03916 -1.789267 -1.414214 -1.414214 
C -1.789267 -1.03916 -2 -0.530406 -2 0 
C -2 0.530406 -1.789267 1.03916 -1.414214 1.414214 
C -1.03916 1.789267 -0.530406 2 0 2 
z
" style="stroke: #2ac3de"/>
    </defs>
    <g clip-path="url(#p3bfe2aa783)">
     <use xlink:href="#m134e5487b2" x="75.507386" y="128.332255" style="fill: #2ac3de; stroke: #2ac3de"/>
     <use xlink:href="#m134e5487b2" x="92.999549" y="122.094735" style="fill: #2ac3de; stroke: #2ac3de"/>
     <use xlink:href="#m134e5487b2" x="110.491712" y="79.723704" style="fill: #2ac3de; stroke: #2ac3de"/>
     <use xlink:href="#m134e5487b2" x="127.983875" y="54.4775" style="fill: #2ac3de; stroke: #2ac3de"/>
     <use xlink:href="#m134e5487b2" x="145.476038" y="60.034563" style="fill: #2ac3de; stroke: #2ac3de"/>
     <use xlink:href="#m134e5487b2" x="162.968201" y="83.270899" style="fill: #2ac3de; stroke: #2ac3de"/>
     <use xlink:href="#m134e5487b2" x="180.460364" y="111.446847" style="fill: #2ac3de; stroke: #2ac3de"/>
     <use xlink:href="#m134e5487b2" x="197.952527" y="96.664059" style="fill: #2ac3de; stroke: #2ac3de"/>
     <use xlink:href="#m134e5487b2" x="215.44469" y="176.323354" style="fill: #2ac3de; stroke: #2ac3de"/>
     <use xlink:href="#m134e5487b2" x="232.936853" y="215.773224" style="fill: #2ac3de; stroke: #2ac3de"/>
     <use xlink:href="#m134e5487b2" x="250.429016" y="238.755256" style="fill: #2ac3de; stroke: #2ac3de"/>
     <use xlink:href="#m134e5487b2" x="267.921179" y="290.476267" style="fill: #2ac3de; stroke: #2ac3de"/>
     <use xlink:href="#m134e5487b2" x="285.413342" y="322.471365" style="fill: #2ac3de; stroke: #2ac3de"/>
     <use xlink:href="#m134e5487b2" x="302.905505" y="283.766207" style="fill: #2ac3de; stroke: #2ac3de"/>
     <use xlink:href="#m134e5487b2" x="320.397668" y="292.687751" style="fill: #2ac3de; stroke: #2ac3de"/>
     <use xlink:href="#m134e5487b2" x="337.889832" y="278.555432" style="fill: #2ac3de; stroke: #2ac3de"/>
     <use xlink:href="#m134e5487b2" x="355.381995" y="191.942355" style="fill: #2ac3de; stroke: #2ac3de"/>
     <use xlink:href="#m134e5487b2" x="372.874158" y="191.009878" style="fill: #2ac3de; stroke: #2ac3de"/>
     <use xlink:href="#m134e5487b2" x="390.366321" y="196.302319" style="fill: #2ac3de; stroke: #2ac3de"/>
     <use xlink:href="#m134e5487b2" x="407.858484" y="210.333588" style="fill: #2ac3de; stroke: #2ac3de"/>
     <use xlink:href="#m134e5487b2" x="425.350647" y="226.160507" style="fill: #2ac3de; stroke: #2ac3de"/>
     <use xlink:href="#m134e5487b2" x="442.84281" y="240.034263" style="fill: #2ac3de; stroke: #2ac3de"/>
     <use xlink:href="#m134e5487b2" x="460.334973" y="200.838697" style="fill: #2ac3de; stroke: #2ac3de"/>
     <use xlink:href="#m134e5487b2" x="477.827136" y="228.4791" style="fill: #2ac3de; stroke: #2ac3de"/>
     <use xlink:href="#m134e5487b2" x="495.319299" y="203.938555" style="fill: #2ac3de; stroke: #2ac3de"/>
     <use xlink:href="#m134e5487b2" x="512.811462" y="207.309336" style="fill: #2ac3de; stroke: #2ac3de"/>
     <use xlink:href="#m134e5487b2" x="530.303625" y="204.127571" style="fill: #2ac3de; stroke: #2ac3de"/>
     <use xlink:href="#m134e5487b2" x="547.795788" y="288.768824" style="fill: #2ac3de; stroke: #2ac3de"/>
     <use xlink:href="#m134e5487b2" x="565.287951" y="356.8775" style="fill: #2ac3de; stroke: #2ac3de"/>
     <use xlink:href="#m134e5487b2" x="582.780114" y="327.283934" style="fill: #2ac3de; stroke: #2ac3de"/>
    </g>
   </g>
   <g id="line2d_51">
    <path d="M 75.507386 166.173384 
L 92.999549 181.880417 
L 110.491712 173.469216 
L 127.983875 139.370774 
L 145.476038 177.648681 
L 162.968201 214.517137 
L 180.460364 225.813978 
L 197.952527 233.859749 
L 215.44469 226.0786 
L 232.936853 194.947706 
L 250.429016 217.295668 
L 267.921179 218.001327 
L 285.413342 235.44118 
L 302.905505 225.870683 
L 320.397668 189.471715 
L 337.889832 215.75834 
L 355.381995 227.565524 
L 372.874158 168.624112 
L 390.366321 159.743423 
L 407.858484 139.6732 
L 425.350647 139.704702 
L 442.84281 292.705138 
L 460.334973 304.55794 
L 477.827136 305.124987 
L 495.319299 341.869649 
L 512.811462 303.064716 
L 530.303625 253.051148 
L 547.795788 266.181442 
L 565.287951 335.121787 
L 582.780114 340.206311 
" clip-path="url(#p3bfe2aa783)" style="fill: none; stroke: #f7768e; stroke-width: 2; stroke-linecap: square"/>
    <defs>
     <path id="m670e6c4c3f" d="M 0 2 
C 0.530406 2 1.03916 1.789267 1.414214 1.414214 
C 1.789267 1.03916 2 0.530406 2 0 
C 2 -0.530406 1.789267 -1.03916 1.414214 -1.414214 
C 1.03916 -1.789267 0.530406 -2 0 -2 
C -0.530406 -2 -1.03916 -1.789267 -1.414214 -1.414214 
C -1.789267 -1.03916 -2 -0.530406 -2 0 
C -2 0.530406 -1.789267 1.03916 -1.414214 1.414214 
C -1.03916 1.789267 -0.530406 2 0 2 
z
" style="stroke: #f7768e"/>
    </defs>
    <g clip-path="url(#p3bfe2aa783)">
     <use xlink:href="#m670e6c4c3f" x="75.507386" y="166.173384" style="fill: #f7768e; stroke: #f7768e"/>
     <use xlink:href="#m670e6c4c3f" x="92.999549" y="181.880417" style="fill: #f7768e; stroke: #f7768e"/>
     <use xlink:href="#m670e6c4c3f" x="110.491712" y="173.469216" style="fill: #f7768e; stroke: #f7768e"/>
     <use xlink:href="#m670e6c4c3f" x="127.983875" y="139.370774" style="fill: #f7768e; stroke: #f7768e"/>
     <use xlink:href="#m670e6c4c3f" x="145.476038" y="177.648681" style="fill: #f7768e; stroke: #f7768e"/>
     <use xlink:href="#m670e6c4c3f" x="162.968201" y="214.517137" style="fill: #f7768e; stroke: #f7768e"/>
     <use xlink:href="#m670e6c4c3f" x="180.460364" y="225.813978" style="fill: #f7768e; stroke: #f7768e"/>
     <use xlink:href="#m670e6c4c3f" x="197.952527" y="233.859749" style="fill: #f7768e; stroke: #f7768e"/>
     <use xlink:href="#m670e6c4c3f" x="215.44469" y="226.0786" style="fill: #f7768e; stroke: #f7768e"/>
     <use xlink:href="#m670e6c4c3f" x="232.936853" y="194.947706" style="fill: #f7768e; stroke: #f7768e"/>
     <use xlink:href="#m670e6c4c3f" x="250.429016" y="217.295668" style="fill: #f7768e; stroke: #f7768e"/>
     <use xlink:href="#m670e6c4c3f" x="267.921179" y="218.001327" style="fill: #f7768e; stroke: #f7768e"/>
     <use xlink:href="#m670e6c4c3f" x="285.413342" y="235.44118" style="fill: #f7768e; stroke: #f7768e"/>
     <use xlink:href="#m670e6c4c3f" x="302.905505" y="225.870683" style="fill: #f7768e; stroke: #f7768e"/>
     <use xlink:href="#m670e6c4c3f" x="320.397668" y="189.471715" style="fill: #f7768e; stroke: #f7768e"/>
     <use xlink:href="#m670e6c4c3f" x="337.889832" y="215.75834" style="fill: #f7768e; stroke: #f7768e"/>
     <use xlink:href="#m670e6c4c3f" x="355.381995" y="227.565524" style="fill: #f7768e; stroke: #f7768e"/>
     <use xlink:href="#m670e6c4c3f" x="372.874158" y="168.624112" style="fill: #f7768e; stroke: #f7768e"/>
     <use xlink:href="#m670e6c4c3f" x="390.366321" y="159.743423" style="fill: #f7768e; stroke: #f7768e"/>
     <use xlink:href="#m670e6c4c3f" x="407.858484" y="139.6732" style="fill: #f7768e; stroke: #f7768e"/>
     <use xlink:href="#m670e6c4c3f" x="425.350647" y="139.704702" style="fill: #f7768e; stroke: #f7768e"/>
     <use xlink:href="#m670e6c4c3f" x="442.84281" y="292.705138" style="fill: #f7768e; stroke: #f7768e"/>
     <use xlink:href="#m670e6c4c3f" x="460.334973" y="304.55794" style="fill: #f7768e; stroke: #f7768e"/>
     <use xlink:href="#m670e6c4c3f" x="477.827136" y="305.124987" style="fill: #f7768e; stroke: #f7768e"/>
     <use xlink:href="#m670e6c4c3f" x="495.319299" y="341.869649" style="fill: #f7768e; stroke: #f7768e"/>
     <use xlink:href="#m670e6c4c3f" x="512.811462" y="303.064716" style="fill: #f7768e; stroke: #f7768e"/>
     <use xlink:href="#m670e6c4c3f" x="530.303625" y="253.051148" style="fill: #f7768e; stroke: #f7768e"/>
     <use xlink:href="#m670e6c4c3f" x="547.795788" y="266.181442" style="fill: #f7768e; stroke: #f7768e"/>
     <use xlink:href="#m670e6c4c3f" x="565.287951" y="335.121787" style="fill: #f7768e; stroke: #f7768e"/>
     <use xlink:href="#m670e6c4c3f" x="582.780114" y="340.206311" style="fill: #f7768e; stroke: #f7768e"/>
    </g>
   </g>
   <g id="patch_3">
    <path d="M 50.14375 371.9975 
L 50.14375 39.3575 
" style="fill: none; stroke: #a9b1d6; stroke-width: 0.8; stroke-linejoin: miter; stroke-linecap: square"/>
   </g>
   <g id="patch_4">
    <path d="M 608.14375 371.9975 
L 608.14375 39.3575 
" style="fill: none; stroke: #a9b1d6; stroke-width: 0.8; stroke-linejoin: miter; stroke-linecap: square"/>
   </g>
   <g id="patch_5">
    <path d="M 50.14375 371.9975 
L 608.14375 371.9975 
" style="fill: none; stroke: #a9b1d6; stroke-width: 0.8; stroke-linejoin: miter; stroke-linecap: square"/>
   </g>
   <g id="patch_6">
    <path d="M 50.14375 39.3575 
L 608.14375 39.3575 
" style="fill: none; stroke: #a9b1d6; stroke-width: 0.8; stroke-linejoin: miter; stroke-linecap: square"/>
   </g>
   <g id="text_27">
    <!-- September - Durchschnittswerte am Tag -->
    <g style="fill: #a9b1d6" transform="translate(167.635 19.3575) scale(0.16 -0.16)">
     <defs>
      <path id="DejaVuSans-53" d="M 3425 4513 
L 3425 3897 
Q 3066 4069 2747 4153 
Q 2428 4238 2131 4238 
Q 1616 4238 1336 4038 
Q 1056 3838 1056 3469 
Q 1056 3159 1242 3001 
Q 1428 2844 1947 2747 
L 2328 2669 
Q 3034 2534 3370 2195 
Q 3706 1856 3706 1288 
Q 3706 609 3251 259 
Q 2797 -91 1919 -91 
Q 1588 -91 1214 -16 
Q 841 59 441 206 
L 441 856 
Q 825 641 1194 531 
Q 1563 422 1919 422 
Q 2459 422 2753 634 
Q 3047 847 3047 1241 
Q 3047 1584 2836 1778 
Q 2625 1972 2144 2069 
L 1759 2144 
Q 1053 2284 737 2584 
Q 422 2884 422 3419 
Q 422 4038 858 4394 
Q 1294 4750 2059 4750 
Q 2388 4750 2728 4690 
Q 3069 4631 3425 4513 
z
" transform="scale(0.015625)"/>
      <path id="DejaVuSans-62" d="M 3116 1747 
Q 3116 2381 2855 2742 
Q 2594 3103 2138 3103 
Q 1681 3103 1420 2742 
Q 1159 2381 1159 1747 
Q 1159 1113 1420 752 
Q 1681 391 2138 391 
Q 2594 391 2855 752 
Q 3116 1113 3116 1747 
z
M 1159 2969 
Q 1341 3281 1617 3432 
Q 1894 3584 2278 3584 
Q 2916 3584 3314 3078 
Q 3713 2572 3713 1747 
Q 3713 922 3314 415 
Q 2916 -91 2278 -91 
Q 1894 -91 1617 61 
Q 1341 213 1159 525 
L 1159 0 
L 581 0 
L 581 4863 
L 1159 4863 
L 1159 2969 
z
" transform="scale(0.015625)"/>
      <path id="DejaVuSans-2d" d="M 313 2009 
L 1997 2009 
L 1997 1497 
L 313 1497 
L 313 2009 
z
" transform="scale(0.015625)"/>
      <path id="DejaVuSans-44" d="M 1259 4147 
L 1259 519 
L 2022 519 
Q 2988 519 3436 956 
Q 3884 1394 3884 2338 
Q 3884 3275 3436 3711 
Q 2988 4147 2022 4147 
L 1259 4147 
z
M 628 4666 
L 1925 4666 
Q 3281 4666 3915 4102 
Q 4550 3538 4550 2338 
Q 4550 1131 3912 565 
Q 3275 0 1925 0 
L 628 0 
L 628 4666 
z
" transform="scale(0.015625)"/>
      <path id="DejaVuSans-63" d="M 3122 3366 
L 3122 2828 
Q 2878 2963 2633 3030 
Q 2388 3097 2138 3097 
Q 1578 3097 1268 2742 
Q 959 2388 959 1747 
Q 959 1106 1268 751 
Q 1578 397 2138 397 
Q 2388 397 2633 464 
Q 2878 531 3122 666 
L 3122 134 
Q 2881 22 2623 -34 
Q 2366 -91 2075 -91 
Q 1284 -91 818 406 
Q 353 903 353 1747 
Q 353 2603 823 3093 
Q 1294 3584 2113 3584 
Q 2378 3584 2631 3529 
Q 2884 3475 3122 3366 
z
" transform="scale(0.015625)"/>
      <path id="DejaVuSans-68" d="M 3513 2113 
L 3513 0 
L 2938 0 
L 2938 2094 
Q 2938 2591 2744 2837 
Q 2550 3084 2163 3084 
Q 1697 3084 1428 2787 
Q 1159 2491 1159 1978 
L 1159 0 
L 581 0 
L 581 4863 
L 1159 4863 
L 1159 2956 
Q 1366 3272 1645 3428 
Q 1925 3584 2291 3584 
Q 2894 3584 3203 3211 
Q 3513 2838 3513 2113 
z
" transform="scale(0.015625)"/>
      <path id="DejaVuSans-77" d="M 269 3500 
L 844 3500 
L 1563 769 
L 2278 3500 
L 2956 3500 
L 3675 769 
L 4391 3500 
L 4966 3500 
L 4050 0 
L 3372 0 
L 2619 2869 
L 1863 0 
L 1184 0 
L 269 3500 
z
" transform="scale(0.015625)"/>
     </defs>
     <use xlink:href="#DejaVuSans-53"/>
     <use xlink:href="#DejaVuSans-65" transform="translate(63.476562 0)"/>
     <use xlink:href="#DejaVuSans-70" transform="translate(125 0)"/>
     <use xlink:href="#DejaVuSans-74" transform="translate(188.476562 0)"/>
     <use xlink:href="#DejaVuSans-65" transform="translate(227.685547 0)"/>
     <use xlink:href="#DejaVuSans-6d" transform="translate(289.208984 0)"/>
     <use xlink:href="#DejaVuSans-62" transform="translate(386.621094 0)"/>
     <use xlink:href="#DejaVuSans-65" transform="translate(450.097656 0)"/>
     <use xlink:href="#DejaVuSans-72" transform="translate(511.621094 0)"/>
     <use xlink:href="#DejaVuSans-20" transform="translate(552.734375 0)"/>
     <use xlink:href="#DejaVuSans-2d" transform="translate(584.521484 0)"/>
     <use xlink:href="#DejaVuSans-20" transform="translate(620.605469 0)"/>
     <use xlink:href="#DejaVuSans-44" transform="translate(652.392578 0)"/>
     <use xlink:href="#DejaVuSans-75" transform="translate(729.394531 0)"/>
     <use xlink:href="#DejaVuSans-72" transform="translate(792.773438 0)"/>
     <use xlink:href="#DejaVuSans-63" transform="translate(831.636719 0)"/>
     <use xlink:href="#DejaVuSans-68" transform="translate(886.617188 0)"/>
     <use xlink:href="#DejaVuSans-73" transform="translate(949.996094 0)"/>
     <use xlink:href="#DejaVuSans-63" transform="translate(1002.095703 0)"/>
     <use xlink:href="#DejaVuSans-68" transform="translate(1057.076172 0)"/>
     <use xlink:href="#DejaVuSans-6e" transform="translate(1120.455078 0)"/>
     <use xlink:href="#DejaVuSans-69" transform="translate(1183.833984 0)"/>
     <use xlink:href="#DejaVuSans-74" transform="translate(1211.617188 0)"/>
     <use xlink:href="#DejaVuSans-74" transform="translate(1250.826172 0)"/>
     <use xlink:href="#DejaVuSans-73" transform="translate(1290.035156 0)"/>
     <use xlink:href="#DejaVuSans-77" transform="translate(1342.134766 0)"/>
     <use xlink:href="#DejaVuSans-65" transform="translate(1423.921875 0)"/>
     <use xlink:href="#DejaVuSans-72" transform="translate(1485.445312 0)"/>
     <use xlink:href="#DejaVuSans-74" transform="translate(1526.558594 0)"/>
     <use xlink:href="#DejaVuSans-65" transform="translate(1565.767578 0)"/>
     <use xlink:href="#DejaVuSans-20" transform="translate(1627.291016 0)"/>
     <use xlink:href="#DejaVuSans-61" transform="translate(1659.078125 0)"/>
     <use xlink:href="#DejaVuSans-6d" transform="translate(1720.357422 0)"/>
     <use xlink:href="#DejaVuSans-20" transform="translate(1817.769531 0)"/>
     <use xlink:href="#DejaVuSans-54" transform="translate(1849.556641 0)"/>
     <use xlink:href="#DejaVuSans-61" transform="translate(1894.140625 0)"/>
     <use xlink:href="#DejaVuSans-67" transform="translate(1955.419922 0)"/>
    </g>
   </g>
   <g id="legend_1">
    <g id="patch_7">
     <path d="M 543.69375 106.07 
L 601.14375 106.07 
Q 603.14375 106.07 603.14375 104.07 
L 603.14375 46.3575 
Q 603.14375 44.3575 601.14375 44.3575 
L 543.69375 44.3575 
Q 541.69375 44.3575 541.69375 46.3575 
L 541.69375 104.07 
Q 541.69375 106.07 543.69375 106.07 
z
" style="fill: #1a1b26; opacity: 0.8; stroke: #a9b1d6; stroke-linejoin: miter"/>
    </g>
    <g id="text_28">
     <!-- Jahr -->
     <g style="fill: #a9b1d6" transform="translate(562.655469 55.955938) scale(0.1 -0.1)">
      <defs>
       <path id="DejaVuSans-4a" d="M 628 4666 
L 1259 4666 
L 1259 325 
Q 1259 -519 939 -900 
Q 619 -1281 -91 -1281 
L -331 -1281 
L -331 -750 
L -134 -750 
Q 284 -750 456 -515 
Q 628 -281 628 325 
L 628 4666 
z
" transform="scale(0.015625)"/>
      </defs>
      <use xlink:href="#DejaVuSans-4a"/>
      <use xlink:href="#DejaVuSans-61" transform="translate(29.492188 0)"/>
      <use xlink:href="#DejaVuSans-68" transform="translate(90.771484 0)"/>
      <use xlink:href="#DejaVuSans-72" transform="translate(154.150391 0)"/>
     </g>
    </g>
    <g id="line2d_52">
     <path d="M 545.69375 67.134063 
L 555.69375 67.134063 
L 565.69375 67.134063 
" style="fill: none; stroke: #9ece6a; stroke-width: 2; stroke-linecap: square"/>
     <g>
      <use xlink:href="#ma12126493d" x="555.69375" y="67.134063" style="fill: #9ece6a; stroke: #9ece6a"/>
     </g>
    </g>
    <g id="text_29">
     <!-- 2023 -->
     <g style="fill: #a9b1d6" transform="translate(573.69375 70.634063) scale(0.1 -0.1)">
      <use xlink:href="#DejaVuSans-32"/>
      <use xlink:href="#DejaVuSans-30" transform="translate(63.623047 0)"/>
      <use xlink:href="#DejaVuSans-32" transform="translate(127.246094 0)"/>
      <use xlink:href="#DejaVuSans-33" transform="translate(190.869141 0)"/>
     </g>
    </g>
    <g id="line2d_53">
     <path d="M 545.69375 81.812188 
L 555.69375 81.812188 
L 565.69375 81.812188 
" style="fill: none; stroke: #2ac3de; stroke-width: 2; stroke-linecap: square"/>
     <g>
      <use xlink:href="#m134e5487b2" x="555.69375" y="81.812188" style="fill: #2ac3de; stroke: #2ac3de"/>
     </g>
    </g>
    <g id="text_30">
     <!-- 2024 -->
     <g style="fill: #a9b1d6" transform="translate(573.69375 85.312188) scale(0.1 -0.1)">
      <defs>
       <path id="DejaVuSans-34" d="M 2419 4116 
L 825 1625 
L 2419 1625 
L 2419 4116 
z
M 2253 4666 
L 3047 4666 
L 3047 1625 
L 3713 1625 
L 3713 1100 
L 3047 1100 
L 3047 0 
L 2419 0 
L 2419 1100 
L 313 1100 
L 313 1709 
L 2253 4666 
z
" transform="scale(0.015625)"/>
      </defs>
      <use xlink:href="#DejaVuSans-32"/>
      <use xlink:href="#DejaVuSans-30" transform="translate(63.623047 0)"/>
      <use xlink:href="#DejaVuSans-32" transform="translate(127.246094 0)"/>
      <use xlink:href="#DejaVuSans-34" transform="translate(190.869141 0)"/>
     </g>
    </g>
    <g id="line2d_54">
     <path d="M 545.69375 96.490313 
L 555.69375 96.490313 
L 565.69375 96.490313 
" style="fill: none; stroke: #f7768e; stroke-width: 2; stroke-linecap: square"/>
     <g>
      <use xlink:href="#m670e6c4c3f" x="555.69375" y="96.490313" style="fill: #f7768e; stroke: #f7768e"/>
     </g>
    </g>
    <g id="text_31">
     <!-- 2025 -->
     <g style="fill: #a9b1d6" transform="translate(573.69375 99.990313) scale(0.1 -0.1)">
      <use xlink:href="#DejaVuSans-32"/>
      <use xlink:href="#DejaVuSans-30" transform="translate(63.623047 0)"/>
      <use xlink:href="#DejaVuSans-32" transform="translate(127.246094 0)"/>
      <use xlink:href="#DejaVuSans-35" transform="translate(190.869141 0)"/>
     </g>
    </g>
   </g>
  </g>
 </g>
 <defs>
  <clipPath id="p3bfe2aa783">
   <rect x="50.14375" y="39.3575" width="558" height="332.64"/>
  </clipPath>
 </defs>
</svg>
