<?xml version="1.0" encoding="utf-8" standalone="no"?>
<!DOCTYPE svg PUBLIC "-//W3C//DTD SVG 1.1//EN"
  "http://www.w3.org/Graphics/SVG/1.1/DTD/svg11.dtd">
<svg xmlns:xlink="http://www.w3.org/1999/xlink" width="607.73875pt" height="411.489375pt" viewBox="0 0 607.73875 411.489375" xmlns="http://www.w3.org/2000/svg" version="1.1">
 <metadata>
  <rdf:RDF xmlns:dc="http://purl.org/dc/elements/1.1/" xmlns:cc="http://creativecommons.org/ns#" xmlns:rdf="http://www.w3.org/1999/02/22-rdf-syntax-ns#">
   <cc:Work>
    <dc:type rdf:resource="http://purl.org/dc/dcmitype/StillImage"/>
    <dc:date>2026-04-26T14:28:04.811567</dc:date>
    <dc:format>image/svg+xml</dc:format>
    <dc:creator>
     <cc:Agent>
      <dc:title>Matplotlib v3.10.8, https://matplotlib.org/</dc:title>
     </cc:Agent>
    </dc:creator>
   </cc:Work>
  </rdf:RDF>
 </metadata>
 <defs>
  <style type="text/css">*{stroke-linejoin: round; stroke-linecap: butt}</style>
 </defs>
 <g id="figure_1">
  <g id="patch_1">
   <path d="M 0 411.489375 
L 607.73875 411.489375 
L 607.73875 0 
L 0 0 
z
" style="fill: #1a1b26"/>
  </g>
  <g id="axes_1">
   <g id="patch_2">
    <path d="M 42.53875 371.9975 
L 600.53875 371.9975 
L 600.53875 39.3575 
L 42.53875 39.3575 
z
" style="fill: #1a1b26"/>
   </g>
   <g id="matplotlib.axis_1">
    <g id="xtick_1">
     <g id="line2d_1">
      <path d="M 67.902386 371.9975 
L 67.902386 39.3575 
" clip-path="url(#p7428a67a0a)" style="fill: none; stroke-dasharray: 2.96,1.28; stroke-dashoffset: 0; stroke: #2f3549; stroke-opacity: 0.5; stroke-width: 0.8"/>
     </g>
     <g id="line2d_2">
      <defs>
       <path id="m9c4e95bf6e" d="M 0 0 
L 0 3.5 
" style="stroke: #a9b1d6; stroke-width: 0.8"/>
      </defs>
      <g>
       <use xlink:href="#m9c4e95bf6e" x="67.902386" y="371.9975" style="fill: #a9b1d6; stroke: #a9b1d6; stroke-width: 0.8"/>
      </g>
     </g>
     <g id="text_1">
      <!-- 1 -->
      <g style="fill: #a9b1d6" transform="translate(64.721136 386.595937) scale(0.1 -0.1)">
       <defs>
        <path id="DejaVuSans-31" d="M 794 531 
L 1825 531 
L 1825 4091 
L 703 3866 
L 703 4441 
L 1819 4666 
L 2450 4666 
L 2450 531 
L 3481 531 
L 3481 0 
L 794 0 
L 794 531 
z
" transform="scale(0.015625)"/>
       </defs>
       <use xlink:href="#DejaVuSans-31"/>
      </g>
     </g>
    </g>
    <g id="xtick_2">
     <g id="line2d_3">
      <path d="M 102.886712 371.9975 
L 102.886712 39.3575 
" clip-path="url(#p7428a67a0a)" style="fill: none; stroke-dasharray: 2.96,1.28; stroke-dashoffset: 0; stroke: #2f3549; stroke-opacity: 0.5; stroke-width: 0.8"/>
     </g>
     <g id="line2d_4">
      <g>
       <use xlink:href="#m9c4e95bf6e" x="102.886712" y="371.9975" style="fill: #a9b1d6; stroke: #a9b1d6; stroke-width: 0.8"/>
      </g>
     </g>
     <g id="text_2">
      <!-- 3 -->
      <g style="fill: #a9b1d6" transform="translate(99.705462 386.595937) scale(0.1 -0.1)">
       <defs>
        <path id="DejaVuSans-33" d="M 2597 2516 
Q 3050 2419 3304 2112 
Q 3559 1806 3559 1356 
Q 3559 666 3084 287 
Q 2609 -91 1734 -91 
Q 1441 -91 1130 -33 
Q 819 25 488 141 
L 488 750 
Q 750 597 1062 519 
Q 1375 441 1716 441 
Q 2309 441 2620 675 
Q 2931 909 2931 1356 
Q 2931 1769 2642 2001 
Q 2353 2234 1838 2234 
L 1294 2234 
L 1294 2753 
L 1863 2753 
Q 2328 2753 2575 2939 
Q 2822 3125 2822 3475 
Q 2822 3834 2567 4026 
Q 2313 4219 1838 4219 
Q 1578 4219 1281 4162 
Q 984 4106 628 3988 
L 628 4550 
Q 988 4650 1302 4700 
Q 1616 4750 1894 4750 
Q 2613 4750 3031 4423 
Q 3450 4097 3450 3541 
Q 3450 3153 3228 2886 
Q 3006 2619 2597 2516 
z
" transform="scale(0.015625)"/>
       </defs>
       <use xlink:href="#DejaVuSans-33"/>
      </g>
     </g>
    </g>
    <g id="xtick_3">
     <g id="line2d_5">
      <path d="M 137.871038 371.9975 
L 137.871038 39.3575 
" clip-path="url(#p7428a67a0a)" style="fill: none; stroke-dasharray: 2.96,1.28; stroke-dashoffset: 0; stroke: #2f3549; stroke-opacity: 0.5; stroke-width: 0.8"/>
     </g>
     <g id="line2d_6">
      <g>
       <use xlink:href="#m9c4e95bf6e" x="137.871038" y="371.9975" style="fill: #a9b1d6; stroke: #a9b1d6; stroke-width: 0.8"/>
      </g>
     </g>
     <g id="text_3">
      <!-- 5 -->
      <g style="fill: #a9b1d6" transform="translate(134.689788 386.595937) scale(0.1 -0.1)">
       <defs>
        <path id="DejaVuSans-35" d="M 691 4666 
L 3169 4666 
L 3169 4134 
L 1269 4134 
L 1269 2991 
Q 1406 3038 1543 3061 
Q 1681 3084 1819 3084 
Q 2600 3084 3056 2656 
Q 3513 2228 3513 1497 
Q 3513 744 3044 326 
Q 2575 -91 1722 -91 
Q 1428 -91 1123 -41 
Q 819 9 494 109 
L 494 744 
Q 775 591 1075 516 
Q 1375 441 1709 441 
Q 2250 441 2565 725 
Q 2881 1009 2881 1497 
Q 2881 1984 2565 2268 
Q 2250 2553 1709 2553 
Q 1456 2553 1204 2497 
Q 953 2441 691 2322 
L 691 4666 
z
" transform="scale(0.015625)"/>
       </defs>
       <use xlink:href="#DejaVuSans-35"/>
      </g>
     </g>
    </g>
    <g id="xtick_4">
     <g id="line2d_7">
      <path d="M 172.855364 371.9975 
L 172.855364 39.3575 
" clip-path="url(#p7428a67a0a)" style="fill: none; stroke-dasharray: 2.96,1.28; stroke-dashoffset: 0; stroke: #2f3549; stroke-opacity: 0.5; stroke-width: 0.8"/>
     </g>
     <g id="line2d_8">
      <g>
       <use xlink:href="#m9c4e95bf6e" x="172.855364" y="371.9975" style="fill: #a9b1d6; stroke: #a9b1d6; stroke-width: 0.8"/>
      </g>
     </g>
     <g id="text_4">
      <!-- 7 -->
      <g style="fill: #a9b1d6" transform="translate(169.674114 386.595937) scale(0.1 -0.1)">
       <defs>
        <path id="DejaVuSans-37" d="M 525 4666 
L 3525 4666 
L 3525 4397 
L 1831 0 
L 1172 0 
L 2766 4134 
L 525 4134 
L 525 4666 
z
" transform="scale(0.015625)"/>
       </defs>
       <use xlink:href="#DejaVuSans-37"/>
      </g>
     </g>
    </g>
    <g id="xtick_5">
     <g id="line2d_9">
      <path d="M 207.83969 371.9975 
L 207.83969 39.3575 
" clip-path="url(#p7428a67a0a)" style="fill: none; stroke-dasharray: 2.96,1.28; stroke-dashoffset: 0; stroke: #2f3549; stroke-opacity: 0.5; stroke-width: 0.8"/>
     </g>
     <g id="line2d_10">
      <g>
       <use xlink:href="#m9c4e95bf6e" x="207.83969" y="371.9975" style="fill: #a9b1d6; stroke: #a9b1d6; stroke-width: 0.8"/>
      </g>
     </g>
     <g id="text_5">
      <!-- 9 -->
      <g style="fill: #a9b1d6" transform="translate(204.65844 386.595937) scale(0.1 -0.1)">
       <defs>
        <path id="DejaVuSans-39" d="M 703 97 
L 703 672 
Q 941 559 1184 500 
Q 1428 441 1663 441 
Q 2288 441 2617 861 
Q 2947 1281 2994 2138 
Q 2813 1869 2534 1725 
Q 2256 1581 1919 1581 
Q 1219 1581 811 2004 
Q 403 2428 403 3163 
Q 403 3881 828 4315 
Q 1253 4750 1959 4750 
Q 2769 4750 3195 4129 
Q 3622 3509 3622 2328 
Q 3622 1225 3098 567 
Q 2575 -91 1691 -91 
Q 1453 -91 1209 -44 
Q 966 3 703 97 
z
M 1959 2075 
Q 2384 2075 2632 2365 
Q 2881 2656 2881 3163 
Q 2881 3666 2632 3958 
Q 2384 4250 1959 4250 
Q 1534 4250 1286 3958 
Q 1038 3666 1038 3163 
Q 1038 2656 1286 2365 
Q 1534 2075 1959 2075 
z
" transform="scale(0.015625)"/>
       </defs>
       <use xlink:href="#DejaVuSans-39"/>
      </g>
     </g>
    </g>
    <g id="xtick_6">
     <g id="line2d_11">
      <path d="M 242.824016 371.9975 
L 242.824016 39.3575 
" clip-path="url(#p7428a67a0a)" style="fill: none; stroke-dasharray: 2.96,1.28; stroke-dashoffset: 0; stroke: #2f3549; stroke-opacity: 0.5; stroke-width: 0.8"/>
     </g>
     <g id="line2d_12">
      <g>
       <use xlink:href="#m9c4e95bf6e" x="242.824016" y="371.9975" style="fill: #a9b1d6; stroke: #a9b1d6; stroke-width: 0.8"/>
      </g>
     </g>
     <g id="text_6">
      <!-- 11 -->
      <g style="fill: #a9b1d6" transform="translate(236.461516 386.595937) scale(0.1 -0.1)">
       <use xlink:href="#DejaVuSans-31"/>
       <use xlink:href="#DejaVuSans-31" transform="translate(63.623047 0)"/>
      </g>
     </g>
    </g>
    <g id="xtick_7">
     <g id="line2d_13">
      <path d="M 277.808342 371.9975 
L 277.808342 39.3575 
" clip-path="url(#p7428a67a0a)" style="fill: none; stroke-dasharray: 2.96,1.28; stroke-dashoffset: 0; stroke: #2f3549; stroke-opacity: 0.5; stroke-width: 0.8"/>
     </g>
     <g id="line2d_14">
      <g>
       <use xlink:href="#m9c4e95bf6e" x="277.808342" y="371.9975" style="fill: #a9b1d6; stroke: #a9b1d6; stroke-width: 0.8"/>
      </g>
     </g>
     <g id="text_7">
      <!-- 13 -->
      <g style="fill: #a9b1d6" transform="translate(271.445842 386.595937) scale(0.1 -0.1)">
       <use xlink:href="#DejaVuSans-31"/>
       <use xlink:href="#DejaVuSans-33" transform="translate(63.623047 0)"/>
      </g>
     </g>
    </g>
    <g id="xtick_8">
     <g id="line2d_15">
      <path d="M 312.792668 371.9975 
L 312.792668 39.3575 
" clip-path="url(#p7428a67a0a)" style="fill: none; stroke-dasharray: 2.96,1.28; stroke-dashoffset: 0; stroke: #2f3549; stroke-opacity: 0.5; stroke-width: 0.8"/>
     </g>
     <g id="line2d_16">
      <g>
       <use xlink:href="#m9c4e95bf6e" x="312.792668" y="371.9975" style="fill: #a9b1d6; stroke: #a9b1d6; stroke-width: 0.8"/>
      </g>
     </g>
     <g id="text_8">
      <!-- 15 -->
      <g style="fill: #a9b1d6" transform="translate(306.430168 386.595937) scale(0.1 -0.1)">
       <use xlink:href="#DejaVuSans-31"/>
       <use xlink:href="#DejaVuSans-35" transform="translate(63.623047 0)"/>
      </g>
     </g>
    </g>
    <g id="xtick_9">
     <g id="line2d_17">
      <path d="M 347.776995 371.9975 
L 347.776995 39.3575 
" clip-path="url(#p7428a67a0a)" style="fill: none; stroke-dasharray: 2.96,1.28; stroke-dashoffset: 0; stroke: #2f3549; stroke-opacity: 0.5; stroke-width: 0.8"/>
     </g>
     <g id="line2d_18">
      <g>
       <use xlink:href="#m9c4e95bf6e" x="347.776995" y="371.9975" style="fill: #a9b1d6; stroke: #a9b1d6; stroke-width: 0.8"/>
      </g>
     </g>
     <g id="text_9">
      <!-- 17 -->
      <g style="fill: #a9b1d6" transform="translate(341.414495 386.595937) scale(0.1 -0.1)">
       <use xlink:href="#DejaVuSans-31"/>
       <use xlink:href="#DejaVuSans-37" transform="translate(63.623047 0)"/>
      </g>
     </g>
    </g>
    <g id="xtick_10">
     <g id="line2d_19">
      <path d="M 382.761321 371.9975 
L 382.761321 39.3575 
" clip-path="url(#p7428a67a0a)" style="fill: none; stroke-dasharray: 2.96,1.28; stroke-dashoffset: 0; stroke: #2f3549; stroke-opacity: 0.5; stroke-width: 0.8"/>
     </g>
     <g id="line2d_20">
      <g>
       <use xlink:href="#m9c4e95bf6e" x="382.761321" y="371.9975" style="fill: #a9b1d6; stroke: #a9b1d6; stroke-width: 0.8"/>
      </g>
     </g>
     <g id="text_10">
      <!-- 19 -->
      <g style="fill: #a9b1d6" transform="translate(376.398821 386.595937) scale(0.1 -0.1)">
       <use xlink:href="#DejaVuSans-31"/>
       <use xlink:href="#DejaVuSans-39" transform="translate(63.623047 0)"/>
      </g>
     </g>
    </g>
    <g id="xtick_11">
     <g id="line2d_21">
      <path d="M 417.745647 371.9975 
L 417.745647 39.3575 
" clip-path="url(#p7428a67a0a)" style="fill: none; stroke-dasharray: 2.96,1.28; stroke-dashoffset: 0; stroke: #2f3549; stroke-opacity: 0.5; stroke-width: 0.8"/>
     </g>
     <g id="line2d_22">
      <g>
       <use xlink:href="#m9c4e95bf6e" x="417.745647" y="371.9975" style="fill: #a9b1d6; stroke: #a9b1d6; stroke-width: 0.8"/>
      </g>
     </g>
     <g id="text_11">
      <!-- 21 -->
      <g style="fill: #a9b1d6" transform="translate(411.383147 386.595937) scale(0.1 -0.1)">
       <defs>
        <path id="DejaVuSans-32" d="M 1228 531 
L 3431 531 
L 3431 0 
L 469 0 
L 469 531 
Q 828 903 1448 1529 
Q 2069 2156 2228 2338 
Q 2531 2678 2651 2914 
Q 2772 3150 2772 3378 
Q 2772 3750 2511 3984 
Q 2250 4219 1831 4219 
Q 1534 4219 1204 4116 
Q 875 4013 500 3803 
L 500 4441 
Q 881 4594 1212 4672 
Q 1544 4750 1819 4750 
Q 2544 4750 2975 4387 
Q 3406 4025 3406 3419 
Q 3406 3131 3298 2873 
Q 3191 2616 2906 2266 
Q 2828 2175 2409 1742 
Q 1991 1309 1228 531 
z
" transform="scale(0.015625)"/>
       </defs>
       <use xlink:href="#DejaVuSans-32"/>
       <use xlink:href="#DejaVuSans-31" transform="translate(63.623047 0)"/>
      </g>
     </g>
    </g>
    <g id="xtick_12">
     <g id="line2d_23">
      <path d="M 452.729973 371.9975 
L 452.729973 39.3575 
" clip-path="url(#p7428a67a0a)" style="fill: none; stroke-dasharray: 2.96,1.28; stroke-dashoffset: 0; stroke: #2f3549; stroke-opacity: 0.5; stroke-width: 0.8"/>
     </g>
     <g id="line2d_24">
      <g>
       <use xlink:href="#m9c4e95bf6e" x="452.729973" y="371.9975" style="fill: #a9b1d6; stroke: #a9b1d6; stroke-width: 0.8"/>
      </g>
     </g>
     <g id="text_12">
      <!-- 23 -->
      <g style="fill: #a9b1d6" transform="translate(446.367473 386.595937) scale(0.1 -0.1)">
       <use xlink:href="#DejaVuSans-32"/>
       <use xlink:href="#DejaVuSans-33" transform="translate(63.623047 0)"/>
      </g>
     </g>
    </g>
    <g id="xtick_13">
     <g id="line2d_25">
      <path d="M 487.714299 371.9975 
L 487.714299 39.3575 
" clip-path="url(#p7428a67a0a)" style="fill: none; stroke-dasharray: 2.96,1.28; stroke-dashoffset: 0; stroke: #2f3549; stroke-opacity: 0.5; stroke-width: 0.8"/>
     </g>
     <g id="line2d_26">
      <g>
       <use xlink:href="#m9c4e95bf6e" x="487.714299" y="371.9975" style="fill: #a9b1d6; stroke: #a9b1d6; stroke-width: 0.8"/>
      </g>
     </g>
     <g id="text_13">
      <!-- 25 -->
      <g style="fill: #a9b1d6" transform="translate(481.351799 386.595937) scale(0.1 -0.1)">
       <use xlink:href="#DejaVuSans-32"/>
       <use xlink:href="#DejaVuSans-35" transform="translate(63.623047 0)"/>
      </g>
     </g>
    </g>
    <g id="xtick_14">
     <g id="line2d_27">
      <path d="M 522.698625 371.9975 
L 522.698625 39.3575 
" clip-path="url(#p7428a67a0a)" style="fill: none; stroke-dasharray: 2.96,1.28; stroke-dashoffset: 0; stroke: #2f3549; stroke-opacity: 0.5; stroke-width: 0.8"/>
     </g>
     <g id="line2d_28">
      <g>
       <use xlink:href="#m9c4e95bf6e" x="522.698625" y="371.9975" style="fill: #a9b1d6; stroke: #a9b1d6; stroke-width: 0.8"/>
      </g>
     </g>
     <g id="text_14">
      <!-- 27 -->
      <g style="fill: #a9b1d6" transform="translate(516.336125 386.595937) scale(0.1 -0.1)">
       <use xlink:href="#DejaVuSans-32"/>
       <use xlink:href="#DejaVuSans-37" transform="translate(63.623047 0)"/>
      </g>
     </g>
    </g>
    <g id="xtick_15">
     <g id="line2d_29">
      <path d="M 557.682951 371.9975 
L 557.682951 39.3575 
" clip-path="url(#p7428a67a0a)" style="fill: none; stroke-dasharray: 2.96,1.28; stroke-dashoffset: 0; stroke: #2f3549; stroke-opacity: 0.5; stroke-width: 0.8"/>
     </g>
     <g id="line2d_30">
      <g>
       <use xlink:href="#m9c4e95bf6e" x="557.682951" y="371.9975" style="fill: #a9b1d6; stroke: #a9b1d6; stroke-width: 0.8"/>
      </g>
     </g>
     <g id="text_15">
      <!-- 29 -->
      <g style="fill: #a9b1d6" transform="translate(551.320451 386.595937) scale(0.1 -0.1)">
       <use xlink:href="#DejaVuSans-32"/>
       <use xlink:href="#DejaVuSans-39" transform="translate(63.623047 0)"/>
      </g>
     </g>
    </g>
    <g id="xtick_16">
     <g id="line2d_31">
      <path d="M 592.667277 371.9975 
L 592.667277 39.3575 
" clip-path="url(#p7428a67a0a)" style="fill: none; stroke-dasharray: 2.96,1.28; stroke-dashoffset: 0; stroke: #2f3549; stroke-opacity: 0.5; stroke-width: 0.8"/>
     </g>
     <g id="line2d_32">
      <g>
       <use xlink:href="#m9c4e95bf6e" x="592.667277" y="371.9975" style="fill: #a9b1d6; stroke: #a9b1d6; stroke-width: 0.8"/>
      </g>
     </g>
     <g id="text_16">
      <!-- 31 -->
      <g style="fill: #a9b1d6" transform="translate(586.304777 386.595937) scale(0.1 -0.1)">
       <use xlink:href="#DejaVuSans-33"/>
       <use xlink:href="#DejaVuSans-31" transform="translate(63.623047 0)"/>
      </g>
     </g>
    </g>
    <g id="text_17">
     <!-- Tag des Monats -->
     <g style="fill: #a9b1d6" transform="translate(275.1325 401.79375) scale(0.12 -0.12)">
      <defs>
       <path id="DejaVuSans-54" d="M -19 4666 
L 3928 4666 
L 3928 4134 
L 2272 4134 
L 2272 0 
L 1638 0 
L 1638 4134 
L -19 4134 
L -19 4666 
z
" transform="scale(0.015625)"/>
       <path id="DejaVuSans-61" d="M 2194 1759 
Q 1497 1759 1228 1600 
Q 959 1441 959 1056 
Q 959 750 1161 570 
Q 1363 391 1709 391 
Q 2188 391 2477 730 
Q 2766 1069 2766 1631 
L 2766 1759 
L 2194 1759 
z
M 3341 1997 
L 3341 0 
L 2766 0 
L 2766 531 
Q 2569 213 2275 61 
Q 1981 -91 1556 -91 
Q 1019 -91 701 211 
Q 384 513 384 1019 
Q 384 1609 779 1909 
Q 1175 2209 1959 2209 
L 2766 2209 
L 2766 2266 
Q 2766 2663 2505 2880 
Q 2244 3097 1772 3097 
Q 1472 3097 1187 3025 
Q 903 2953 641 2809 
L 641 3341 
Q 956 3463 1253 3523 
Q 1550 3584 1831 3584 
Q 2591 3584 2966 3190 
Q 3341 2797 3341 1997 
z
" transform="scale(0.015625)"/>
       <path id="DejaVuSans-67" d="M 2906 1791 
Q 2906 2416 2648 2759 
Q 2391 3103 1925 3103 
Q 1463 3103 1205 2759 
Q 947 2416 947 1791 
Q 947 1169 1205 825 
Q 1463 481 1925 481 
Q 2391 481 2648 825 
Q 2906 1169 2906 1791 
z
M 3481 434 
Q 3481 -459 3084 -895 
Q 2688 -1331 1869 -1331 
Q 1566 -1331 1297 -1286 
Q 1028 -1241 775 -1147 
L 775 -588 
Q 1028 -725 1275 -790 
Q 1522 -856 1778 -856 
Q 2344 -856 2625 -561 
Q 2906 -266 2906 331 
L 2906 616 
Q 2728 306 2450 153 
Q 2172 0 1784 0 
Q 1141 0 747 490 
Q 353 981 353 1791 
Q 353 2603 747 3093 
Q 1141 3584 1784 3584 
Q 2172 3584 2450 3431 
Q 2728 3278 2906 2969 
L 2906 3500 
L 3481 3500 
L 3481 434 
z
" transform="scale(0.015625)"/>
       <path id="DejaVuSans-20" transform="scale(0.015625)"/>
       <path id="DejaVuSans-64" d="M 2906 2969 
L 2906 4863 
L 3481 4863 
L 3481 0 
L 2906 0 
L 2906 525 
Q 2725 213 2448 61 
Q 2172 -91 1784 -91 
Q 1150 -91 751 415 
Q 353 922 353 1747 
Q 353 2572 751 3078 
Q 1150 3584 1784 3584 
Q 2172 3584 2448 3432 
Q 2725 3281 2906 2969 
z
M 947 1747 
Q 947 1113 1208 752 
Q 1469 391 1925 391 
Q 2381 391 2643 752 
Q 2906 1113 2906 1747 
Q 2906 2381 2643 2742 
Q 2381 3103 1925 3103 
Q 1469 3103 1208 2742 
Q 947 2381 947 1747 
z
" transform="scale(0.015625)"/>
       <path id="DejaVuSans-65" d="M 3597 1894 
L 3597 1613 
L 953 1613 
Q 991 1019 1311 708 
Q 1631 397 2203 397 
Q 2534 397 2845 478 
Q 3156 559 3463 722 
L 3463 178 
Q 3153 47 2828 -22 
Q 2503 -91 2169 -91 
Q 1331 -91 842 396 
Q 353 884 353 1716 
Q 353 2575 817 3079 
Q 1281 3584 2069 3584 
Q 2775 3584 3186 3129 
Q 3597 2675 3597 1894 
z
M 3022 2063 
Q 3016 2534 2758 2815 
Q 2500 3097 2075 3097 
Q 1594 3097 1305 2825 
Q 1016 2553 972 2059 
L 3022 2063 
z
" transform="scale(0.015625)"/>
       <path id="DejaVuSans-73" d="M 2834 3397 
L 2834 2853 
Q 2591 2978 2328 3040 
Q 2066 3103 1784 3103 
Q 1356 3103 1142 2972 
Q 928 2841 928 2578 
Q 928 2378 1081 2264 
Q 1234 2150 1697 2047 
L 1894 2003 
Q 2506 1872 2764 1633 
Q 3022 1394 3022 966 
Q 3022 478 2636 193 
Q 2250 -91 1575 -91 
Q 1294 -91 989 -36 
Q 684 19 347 128 
L 347 722 
Q 666 556 975 473 
Q 1284 391 1588 391 
Q 1994 391 2212 530 
Q 2431 669 2431 922 
Q 2431 1156 2273 1281 
Q 2116 1406 1581 1522 
L 1381 1569 
Q 847 1681 609 1914 
Q 372 2147 372 2553 
Q 372 3047 722 3315 
Q 1072 3584 1716 3584 
Q 2034 3584 2315 3537 
Q 2597 3491 2834 3397 
z
" transform="scale(0.015625)"/>
       <path id="DejaVuSans-4d" d="M 628 4666 
L 1569 4666 
L 2759 1491 
L 3956 4666 
L 4897 4666 
L 4897 0 
L 4281 0 
L 4281 4097 
L 3078 897 
L 2444 897 
L 1241 4097 
L 1241 0 
L 628 0 
L 628 4666 
z
" transform="scale(0.015625)"/>
       <path id="DejaVuSans-6f" d="M 1959 3097 
Q 1497 3097 1228 2736 
Q 959 2375 959 1747 
Q 959 1119 1226 758 
Q 1494 397 1959 397 
Q 2419 397 2687 759 
Q 2956 1122 2956 1747 
Q 2956 2369 2687 2733 
Q 2419 3097 1959 3097 
z
M 1959 3584 
Q 2709 3584 3137 3096 
Q 3566 2609 3566 1747 
Q 3566 888 3137 398 
Q 2709 -91 1959 -91 
Q 1206 -91 779 398 
Q 353 888 353 1747 
Q 353 2609 779 3096 
Q 1206 3584 1959 3584 
z
" transform="scale(0.015625)"/>
       <path id="DejaVuSans-6e" d="M 3513 2113 
L 3513 0 
L 2938 0 
L 2938 2094 
Q 2938 2591 2744 2837 
Q 2550 3084 2163 3084 
Q 1697 3084 1428 2787 
Q 1159 2491 1159 1978 
L 1159 0 
L 581 0 
L 581 3500 
L 1159 3500 
L 1159 2956 
Q 1366 3272 1645 3428 
Q 1925 3584 2291 3584 
Q 2894 3584 3203 3211 
Q 3513 2838 3513 2113 
z
" transform="scale(0.015625)"/>
       <path id="DejaVuSans-74" d="M 1172 4494 
L 1172 3500 
L 2356 3500 
L 2356 3053 
L 1172 3053 
L 1172 1153 
Q 1172 725 1289 603 
Q 1406 481 1766 481 
L 2356 481 
L 2356 0 
L 1766 0 
Q 1100 0 847 248 
Q 594 497 594 1153 
L 594 3053 
L 172 3053 
L 172 3500 
L 594 3500 
L 594 4494 
L 1172 4494 
z
" transform="scale(0.015625)"/>
      </defs>
      <use xlink:href="#DejaVuSans-54"/>
      <use xlink:href="#DejaVuSans-61" transform="translate(44.583984 0)"/>
      <use xlink:href="#DejaVuSans-67" transform="translate(105.863281 0)"/>
      <use xlink:href="#DejaVuSans-20" transform="translate(169.339844 0)"/>
      <use xlink:href="#DejaVuSans-64" transform="translate(201.126953 0)"/>
      <use xlink:href="#DejaVuSans-65" transform="translate(264.603516 0)"/>
      <use xlink:href="#DejaVuSans-73" transform="translate(326.126953 0)"/>
      <use xlink:href="#DejaVuSans-20" transform="translate(378.226562 0)"/>
      <use xlink:href="#DejaVuSans-4d" transform="translate(410.013672 0)"/>
      <use xlink:href="#DejaVuSans-6f" transform="translate(496.292969 0)"/>
      <use xlink:href="#DejaVuSans-6e" transform="translate(557.474609 0)"/>
      <use xlink:href="#DejaVuSans-61" transform="translate(620.853516 0)"/>
      <use xlink:href="#DejaVuSans-74" transform="translate(682.132812 0)"/>
      <use xlink:href="#DejaVuSans-73" transform="translate(721.341797 0)"/>
     </g>
    </g>
   </g>
   <g id="matplotlib.axis_2">
    <g id="ytick_1">
     <g id="line2d_33">
      <path d="M 42.53875 337.155761 
L 600.53875 337.155761 
" clip-path="url(#p7428a67a0a)" style="fill: none; stroke-dasharray: 2.96,1.28; stroke-dashoffset: 0; stroke: #2f3549; stroke-opacity: 0.5; stroke-width: 0.8"/>
     </g>
     <g id="line2d_34">
      <defs>
       <path id="mab9f4d3891" d="M 0 0 
L -3.5 0 
" style="stroke: #a9b1d6; stroke-width: 0.8"/>
      </defs>
      <g>
       <use xlink:href="#mab9f4d3891" x="42.53875" y="337.155761" style="fill: #a9b1d6; stroke: #a9b1d6; stroke-width: 0.8"/>
      </g>
     </g>
     <g id="text_18">
      <!-- 4 -->
      <g style="fill: #a9b1d6" transform="translate(29.17625 340.95498) scale(0.1 -0.1)">
       <defs>
        <path id="DejaVuSans-34" d="M 2419 4116 
L 825 1625 
L 2419 1625 
L 2419 4116 
z
M 2253 4666 
L 3047 4666 
L 3047 1625 
L 3713 1625 
L 3713 1100 
L 3047 1100 
L 3047 0 
L 2419 0 
L 2419 1100 
L 313 1100 
L 313 1709 
L 2253 4666 
z
" transform="scale(0.015625)"/>
       </defs>
       <use xlink:href="#DejaVuSans-34"/>
      </g>
     </g>
    </g>
    <g id="ytick_2">
     <g id="line2d_35">
      <path d="M 42.53875 293.329674 
L 600.53875 293.329674 
" clip-path="url(#p7428a67a0a)" style="fill: none; stroke-dasharray: 2.96,1.28; stroke-dashoffset: 0; stroke: #2f3549; stroke-opacity: 0.5; stroke-width: 0.8"/>
     </g>
     <g id="line2d_36">
      <g>
       <use xlink:href="#mab9f4d3891" x="42.53875" y="293.329674" style="fill: #a9b1d6; stroke: #a9b1d6; stroke-width: 0.8"/>
      </g>
     </g>
     <g id="text_19">
      <!-- 6 -->
      <g style="fill: #a9b1d6" transform="translate(29.17625 297.128893) scale(0.1 -0.1)">
       <defs>
        <path id="DejaVuSans-36" d="M 2113 2584 
Q 1688 2584 1439 2293 
Q 1191 2003 1191 1497 
Q 1191 994 1439 701 
Q 1688 409 2113 409 
Q 2538 409 2786 701 
Q 3034 994 3034 1497 
Q 3034 2003 2786 2293 
Q 2538 2584 2113 2584 
z
M 3366 4563 
L 3366 3988 
Q 3128 4100 2886 4159 
Q 2644 4219 2406 4219 
Q 1781 4219 1451 3797 
Q 1122 3375 1075 2522 
Q 1259 2794 1537 2939 
Q 1816 3084 2150 3084 
Q 2853 3084 3261 2657 
Q 3669 2231 3669 1497 
Q 3669 778 3244 343 
Q 2819 -91 2113 -91 
Q 1303 -91 875 529 
Q 447 1150 447 2328 
Q 447 3434 972 4092 
Q 1497 4750 2381 4750 
Q 2619 4750 2861 4703 
Q 3103 4656 3366 4563 
z
" transform="scale(0.015625)"/>
       </defs>
       <use xlink:href="#DejaVuSans-36"/>
      </g>
     </g>
    </g>
    <g id="ytick_3">
     <g id="line2d_37">
      <path d="M 42.53875 249.503587 
L 600.53875 249.503587 
" clip-path="url(#p7428a67a0a)" style="fill: none; stroke-dasharray: 2.96,1.28; stroke-dashoffset: 0; stroke: #2f3549; stroke-opacity: 0.5; stroke-width: 0.8"/>
     </g>
     <g id="line2d_38">
      <g>
       <use xlink:href="#mab9f4d3891" x="42.53875" y="249.503587" style="fill: #a9b1d6; stroke: #a9b1d6; stroke-width: 0.8"/>
      </g>
     </g>
     <g id="text_20">
      <!-- 8 -->
      <g style="fill: #a9b1d6" transform="translate(29.17625 253.302806) scale(0.1 -0.1)">
       <defs>
        <path id="DejaVuSans-38" d="M 2034 2216 
Q 1584 2216 1326 1975 
Q 1069 1734 1069 1313 
Q 1069 891 1326 650 
Q 1584 409 2034 409 
Q 2484 409 2743 651 
Q 3003 894 3003 1313 
Q 3003 1734 2745 1975 
Q 2488 2216 2034 2216 
z
M 1403 2484 
Q 997 2584 770 2862 
Q 544 3141 544 3541 
Q 544 4100 942 4425 
Q 1341 4750 2034 4750 
Q 2731 4750 3128 4425 
Q 3525 4100 3525 3541 
Q 3525 3141 3298 2862 
Q 3072 2584 2669 2484 
Q 3125 2378 3379 2068 
Q 3634 1759 3634 1313 
Q 3634 634 3220 271 
Q 2806 -91 2034 -91 
Q 1263 -91 848 271 
Q 434 634 434 1313 
Q 434 1759 690 2068 
Q 947 2378 1403 2484 
z
M 1172 3481 
Q 1172 3119 1398 2916 
Q 1625 2713 2034 2713 
Q 2441 2713 2670 2916 
Q 2900 3119 2900 3481 
Q 2900 3844 2670 4047 
Q 2441 4250 2034 4250 
Q 1625 4250 1398 4047 
Q 1172 3844 1172 3481 
z
" transform="scale(0.015625)"/>
       </defs>
       <use xlink:href="#DejaVuSans-38"/>
      </g>
     </g>
    </g>
    <g id="ytick_4">
     <g id="line2d_39">
      <path d="M 42.53875 205.6775 
L 600.53875 205.6775 
" clip-path="url(#p7428a67a0a)" style="fill: none; stroke-dasharray: 2.96,1.28; stroke-dashoffset: 0; stroke: #2f3549; stroke-opacity: 0.5; stroke-width: 0.8"/>
     </g>
     <g id="line2d_40">
      <g>
       <use xlink:href="#mab9f4d3891" x="42.53875" y="205.6775" style="fill: #a9b1d6; stroke: #a9b1d6; stroke-width: 0.8"/>
      </g>
     </g>
     <g id="text_21">
      <!-- 10 -->
      <g style="fill: #a9b1d6" transform="translate(22.81375 209.476719) scale(0.1 -0.1)">
       <defs>
        <path id="DejaVuSans-30" d="M 2034 4250 
Q 1547 4250 1301 3770 
Q 1056 3291 1056 2328 
Q 1056 1369 1301 889 
Q 1547 409 2034 409 
Q 2525 409 2770 889 
Q 3016 1369 3016 2328 
Q 3016 3291 2770 3770 
Q 2525 4250 2034 4250 
z
M 2034 4750 
Q 2819 4750 3233 4129 
Q 3647 3509 3647 2328 
Q 3647 1150 3233 529 
Q 2819 -91 2034 -91 
Q 1250 -91 836 529 
Q 422 1150 422 2328 
Q 422 3509 836 4129 
Q 1250 4750 2034 4750 
z
" transform="scale(0.015625)"/>
       </defs>
       <use xlink:href="#DejaVuSans-31"/>
       <use xlink:href="#DejaVuSans-30" transform="translate(63.623047 0)"/>
      </g>
     </g>
    </g>
    <g id="ytick_5">
     <g id="line2d_41">
      <path d="M 42.53875 161.851413 
L 600.53875 161.851413 
" clip-path="url(#p7428a67a0a)" style="fill: none; stroke-dasharray: 2.96,1.28; stroke-dashoffset: 0; stroke: #2f3549; stroke-opacity: 0.5; stroke-width: 0.8"/>
     </g>
     <g id="line2d_42">
      <g>
       <use xlink:href="#mab9f4d3891" x="42.53875" y="161.851413" style="fill: #a9b1d6; stroke: #a9b1d6; stroke-width: 0.8"/>
      </g>
     </g>
     <g id="text_22">
      <!-- 12 -->
      <g style="fill: #a9b1d6" transform="translate(22.81375 165.650632) scale(0.1 -0.1)">
       <use xlink:href="#DejaVuSans-31"/>
       <use xlink:href="#DejaVuSans-32" transform="translate(63.623047 0)"/>
      </g>
     </g>
    </g>
    <g id="ytick_6">
     <g id="line2d_43">
      <path d="M 42.53875 118.025326 
L 600.53875 118.025326 
" clip-path="url(#p7428a67a0a)" style="fill: none; stroke-dasharray: 2.96,1.28; stroke-dashoffset: 0; stroke: #2f3549; stroke-opacity: 0.5; stroke-width: 0.8"/>
     </g>
     <g id="line2d_44">
      <g>
       <use xlink:href="#mab9f4d3891" x="42.53875" y="118.025326" style="fill: #a9b1d6; stroke: #a9b1d6; stroke-width: 0.8"/>
      </g>
     </g>
     <g id="text_23">
      <!-- 14 -->
      <g style="fill: #a9b1d6" transform="translate(22.81375 121.824545) scale(0.1 -0.1)">
       <use xlink:href="#DejaVuSans-31"/>
       <use xlink:href="#DejaVuSans-34" transform="translate(63.623047 0)"/>
      </g>
     </g>
    </g>
    <g id="ytick_7">
     <g id="line2d_45">
      <path d="M 42.53875 74.199239 
L 600.53875 74.199239 
" clip-path="url(#p7428a67a0a)" style="fill: none; stroke-dasharray: 2.96,1.28; stroke-dashoffset: 0; stroke: #2f3549; stroke-opacity: 0.5; stroke-width: 0.8"/>
     </g>
     <g id="line2d_46">
      <g>
       <use xlink:href="#mab9f4d3891" x="42.53875" y="74.199239" style="fill: #a9b1d6; stroke: #a9b1d6; stroke-width: 0.8"/>
      </g>
     </g>
     <g id="text_24">
      <!-- 16 -->
      <g style="fill: #a9b1d6" transform="translate(22.81375 77.998458) scale(0.1 -0.1)">
       <use xlink:href="#DejaVuSans-31"/>
       <use xlink:href="#DejaVuSans-36" transform="translate(63.623047 0)"/>
      </g>
     </g>
    </g>
    <g id="text_25">
     <!-- Temperatur in °C -->
     <g style="fill: #a9b1d6" transform="translate(16.318125 256.596875) rotate(-90) scale(0.12 -0.12)">
      <defs>
       <path id="DejaVuSans-6d" d="M 3328 2828 
Q 3544 3216 3844 3400 
Q 4144 3584 4550 3584 
Q 5097 3584 5394 3201 
Q 5691 2819 5691 2113 
L 5691 0 
L 5113 0 
L 5113 2094 
Q 5113 2597 4934 2840 
Q 4756 3084 4391 3084 
Q 3944 3084 3684 2787 
Q 3425 2491 3425 1978 
L 3425 0 
L 2847 0 
L 2847 2094 
Q 2847 2600 2669 2842 
Q 2491 3084 2119 3084 
Q 1678 3084 1418 2786 
Q 1159 2488 1159 1978 
L 1159 0 
L 581 0 
L 581 3500 
L 1159 3500 
L 1159 2956 
Q 1356 3278 1631 3431 
Q 1906 3584 2284 3584 
Q 2666 3584 2933 3390 
Q 3200 3197 3328 2828 
z
" transform="scale(0.015625)"/>
       <path id="DejaVuSans-70" d="M 1159 525 
L 1159 -1331 
L 581 -1331 
L 581 3500 
L 1159 3500 
L 1159 2969 
Q 1341 3281 1617 3432 
Q 1894 3584 2278 3584 
Q 2916 3584 3314 3078 
Q 3713 2572 3713 1747 
Q 3713 922 3314 415 
Q 2916 -91 2278 -91 
Q 1894 -91 1617 61 
Q 1341 213 1159 525 
z
M 3116 1747 
Q 3116 2381 2855 2742 
Q 2594 3103 2138 3103 
Q 1681 3103 1420 2742 
Q 1159 2381 1159 1747 
Q 1159 1113 1420 752 
Q 1681 391 2138 391 
Q 2594 391 2855 752 
Q 3116 1113 3116 1747 
z
" transform="scale(0.015625)"/>
       <path id="DejaVuSans-72" d="M 2631 2963 
Q 2534 3019 2420 3045 
Q 2306 3072 2169 3072 
Q 1681 3072 1420 2755 
Q 1159 2438 1159 1844 
L 1159 0 
L 581 0 
L 581 3500 
L 1159 3500 
L 1159 2956 
Q 1341 3275 1631 3429 
Q 1922 3584 2338 3584 
Q 2397 3584 2469 3576 
Q 2541 3569 2628 3553 
L 2631 2963 
z
" transform="scale(0.015625)"/>
       <path id="DejaVuSans-75" d="M 544 1381 
L 544 3500 
L 1119 3500 
L 1119 1403 
Q 1119 906 1312 657 
Q 1506 409 1894 409 
Q 2359 409 2629 706 
Q 2900 1003 2900 1516 
L 2900 3500 
L 3475 3500 
L 3475 0 
L 2900 0 
L 2900 538 
Q 2691 219 2414 64 
Q 2138 -91 1772 -91 
Q 1169 -91 856 284 
Q 544 659 544 1381 
z
M 1991 3584 
L 1991 3584 
z
" transform="scale(0.015625)"/>
       <path id="DejaVuSans-69" d="M 603 3500 
L 1178 3500 
L 1178 0 
L 603 0 
L 603 3500 
z
M 603 4863 
L 1178 4863 
L 1178 4134 
L 603 4134 
L 603 4863 
z
" transform="scale(0.015625)"/>
       <path id="DejaVuSans-b0" d="M 1600 4347 
Q 1350 4347 1178 4173 
Q 1006 4000 1006 3750 
Q 1006 3503 1178 3333 
Q 1350 3163 1600 3163 
Q 1850 3163 2022 3333 
Q 2194 3503 2194 3750 
Q 2194 3997 2020 4172 
Q 1847 4347 1600 4347 
z
M 1600 4750 
Q 1800 4750 1984 4673 
Q 2169 4597 2303 4453 
Q 2447 4313 2519 4134 
Q 2591 3956 2591 3750 
Q 2591 3338 2302 3052 
Q 2013 2766 1594 2766 
Q 1172 2766 890 3047 
Q 609 3328 609 3750 
Q 609 4169 896 4459 
Q 1184 4750 1600 4750 
z
" transform="scale(0.015625)"/>
       <path id="DejaVuSans-43" d="M 4122 4306 
L 4122 3641 
Q 3803 3938 3442 4084 
Q 3081 4231 2675 4231 
Q 1875 4231 1450 3742 
Q 1025 3253 1025 2328 
Q 1025 1406 1450 917 
Q 1875 428 2675 428 
Q 3081 428 3442 575 
Q 3803 722 4122 1019 
L 4122 359 
Q 3791 134 3420 21 
Q 3050 -91 2638 -91 
Q 1578 -91 968 557 
Q 359 1206 359 2328 
Q 359 3453 968 4101 
Q 1578 4750 2638 4750 
Q 3056 4750 3426 4639 
Q 3797 4528 4122 4306 
z
" transform="scale(0.015625)"/>
      </defs>
      <use xlink:href="#DejaVuSans-54"/>
      <use xlink:href="#DejaVuSans-65" transform="translate(44.083984 0)"/>
      <use xlink:href="#DejaVuSans-6d" transform="translate(105.607422 0)"/>
      <use xlink:href="#DejaVuSans-70" transform="translate(203.019531 0)"/>
      <use xlink:href="#DejaVuSans-65" transform="translate(266.496094 0)"/>
      <use xlink:href="#DejaVuSans-72" transform="translate(328.019531 0)"/>
      <use xlink:href="#DejaVuSans-61" transform="translate(369.132812 0)"/>
      <use xlink:href="#DejaVuSans-74" transform="translate(430.412109 0)"/>
      <use xlink:href="#DejaVuSans-75" transform="translate(469.621094 0)"/>
      <use xlink:href="#DejaVuSans-72" transform="translate(533 0)"/>
      <use xlink:href="#DejaVuSans-20" transform="translate(574.113281 0)"/>
      <use xlink:href="#DejaVuSans-69" transform="translate(605.900391 0)"/>
      <use xlink:href="#DejaVuSans-6e" transform="translate(633.683594 0)"/>
      <use xlink:href="#DejaVuSans-20" transform="translate(697.0625 0)"/>
      <use xlink:href="#DejaVuSans-b0" transform="translate(728.849609 0)"/>
      <use xlink:href="#DejaVuSans-43" transform="translate(778.849609 0)"/>
     </g>
    </g>
   </g>
   <g id="line2d_47">
    <path d="M 67.902386 203.486196 
L 85.394549 155.2775 
L 102.886712 181.573152 
L 120.378875 245.120978 
L 137.871038 188.147065 
L 155.363201 212.251413 
L 172.855364 210.060109 
L 190.347527 205.6775 
L 207.83969 214.442717 
L 225.331853 185.955761 
L 242.824016 201.294891 
L 260.316179 161.851413 
L 277.808342 85.155761 
L 295.300505 225.399239 
L 312.792668 304.286196 
L 330.284832 258.268804 
L 347.776995 199.103587 
L 365.269158 148.703587 
L 382.761321 153.086196 
L 400.253484 144.320978 
L 417.745647 210.060109 
L 435.23781 98.303587 
L 452.729973 262.651413 
L 470.222136 308.668804 
L 487.714299 352.494891 
L 505.206462 280.181848 
L 522.698625 207.868804 
L 540.190788 214.442717 
L 557.682951 207.868804 
L 575.175114 264.842717 
" clip-path="url(#p7428a67a0a)" style="fill: none; stroke: #9ece6a; stroke-width: 2; stroke-linecap: square"/>
    <defs>
     <path id="mc23030be14" d="M 0 2 
C 0.530406 2 1.03916 1.789267 1.414214 1.414214 
C 1.789267 1.03916 2 0.530406 2 0 
C 2 -0.530406 1.789267 -1.03916 1.414214 -1.414214 
C 1.03916 -1.789267 0.530406 -2 0 -2 
C -0.530406 -2 -1.03916 -1.789267 -1.414214 -1.414214 
C -1.789267 -1.03916 -2 -0.530406 -2 0 
C -2 0.530406 -1.789267 1.03916 -1.414214 1.414214 
C -1.03916 1.789267 -0.530406 2 0 2 
z
" style="stroke: #9ece6a"/>
    </defs>
    <g clip-path="url(#p7428a67a0a)">
     <use xlink:href="#mc23030be14" x="67.902386" y="203.486196" style="fill: #9ece6a; stroke: #9ece6a"/>
     <use xlink:href="#mc23030be14" x="85.394549" y="155.2775" style="fill: #9ece6a; stroke: #9ece6a"/>
     <use xlink:href="#mc23030be14" x="102.886712" y="181.573152" style="fill: #9ece6a; stroke: #9ece6a"/>
     <use xlink:href="#mc23030be14" x="120.378875" y="245.120978" style="fill: #9ece6a; stroke: #9ece6a"/>
     <use xlink:href="#mc23030be14" x="137.871038" y="188.147065" style="fill: #9ece6a; stroke: #9ece6a"/>
     <use xlink:href="#mc23030be14" x="155.363201" y="212.251413" style="fill: #9ece6a; stroke: #9ece6a"/>
     <use xlink:href="#mc23030be14" x="172.855364" y="210.060109" style="fill: #9ece6a; stroke: #9ece6a"/>
     <use xlink:href="#mc23030be14" x="190.347527" y="205.6775" style="fill: #9ece6a; stroke: #9ece6a"/>
     <use xlink:href="#mc23030be14" x="207.83969" y="214.442717" style="fill: #9ece6a; stroke: #9ece6a"/>
     <use xlink:href="#mc23030be14" x="225.331853" y="185.955761" style="fill: #9ece6a; stroke: #9ece6a"/>
     <use xlink:href="#mc23030be14" x="242.824016" y="201.294891" style="fill: #9ece6a; stroke: #9ece6a"/>
     <use xlink:href="#mc23030be14" x="260.316179" y="161.851413" style="fill: #9ece6a; stroke: #9ece6a"/>
     <use xlink:href="#mc23030be14" x="277.808342" y="85.155761" style="fill: #9ece6a; stroke: #9ece6a"/>
     <use xlink:href="#mc23030be14" x="295.300505" y="225.399239" style="fill: #9ece6a; stroke: #9ece6a"/>
     <use xlink:href="#mc23030be14" x="312.792668" y="304.286196" style="fill: #9ece6a; stroke: #9ece6a"/>
     <use xlink:href="#mc23030be14" x="330.284832" y="258.268804" style="fill: #9ece6a; stroke: #9ece6a"/>
     <use xlink:href="#mc23030be14" x="347.776995" y="199.103587" style="fill: #9ece6a; stroke: #9ece6a"/>
     <use xlink:href="#mc23030be14" x="365.269158" y="148.703587" style="fill: #9ece6a; stroke: #9ece6a"/>
     <use xlink:href="#mc23030be14" x="382.761321" y="153.086196" style="fill: #9ece6a; stroke: #9ece6a"/>
     <use xlink:href="#mc23030be14" x="400.253484" y="144.320978" style="fill: #9ece6a; stroke: #9ece6a"/>
     <use xlink:href="#mc23030be14" x="417.745647" y="210.060109" style="fill: #9ece6a; stroke: #9ece6a"/>
     <use xlink:href="#mc23030be14" x="435.23781" y="98.303587" style="fill: #9ece6a; stroke: #9ece6a"/>
     <use xlink:href="#mc23030be14" x="452.729973" y="262.651413" style="fill: #9ece6a; stroke: #9ece6a"/>
     <use xlink:href="#mc23030be14" x="470.222136" y="308.668804" style="fill: #9ece6a; stroke: #9ece6a"/>
     <use xlink:href="#mc23030be14" x="487.714299" y="352.494891" style="fill: #9ece6a; stroke: #9ece6a"/>
     <use xlink:href="#mc23030be14" x="505.206462" y="280.181848" style="fill: #9ece6a; stroke: #9ece6a"/>
     <use xlink:href="#mc23030be14" x="522.698625" y="207.868804" style="fill: #9ece6a; stroke: #9ece6a"/>
     <use xlink:href="#mc23030be14" x="540.190788" y="214.442717" style="fill: #9ece6a; stroke: #9ece6a"/>
     <use xlink:href="#mc23030be14" x="557.682951" y="207.868804" style="fill: #9ece6a; stroke: #9ece6a"/>
     <use xlink:href="#mc23030be14" x="575.175114" y="264.842717" style="fill: #9ece6a; stroke: #9ece6a"/>
    </g>
   </g>
   <g id="line2d_48">
    <path d="M 67.902386 89.53837 
L 85.394549 139.93837 
L 102.886712 54.4775 
L 120.378875 65.434022 
L 137.871038 78.581848 
L 155.363201 74.199239 
L 172.855364 148.703587 
L 190.347527 122.407935 
L 207.83969 96.112283 
L 225.331853 124.599239 
L 242.824016 177.190543 
L 260.316179 238.547065 
L 277.808342 269.225326 
L 295.300505 214.442717 
L 312.792668 269.225326 
L 330.284832 194.720978 
L 347.776995 144.320978 
L 365.269158 177.190543 
L 382.761321 159.660109 
L 400.253484 194.720978 
L 417.745647 247.312283 
L 435.23781 275.799239 
L 452.729973 214.442717 
L 470.222136 153.086196 
L 487.714299 170.61663 
L 505.206462 172.807935 
L 522.698625 133.364457 
L 540.190788 284.564457 
L 557.682951 356.8775 
L 575.175114 330.581848 
" clip-path="url(#p7428a67a0a)" style="fill: none; stroke: #2ac3de; stroke-width: 2; stroke-linecap: square"/>
    <defs>
     <path id="m5e9a9f418a" d="M 0 2 
C 0.530406 2 1.03916 1.789267 1.414214 1.414214 
C 1.789267 1.03916 2 0.530406 2 0 
C 2 -0.530406 1.789267 -1.03916 1.414214 -1.414214 
C 1.03916 -1.789267 0.530406 -2 0 -2 
C -0.530406 -2 -1.03916 -1.789267 -1.414214 -1.414214 
C -1.789267 -1.03916 -2 -0.530406 -2 0 
C -2 0.530406 -1.789267 1.03916 -1.414214 1.414214 
C -1.03916 1.789267 -0.530406 2 0 2 
z
" style="stroke: #2ac3de"/>
    </defs>
    <g clip-path="url(#p7428a67a0a)">
     <use xlink:href="#m5e9a9f418a" x="67.902386" y="89.53837" style="fill: #2ac3de; stroke: #2ac3de"/>
     <use xlink:href="#m5e9a9f418a" x="85.394549" y="139.93837" style="fill: #2ac3de; stroke: #2ac3de"/>
     <use xlink:href="#m5e9a9f418a" x="102.886712" y="54.4775" style="fill: #2ac3de; stroke: #2ac3de"/>
     <use xlink:href="#m5e9a9f418a" x="120.378875" y="65.434022" style="fill: #2ac3de; stroke: #2ac3de"/>
     <use xlink:href="#m5e9a9f418a" x="137.871038" y="78.581848" style="fill: #2ac3de; stroke: #2ac3de"/>
     <use xlink:href="#m5e9a9f418a" x="155.363201" y="74.199239" style="fill: #2ac3de; stroke: #2ac3de"/>
     <use xlink:href="#m5e9a9f418a" x="172.855364" y="148.703587" style="fill: #2ac3de; stroke: #2ac3de"/>
     <use xlink:href="#m5e9a9f418a" x="190.347527" y="122.407935" style="fill: #2ac3de; stroke: #2ac3de"/>
     <use xlink:href="#m5e9a9f418a" x="207.83969" y="96.112283" style="fill: #2ac3de; stroke: #2ac3de"/>
     <use xlink:href="#m5e9a9f418a" x="225.331853" y="124.599239" style="fill: #2ac3de; stroke: #2ac3de"/>
     <use xlink:href="#m5e9a9f418a" x="242.824016" y="177.190543" style="fill: #2ac3de; stroke: #2ac3de"/>
     <use xlink:href="#m5e9a9f418a" x="260.316179" y="238.547065" style="fill: #2ac3de; stroke: #2ac3de"/>
     <use xlink:href="#m5e9a9f418a" x="277.808342" y="269.225326" style="fill: #2ac3de; stroke: #2ac3de"/>
     <use xlink:href="#m5e9a9f418a" x="295.300505" y="214.442717" style="fill: #2ac3de; stroke: #2ac3de"/>
     <use xlink:href="#m5e9a9f418a" x="312.792668" y="269.225326" style="fill: #2ac3de; stroke: #2ac3de"/>
     <use xlink:href="#m5e9a9f418a" x="330.284832" y="194.720978" style="fill: #2ac3de; stroke: #2ac3de"/>
     <use xlink:href="#m5e9a9f418a" x="347.776995" y="144.320978" style="fill: #2ac3de; stroke: #2ac3de"/>
     <use xlink:href="#m5e9a9f418a" x="365.269158" y="177.190543" style="fill: #2ac3de; stroke: #2ac3de"/>
     <use xlink:href="#m5e9a9f418a" x="382.761321" y="159.660109" style="fill: #2ac3de; stroke: #2ac3de"/>
     <use xlink:href="#m5e9a9f418a" x="400.253484" y="194.720978" style="fill: #2ac3de; stroke: #2ac3de"/>
     <use xlink:href="#m5e9a9f418a" x="417.745647" y="247.312283" style="fill: #2ac3de; stroke: #2ac3de"/>
     <use xlink:href="#m5e9a9f418a" x="435.23781" y="275.799239" style="fill: #2ac3de; stroke: #2ac3de"/>
     <use xlink:href="#m5e9a9f418a" x="452.729973" y="214.442717" style="fill: #2ac3de; stroke: #2ac3de"/>
     <use xlink:href="#m5e9a9f418a" x="470.222136" y="153.086196" style="fill: #2ac3de; stroke: #2ac3de"/>
     <use xlink:href="#m5e9a9f418a" x="487.714299" y="170.61663" style="fill: #2ac3de; stroke: #2ac3de"/>
     <use xlink:href="#m5e9a9f418a" x="505.206462" y="172.807935" style="fill: #2ac3de; stroke: #2ac3de"/>
     <use xlink:href="#m5e9a9f418a" x="522.698625" y="133.364457" style="fill: #2ac3de; stroke: #2ac3de"/>
     <use xlink:href="#m5e9a9f418a" x="540.190788" y="284.564457" style="fill: #2ac3de; stroke: #2ac3de"/>
     <use xlink:href="#m5e9a9f418a" x="557.682951" y="356.8775" style="fill: #2ac3de; stroke: #2ac3de"/>
     <use xlink:href="#m5e9a9f418a" x="575.175114" y="330.581848" style="fill: #2ac3de; stroke: #2ac3de"/>
    </g>
   </g>
   <g id="line2d_49">
    <path d="M 67.902386 236.355761 
L 85.394549 96.112283 
L 102.886712 183.764457 
L 120.378875 168.425326 
L 137.871038 93.920978 
L 155.363201 196.912283 
L 172.855364 267.034022 
L 190.347527 277.990543 
L 207.83969 286.755761 
L 225.331853 174.999239 
L 242.824016 203.486196 
L 260.316179 236.355761 
L 277.808342 271.41663 
L 295.300505 210.060109 
L 312.792668 210.060109 
L 330.284832 157.468804 
L 347.776995 170.61663 
L 365.269158 124.599239 
L 382.761321 177.190543 
L 400.253484 216.634022 
L 417.745647 135.555761 
L 435.23781 194.720978 
L 452.729973 308.668804 
L 470.222136 280.181848 
L 487.714299 267.034022 
L 505.206462 223.207935 
L 522.698625 183.764457 
L 540.190788 273.607935 
L 557.682951 354.686196 
L 575.175114 337.155761 
" clip-path="url(#p7428a67a0a)" style="fill: none; stroke: #f7768e; stroke-width: 2; stroke-linecap: square"/>
    <defs>
     <path id="m3933770444" d="M 0 2 
C 0.530406 2 1.03916 1.789267 1.414214 1.414214 
C 1.789267 1.03916 2 0.530406 2 0 
C 2 -0.530406 1.789267 -1.03916 1.414214 -1.414214 
C 1.03916 -1.789267 0.530406 -2 0 -2 
C -0.530406 -2 -1.03916 -1.789267 -1.414214 -1.414214 
C -1.789267 -1.03916 -2 -0.530406 -2 0 
C -2 0.530406 -1.789267 1.03916 -1.414214 1.414214 
C -1.03916 1.789267 -0.530406 2 0 2 
z
" style="stroke: #f7768e"/>
    </defs>
    <g clip-path="url(#p7428a67a0a)">
     <use xlink:href="#m3933770444" x="67.902386" y="236.355761" style="fill: #f7768e; stroke: #f7768e"/>
     <use xlink:href="#m3933770444" x="85.394549" y="96.112283" style="fill: #f7768e; stroke: #f7768e"/>
     <use xlink:href="#m3933770444" x="102.886712" y="183.764457" style="fill: #f7768e; stroke: #f7768e"/>
     <use xlink:href="#m3933770444" x="120.378875" y="168.425326" style="fill: #f7768e; stroke: #f7768e"/>
     <use xlink:href="#m3933770444" x="137.871038" y="93.920978" style="fill: #f7768e; stroke: #f7768e"/>
     <use xlink:href="#m3933770444" x="155.363201" y="196.912283" style="fill: #f7768e; stroke: #f7768e"/>
     <use xlink:href="#m3933770444" x="172.855364" y="267.034022" style="fill: #f7768e; stroke: #f7768e"/>
     <use xlink:href="#m3933770444" x="190.347527" y="277.990543" style="fill: #f7768e; stroke: #f7768e"/>
     <use xlink:href="#m3933770444" x="207.83969" y="286.755761" style="fill: #f7768e; stroke: #f7768e"/>
     <use xlink:href="#m3933770444" x="225.331853" y="174.999239" style="fill: #f7768e; stroke: #f7768e"/>
     <use xlink:href="#m3933770444" x="242.824016" y="203.486196" style="fill: #f7768e; stroke: #f7768e"/>
     <use xlink:href="#m3933770444" x="260.316179" y="236.355761" style="fill: #f7768e; stroke: #f7768e"/>
     <use xlink:href="#m3933770444" x="277.808342" y="271.41663" style="fill: #f7768e; stroke: #f7768e"/>
     <use xlink:href="#m3933770444" x="295.300505" y="210.060109" style="fill: #f7768e; stroke: #f7768e"/>
     <use xlink:href="#m3933770444" x="312.792668" y="210.060109" style="fill: #f7768e; stroke: #f7768e"/>
     <use xlink:href="#m3933770444" x="330.284832" y="157.468804" style="fill: #f7768e; stroke: #f7768e"/>
     <use xlink:href="#m3933770444" x="347.776995" y="170.61663" style="fill: #f7768e; stroke: #f7768e"/>
     <use xlink:href="#m3933770444" x="365.269158" y="124.599239" style="fill: #f7768e; stroke: #f7768e"/>
     <use xlink:href="#m3933770444" x="382.761321" y="177.190543" style="fill: #f7768e; stroke: #f7768e"/>
     <use xlink:href="#m3933770444" x="400.253484" y="216.634022" style="fill: #f7768e; stroke: #f7768e"/>
     <use xlink:href="#m3933770444" x="417.745647" y="135.555761" style="fill: #f7768e; stroke: #f7768e"/>
     <use xlink:href="#m3933770444" x="435.23781" y="194.720978" style="fill: #f7768e; stroke: #f7768e"/>
     <use xlink:href="#m3933770444" x="452.729973" y="308.668804" style="fill: #f7768e; stroke: #f7768e"/>
     <use xlink:href="#m3933770444" x="470.222136" y="280.181848" style="fill: #f7768e; stroke: #f7768e"/>
     <use xlink:href="#m3933770444" x="487.714299" y="267.034022" style="fill: #f7768e; stroke: #f7768e"/>
     <use xlink:href="#m3933770444" x="505.206462" y="223.207935" style="fill: #f7768e; stroke: #f7768e"/>
     <use xlink:href="#m3933770444" x="522.698625" y="183.764457" style="fill: #f7768e; stroke: #f7768e"/>
     <use xlink:href="#m3933770444" x="540.190788" y="273.607935" style="fill: #f7768e; stroke: #f7768e"/>
     <use xlink:href="#m3933770444" x="557.682951" y="354.686196" style="fill: #f7768e; stroke: #f7768e"/>
     <use xlink:href="#m3933770444" x="575.175114" y="337.155761" style="fill: #f7768e; stroke: #f7768e"/>
    </g>
   </g>
   <g id="patch_3">
    <path d="M 42.53875 371.9975 
L 42.53875 39.3575 
" style="fill: none; stroke: #a9b1d6; stroke-width: 0.8; stroke-linejoin: miter; stroke-linecap: square"/>
   </g>
   <g id="patch_4">
    <path d="M 600.53875 371.9975 
L 600.53875 39.3575 
" style="fill: none; stroke: #a9b1d6; stroke-width: 0.8; stroke-linejoin: miter; stroke-linecap: square"/>
   </g>
   <g id="patch_5">
    <path d="M 42.53875 371.9975 
L 600.53875 371.9975 
" style="fill: none; stroke: #a9b1d6; stroke-width: 0.8; stroke-linejoin: miter; stroke-linecap: square"/>
   </g>
   <g id="patch_6">
    <path d="M 42.53875 39.3575 
L 600.53875 39.3575 
" style="fill: none; stroke: #a9b1d6; stroke-width: 0.8; stroke-linejoin: miter; stroke-linecap: square"/>
   </g>
   <g id="text_26">
    <!-- September - Tiefstwerte am Tag -->
    <g style="fill: #a9b1d6" transform="translate(193.305 19.3575) scale(0.16 -0.16)">
     <defs>
      <path id="DejaVuSans-53" d="M 3425 4513 
L 3425 3897 
Q 3066 4069 2747 4153 
Q 2428 4238 2131 4238 
Q 1616 4238 1336 4038 
Q 1056 3838 1056 3469 
Q 1056 3159 1242 3001 
Q 1428 2844 1947 2747 
L 2328 2669 
Q 3034 2534 3370 2195 
Q 3706 1856 3706 1288 
Q 3706 609 3251 259 
Q 2797 -91 1919 -91 
Q 1588 -91 1214 -16 
Q 841 59 441 206 
L 441 856 
Q 825 641 1194 531 
Q 1563 422 1919 422 
Q 2459 422 2753 634 
Q 3047 847 3047 1241 
Q 3047 1584 2836 1778 
Q 2625 1972 2144 2069 
L 1759 2144 
Q 1053 2284 737 2584 
Q 422 2884 422 3419 
Q 422 4038 858 4394 
Q 1294 4750 2059 4750 
Q 2388 4750 2728 4690 
Q 3069 4631 3425 4513 
z
" transform="scale(0.015625)"/>
      <path id="DejaVuSans-62" d="M 3116 1747 
Q 3116 2381 2855 2742 
Q 2594 3103 2138 3103 
Q 1681 3103 1420 2742 
Q 1159 2381 1159 1747 
Q 1159 1113 1420 752 
Q 1681 391 2138 391 
Q 2594 391 2855 752 
Q 3116 1113 3116 1747 
z
M 1159 2969 
Q 1341 3281 1617 3432 
Q 1894 3584 2278 3584 
Q 2916 3584 3314 3078 
Q 3713 2572 3713 1747 
Q 3713 922 3314 415 
Q 2916 -91 2278 -91 
Q 1894 -91 1617 61 
Q 1341 213 1159 525 
L 1159 0 
L 581 0 
L 581 4863 
L 1159 4863 
L 1159 2969 
z
" transform="scale(0.015625)"/>
      <path id="DejaVuSans-2d" d="M 313 2009 
L 1997 2009 
L 1997 1497 
L 313 1497 
L 313 2009 
z
" transform="scale(0.015625)"/>
      <path id="DejaVuSans-66" d="M 2375 4863 
L 2375 4384 
L 1825 4384 
Q 1516 4384 1395 4259 
Q 1275 4134 1275 3809 
L 1275 3500 
L 2222 3500 
L 2222 3053 
L 1275 3053 
L 1275 0 
L 697 0 
L 697 3053 
L 147 3053 
L 147 3500 
L 697 3500 
L 697 3744 
Q 697 4328 969 4595 
Q 1241 4863 1831 4863 
L 2375 4863 
z
" transform="scale(0.015625)"/>
      <path id="DejaVuSans-77" d="M 269 3500 
L 844 3500 
L 1563 769 
L 2278 3500 
L 2956 3500 
L 3675 769 
L 4391 3500 
L 4966 3500 
L 4050 0 
L 3372 0 
L 2619 2869 
L 1863 0 
L 1184 0 
L 269 3500 
z
" transform="scale(0.015625)"/>
     </defs>
     <use xlink:href="#DejaVuSans-53"/>
     <use xlink:href="#DejaVuSans-65" transform="translate(63.476562 0)"/>
     <use xlink:href="#DejaVuSans-70" transform="translate(125 0)"/>
     <use xlink:href="#DejaVuSans-74" transform="translate(188.476562 0)"/>
     <use xlink:href="#DejaVuSans-65" transform="translate(227.685547 0)"/>
     <use xlink:href="#DejaVuSans-6d" transform="translate(289.208984 0)"/>
     <use xlink:href="#DejaVuSans-62" transform="translate(386.621094 0)"/>
     <use xlink:href="#DejaVuSans-65" transform="translate(450.097656 0)"/>
     <use xlink:href="#DejaVuSans-72" transform="translate(511.621094 0)"/>
     <use xlink:href="#DejaVuSans-20" transform="translate(552.734375 0)"/>
     <use xlink:href="#DejaVuSans-2d" transform="translate(584.521484 0)"/>
     <use xlink:href="#DejaVuSans-20" transform="translate(620.605469 0)"/>
     <use xlink:href="#DejaVuSans-54" transform="translate(652.392578 0)"/>
     <use xlink:href="#DejaVuSans-69" transform="translate(710.351562 0)"/>
     <use xlink:href="#DejaVuSans-65" transform="translate(738.134766 0)"/>
     <use xlink:href="#DejaVuSans-66" transform="translate(799.658203 0)"/>
     <use xlink:href="#DejaVuSans-73" transform="translate(834.863281 0)"/>
     <use xlink:href="#DejaVuSans-74" transform="translate(886.962891 0)"/>
     <use xlink:href="#DejaVuSans-77" transform="translate(926.171875 0)"/>
     <use xlink:href="#DejaVuSans-65" transform="translate(1007.958984 0)"/>
     <use xlink:href="#DejaVuSans-72" transform="translate(1069.482422 0)"/>
     <use xlink:href="#DejaVuSans-74" transform="translate(1110.595703 0)"/>
     <use xlink:href="#DejaVuSans-65" transform="translate(1149.804688 0)"/>
     <use xlink:href="#DejaVuSans-20" transform="translate(1211.328125 0)"/>
     <use xlink:href="#DejaVuSans-61" transform="translate(1243.115234 0)"/>
     <use xlink:href="#DejaVuSans-6d" transform="translate(1304.394531 0)"/>
     <use xlink:href="#DejaVuSans-20" transform="translate(1401.806641 0)"/>
     <use xlink:href="#DejaVuSans-54" transform="translate(1433.59375 0)"/>
     <use xlink:href="#DejaVuSans-61" transform="translate(1478.177734 0)"/>
     <use xlink:href="#DejaVuSans-67" transform="translate(1539.457031 0)"/>
    </g>
   </g>
   <g id="legend_1">
    <g id="patch_7">
     <path d="M 536.08875 106.07 
L 593.53875 106.07 
Q 595.53875 106.07 595.53875 104.07 
L 595.53875 46.3575 
Q 595.53875 44.3575 593.53875 44.3575 
L 536.08875 44.3575 
Q 534.08875 44.3575 534.08875 46.3575 
L 534.08875 104.07 
Q 534.08875 106.07 536.08875 106.07 
z
" style="fill: #1a1b26; opacity: 0.8; stroke: #a9b1d6; stroke-linejoin: miter"/>
    </g>
    <g id="text_27">
     <!-- Jahr -->
     <g style="fill: #a9b1d6" transform="translate(555.050469 55.955938) scale(0.1 -0.1)">
      <defs>
       <path id="DejaVuSans-4a" d="M 628 4666 
L 1259 4666 
L 1259 325 
Q 1259 -519 939 -900 
Q 619 -1281 -91 -1281 
L -331 -1281 
L -331 -750 
L -134 -750 
Q 284 -750 456 -515 
Q 628 -281 628 325 
L 628 4666 
z
" transform="scale(0.015625)"/>
       <path id="DejaVuSans-68" d="M 3513 2113 
L 3513 0 
L 2938 0 
L 2938 2094 
Q 2938 2591 2744 2837 
Q 2550 3084 2163 3084 
Q 1697 3084 1428 2787 
Q 1159 2491 1159 1978 
L 1159 0 
L 581 0 
L 581 4863 
L 1159 4863 
L 1159 2956 
Q 1366 3272 1645 3428 
Q 1925 3584 2291 3584 
Q 2894 3584 3203 3211 
Q 3513 2838 3513 2113 
z
" transform="scale(0.015625)"/>
      </defs>
      <use xlink:href="#DejaVuSans-4a"/>
      <use xlink:href="#DejaVuSans-61" transform="translate(29.492188 0)"/>
      <use xlink:href="#DejaVuSans-68" transform="translate(90.771484 0)"/>
      <use xlink:href="#DejaVuSans-72" transform="translate(154.150391 0)"/>
     </g>
    </g>
    <g id="line2d_50">
     <path d="M 538.08875 67.134063 
L 548.08875 67.134063 
L 558.08875 67.134063 
" style="fill: none; stroke: #9ece6a; stroke-width: 2; stroke-linecap: square"/>
     <g>
      <use xlink:href="#mc23030be14" x="548.08875" y="67.134063" style="fill: #9ece6a; stroke: #9ece6a"/>
     </g>
    </g>
    <g id="text_28">
     <!-- 2023 -->
     <g style="fill: #a9b1d6" transform="translate(566.08875 70.634063) scale(0.1 -0.1)">
      <use xlink:href="#DejaVuSans-32"/>
      <use xlink:href="#DejaVuSans-30" transform="translate(63.623047 0)"/>
      <use xlink:href="#DejaVuSans-32" transform="translate(127.246094 0)"/>
      <use xlink:href="#DejaVuSans-33" transform="translate(190.869141 0)"/>
     </g>
    </g>
    <g id="line2d_51">
     <path d="M 538.08875 81.812188 
L 548.08875 81.812188 
L 558.08875 81.812188 
" style="fill: none; stroke: #2ac3de; stroke-width: 2; stroke-linecap: square"/>
     <g>
      <use xlink:href="#m5e9a9f418a" x="548.08875" y="81.812188" style="fill: #2ac3de; stroke: #2ac3de"/>
     </g>
    </g>
    <g id="text_29">
     <!-- 2024 -->
     <g style="fill: #a9b1d6" transform="translate(566.08875 85.312188) scale(0.1 -0.1)">
      <use xlink:href="#DejaVuSans-32"/>
      <use xlink:href="#DejaVuSans-30" transform="translate(63.623047 0)"/>
      <use xlink:href="#DejaVuSans-32" transform="translate(127.246094 0)"/>
      <use xlink:href="#DejaVuSans-34" transform="translate(190.869141 0)"/>
     </g>
    </g>
    <g id="line2d_52">
     <path d="M 538.08875 96.490313 
L 548.08875 96.490313 
L 558.08875 96.490313 
" style="fill: none; stroke: #f7768e; stroke-width: 2; stroke-linecap: square"/>
     <g>
      <use xlink:href="#m3933770444" x="548.08875" y="96.490313" style="fill: #f7768e; stroke: #f7768e"/>
     </g>
    </g>
    <g id="text_30">
     <!-- 2025 -->
     <g style="fill: #a9b1d6" transform="translate(566.08875 99.990313) scale(0.1 -0.1)">
      <use xlink:href="#DejaVuSans-32"/>
      <use xlink:href="#DejaVuSans-30" transform="translate(63.623047 0)"/>
      <use xlink:href="#DejaVuSans-32" transform="translate(127.246094 0)"/>
      <use xlink:href="#DejaVuSans-35" transform="translate(190.869141 0)"/>
     </g>
    </g>
   </g>
  </g>
 </g>
 <defs>
  <clipPath id="p7428a67a0a">
   <rect x="42.53875" y="39.3575" width="558" height="332.64"/>
  </clipPath>
 </defs>
</svg>
