<?xml version="1.0" encoding="utf-8" standalone="no"?>
<!DOCTYPE svg PUBLIC "-//W3C//DTD SVG 1.1//EN"
  "http://www.w3.org/Graphics/SVG/1.1/DTD/svg11.dtd">
<svg xmlns:xlink="http://www.w3.org/1999/xlink" width="616.118438pt" height="411.489375pt" viewBox="0 0 616.118438 411.489375" xmlns="http://www.w3.org/2000/svg" version="1.1">
 <metadata>
  <rdf:RDF xmlns:dc="http://purl.org/dc/elements/1.1/" xmlns:cc="http://creativecommons.org/ns#" xmlns:rdf="http://www.w3.org/1999/02/22-rdf-syntax-ns#">
   <cc:Work>
    <dc:type rdf:resource="http://purl.org/dc/dcmitype/StillImage"/>
    <dc:date>2026-04-26T14:27:59.961079</dc:date>
    <dc:format>image/svg+xml</dc:format>
    <dc:creator>
     <cc:Agent>
      <dc:title>Matplotlib v3.10.8, https://matplotlib.org/</dc:title>
     </cc:Agent>
    </dc:creator>
   </cc:Work>
  </rdf:RDF>
 </metadata>
 <defs>
  <style type="text/css">*{stroke-linejoin: round; stroke-linecap: butt}</style>
 </defs>
 <g id="figure_1">
  <g id="patch_1">
   <path d="M 0 411.489375 
L 616.118438 411.489375 
L 616.118438 0 
L 0 0 
z
" style="fill: #1a1b26"/>
  </g>
  <g id="axes_1">
   <g id="patch_2">
    <path d="M 50.918438 371.9975 
L 608.918437 371.9975 
L 608.918437 39.3575 
L 50.918438 39.3575 
z
" style="fill: #1a1b26"/>
   </g>
   <g id="matplotlib.axis_1">
    <g id="xtick_1">
     <g id="line2d_1">
      <path d="M 76.282074 371.9975 
L 76.282074 39.3575 
" clip-path="url(#pe6df3455d5)" style="fill: none; stroke-dasharray: 2.96,1.28; stroke-dashoffset: 0; stroke: #2f3549; stroke-opacity: 0.5; stroke-width: 0.8"/>
     </g>
     <g id="line2d_2">
      <defs>
       <path id="m0fd1be5cca" d="M 0 0 
L 0 3.5 
" style="stroke: #a9b1d6; stroke-width: 0.8"/>
      </defs>
      <g>
       <use xlink:href="#m0fd1be5cca" x="76.282074" y="371.9975" style="fill: #a9b1d6; stroke: #a9b1d6; stroke-width: 0.8"/>
      </g>
     </g>
     <g id="text_1">
      <!-- 1 -->
      <g style="fill: #a9b1d6" transform="translate(73.100824 386.595937) scale(0.1 -0.1)">
       <defs>
        <path id="DejaVuSans-31" d="M 794 531 
L 1825 531 
L 1825 4091 
L 703 3866 
L 703 4441 
L 1819 4666 
L 2450 4666 
L 2450 531 
L 3481 531 
L 3481 0 
L 794 0 
L 794 531 
z
" transform="scale(0.015625)"/>
       </defs>
       <use xlink:href="#DejaVuSans-31"/>
      </g>
     </g>
    </g>
    <g id="xtick_2">
     <g id="line2d_3">
      <path d="M 110.100256 371.9975 
L 110.100256 39.3575 
" clip-path="url(#pe6df3455d5)" style="fill: none; stroke-dasharray: 2.96,1.28; stroke-dashoffset: 0; stroke: #2f3549; stroke-opacity: 0.5; stroke-width: 0.8"/>
     </g>
     <g id="line2d_4">
      <g>
       <use xlink:href="#m0fd1be5cca" x="110.100256" y="371.9975" style="fill: #a9b1d6; stroke: #a9b1d6; stroke-width: 0.8"/>
      </g>
     </g>
     <g id="text_2">
      <!-- 3 -->
      <g style="fill: #a9b1d6" transform="translate(106.919006 386.595937) scale(0.1 -0.1)">
       <defs>
        <path id="DejaVuSans-33" d="M 2597 2516 
Q 3050 2419 3304 2112 
Q 3559 1806 3559 1356 
Q 3559 666 3084 287 
Q 2609 -91 1734 -91 
Q 1441 -91 1130 -33 
Q 819 25 488 141 
L 488 750 
Q 750 597 1062 519 
Q 1375 441 1716 441 
Q 2309 441 2620 675 
Q 2931 909 2931 1356 
Q 2931 1769 2642 2001 
Q 2353 2234 1838 2234 
L 1294 2234 
L 1294 2753 
L 1863 2753 
Q 2328 2753 2575 2939 
Q 2822 3125 2822 3475 
Q 2822 3834 2567 4026 
Q 2313 4219 1838 4219 
Q 1578 4219 1281 4162 
Q 984 4106 628 3988 
L 628 4550 
Q 988 4650 1302 4700 
Q 1616 4750 1894 4750 
Q 2613 4750 3031 4423 
Q 3450 4097 3450 3541 
Q 3450 3153 3228 2886 
Q 3006 2619 2597 2516 
z
" transform="scale(0.015625)"/>
       </defs>
       <use xlink:href="#DejaVuSans-33"/>
      </g>
     </g>
    </g>
    <g id="xtick_3">
     <g id="line2d_5">
      <path d="M 143.918438 371.9975 
L 143.918438 39.3575 
" clip-path="url(#pe6df3455d5)" style="fill: none; stroke-dasharray: 2.96,1.28; stroke-dashoffset: 0; stroke: #2f3549; stroke-opacity: 0.5; stroke-width: 0.8"/>
     </g>
     <g id="line2d_6">
      <g>
       <use xlink:href="#m0fd1be5cca" x="143.918438" y="371.9975" style="fill: #a9b1d6; stroke: #a9b1d6; stroke-width: 0.8"/>
      </g>
     </g>
     <g id="text_3">
      <!-- 5 -->
      <g style="fill: #a9b1d6" transform="translate(140.737188 386.595937) scale(0.1 -0.1)">
       <defs>
        <path id="DejaVuSans-35" d="M 691 4666 
L 3169 4666 
L 3169 4134 
L 1269 4134 
L 1269 2991 
Q 1406 3038 1543 3061 
Q 1681 3084 1819 3084 
Q 2600 3084 3056 2656 
Q 3513 2228 3513 1497 
Q 3513 744 3044 326 
Q 2575 -91 1722 -91 
Q 1428 -91 1123 -41 
Q 819 9 494 109 
L 494 744 
Q 775 591 1075 516 
Q 1375 441 1709 441 
Q 2250 441 2565 725 
Q 2881 1009 2881 1497 
Q 2881 1984 2565 2268 
Q 2250 2553 1709 2553 
Q 1456 2553 1204 2497 
Q 953 2441 691 2322 
L 691 4666 
z
" transform="scale(0.015625)"/>
       </defs>
       <use xlink:href="#DejaVuSans-35"/>
      </g>
     </g>
    </g>
    <g id="xtick_4">
     <g id="line2d_7">
      <path d="M 177.736619 371.9975 
L 177.736619 39.3575 
" clip-path="url(#pe6df3455d5)" style="fill: none; stroke-dasharray: 2.96,1.28; stroke-dashoffset: 0; stroke: #2f3549; stroke-opacity: 0.5; stroke-width: 0.8"/>
     </g>
     <g id="line2d_8">
      <g>
       <use xlink:href="#m0fd1be5cca" x="177.736619" y="371.9975" style="fill: #a9b1d6; stroke: #a9b1d6; stroke-width: 0.8"/>
      </g>
     </g>
     <g id="text_4">
      <!-- 7 -->
      <g style="fill: #a9b1d6" transform="translate(174.555369 386.595937) scale(0.1 -0.1)">
       <defs>
        <path id="DejaVuSans-37" d="M 525 4666 
L 3525 4666 
L 3525 4397 
L 1831 0 
L 1172 0 
L 2766 4134 
L 525 4134 
L 525 4666 
z
" transform="scale(0.015625)"/>
       </defs>
       <use xlink:href="#DejaVuSans-37"/>
      </g>
     </g>
    </g>
    <g id="xtick_5">
     <g id="line2d_9">
      <path d="M 211.554801 371.9975 
L 211.554801 39.3575 
" clip-path="url(#pe6df3455d5)" style="fill: none; stroke-dasharray: 2.96,1.28; stroke-dashoffset: 0; stroke: #2f3549; stroke-opacity: 0.5; stroke-width: 0.8"/>
     </g>
     <g id="line2d_10">
      <g>
       <use xlink:href="#m0fd1be5cca" x="211.554801" y="371.9975" style="fill: #a9b1d6; stroke: #a9b1d6; stroke-width: 0.8"/>
      </g>
     </g>
     <g id="text_5">
      <!-- 9 -->
      <g style="fill: #a9b1d6" transform="translate(208.373551 386.595937) scale(0.1 -0.1)">
       <defs>
        <path id="DejaVuSans-39" d="M 703 97 
L 703 672 
Q 941 559 1184 500 
Q 1428 441 1663 441 
Q 2288 441 2617 861 
Q 2947 1281 2994 2138 
Q 2813 1869 2534 1725 
Q 2256 1581 1919 1581 
Q 1219 1581 811 2004 
Q 403 2428 403 3163 
Q 403 3881 828 4315 
Q 1253 4750 1959 4750 
Q 2769 4750 3195 4129 
Q 3622 3509 3622 2328 
Q 3622 1225 3098 567 
Q 2575 -91 1691 -91 
Q 1453 -91 1209 -44 
Q 966 3 703 97 
z
M 1959 2075 
Q 2384 2075 2632 2365 
Q 2881 2656 2881 3163 
Q 2881 3666 2632 3958 
Q 2384 4250 1959 4250 
Q 1534 4250 1286 3958 
Q 1038 3666 1038 3163 
Q 1038 2656 1286 2365 
Q 1534 2075 1959 2075 
z
" transform="scale(0.015625)"/>
       </defs>
       <use xlink:href="#DejaVuSans-39"/>
      </g>
     </g>
    </g>
    <g id="xtick_6">
     <g id="line2d_11">
      <path d="M 245.372983 371.9975 
L 245.372983 39.3575 
" clip-path="url(#pe6df3455d5)" style="fill: none; stroke-dasharray: 2.96,1.28; stroke-dashoffset: 0; stroke: #2f3549; stroke-opacity: 0.5; stroke-width: 0.8"/>
     </g>
     <g id="line2d_12">
      <g>
       <use xlink:href="#m0fd1be5cca" x="245.372983" y="371.9975" style="fill: #a9b1d6; stroke: #a9b1d6; stroke-width: 0.8"/>
      </g>
     </g>
     <g id="text_6">
      <!-- 11 -->
      <g style="fill: #a9b1d6" transform="translate(239.010483 386.595937) scale(0.1 -0.1)">
       <use xlink:href="#DejaVuSans-31"/>
       <use xlink:href="#DejaVuSans-31" transform="translate(63.623047 0)"/>
      </g>
     </g>
    </g>
    <g id="xtick_7">
     <g id="line2d_13">
      <path d="M 279.191165 371.9975 
L 279.191165 39.3575 
" clip-path="url(#pe6df3455d5)" style="fill: none; stroke-dasharray: 2.96,1.28; stroke-dashoffset: 0; stroke: #2f3549; stroke-opacity: 0.5; stroke-width: 0.8"/>
     </g>
     <g id="line2d_14">
      <g>
       <use xlink:href="#m0fd1be5cca" x="279.191165" y="371.9975" style="fill: #a9b1d6; stroke: #a9b1d6; stroke-width: 0.8"/>
      </g>
     </g>
     <g id="text_7">
      <!-- 13 -->
      <g style="fill: #a9b1d6" transform="translate(272.828665 386.595937) scale(0.1 -0.1)">
       <use xlink:href="#DejaVuSans-31"/>
       <use xlink:href="#DejaVuSans-33" transform="translate(63.623047 0)"/>
      </g>
     </g>
    </g>
    <g id="xtick_8">
     <g id="line2d_15">
      <path d="M 313.009347 371.9975 
L 313.009347 39.3575 
" clip-path="url(#pe6df3455d5)" style="fill: none; stroke-dasharray: 2.96,1.28; stroke-dashoffset: 0; stroke: #2f3549; stroke-opacity: 0.5; stroke-width: 0.8"/>
     </g>
     <g id="line2d_16">
      <g>
       <use xlink:href="#m0fd1be5cca" x="313.009347" y="371.9975" style="fill: #a9b1d6; stroke: #a9b1d6; stroke-width: 0.8"/>
      </g>
     </g>
     <g id="text_8">
      <!-- 15 -->
      <g style="fill: #a9b1d6" transform="translate(306.646847 386.595937) scale(0.1 -0.1)">
       <use xlink:href="#DejaVuSans-31"/>
       <use xlink:href="#DejaVuSans-35" transform="translate(63.623047 0)"/>
      </g>
     </g>
    </g>
    <g id="xtick_9">
     <g id="line2d_17">
      <path d="M 346.827528 371.9975 
L 346.827528 39.3575 
" clip-path="url(#pe6df3455d5)" style="fill: none; stroke-dasharray: 2.96,1.28; stroke-dashoffset: 0; stroke: #2f3549; stroke-opacity: 0.5; stroke-width: 0.8"/>
     </g>
     <g id="line2d_18">
      <g>
       <use xlink:href="#m0fd1be5cca" x="346.827528" y="371.9975" style="fill: #a9b1d6; stroke: #a9b1d6; stroke-width: 0.8"/>
      </g>
     </g>
     <g id="text_9">
      <!-- 17 -->
      <g style="fill: #a9b1d6" transform="translate(340.465028 386.595937) scale(0.1 -0.1)">
       <use xlink:href="#DejaVuSans-31"/>
       <use xlink:href="#DejaVuSans-37" transform="translate(63.623047 0)"/>
      </g>
     </g>
    </g>
    <g id="xtick_10">
     <g id="line2d_19">
      <path d="M 380.64571 371.9975 
L 380.64571 39.3575 
" clip-path="url(#pe6df3455d5)" style="fill: none; stroke-dasharray: 2.96,1.28; stroke-dashoffset: 0; stroke: #2f3549; stroke-opacity: 0.5; stroke-width: 0.8"/>
     </g>
     <g id="line2d_20">
      <g>
       <use xlink:href="#m0fd1be5cca" x="380.64571" y="371.9975" style="fill: #a9b1d6; stroke: #a9b1d6; stroke-width: 0.8"/>
      </g>
     </g>
     <g id="text_10">
      <!-- 19 -->
      <g style="fill: #a9b1d6" transform="translate(374.28321 386.595937) scale(0.1 -0.1)">
       <use xlink:href="#DejaVuSans-31"/>
       <use xlink:href="#DejaVuSans-39" transform="translate(63.623047 0)"/>
      </g>
     </g>
    </g>
    <g id="xtick_11">
     <g id="line2d_21">
      <path d="M 414.463892 371.9975 
L 414.463892 39.3575 
" clip-path="url(#pe6df3455d5)" style="fill: none; stroke-dasharray: 2.96,1.28; stroke-dashoffset: 0; stroke: #2f3549; stroke-opacity: 0.5; stroke-width: 0.8"/>
     </g>
     <g id="line2d_22">
      <g>
       <use xlink:href="#m0fd1be5cca" x="414.463892" y="371.9975" style="fill: #a9b1d6; stroke: #a9b1d6; stroke-width: 0.8"/>
      </g>
     </g>
     <g id="text_11">
      <!-- 21 -->
      <g style="fill: #a9b1d6" transform="translate(408.101392 386.595937) scale(0.1 -0.1)">
       <defs>
        <path id="DejaVuSans-32" d="M 1228 531 
L 3431 531 
L 3431 0 
L 469 0 
L 469 531 
Q 828 903 1448 1529 
Q 2069 2156 2228 2338 
Q 2531 2678 2651 2914 
Q 2772 3150 2772 3378 
Q 2772 3750 2511 3984 
Q 2250 4219 1831 4219 
Q 1534 4219 1204 4116 
Q 875 4013 500 3803 
L 500 4441 
Q 881 4594 1212 4672 
Q 1544 4750 1819 4750 
Q 2544 4750 2975 4387 
Q 3406 4025 3406 3419 
Q 3406 3131 3298 2873 
Q 3191 2616 2906 2266 
Q 2828 2175 2409 1742 
Q 1991 1309 1228 531 
z
" transform="scale(0.015625)"/>
       </defs>
       <use xlink:href="#DejaVuSans-32"/>
       <use xlink:href="#DejaVuSans-31" transform="translate(63.623047 0)"/>
      </g>
     </g>
    </g>
    <g id="xtick_12">
     <g id="line2d_23">
      <path d="M 448.282074 371.9975 
L 448.282074 39.3575 
" clip-path="url(#pe6df3455d5)" style="fill: none; stroke-dasharray: 2.96,1.28; stroke-dashoffset: 0; stroke: #2f3549; stroke-opacity: 0.5; stroke-width: 0.8"/>
     </g>
     <g id="line2d_24">
      <g>
       <use xlink:href="#m0fd1be5cca" x="448.282074" y="371.9975" style="fill: #a9b1d6; stroke: #a9b1d6; stroke-width: 0.8"/>
      </g>
     </g>
     <g id="text_12">
      <!-- 23 -->
      <g style="fill: #a9b1d6" transform="translate(441.919574 386.595937) scale(0.1 -0.1)">
       <use xlink:href="#DejaVuSans-32"/>
       <use xlink:href="#DejaVuSans-33" transform="translate(63.623047 0)"/>
      </g>
     </g>
    </g>
    <g id="xtick_13">
     <g id="line2d_25">
      <path d="M 482.100256 371.9975 
L 482.100256 39.3575 
" clip-path="url(#pe6df3455d5)" style="fill: none; stroke-dasharray: 2.96,1.28; stroke-dashoffset: 0; stroke: #2f3549; stroke-opacity: 0.5; stroke-width: 0.8"/>
     </g>
     <g id="line2d_26">
      <g>
       <use xlink:href="#m0fd1be5cca" x="482.100256" y="371.9975" style="fill: #a9b1d6; stroke: #a9b1d6; stroke-width: 0.8"/>
      </g>
     </g>
     <g id="text_13">
      <!-- 25 -->
      <g style="fill: #a9b1d6" transform="translate(475.737756 386.595937) scale(0.1 -0.1)">
       <use xlink:href="#DejaVuSans-32"/>
       <use xlink:href="#DejaVuSans-35" transform="translate(63.623047 0)"/>
      </g>
     </g>
    </g>
    <g id="xtick_14">
     <g id="line2d_27">
      <path d="M 515.918437 371.9975 
L 515.918437 39.3575 
" clip-path="url(#pe6df3455d5)" style="fill: none; stroke-dasharray: 2.96,1.28; stroke-dashoffset: 0; stroke: #2f3549; stroke-opacity: 0.5; stroke-width: 0.8"/>
     </g>
     <g id="line2d_28">
      <g>
       <use xlink:href="#m0fd1be5cca" x="515.918437" y="371.9975" style="fill: #a9b1d6; stroke: #a9b1d6; stroke-width: 0.8"/>
      </g>
     </g>
     <g id="text_14">
      <!-- 27 -->
      <g style="fill: #a9b1d6" transform="translate(509.555937 386.595937) scale(0.1 -0.1)">
       <use xlink:href="#DejaVuSans-32"/>
       <use xlink:href="#DejaVuSans-37" transform="translate(63.623047 0)"/>
      </g>
     </g>
    </g>
    <g id="xtick_15">
     <g id="line2d_29">
      <path d="M 549.736619 371.9975 
L 549.736619 39.3575 
" clip-path="url(#pe6df3455d5)" style="fill: none; stroke-dasharray: 2.96,1.28; stroke-dashoffset: 0; stroke: #2f3549; stroke-opacity: 0.5; stroke-width: 0.8"/>
     </g>
     <g id="line2d_30">
      <g>
       <use xlink:href="#m0fd1be5cca" x="549.736619" y="371.9975" style="fill: #a9b1d6; stroke: #a9b1d6; stroke-width: 0.8"/>
      </g>
     </g>
     <g id="text_15">
      <!-- 29 -->
      <g style="fill: #a9b1d6" transform="translate(543.374119 386.595937) scale(0.1 -0.1)">
       <use xlink:href="#DejaVuSans-32"/>
       <use xlink:href="#DejaVuSans-39" transform="translate(63.623047 0)"/>
      </g>
     </g>
    </g>
    <g id="xtick_16">
     <g id="line2d_31">
      <path d="M 583.554801 371.9975 
L 583.554801 39.3575 
" clip-path="url(#pe6df3455d5)" style="fill: none; stroke-dasharray: 2.96,1.28; stroke-dashoffset: 0; stroke: #2f3549; stroke-opacity: 0.5; stroke-width: 0.8"/>
     </g>
     <g id="line2d_32">
      <g>
       <use xlink:href="#m0fd1be5cca" x="583.554801" y="371.9975" style="fill: #a9b1d6; stroke: #a9b1d6; stroke-width: 0.8"/>
      </g>
     </g>
     <g id="text_16">
      <!-- 31 -->
      <g style="fill: #a9b1d6" transform="translate(577.192301 386.595937) scale(0.1 -0.1)">
       <use xlink:href="#DejaVuSans-33"/>
       <use xlink:href="#DejaVuSans-31" transform="translate(63.623047 0)"/>
      </g>
     </g>
    </g>
    <g id="text_17">
     <!-- Tag des Monats -->
     <g style="fill: #a9b1d6" transform="translate(283.512187 401.79375) scale(0.12 -0.12)">
      <defs>
       <path id="DejaVuSans-54" d="M -19 4666 
L 3928 4666 
L 3928 4134 
L 2272 4134 
L 2272 0 
L 1638 0 
L 1638 4134 
L -19 4134 
L -19 4666 
z
" transform="scale(0.015625)"/>
       <path id="DejaVuSans-61" d="M 2194 1759 
Q 1497 1759 1228 1600 
Q 959 1441 959 1056 
Q 959 750 1161 570 
Q 1363 391 1709 391 
Q 2188 391 2477 730 
Q 2766 1069 2766 1631 
L 2766 1759 
L 2194 1759 
z
M 3341 1997 
L 3341 0 
L 2766 0 
L 2766 531 
Q 2569 213 2275 61 
Q 1981 -91 1556 -91 
Q 1019 -91 701 211 
Q 384 513 384 1019 
Q 384 1609 779 1909 
Q 1175 2209 1959 2209 
L 2766 2209 
L 2766 2266 
Q 2766 2663 2505 2880 
Q 2244 3097 1772 3097 
Q 1472 3097 1187 3025 
Q 903 2953 641 2809 
L 641 3341 
Q 956 3463 1253 3523 
Q 1550 3584 1831 3584 
Q 2591 3584 2966 3190 
Q 3341 2797 3341 1997 
z
" transform="scale(0.015625)"/>
       <path id="DejaVuSans-67" d="M 2906 1791 
Q 2906 2416 2648 2759 
Q 2391 3103 1925 3103 
Q 1463 3103 1205 2759 
Q 947 2416 947 1791 
Q 947 1169 1205 825 
Q 1463 481 1925 481 
Q 2391 481 2648 825 
Q 2906 1169 2906 1791 
z
M 3481 434 
Q 3481 -459 3084 -895 
Q 2688 -1331 1869 -1331 
Q 1566 -1331 1297 -1286 
Q 1028 -1241 775 -1147 
L 775 -588 
Q 1028 -725 1275 -790 
Q 1522 -856 1778 -856 
Q 2344 -856 2625 -561 
Q 2906 -266 2906 331 
L 2906 616 
Q 2728 306 2450 153 
Q 2172 0 1784 0 
Q 1141 0 747 490 
Q 353 981 353 1791 
Q 353 2603 747 3093 
Q 1141 3584 1784 3584 
Q 2172 3584 2450 3431 
Q 2728 3278 2906 2969 
L 2906 3500 
L 3481 3500 
L 3481 434 
z
" transform="scale(0.015625)"/>
       <path id="DejaVuSans-20" transform="scale(0.015625)"/>
       <path id="DejaVuSans-64" d="M 2906 2969 
L 2906 4863 
L 3481 4863 
L 3481 0 
L 2906 0 
L 2906 525 
Q 2725 213 2448 61 
Q 2172 -91 1784 -91 
Q 1150 -91 751 415 
Q 353 922 353 1747 
Q 353 2572 751 3078 
Q 1150 3584 1784 3584 
Q 2172 3584 2448 3432 
Q 2725 3281 2906 2969 
z
M 947 1747 
Q 947 1113 1208 752 
Q 1469 391 1925 391 
Q 2381 391 2643 752 
Q 2906 1113 2906 1747 
Q 2906 2381 2643 2742 
Q 2381 3103 1925 3103 
Q 1469 3103 1208 2742 
Q 947 2381 947 1747 
z
" transform="scale(0.015625)"/>
       <path id="DejaVuSans-65" d="M 3597 1894 
L 3597 1613 
L 953 1613 
Q 991 1019 1311 708 
Q 1631 397 2203 397 
Q 2534 397 2845 478 
Q 3156 559 3463 722 
L 3463 178 
Q 3153 47 2828 -22 
Q 2503 -91 2169 -91 
Q 1331 -91 842 396 
Q 353 884 353 1716 
Q 353 2575 817 3079 
Q 1281 3584 2069 3584 
Q 2775 3584 3186 3129 
Q 3597 2675 3597 1894 
z
M 3022 2063 
Q 3016 2534 2758 2815 
Q 2500 3097 2075 3097 
Q 1594 3097 1305 2825 
Q 1016 2553 972 2059 
L 3022 2063 
z
" transform="scale(0.015625)"/>
       <path id="DejaVuSans-73" d="M 2834 3397 
L 2834 2853 
Q 2591 2978 2328 3040 
Q 2066 3103 1784 3103 
Q 1356 3103 1142 2972 
Q 928 2841 928 2578 
Q 928 2378 1081 2264 
Q 1234 2150 1697 2047 
L 1894 2003 
Q 2506 1872 2764 1633 
Q 3022 1394 3022 966 
Q 3022 478 2636 193 
Q 2250 -91 1575 -91 
Q 1294 -91 989 -36 
Q 684 19 347 128 
L 347 722 
Q 666 556 975 473 
Q 1284 391 1588 391 
Q 1994 391 2212 530 
Q 2431 669 2431 922 
Q 2431 1156 2273 1281 
Q 2116 1406 1581 1522 
L 1381 1569 
Q 847 1681 609 1914 
Q 372 2147 372 2553 
Q 372 3047 722 3315 
Q 1072 3584 1716 3584 
Q 2034 3584 2315 3537 
Q 2597 3491 2834 3397 
z
" transform="scale(0.015625)"/>
       <path id="DejaVuSans-4d" d="M 628 4666 
L 1569 4666 
L 2759 1491 
L 3956 4666 
L 4897 4666 
L 4897 0 
L 4281 0 
L 4281 4097 
L 3078 897 
L 2444 897 
L 1241 4097 
L 1241 0 
L 628 0 
L 628 4666 
z
" transform="scale(0.015625)"/>
       <path id="DejaVuSans-6f" d="M 1959 3097 
Q 1497 3097 1228 2736 
Q 959 2375 959 1747 
Q 959 1119 1226 758 
Q 1494 397 1959 397 
Q 2419 397 2687 759 
Q 2956 1122 2956 1747 
Q 2956 2369 2687 2733 
Q 2419 3097 1959 3097 
z
M 1959 3584 
Q 2709 3584 3137 3096 
Q 3566 2609 3566 1747 
Q 3566 888 3137 398 
Q 2709 -91 1959 -91 
Q 1206 -91 779 398 
Q 353 888 353 1747 
Q 353 2609 779 3096 
Q 1206 3584 1959 3584 
z
" transform="scale(0.015625)"/>
       <path id="DejaVuSans-6e" d="M 3513 2113 
L 3513 0 
L 2938 0 
L 2938 2094 
Q 2938 2591 2744 2837 
Q 2550 3084 2163 3084 
Q 1697 3084 1428 2787 
Q 1159 2491 1159 1978 
L 1159 0 
L 581 0 
L 581 3500 
L 1159 3500 
L 1159 2956 
Q 1366 3272 1645 3428 
Q 1925 3584 2291 3584 
Q 2894 3584 3203 3211 
Q 3513 2838 3513 2113 
z
" transform="scale(0.015625)"/>
       <path id="DejaVuSans-74" d="M 1172 4494 
L 1172 3500 
L 2356 3500 
L 2356 3053 
L 1172 3053 
L 1172 1153 
Q 1172 725 1289 603 
Q 1406 481 1766 481 
L 2356 481 
L 2356 0 
L 1766 0 
Q 1100 0 847 248 
Q 594 497 594 1153 
L 594 3053 
L 172 3053 
L 172 3500 
L 594 3500 
L 594 4494 
L 1172 4494 
z
" transform="scale(0.015625)"/>
      </defs>
      <use xlink:href="#DejaVuSans-54"/>
      <use xlink:href="#DejaVuSans-61" transform="translate(44.583984 0)"/>
      <use xlink:href="#DejaVuSans-67" transform="translate(105.863281 0)"/>
      <use xlink:href="#DejaVuSans-20" transform="translate(169.339844 0)"/>
      <use xlink:href="#DejaVuSans-64" transform="translate(201.126953 0)"/>
      <use xlink:href="#DejaVuSans-65" transform="translate(264.603516 0)"/>
      <use xlink:href="#DejaVuSans-73" transform="translate(326.126953 0)"/>
      <use xlink:href="#DejaVuSans-20" transform="translate(378.226562 0)"/>
      <use xlink:href="#DejaVuSans-4d" transform="translate(410.013672 0)"/>
      <use xlink:href="#DejaVuSans-6f" transform="translate(496.292969 0)"/>
      <use xlink:href="#DejaVuSans-6e" transform="translate(557.474609 0)"/>
      <use xlink:href="#DejaVuSans-61" transform="translate(620.853516 0)"/>
      <use xlink:href="#DejaVuSans-74" transform="translate(682.132812 0)"/>
      <use xlink:href="#DejaVuSans-73" transform="translate(721.341797 0)"/>
     </g>
    </g>
   </g>
   <g id="matplotlib.axis_2">
    <g id="ytick_1">
     <g id="line2d_33">
      <path d="M 50.918438 368.35155 
L 608.918437 368.35155 
" clip-path="url(#pe6df3455d5)" style="fill: none; stroke-dasharray: 2.96,1.28; stroke-dashoffset: 0; stroke: #2f3549; stroke-opacity: 0.5; stroke-width: 0.8"/>
     </g>
     <g id="line2d_34">
      <defs>
       <path id="mf15513c266" d="M 0 0 
L -3.5 0 
" style="stroke: #a9b1d6; stroke-width: 0.8"/>
      </defs>
      <g>
       <use xlink:href="#mf15513c266" x="50.918438" y="368.35155" style="fill: #a9b1d6; stroke: #a9b1d6; stroke-width: 0.8"/>
      </g>
     </g>
     <g id="text_18">
      <!-- −10 -->
      <g style="fill: #a9b1d6" transform="translate(22.81375 372.150769) scale(0.1 -0.1)">
       <defs>
        <path id="DejaVuSans-2212" d="M 678 2272 
L 4684 2272 
L 4684 1741 
L 678 1741 
L 678 2272 
z
" transform="scale(0.015625)"/>
        <path id="DejaVuSans-30" d="M 2034 4250 
Q 1547 4250 1301 3770 
Q 1056 3291 1056 2328 
Q 1056 1369 1301 889 
Q 1547 409 2034 409 
Q 2525 409 2770 889 
Q 3016 1369 3016 2328 
Q 3016 3291 2770 3770 
Q 2525 4250 2034 4250 
z
M 2034 4750 
Q 2819 4750 3233 4129 
Q 3647 3509 3647 2328 
Q 3647 1150 3233 529 
Q 2819 -91 2034 -91 
Q 1250 -91 836 529 
Q 422 1150 422 2328 
Q 422 3509 836 4129 
Q 1250 4750 2034 4750 
z
" transform="scale(0.015625)"/>
       </defs>
       <use xlink:href="#DejaVuSans-2212"/>
       <use xlink:href="#DejaVuSans-31" transform="translate(83.789062 0)"/>
       <use xlink:href="#DejaVuSans-30" transform="translate(147.412109 0)"/>
      </g>
     </g>
    </g>
    <g id="ytick_2">
     <g id="line2d_35">
      <path d="M 50.918438 305.19164 
L 608.918437 305.19164 
" clip-path="url(#pe6df3455d5)" style="fill: none; stroke-dasharray: 2.96,1.28; stroke-dashoffset: 0; stroke: #2f3549; stroke-opacity: 0.5; stroke-width: 0.8"/>
     </g>
     <g id="line2d_36">
      <g>
       <use xlink:href="#mf15513c266" x="50.918438" y="305.19164" style="fill: #a9b1d6; stroke: #a9b1d6; stroke-width: 0.8"/>
      </g>
     </g>
     <g id="text_19">
      <!-- −5 -->
      <g style="fill: #a9b1d6" transform="translate(29.17625 308.990859) scale(0.1 -0.1)">
       <use xlink:href="#DejaVuSans-2212"/>
       <use xlink:href="#DejaVuSans-35" transform="translate(83.789062 0)"/>
      </g>
     </g>
    </g>
    <g id="ytick_3">
     <g id="line2d_37">
      <path d="M 50.918438 242.03173 
L 608.918437 242.03173 
" clip-path="url(#pe6df3455d5)" style="fill: none; stroke-dasharray: 2.96,1.28; stroke-dashoffset: 0; stroke: #2f3549; stroke-opacity: 0.5; stroke-width: 0.8"/>
     </g>
     <g id="line2d_38">
      <g>
       <use xlink:href="#mf15513c266" x="50.918438" y="242.03173" style="fill: #a9b1d6; stroke: #a9b1d6; stroke-width: 0.8"/>
      </g>
     </g>
     <g id="text_20">
      <!-- 0 -->
      <g style="fill: #a9b1d6" transform="translate(37.555937 245.830949) scale(0.1 -0.1)">
       <use xlink:href="#DejaVuSans-30"/>
      </g>
     </g>
    </g>
    <g id="ytick_4">
     <g id="line2d_39">
      <path d="M 50.918438 178.87182 
L 608.918437 178.87182 
" clip-path="url(#pe6df3455d5)" style="fill: none; stroke-dasharray: 2.96,1.28; stroke-dashoffset: 0; stroke: #2f3549; stroke-opacity: 0.5; stroke-width: 0.8"/>
     </g>
     <g id="line2d_40">
      <g>
       <use xlink:href="#mf15513c266" x="50.918438" y="178.87182" style="fill: #a9b1d6; stroke: #a9b1d6; stroke-width: 0.8"/>
      </g>
     </g>
     <g id="text_21">
      <!-- 5 -->
      <g style="fill: #a9b1d6" transform="translate(37.555937 182.671039) scale(0.1 -0.1)">
       <use xlink:href="#DejaVuSans-35"/>
      </g>
     </g>
    </g>
    <g id="ytick_5">
     <g id="line2d_41">
      <path d="M 50.918438 115.71191 
L 608.918437 115.71191 
" clip-path="url(#pe6df3455d5)" style="fill: none; stroke-dasharray: 2.96,1.28; stroke-dashoffset: 0; stroke: #2f3549; stroke-opacity: 0.5; stroke-width: 0.8"/>
     </g>
     <g id="line2d_42">
      <g>
       <use xlink:href="#mf15513c266" x="50.918438" y="115.71191" style="fill: #a9b1d6; stroke: #a9b1d6; stroke-width: 0.8"/>
      </g>
     </g>
     <g id="text_22">
      <!-- 10 -->
      <g style="fill: #a9b1d6" transform="translate(31.193438 119.511129) scale(0.1 -0.1)">
       <use xlink:href="#DejaVuSans-31"/>
       <use xlink:href="#DejaVuSans-30" transform="translate(63.623047 0)"/>
      </g>
     </g>
    </g>
    <g id="ytick_6">
     <g id="line2d_43">
      <path d="M 50.918438 52.552 
L 608.918437 52.552 
" clip-path="url(#pe6df3455d5)" style="fill: none; stroke-dasharray: 2.96,1.28; stroke-dashoffset: 0; stroke: #2f3549; stroke-opacity: 0.5; stroke-width: 0.8"/>
     </g>
     <g id="line2d_44">
      <g>
       <use xlink:href="#mf15513c266" x="50.918438" y="52.552" style="fill: #a9b1d6; stroke: #a9b1d6; stroke-width: 0.8"/>
      </g>
     </g>
     <g id="text_23">
      <!-- 15 -->
      <g style="fill: #a9b1d6" transform="translate(31.193438 56.351219) scale(0.1 -0.1)">
       <use xlink:href="#DejaVuSans-31"/>
       <use xlink:href="#DejaVuSans-35" transform="translate(63.623047 0)"/>
      </g>
     </g>
    </g>
    <g id="text_24">
     <!-- Temperatur in °C -->
     <g style="fill: #a9b1d6" transform="translate(16.318125 256.596875) rotate(-90) scale(0.12 -0.12)">
      <defs>
       <path id="DejaVuSans-6d" d="M 3328 2828 
Q 3544 3216 3844 3400 
Q 4144 3584 4550 3584 
Q 5097 3584 5394 3201 
Q 5691 2819 5691 2113 
L 5691 0 
L 5113 0 
L 5113 2094 
Q 5113 2597 4934 2840 
Q 4756 3084 4391 3084 
Q 3944 3084 3684 2787 
Q 3425 2491 3425 1978 
L 3425 0 
L 2847 0 
L 2847 2094 
Q 2847 2600 2669 2842 
Q 2491 3084 2119 3084 
Q 1678 3084 1418 2786 
Q 1159 2488 1159 1978 
L 1159 0 
L 581 0 
L 581 3500 
L 1159 3500 
L 1159 2956 
Q 1356 3278 1631 3431 
Q 1906 3584 2284 3584 
Q 2666 3584 2933 3390 
Q 3200 3197 3328 2828 
z
" transform="scale(0.015625)"/>
       <path id="DejaVuSans-70" d="M 1159 525 
L 1159 -1331 
L 581 -1331 
L 581 3500 
L 1159 3500 
L 1159 2969 
Q 1341 3281 1617 3432 
Q 1894 3584 2278 3584 
Q 2916 3584 3314 3078 
Q 3713 2572 3713 1747 
Q 3713 922 3314 415 
Q 2916 -91 2278 -91 
Q 1894 -91 1617 61 
Q 1341 213 1159 525 
z
M 3116 1747 
Q 3116 2381 2855 2742 
Q 2594 3103 2138 3103 
Q 1681 3103 1420 2742 
Q 1159 2381 1159 1747 
Q 1159 1113 1420 752 
Q 1681 391 2138 391 
Q 2594 391 2855 752 
Q 3116 1113 3116 1747 
z
" transform="scale(0.015625)"/>
       <path id="DejaVuSans-72" d="M 2631 2963 
Q 2534 3019 2420 3045 
Q 2306 3072 2169 3072 
Q 1681 3072 1420 2755 
Q 1159 2438 1159 1844 
L 1159 0 
L 581 0 
L 581 3500 
L 1159 3500 
L 1159 2956 
Q 1341 3275 1631 3429 
Q 1922 3584 2338 3584 
Q 2397 3584 2469 3576 
Q 2541 3569 2628 3553 
L 2631 2963 
z
" transform="scale(0.015625)"/>
       <path id="DejaVuSans-75" d="M 544 1381 
L 544 3500 
L 1119 3500 
L 1119 1403 
Q 1119 906 1312 657 
Q 1506 409 1894 409 
Q 2359 409 2629 706 
Q 2900 1003 2900 1516 
L 2900 3500 
L 3475 3500 
L 3475 0 
L 2900 0 
L 2900 538 
Q 2691 219 2414 64 
Q 2138 -91 1772 -91 
Q 1169 -91 856 284 
Q 544 659 544 1381 
z
M 1991 3584 
L 1991 3584 
z
" transform="scale(0.015625)"/>
       <path id="DejaVuSans-69" d="M 603 3500 
L 1178 3500 
L 1178 0 
L 603 0 
L 603 3500 
z
M 603 4863 
L 1178 4863 
L 1178 4134 
L 603 4134 
L 603 4863 
z
" transform="scale(0.015625)"/>
       <path id="DejaVuSans-b0" d="M 1600 4347 
Q 1350 4347 1178 4173 
Q 1006 4000 1006 3750 
Q 1006 3503 1178 3333 
Q 1350 3163 1600 3163 
Q 1850 3163 2022 3333 
Q 2194 3503 2194 3750 
Q 2194 3997 2020 4172 
Q 1847 4347 1600 4347 
z
M 1600 4750 
Q 1800 4750 1984 4673 
Q 2169 4597 2303 4453 
Q 2447 4313 2519 4134 
Q 2591 3956 2591 3750 
Q 2591 3338 2302 3052 
Q 2013 2766 1594 2766 
Q 1172 2766 890 3047 
Q 609 3328 609 3750 
Q 609 4169 896 4459 
Q 1184 4750 1600 4750 
z
" transform="scale(0.015625)"/>
       <path id="DejaVuSans-43" d="M 4122 4306 
L 4122 3641 
Q 3803 3938 3442 4084 
Q 3081 4231 2675 4231 
Q 1875 4231 1450 3742 
Q 1025 3253 1025 2328 
Q 1025 1406 1450 917 
Q 1875 428 2675 428 
Q 3081 428 3442 575 
Q 3803 722 4122 1019 
L 4122 359 
Q 3791 134 3420 21 
Q 3050 -91 2638 -91 
Q 1578 -91 968 557 
Q 359 1206 359 2328 
Q 359 3453 968 4101 
Q 1578 4750 2638 4750 
Q 3056 4750 3426 4639 
Q 3797 4528 4122 4306 
z
" transform="scale(0.015625)"/>
      </defs>
      <use xlink:href="#DejaVuSans-54"/>
      <use xlink:href="#DejaVuSans-65" transform="translate(44.083984 0)"/>
      <use xlink:href="#DejaVuSans-6d" transform="translate(105.607422 0)"/>
      <use xlink:href="#DejaVuSans-70" transform="translate(203.019531 0)"/>
      <use xlink:href="#DejaVuSans-65" transform="translate(266.496094 0)"/>
      <use xlink:href="#DejaVuSans-72" transform="translate(328.019531 0)"/>
      <use xlink:href="#DejaVuSans-61" transform="translate(369.132812 0)"/>
      <use xlink:href="#DejaVuSans-74" transform="translate(430.412109 0)"/>
      <use xlink:href="#DejaVuSans-75" transform="translate(469.621094 0)"/>
      <use xlink:href="#DejaVuSans-72" transform="translate(533 0)"/>
      <use xlink:href="#DejaVuSans-20" transform="translate(574.113281 0)"/>
      <use xlink:href="#DejaVuSans-69" transform="translate(605.900391 0)"/>
      <use xlink:href="#DejaVuSans-6e" transform="translate(633.683594 0)"/>
      <use xlink:href="#DejaVuSans-20" transform="translate(697.0625 0)"/>
      <use xlink:href="#DejaVuSans-b0" transform="translate(728.849609 0)"/>
      <use xlink:href="#DejaVuSans-43" transform="translate(778.849609 0)"/>
     </g>
    </g>
   </g>
   <g id="line2d_45">
    <path d="M 76.282074 54.4775 
L 93.191165 69.149021 
L 110.100256 157.384292 
L 127.009347 144.611955 
L 143.918438 122.0235 
L 160.827528 133.620376 
L 177.736619 131.655401 
L 194.64571 162.621302 
L 211.554801 161.985316 
L 228.463892 172.77952 
L 245.372983 153.356977 
L 262.282074 133.826523 
L 279.191165 135.015158 
L 296.100256 148.335758 
L 313.009347 158.656263 
L 329.918438 181.170139 
L 346.827528 209.978076 
L 363.736619 254.55406 
L 380.64571 270.953706 
L 397.554801 244.878312 
L 414.463892 245.536228 
L 431.372983 235.531523 
L 448.282074 232.509497 
L 465.191165 232.158608 
L 482.100256 233.39549 
L 499.009347 251.610983 
L 515.918437 244.593215 
L 532.827528 247.439797 
L 549.736619 260.427054 
L 566.64571 209.527484 
L 583.554801 188.249312 
" clip-path="url(#pe6df3455d5)" style="fill: none; stroke: #9ece6a; stroke-width: 2; stroke-linecap: square"/>
    <defs>
     <path id="m981d3fa17c" d="M 0 2 
C 0.530406 2 1.03916 1.789267 1.414214 1.414214 
C 1.789267 1.03916 2 0.530406 2 0 
C 2 -0.530406 1.789267 -1.03916 1.414214 -1.414214 
C 1.03916 -1.789267 0.530406 -2 0 -2 
C -0.530406 -2 -1.03916 -1.789267 -1.414214 -1.414214 
C -1.789267 -1.03916 -2 -0.530406 -2 0 
C -2 0.530406 -1.789267 1.03916 -1.414214 1.414214 
C -1.03916 1.789267 -0.530406 2 0 2 
z
" style="stroke: #9ece6a"/>
    </defs>
    <g clip-path="url(#pe6df3455d5)">
     <use xlink:href="#m981d3fa17c" x="76.282074" y="54.4775" style="fill: #9ece6a; stroke: #9ece6a"/>
     <use xlink:href="#m981d3fa17c" x="93.191165" y="69.149021" style="fill: #9ece6a; stroke: #9ece6a"/>
     <use xlink:href="#m981d3fa17c" x="110.100256" y="157.384292" style="fill: #9ece6a; stroke: #9ece6a"/>
     <use xlink:href="#m981d3fa17c" x="127.009347" y="144.611955" style="fill: #9ece6a; stroke: #9ece6a"/>
     <use xlink:href="#m981d3fa17c" x="143.918438" y="122.0235" style="fill: #9ece6a; stroke: #9ece6a"/>
     <use xlink:href="#m981d3fa17c" x="160.827528" y="133.620376" style="fill: #9ece6a; stroke: #9ece6a"/>
     <use xlink:href="#m981d3fa17c" x="177.736619" y="131.655401" style="fill: #9ece6a; stroke: #9ece6a"/>
     <use xlink:href="#m981d3fa17c" x="194.64571" y="162.621302" style="fill: #9ece6a; stroke: #9ece6a"/>
     <use xlink:href="#m981d3fa17c" x="211.554801" y="161.985316" style="fill: #9ece6a; stroke: #9ece6a"/>
     <use xlink:href="#m981d3fa17c" x="228.463892" y="172.77952" style="fill: #9ece6a; stroke: #9ece6a"/>
     <use xlink:href="#m981d3fa17c" x="245.372983" y="153.356977" style="fill: #9ece6a; stroke: #9ece6a"/>
     <use xlink:href="#m981d3fa17c" x="262.282074" y="133.826523" style="fill: #9ece6a; stroke: #9ece6a"/>
     <use xlink:href="#m981d3fa17c" x="279.191165" y="135.015158" style="fill: #9ece6a; stroke: #9ece6a"/>
     <use xlink:href="#m981d3fa17c" x="296.100256" y="148.335758" style="fill: #9ece6a; stroke: #9ece6a"/>
     <use xlink:href="#m981d3fa17c" x="313.009347" y="158.656263" style="fill: #9ece6a; stroke: #9ece6a"/>
     <use xlink:href="#m981d3fa17c" x="329.918438" y="181.170139" style="fill: #9ece6a; stroke: #9ece6a"/>
     <use xlink:href="#m981d3fa17c" x="346.827528" y="209.978076" style="fill: #9ece6a; stroke: #9ece6a"/>
     <use xlink:href="#m981d3fa17c" x="363.736619" y="254.55406" style="fill: #9ece6a; stroke: #9ece6a"/>
     <use xlink:href="#m981d3fa17c" x="380.64571" y="270.953706" style="fill: #9ece6a; stroke: #9ece6a"/>
     <use xlink:href="#m981d3fa17c" x="397.554801" y="244.878312" style="fill: #9ece6a; stroke: #9ece6a"/>
     <use xlink:href="#m981d3fa17c" x="414.463892" y="245.536228" style="fill: #9ece6a; stroke: #9ece6a"/>
     <use xlink:href="#m981d3fa17c" x="431.372983" y="235.531523" style="fill: #9ece6a; stroke: #9ece6a"/>
     <use xlink:href="#m981d3fa17c" x="448.282074" y="232.509497" style="fill: #9ece6a; stroke: #9ece6a"/>
     <use xlink:href="#m981d3fa17c" x="465.191165" y="232.158608" style="fill: #9ece6a; stroke: #9ece6a"/>
     <use xlink:href="#m981d3fa17c" x="482.100256" y="233.39549" style="fill: #9ece6a; stroke: #9ece6a"/>
     <use xlink:href="#m981d3fa17c" x="499.009347" y="251.610983" style="fill: #9ece6a; stroke: #9ece6a"/>
     <use xlink:href="#m981d3fa17c" x="515.918437" y="244.593215" style="fill: #9ece6a; stroke: #9ece6a"/>
     <use xlink:href="#m981d3fa17c" x="532.827528" y="247.439797" style="fill: #9ece6a; stroke: #9ece6a"/>
     <use xlink:href="#m981d3fa17c" x="549.736619" y="260.427054" style="fill: #9ece6a; stroke: #9ece6a"/>
     <use xlink:href="#m981d3fa17c" x="566.64571" y="209.527484" style="fill: #9ece6a; stroke: #9ece6a"/>
     <use xlink:href="#m981d3fa17c" x="583.554801" y="188.249312" style="fill: #9ece6a; stroke: #9ece6a"/>
    </g>
   </g>
   <g id="line2d_46">
    <path d="M 76.282074 155.511426 
L 93.191165 164.700315 
L 110.100256 115.676821 
L 127.009347 164.897415 
L 143.918438 181.750328 
L 160.827528 225.838231 
L 177.736619 264.207876 
L 194.64571 330.034538 
L 211.554801 350.622914 
L 228.463892 344.776237 
L 245.372983 320.512305 
L 262.282074 251.501331 
L 279.191165 228.15848 
L 296.100256 216.94321 
L 313.009347 224.162739 
L 329.918438 234.474471 
L 346.827528 267.462366 
L 363.736619 264.049977 
L 380.64571 291.485063 
L 397.554801 278.761309 
L 414.463892 272.677445 
L 431.372983 156.814099 
L 448.282074 172.02511 
L 465.191165 121.852457 
L 482.100256 164.125736 
L 499.009347 172.354068 
L 515.918437 196.810989 
L 532.827528 233.856031 
L 549.736619 203.920865 
L 566.64571 176.226586 
L 583.554801 163.345009 
" clip-path="url(#pe6df3455d5)" style="fill: none; stroke: #2ac3de; stroke-width: 2; stroke-linecap: square"/>
    <defs>
     <path id="md7230711ab" d="M 0 2 
C 0.530406 2 1.03916 1.789267 1.414214 1.414214 
C 1.789267 1.03916 2 0.530406 2 0 
C 2 -0.530406 1.789267 -1.03916 1.414214 -1.414214 
C 1.03916 -1.789267 0.530406 -2 0 -2 
C -0.530406 -2 -1.03916 -1.789267 -1.414214 -1.414214 
C -1.789267 -1.03916 -2 -0.530406 -2 0 
C -2 0.530406 -1.789267 1.03916 -1.414214 1.414214 
C -1.03916 1.789267 -0.530406 2 0 2 
z
" style="stroke: #2ac3de"/>
    </defs>
    <g clip-path="url(#pe6df3455d5)">
     <use xlink:href="#md7230711ab" x="76.282074" y="155.511426" style="fill: #2ac3de; stroke: #2ac3de"/>
     <use xlink:href="#md7230711ab" x="93.191165" y="164.700315" style="fill: #2ac3de; stroke: #2ac3de"/>
     <use xlink:href="#md7230711ab" x="110.100256" y="115.676821" style="fill: #2ac3de; stroke: #2ac3de"/>
     <use xlink:href="#md7230711ab" x="127.009347" y="164.897415" style="fill: #2ac3de; stroke: #2ac3de"/>
     <use xlink:href="#md7230711ab" x="143.918438" y="181.750328" style="fill: #2ac3de; stroke: #2ac3de"/>
     <use xlink:href="#md7230711ab" x="160.827528" y="225.838231" style="fill: #2ac3de; stroke: #2ac3de"/>
     <use xlink:href="#md7230711ab" x="177.736619" y="264.207876" style="fill: #2ac3de; stroke: #2ac3de"/>
     <use xlink:href="#md7230711ab" x="194.64571" y="330.034538" style="fill: #2ac3de; stroke: #2ac3de"/>
     <use xlink:href="#md7230711ab" x="211.554801" y="350.622914" style="fill: #2ac3de; stroke: #2ac3de"/>
     <use xlink:href="#md7230711ab" x="228.463892" y="344.776237" style="fill: #2ac3de; stroke: #2ac3de"/>
     <use xlink:href="#md7230711ab" x="245.372983" y="320.512305" style="fill: #2ac3de; stroke: #2ac3de"/>
     <use xlink:href="#md7230711ab" x="262.282074" y="251.501331" style="fill: #2ac3de; stroke: #2ac3de"/>
     <use xlink:href="#md7230711ab" x="279.191165" y="228.15848" style="fill: #2ac3de; stroke: #2ac3de"/>
     <use xlink:href="#md7230711ab" x="296.100256" y="216.94321" style="fill: #2ac3de; stroke: #2ac3de"/>
     <use xlink:href="#md7230711ab" x="313.009347" y="224.162739" style="fill: #2ac3de; stroke: #2ac3de"/>
     <use xlink:href="#md7230711ab" x="329.918438" y="234.474471" style="fill: #2ac3de; stroke: #2ac3de"/>
     <use xlink:href="#md7230711ab" x="346.827528" y="267.462366" style="fill: #2ac3de; stroke: #2ac3de"/>
     <use xlink:href="#md7230711ab" x="363.736619" y="264.049977" style="fill: #2ac3de; stroke: #2ac3de"/>
     <use xlink:href="#md7230711ab" x="380.64571" y="291.485063" style="fill: #2ac3de; stroke: #2ac3de"/>
     <use xlink:href="#md7230711ab" x="397.554801" y="278.761309" style="fill: #2ac3de; stroke: #2ac3de"/>
     <use xlink:href="#md7230711ab" x="414.463892" y="272.677445" style="fill: #2ac3de; stroke: #2ac3de"/>
     <use xlink:href="#md7230711ab" x="431.372983" y="156.814099" style="fill: #2ac3de; stroke: #2ac3de"/>
     <use xlink:href="#md7230711ab" x="448.282074" y="172.02511" style="fill: #2ac3de; stroke: #2ac3de"/>
     <use xlink:href="#md7230711ab" x="465.191165" y="121.852457" style="fill: #2ac3de; stroke: #2ac3de"/>
     <use xlink:href="#md7230711ab" x="482.100256" y="164.125736" style="fill: #2ac3de; stroke: #2ac3de"/>
     <use xlink:href="#md7230711ab" x="499.009347" y="172.354068" style="fill: #2ac3de; stroke: #2ac3de"/>
     <use xlink:href="#md7230711ab" x="515.918437" y="196.810989" style="fill: #2ac3de; stroke: #2ac3de"/>
     <use xlink:href="#md7230711ab" x="532.827528" y="233.856031" style="fill: #2ac3de; stroke: #2ac3de"/>
     <use xlink:href="#md7230711ab" x="549.736619" y="203.920865" style="fill: #2ac3de; stroke: #2ac3de"/>
     <use xlink:href="#md7230711ab" x="566.64571" y="176.226586" style="fill: #2ac3de; stroke: #2ac3de"/>
     <use xlink:href="#md7230711ab" x="583.554801" y="163.345009" style="fill: #2ac3de; stroke: #2ac3de"/>
    </g>
   </g>
   <g id="line2d_47">
    <path d="M 76.282074 178.841117 
L 93.191165 194.810925 
L 110.100256 222.640761 
L 127.009347 259.15947 
L 143.918438 243.865122 
L 160.827528 102.062352 
L 177.736619 168.077616 
L 194.64571 209.474667 
L 211.554801 173.994471 
L 228.463892 222.684622 
L 245.372983 231.136646 
L 262.282074 247.216106 
L 279.191165 253.983866 
L 296.100256 231.851581 
L 313.009347 201.802376 
L 329.918438 204.578781 
L 346.827528 245.72483 
L 363.736619 261.780756 
L 380.64571 243.36072 
L 397.554801 248.395968 
L 414.463892 268.9668 
L 431.372983 244.417282 
L 448.282074 195.113566 
L 465.191165 158.515907 
L 482.100256 97.176231 
L 499.009347 151.555159 
L 515.918437 121.878773 
L 532.827528 161.086165 
L 549.736619 154.599116 
L 566.64571 158.230811 
L 583.554801 197.564513 
" clip-path="url(#pe6df3455d5)" style="fill: none; stroke: #f7768e; stroke-width: 2; stroke-linecap: square"/>
    <defs>
     <path id="m0198d71d0d" d="M 0 2 
C 0.530406 2 1.03916 1.789267 1.414214 1.414214 
C 1.789267 1.03916 2 0.530406 2 0 
C 2 -0.530406 1.789267 -1.03916 1.414214 -1.414214 
C 1.03916 -1.789267 0.530406 -2 0 -2 
C -0.530406 -2 -1.03916 -1.789267 -1.414214 -1.414214 
C -1.789267 -1.03916 -2 -0.530406 -2 0 
C -2 0.530406 -1.789267 1.03916 -1.414214 1.414214 
C -1.03916 1.789267 -0.530406 2 0 2 
z
" style="stroke: #f7768e"/>
    </defs>
    <g clip-path="url(#pe6df3455d5)">
     <use xlink:href="#m0198d71d0d" x="76.282074" y="178.841117" style="fill: #f7768e; stroke: #f7768e"/>
     <use xlink:href="#m0198d71d0d" x="93.191165" y="194.810925" style="fill: #f7768e; stroke: #f7768e"/>
     <use xlink:href="#m0198d71d0d" x="110.100256" y="222.640761" style="fill: #f7768e; stroke: #f7768e"/>
     <use xlink:href="#m0198d71d0d" x="127.009347" y="259.15947" style="fill: #f7768e; stroke: #f7768e"/>
     <use xlink:href="#m0198d71d0d" x="143.918438" y="243.865122" style="fill: #f7768e; stroke: #f7768e"/>
     <use xlink:href="#m0198d71d0d" x="160.827528" y="102.062352" style="fill: #f7768e; stroke: #f7768e"/>
     <use xlink:href="#m0198d71d0d" x="177.736619" y="168.077616" style="fill: #f7768e; stroke: #f7768e"/>
     <use xlink:href="#m0198d71d0d" x="194.64571" y="209.474667" style="fill: #f7768e; stroke: #f7768e"/>
     <use xlink:href="#m0198d71d0d" x="211.554801" y="173.994471" style="fill: #f7768e; stroke: #f7768e"/>
     <use xlink:href="#m0198d71d0d" x="228.463892" y="222.684622" style="fill: #f7768e; stroke: #f7768e"/>
     <use xlink:href="#m0198d71d0d" x="245.372983" y="231.136646" style="fill: #f7768e; stroke: #f7768e"/>
     <use xlink:href="#m0198d71d0d" x="262.282074" y="247.216106" style="fill: #f7768e; stroke: #f7768e"/>
     <use xlink:href="#m0198d71d0d" x="279.191165" y="253.983866" style="fill: #f7768e; stroke: #f7768e"/>
     <use xlink:href="#m0198d71d0d" x="296.100256" y="231.851581" style="fill: #f7768e; stroke: #f7768e"/>
     <use xlink:href="#m0198d71d0d" x="313.009347" y="201.802376" style="fill: #f7768e; stroke: #f7768e"/>
     <use xlink:href="#m0198d71d0d" x="329.918438" y="204.578781" style="fill: #f7768e; stroke: #f7768e"/>
     <use xlink:href="#m0198d71d0d" x="346.827528" y="245.72483" style="fill: #f7768e; stroke: #f7768e"/>
     <use xlink:href="#m0198d71d0d" x="363.736619" y="261.780756" style="fill: #f7768e; stroke: #f7768e"/>
     <use xlink:href="#m0198d71d0d" x="380.64571" y="243.36072" style="fill: #f7768e; stroke: #f7768e"/>
     <use xlink:href="#m0198d71d0d" x="397.554801" y="248.395968" style="fill: #f7768e; stroke: #f7768e"/>
     <use xlink:href="#m0198d71d0d" x="414.463892" y="268.9668" style="fill: #f7768e; stroke: #f7768e"/>
     <use xlink:href="#m0198d71d0d" x="431.372983" y="244.417282" style="fill: #f7768e; stroke: #f7768e"/>
     <use xlink:href="#m0198d71d0d" x="448.282074" y="195.113566" style="fill: #f7768e; stroke: #f7768e"/>
     <use xlink:href="#m0198d71d0d" x="465.191165" y="158.515907" style="fill: #f7768e; stroke: #f7768e"/>
     <use xlink:href="#m0198d71d0d" x="482.100256" y="97.176231" style="fill: #f7768e; stroke: #f7768e"/>
     <use xlink:href="#m0198d71d0d" x="499.009347" y="151.555159" style="fill: #f7768e; stroke: #f7768e"/>
     <use xlink:href="#m0198d71d0d" x="515.918437" y="121.878773" style="fill: #f7768e; stroke: #f7768e"/>
     <use xlink:href="#m0198d71d0d" x="532.827528" y="161.086165" style="fill: #f7768e; stroke: #f7768e"/>
     <use xlink:href="#m0198d71d0d" x="549.736619" y="154.599116" style="fill: #f7768e; stroke: #f7768e"/>
     <use xlink:href="#m0198d71d0d" x="566.64571" y="158.230811" style="fill: #f7768e; stroke: #f7768e"/>
     <use xlink:href="#m0198d71d0d" x="583.554801" y="197.564513" style="fill: #f7768e; stroke: #f7768e"/>
    </g>
   </g>
   <g id="line2d_48">
    <path d="M 76.282074 217.93447 
L 93.191165 214.460675 
L 110.100256 238.202661 
L 127.009347 242.299283 
L 143.918438 264.256124 
L 160.827528 283.919032 
L 177.736619 304.152133 
L 194.64571 302.138911 
L 211.554801 268.765039 
L 228.463892 333.894311 
L 245.372983 356.8775 
L 262.282074 303.252982 
L 279.191165 198.797895 
L 296.100256 186.994886 
L 313.009347 197.047839 
L 329.918438 206.109531 
L 346.827528 215.916862 
L 363.736619 217.41691 
L 380.64571 234.031475 
L 397.554801 270.442686 
L 414.463892 281.480357 
L 431.372983 319.556134 
L 448.282074 327.170412 
L 465.191165 289.949926 
L 482.100256 254.060722 
L 499.009347 261.558669 
L 515.918437 245.641494 
L 532.827528 245.8608 
L 549.736619 257.602402 
L 566.64571 253.290861 
L 583.554801 261.970015 
" clip-path="url(#pe6df3455d5)" style="fill: none; stroke: #e0af68; stroke-width: 2; stroke-linecap: square"/>
    <defs>
     <path id="m79af5a72d2" d="M 0 2 
C 0.530406 2 1.03916 1.789267 1.414214 1.414214 
C 1.789267 1.03916 2 0.530406 2 0 
C 2 -0.530406 1.789267 -1.03916 1.414214 -1.414214 
C 1.03916 -1.789267 0.530406 -2 0 -2 
C -0.530406 -2 -1.03916 -1.789267 -1.414214 -1.414214 
C -1.789267 -1.03916 -2 -0.530406 -2 0 
C -2 0.530406 -1.789267 1.03916 -1.414214 1.414214 
C -1.03916 1.789267 -0.530406 2 0 2 
z
" style="stroke: #e0af68"/>
    </defs>
    <g clip-path="url(#pe6df3455d5)">
     <use xlink:href="#m79af5a72d2" x="76.282074" y="217.93447" style="fill: #e0af68; stroke: #e0af68"/>
     <use xlink:href="#m79af5a72d2" x="93.191165" y="214.460675" style="fill: #e0af68; stroke: #e0af68"/>
     <use xlink:href="#m79af5a72d2" x="110.100256" y="238.202661" style="fill: #e0af68; stroke: #e0af68"/>
     <use xlink:href="#m79af5a72d2" x="127.009347" y="242.299283" style="fill: #e0af68; stroke: #e0af68"/>
     <use xlink:href="#m79af5a72d2" x="143.918438" y="264.256124" style="fill: #e0af68; stroke: #e0af68"/>
     <use xlink:href="#m79af5a72d2" x="160.827528" y="283.919032" style="fill: #e0af68; stroke: #e0af68"/>
     <use xlink:href="#m79af5a72d2" x="177.736619" y="304.152133" style="fill: #e0af68; stroke: #e0af68"/>
     <use xlink:href="#m79af5a72d2" x="194.64571" y="302.138911" style="fill: #e0af68; stroke: #e0af68"/>
     <use xlink:href="#m79af5a72d2" x="211.554801" y="268.765039" style="fill: #e0af68; stroke: #e0af68"/>
     <use xlink:href="#m79af5a72d2" x="228.463892" y="333.894311" style="fill: #e0af68; stroke: #e0af68"/>
     <use xlink:href="#m79af5a72d2" x="245.372983" y="356.8775" style="fill: #e0af68; stroke: #e0af68"/>
     <use xlink:href="#m79af5a72d2" x="262.282074" y="303.252982" style="fill: #e0af68; stroke: #e0af68"/>
     <use xlink:href="#m79af5a72d2" x="279.191165" y="198.797895" style="fill: #e0af68; stroke: #e0af68"/>
     <use xlink:href="#m79af5a72d2" x="296.100256" y="186.994886" style="fill: #e0af68; stroke: #e0af68"/>
     <use xlink:href="#m79af5a72d2" x="313.009347" y="197.047839" style="fill: #e0af68; stroke: #e0af68"/>
     <use xlink:href="#m79af5a72d2" x="329.918438" y="206.109531" style="fill: #e0af68; stroke: #e0af68"/>
     <use xlink:href="#m79af5a72d2" x="346.827528" y="215.916862" style="fill: #e0af68; stroke: #e0af68"/>
     <use xlink:href="#m79af5a72d2" x="363.736619" y="217.41691" style="fill: #e0af68; stroke: #e0af68"/>
     <use xlink:href="#m79af5a72d2" x="380.64571" y="234.031475" style="fill: #e0af68; stroke: #e0af68"/>
     <use xlink:href="#m79af5a72d2" x="397.554801" y="270.442686" style="fill: #e0af68; stroke: #e0af68"/>
     <use xlink:href="#m79af5a72d2" x="414.463892" y="281.480357" style="fill: #e0af68; stroke: #e0af68"/>
     <use xlink:href="#m79af5a72d2" x="431.372983" y="319.556134" style="fill: #e0af68; stroke: #e0af68"/>
     <use xlink:href="#m79af5a72d2" x="448.282074" y="327.170412" style="fill: #e0af68; stroke: #e0af68"/>
     <use xlink:href="#m79af5a72d2" x="465.191165" y="289.949926" style="fill: #e0af68; stroke: #e0af68"/>
     <use xlink:href="#m79af5a72d2" x="482.100256" y="254.060722" style="fill: #e0af68; stroke: #e0af68"/>
     <use xlink:href="#m79af5a72d2" x="499.009347" y="261.558669" style="fill: #e0af68; stroke: #e0af68"/>
     <use xlink:href="#m79af5a72d2" x="515.918437" y="245.641494" style="fill: #e0af68; stroke: #e0af68"/>
     <use xlink:href="#m79af5a72d2" x="532.827528" y="245.8608" style="fill: #e0af68; stroke: #e0af68"/>
     <use xlink:href="#m79af5a72d2" x="549.736619" y="257.602402" style="fill: #e0af68; stroke: #e0af68"/>
     <use xlink:href="#m79af5a72d2" x="566.64571" y="253.290861" style="fill: #e0af68; stroke: #e0af68"/>
     <use xlink:href="#m79af5a72d2" x="583.554801" y="261.970015" style="fill: #e0af68; stroke: #e0af68"/>
    </g>
   </g>
   <g id="patch_3">
    <path d="M 50.918438 371.9975 
L 50.918438 39.3575 
" style="fill: none; stroke: #a9b1d6; stroke-width: 0.8; stroke-linejoin: miter; stroke-linecap: square"/>
   </g>
   <g id="patch_4">
    <path d="M 608.918437 371.9975 
L 608.918437 39.3575 
" style="fill: none; stroke: #a9b1d6; stroke-width: 0.8; stroke-linejoin: miter; stroke-linecap: square"/>
   </g>
   <g id="patch_5">
    <path d="M 50.918438 371.9975 
L 608.918438 371.9975 
" style="fill: none; stroke: #a9b1d6; stroke-width: 0.8; stroke-linejoin: miter; stroke-linecap: square"/>
   </g>
   <g id="patch_6">
    <path d="M 50.918438 39.3575 
L 608.918438 39.3575 
" style="fill: none; stroke: #a9b1d6; stroke-width: 0.8; stroke-linejoin: miter; stroke-linecap: square"/>
   </g>
   <g id="text_25">
    <!-- Januar - Durchschnittswerte am Tag -->
    <g style="fill: #a9b1d6" transform="translate(187.037187 19.3575) scale(0.16 -0.16)">
     <defs>
      <path id="DejaVuSans-4a" d="M 628 4666 
L 1259 4666 
L 1259 325 
Q 1259 -519 939 -900 
Q 619 -1281 -91 -1281 
L -331 -1281 
L -331 -750 
L -134 -750 
Q 284 -750 456 -515 
Q 628 -281 628 325 
L 628 4666 
z
" transform="scale(0.015625)"/>
      <path id="DejaVuSans-2d" d="M 313 2009 
L 1997 2009 
L 1997 1497 
L 313 1497 
L 313 2009 
z
" transform="scale(0.015625)"/>
      <path id="DejaVuSans-44" d="M 1259 4147 
L 1259 519 
L 2022 519 
Q 2988 519 3436 956 
Q 3884 1394 3884 2338 
Q 3884 3275 3436 3711 
Q 2988 4147 2022 4147 
L 1259 4147 
z
M 628 4666 
L 1925 4666 
Q 3281 4666 3915 4102 
Q 4550 3538 4550 2338 
Q 4550 1131 3912 565 
Q 3275 0 1925 0 
L 628 0 
L 628 4666 
z
" transform="scale(0.015625)"/>
      <path id="DejaVuSans-63" d="M 3122 3366 
L 3122 2828 
Q 2878 2963 2633 3030 
Q 2388 3097 2138 3097 
Q 1578 3097 1268 2742 
Q 959 2388 959 1747 
Q 959 1106 1268 751 
Q 1578 397 2138 397 
Q 2388 397 2633 464 
Q 2878 531 3122 666 
L 3122 134 
Q 2881 22 2623 -34 
Q 2366 -91 2075 -91 
Q 1284 -91 818 406 
Q 353 903 353 1747 
Q 353 2603 823 3093 
Q 1294 3584 2113 3584 
Q 2378 3584 2631 3529 
Q 2884 3475 3122 3366 
z
" transform="scale(0.015625)"/>
      <path id="DejaVuSans-68" d="M 3513 2113 
L 3513 0 
L 2938 0 
L 2938 2094 
Q 2938 2591 2744 2837 
Q 2550 3084 2163 3084 
Q 1697 3084 1428 2787 
Q 1159 2491 1159 1978 
L 1159 0 
L 581 0 
L 581 4863 
L 1159 4863 
L 1159 2956 
Q 1366 3272 1645 3428 
Q 1925 3584 2291 3584 
Q 2894 3584 3203 3211 
Q 3513 2838 3513 2113 
z
" transform="scale(0.015625)"/>
      <path id="DejaVuSans-77" d="M 269 3500 
L 844 3500 
L 1563 769 
L 2278 3500 
L 2956 3500 
L 3675 769 
L 4391 3500 
L 4966 3500 
L 4050 0 
L 3372 0 
L 2619 2869 
L 1863 0 
L 1184 0 
L 269 3500 
z
" transform="scale(0.015625)"/>
     </defs>
     <use xlink:href="#DejaVuSans-4a"/>
     <use xlink:href="#DejaVuSans-61" transform="translate(29.492188 0)"/>
     <use xlink:href="#DejaVuSans-6e" transform="translate(90.771484 0)"/>
     <use xlink:href="#DejaVuSans-75" transform="translate(154.150391 0)"/>
     <use xlink:href="#DejaVuSans-61" transform="translate(217.529297 0)"/>
     <use xlink:href="#DejaVuSans-72" transform="translate(278.808594 0)"/>
     <use xlink:href="#DejaVuSans-20" transform="translate(319.921875 0)"/>
     <use xlink:href="#DejaVuSans-2d" transform="translate(351.708984 0)"/>
     <use xlink:href="#DejaVuSans-20" transform="translate(387.792969 0)"/>
     <use xlink:href="#DejaVuSans-44" transform="translate(419.580078 0)"/>
     <use xlink:href="#DejaVuSans-75" transform="translate(496.582031 0)"/>
     <use xlink:href="#DejaVuSans-72" transform="translate(559.960938 0)"/>
     <use xlink:href="#DejaVuSans-63" transform="translate(598.824219 0)"/>
     <use xlink:href="#DejaVuSans-68" transform="translate(653.804688 0)"/>
     <use xlink:href="#DejaVuSans-73" transform="translate(717.183594 0)"/>
     <use xlink:href="#DejaVuSans-63" transform="translate(769.283203 0)"/>
     <use xlink:href="#DejaVuSans-68" transform="translate(824.263672 0)"/>
     <use xlink:href="#DejaVuSans-6e" transform="translate(887.642578 0)"/>
     <use xlink:href="#DejaVuSans-69" transform="translate(951.021484 0)"/>
     <use xlink:href="#DejaVuSans-74" transform="translate(978.804688 0)"/>
     <use xlink:href="#DejaVuSans-74" transform="translate(1018.013672 0)"/>
     <use xlink:href="#DejaVuSans-73" transform="translate(1057.222656 0)"/>
     <use xlink:href="#DejaVuSans-77" transform="translate(1109.322266 0)"/>
     <use xlink:href="#DejaVuSans-65" transform="translate(1191.109375 0)"/>
     <use xlink:href="#DejaVuSans-72" transform="translate(1252.632812 0)"/>
     <use xlink:href="#DejaVuSans-74" transform="translate(1293.746094 0)"/>
     <use xlink:href="#DejaVuSans-65" transform="translate(1332.955078 0)"/>
     <use xlink:href="#DejaVuSans-20" transform="translate(1394.478516 0)"/>
     <use xlink:href="#DejaVuSans-61" transform="translate(1426.265625 0)"/>
     <use xlink:href="#DejaVuSans-6d" transform="translate(1487.544922 0)"/>
     <use xlink:href="#DejaVuSans-20" transform="translate(1584.957031 0)"/>
     <use xlink:href="#DejaVuSans-54" transform="translate(1616.744141 0)"/>
     <use xlink:href="#DejaVuSans-61" transform="translate(1661.328125 0)"/>
     <use xlink:href="#DejaVuSans-67" transform="translate(1722.607422 0)"/>
    </g>
   </g>
   <g id="legend_1">
    <g id="patch_7">
     <path d="M 544.468438 120.748125 
L 601.918438 120.748125 
Q 603.918438 120.748125 603.918438 118.748125 
L 603.918438 46.3575 
Q 603.918438 44.3575 601.918438 44.3575 
L 544.468438 44.3575 
Q 542.468438 44.3575 542.468438 46.3575 
L 542.468438 118.748125 
Q 542.468438 120.748125 544.468438 120.748125 
z
" style="fill: #1a1b26; opacity: 0.8; stroke: #a9b1d6; stroke-linejoin: miter"/>
    </g>
    <g id="text_26">
     <!-- Jahr -->
     <g style="fill: #a9b1d6" transform="translate(563.430156 55.955937) scale(0.1 -0.1)">
      <use xlink:href="#DejaVuSans-4a"/>
      <use xlink:href="#DejaVuSans-61" transform="translate(29.492188 0)"/>
      <use xlink:href="#DejaVuSans-68" transform="translate(90.771484 0)"/>
      <use xlink:href="#DejaVuSans-72" transform="translate(154.150391 0)"/>
     </g>
    </g>
    <g id="line2d_49">
     <path d="M 546.468438 67.134062 
L 556.468438 67.134062 
L 566.468438 67.134062 
" style="fill: none; stroke: #9ece6a; stroke-width: 2; stroke-linecap: square"/>
     <g>
      <use xlink:href="#m981d3fa17c" x="556.468438" y="67.134062" style="fill: #9ece6a; stroke: #9ece6a"/>
     </g>
    </g>
    <g id="text_27">
     <!-- 2023 -->
     <g style="fill: #a9b1d6" transform="translate(574.468438 70.634062) scale(0.1 -0.1)">
      <use xlink:href="#DejaVuSans-32"/>
      <use xlink:href="#DejaVuSans-30" transform="translate(63.623047 0)"/>
      <use xlink:href="#DejaVuSans-32" transform="translate(127.246094 0)"/>
      <use xlink:href="#DejaVuSans-33" transform="translate(190.869141 0)"/>
     </g>
    </g>
    <g id="line2d_50">
     <path d="M 546.468438 81.812187 
L 556.468438 81.812187 
L 566.468438 81.812187 
" style="fill: none; stroke: #2ac3de; stroke-width: 2; stroke-linecap: square"/>
     <g>
      <use xlink:href="#md7230711ab" x="556.468438" y="81.812187" style="fill: #2ac3de; stroke: #2ac3de"/>
     </g>
    </g>
    <g id="text_28">
     <!-- 2024 -->
     <g style="fill: #a9b1d6" transform="translate(574.468438 85.312187) scale(0.1 -0.1)">
      <defs>
       <path id="DejaVuSans-34" d="M 2419 4116 
L 825 1625 
L 2419 1625 
L 2419 4116 
z
M 2253 4666 
L 3047 4666 
L 3047 1625 
L 3713 1625 
L 3713 1100 
L 3047 1100 
L 3047 0 
L 2419 0 
L 2419 1100 
L 313 1100 
L 313 1709 
L 2253 4666 
z
" transform="scale(0.015625)"/>
      </defs>
      <use xlink:href="#DejaVuSans-32"/>
      <use xlink:href="#DejaVuSans-30" transform="translate(63.623047 0)"/>
      <use xlink:href="#DejaVuSans-32" transform="translate(127.246094 0)"/>
      <use xlink:href="#DejaVuSans-34" transform="translate(190.869141 0)"/>
     </g>
    </g>
    <g id="line2d_51">
     <path d="M 546.468438 96.490312 
L 556.468438 96.490312 
L 566.468438 96.490312 
" style="fill: none; stroke: #f7768e; stroke-width: 2; stroke-linecap: square"/>
     <g>
      <use xlink:href="#m0198d71d0d" x="556.468438" y="96.490312" style="fill: #f7768e; stroke: #f7768e"/>
     </g>
    </g>
    <g id="text_29">
     <!-- 2025 -->
     <g style="fill: #a9b1d6" transform="translate(574.468438 99.990312) scale(0.1 -0.1)">
      <use xlink:href="#DejaVuSans-32"/>
      <use xlink:href="#DejaVuSans-30" transform="translate(63.623047 0)"/>
      <use xlink:href="#DejaVuSans-32" transform="translate(127.246094 0)"/>
      <use xlink:href="#DejaVuSans-35" transform="translate(190.869141 0)"/>
     </g>
    </g>
    <g id="line2d_52">
     <path d="M 546.468438 111.168437 
L 556.468438 111.168437 
L 566.468438 111.168437 
" style="fill: none; stroke: #e0af68; stroke-width: 2; stroke-linecap: square"/>
     <g>
      <use xlink:href="#m79af5a72d2" x="556.468438" y="111.168437" style="fill: #e0af68; stroke: #e0af68"/>
     </g>
    </g>
    <g id="text_30">
     <!-- 2026 -->
     <g style="fill: #a9b1d6" transform="translate(574.468438 114.668437) scale(0.1 -0.1)">
      <defs>
       <path id="DejaVuSans-36" d="M 2113 2584 
Q 1688 2584 1439 2293 
Q 1191 2003 1191 1497 
Q 1191 994 1439 701 
Q 1688 409 2113 409 
Q 2538 409 2786 701 
Q 3034 994 3034 1497 
Q 3034 2003 2786 2293 
Q 2538 2584 2113 2584 
z
M 3366 4563 
L 3366 3988 
Q 3128 4100 2886 4159 
Q 2644 4219 2406 4219 
Q 1781 4219 1451 3797 
Q 1122 3375 1075 2522 
Q 1259 2794 1537 2939 
Q 1816 3084 2150 3084 
Q 2853 3084 3261 2657 
Q 3669 2231 3669 1497 
Q 3669 778 3244 343 
Q 2819 -91 2113 -91 
Q 1303 -91 875 529 
Q 447 1150 447 2328 
Q 447 3434 972 4092 
Q 1497 4750 2381 4750 
Q 2619 4750 2861 4703 
Q 3103 4656 3366 4563 
z
" transform="scale(0.015625)"/>
      </defs>
      <use xlink:href="#DejaVuSans-32"/>
      <use xlink:href="#DejaVuSans-30" transform="translate(63.623047 0)"/>
      <use xlink:href="#DejaVuSans-32" transform="translate(127.246094 0)"/>
      <use xlink:href="#DejaVuSans-36" transform="translate(190.869141 0)"/>
     </g>
    </g>
   </g>
  </g>
 </g>
 <defs>
  <clipPath id="pe6df3455d5">
   <rect x="50.918438" y="39.3575" width="558" height="332.64"/>
  </clipPath>
 </defs>
</svg>
