<?xml version="1.0" encoding="utf-8" standalone="no"?>
<!DOCTYPE svg PUBLIC "-//W3C//DTD SVG 1.1//EN"
  "http://www.w3.org/Graphics/SVG/1.1/DTD/svg11.dtd">
<svg xmlns:xlink="http://www.w3.org/1999/xlink" width="619.296562pt" height="411.489375pt" viewBox="0 0 619.296562 411.489375" xmlns="http://www.w3.org/2000/svg" version="1.1">
 <metadata>
  <rdf:RDF xmlns:dc="http://purl.org/dc/elements/1.1/" xmlns:cc="http://creativecommons.org/ns#" xmlns:rdf="http://www.w3.org/1999/02/22-rdf-syntax-ns#">
   <cc:Work>
    <dc:type rdf:resource="http://purl.org/dc/dcmitype/StillImage"/>
    <dc:date>2026-04-26T14:28:06.246788</dc:date>
    <dc:format>image/svg+xml</dc:format>
    <dc:creator>
     <cc:Agent>
      <dc:title>Matplotlib v3.10.8, https://matplotlib.org/</dc:title>
     </cc:Agent>
    </dc:creator>
   </cc:Work>
  </rdf:RDF>
 </metadata>
 <defs>
  <style type="text/css">*{stroke-linejoin: round; stroke-linecap: butt}</style>
 </defs>
 <g id="figure_1">
  <g id="patch_1">
   <path d="M 0 411.489375 
L 619.296562 411.489375 
L 619.296562 0 
L 0 0 
z
" style="fill: #1a1b26"/>
  </g>
  <g id="axes_1">
   <g id="patch_2">
    <path d="M 54.096563 371.9975 
L 612.096563 371.9975 
L 612.096563 39.3575 
L 54.096563 39.3575 
z
" style="fill: #1a1b26"/>
   </g>
   <g id="matplotlib.axis_1">
    <g id="xtick_1">
     <g id="line2d_1">
      <path d="M 79.460199 371.9975 
L 79.460199 39.3575 
" clip-path="url(#p42cb35e220)" style="fill: none; stroke-dasharray: 2.96,1.28; stroke-dashoffset: 0; stroke: #2f3549; stroke-opacity: 0.5; stroke-width: 0.8"/>
     </g>
     <g id="line2d_2">
      <defs>
       <path id="mc73b0f7608" d="M 0 0 
L 0 3.5 
" style="stroke: #a9b1d6; stroke-width: 0.8"/>
      </defs>
      <g>
       <use xlink:href="#mc73b0f7608" x="79.460199" y="371.9975" style="fill: #a9b1d6; stroke: #a9b1d6; stroke-width: 0.8"/>
      </g>
     </g>
     <g id="text_1">
      <!-- 1 -->
      <g style="fill: #a9b1d6" transform="translate(76.278949 386.595937) scale(0.1 -0.1)">
       <defs>
        <path id="DejaVuSans-31" d="M 794 531 
L 1825 531 
L 1825 4091 
L 703 3866 
L 703 4441 
L 1819 4666 
L 2450 4666 
L 2450 531 
L 3481 531 
L 3481 0 
L 794 0 
L 794 531 
z
" transform="scale(0.015625)"/>
       </defs>
       <use xlink:href="#DejaVuSans-31"/>
      </g>
     </g>
    </g>
    <g id="xtick_2">
     <g id="line2d_3">
      <path d="M 114.444525 371.9975 
L 114.444525 39.3575 
" clip-path="url(#p42cb35e220)" style="fill: none; stroke-dasharray: 2.96,1.28; stroke-dashoffset: 0; stroke: #2f3549; stroke-opacity: 0.5; stroke-width: 0.8"/>
     </g>
     <g id="line2d_4">
      <g>
       <use xlink:href="#mc73b0f7608" x="114.444525" y="371.9975" style="fill: #a9b1d6; stroke: #a9b1d6; stroke-width: 0.8"/>
      </g>
     </g>
     <g id="text_2">
      <!-- 3 -->
      <g style="fill: #a9b1d6" transform="translate(111.263275 386.595937) scale(0.1 -0.1)">
       <defs>
        <path id="DejaVuSans-33" d="M 2597 2516 
Q 3050 2419 3304 2112 
Q 3559 1806 3559 1356 
Q 3559 666 3084 287 
Q 2609 -91 1734 -91 
Q 1441 -91 1130 -33 
Q 819 25 488 141 
L 488 750 
Q 750 597 1062 519 
Q 1375 441 1716 441 
Q 2309 441 2620 675 
Q 2931 909 2931 1356 
Q 2931 1769 2642 2001 
Q 2353 2234 1838 2234 
L 1294 2234 
L 1294 2753 
L 1863 2753 
Q 2328 2753 2575 2939 
Q 2822 3125 2822 3475 
Q 2822 3834 2567 4026 
Q 2313 4219 1838 4219 
Q 1578 4219 1281 4162 
Q 984 4106 628 3988 
L 628 4550 
Q 988 4650 1302 4700 
Q 1616 4750 1894 4750 
Q 2613 4750 3031 4423 
Q 3450 4097 3450 3541 
Q 3450 3153 3228 2886 
Q 3006 2619 2597 2516 
z
" transform="scale(0.015625)"/>
       </defs>
       <use xlink:href="#DejaVuSans-33"/>
      </g>
     </g>
    </g>
    <g id="xtick_3">
     <g id="line2d_5">
      <path d="M 149.428851 371.9975 
L 149.428851 39.3575 
" clip-path="url(#p42cb35e220)" style="fill: none; stroke-dasharray: 2.96,1.28; stroke-dashoffset: 0; stroke: #2f3549; stroke-opacity: 0.5; stroke-width: 0.8"/>
     </g>
     <g id="line2d_6">
      <g>
       <use xlink:href="#mc73b0f7608" x="149.428851" y="371.9975" style="fill: #a9b1d6; stroke: #a9b1d6; stroke-width: 0.8"/>
      </g>
     </g>
     <g id="text_3">
      <!-- 5 -->
      <g style="fill: #a9b1d6" transform="translate(146.247601 386.595937) scale(0.1 -0.1)">
       <defs>
        <path id="DejaVuSans-35" d="M 691 4666 
L 3169 4666 
L 3169 4134 
L 1269 4134 
L 1269 2991 
Q 1406 3038 1543 3061 
Q 1681 3084 1819 3084 
Q 2600 3084 3056 2656 
Q 3513 2228 3513 1497 
Q 3513 744 3044 326 
Q 2575 -91 1722 -91 
Q 1428 -91 1123 -41 
Q 819 9 494 109 
L 494 744 
Q 775 591 1075 516 
Q 1375 441 1709 441 
Q 2250 441 2565 725 
Q 2881 1009 2881 1497 
Q 2881 1984 2565 2268 
Q 2250 2553 1709 2553 
Q 1456 2553 1204 2497 
Q 953 2441 691 2322 
L 691 4666 
z
" transform="scale(0.015625)"/>
       </defs>
       <use xlink:href="#DejaVuSans-35"/>
      </g>
     </g>
    </g>
    <g id="xtick_4">
     <g id="line2d_7">
      <path d="M 184.413177 371.9975 
L 184.413177 39.3575 
" clip-path="url(#p42cb35e220)" style="fill: none; stroke-dasharray: 2.96,1.28; stroke-dashoffset: 0; stroke: #2f3549; stroke-opacity: 0.5; stroke-width: 0.8"/>
     </g>
     <g id="line2d_8">
      <g>
       <use xlink:href="#mc73b0f7608" x="184.413177" y="371.9975" style="fill: #a9b1d6; stroke: #a9b1d6; stroke-width: 0.8"/>
      </g>
     </g>
     <g id="text_4">
      <!-- 7 -->
      <g style="fill: #a9b1d6" transform="translate(181.231927 386.595937) scale(0.1 -0.1)">
       <defs>
        <path id="DejaVuSans-37" d="M 525 4666 
L 3525 4666 
L 3525 4397 
L 1831 0 
L 1172 0 
L 2766 4134 
L 525 4134 
L 525 4666 
z
" transform="scale(0.015625)"/>
       </defs>
       <use xlink:href="#DejaVuSans-37"/>
      </g>
     </g>
    </g>
    <g id="xtick_5">
     <g id="line2d_9">
      <path d="M 219.397503 371.9975 
L 219.397503 39.3575 
" clip-path="url(#p42cb35e220)" style="fill: none; stroke-dasharray: 2.96,1.28; stroke-dashoffset: 0; stroke: #2f3549; stroke-opacity: 0.5; stroke-width: 0.8"/>
     </g>
     <g id="line2d_10">
      <g>
       <use xlink:href="#mc73b0f7608" x="219.397503" y="371.9975" style="fill: #a9b1d6; stroke: #a9b1d6; stroke-width: 0.8"/>
      </g>
     </g>
     <g id="text_5">
      <!-- 9 -->
      <g style="fill: #a9b1d6" transform="translate(216.216253 386.595937) scale(0.1 -0.1)">
       <defs>
        <path id="DejaVuSans-39" d="M 703 97 
L 703 672 
Q 941 559 1184 500 
Q 1428 441 1663 441 
Q 2288 441 2617 861 
Q 2947 1281 2994 2138 
Q 2813 1869 2534 1725 
Q 2256 1581 1919 1581 
Q 1219 1581 811 2004 
Q 403 2428 403 3163 
Q 403 3881 828 4315 
Q 1253 4750 1959 4750 
Q 2769 4750 3195 4129 
Q 3622 3509 3622 2328 
Q 3622 1225 3098 567 
Q 2575 -91 1691 -91 
Q 1453 -91 1209 -44 
Q 966 3 703 97 
z
M 1959 2075 
Q 2384 2075 2632 2365 
Q 2881 2656 2881 3163 
Q 2881 3666 2632 3958 
Q 2384 4250 1959 4250 
Q 1534 4250 1286 3958 
Q 1038 3666 1038 3163 
Q 1038 2656 1286 2365 
Q 1534 2075 1959 2075 
z
" transform="scale(0.015625)"/>
       </defs>
       <use xlink:href="#DejaVuSans-39"/>
      </g>
     </g>
    </g>
    <g id="xtick_6">
     <g id="line2d_11">
      <path d="M 254.381829 371.9975 
L 254.381829 39.3575 
" clip-path="url(#p42cb35e220)" style="fill: none; stroke-dasharray: 2.96,1.28; stroke-dashoffset: 0; stroke: #2f3549; stroke-opacity: 0.5; stroke-width: 0.8"/>
     </g>
     <g id="line2d_12">
      <g>
       <use xlink:href="#mc73b0f7608" x="254.381829" y="371.9975" style="fill: #a9b1d6; stroke: #a9b1d6; stroke-width: 0.8"/>
      </g>
     </g>
     <g id="text_6">
      <!-- 11 -->
      <g style="fill: #a9b1d6" transform="translate(248.019329 386.595937) scale(0.1 -0.1)">
       <use xlink:href="#DejaVuSans-31"/>
       <use xlink:href="#DejaVuSans-31" transform="translate(63.623047 0)"/>
      </g>
     </g>
    </g>
    <g id="xtick_7">
     <g id="line2d_13">
      <path d="M 289.366155 371.9975 
L 289.366155 39.3575 
" clip-path="url(#p42cb35e220)" style="fill: none; stroke-dasharray: 2.96,1.28; stroke-dashoffset: 0; stroke: #2f3549; stroke-opacity: 0.5; stroke-width: 0.8"/>
     </g>
     <g id="line2d_14">
      <g>
       <use xlink:href="#mc73b0f7608" x="289.366155" y="371.9975" style="fill: #a9b1d6; stroke: #a9b1d6; stroke-width: 0.8"/>
      </g>
     </g>
     <g id="text_7">
      <!-- 13 -->
      <g style="fill: #a9b1d6" transform="translate(283.003655 386.595937) scale(0.1 -0.1)">
       <use xlink:href="#DejaVuSans-31"/>
       <use xlink:href="#DejaVuSans-33" transform="translate(63.623047 0)"/>
      </g>
     </g>
    </g>
    <g id="xtick_8">
     <g id="line2d_15">
      <path d="M 324.350481 371.9975 
L 324.350481 39.3575 
" clip-path="url(#p42cb35e220)" style="fill: none; stroke-dasharray: 2.96,1.28; stroke-dashoffset: 0; stroke: #2f3549; stroke-opacity: 0.5; stroke-width: 0.8"/>
     </g>
     <g id="line2d_16">
      <g>
       <use xlink:href="#mc73b0f7608" x="324.350481" y="371.9975" style="fill: #a9b1d6; stroke: #a9b1d6; stroke-width: 0.8"/>
      </g>
     </g>
     <g id="text_8">
      <!-- 15 -->
      <g style="fill: #a9b1d6" transform="translate(317.987981 386.595937) scale(0.1 -0.1)">
       <use xlink:href="#DejaVuSans-31"/>
       <use xlink:href="#DejaVuSans-35" transform="translate(63.623047 0)"/>
      </g>
     </g>
    </g>
    <g id="xtick_9">
     <g id="line2d_17">
      <path d="M 359.334807 371.9975 
L 359.334807 39.3575 
" clip-path="url(#p42cb35e220)" style="fill: none; stroke-dasharray: 2.96,1.28; stroke-dashoffset: 0; stroke: #2f3549; stroke-opacity: 0.5; stroke-width: 0.8"/>
     </g>
     <g id="line2d_18">
      <g>
       <use xlink:href="#mc73b0f7608" x="359.334807" y="371.9975" style="fill: #a9b1d6; stroke: #a9b1d6; stroke-width: 0.8"/>
      </g>
     </g>
     <g id="text_9">
      <!-- 17 -->
      <g style="fill: #a9b1d6" transform="translate(352.972307 386.595937) scale(0.1 -0.1)">
       <use xlink:href="#DejaVuSans-31"/>
       <use xlink:href="#DejaVuSans-37" transform="translate(63.623047 0)"/>
      </g>
     </g>
    </g>
    <g id="xtick_10">
     <g id="line2d_19">
      <path d="M 394.319133 371.9975 
L 394.319133 39.3575 
" clip-path="url(#p42cb35e220)" style="fill: none; stroke-dasharray: 2.96,1.28; stroke-dashoffset: 0; stroke: #2f3549; stroke-opacity: 0.5; stroke-width: 0.8"/>
     </g>
     <g id="line2d_20">
      <g>
       <use xlink:href="#mc73b0f7608" x="394.319133" y="371.9975" style="fill: #a9b1d6; stroke: #a9b1d6; stroke-width: 0.8"/>
      </g>
     </g>
     <g id="text_10">
      <!-- 19 -->
      <g style="fill: #a9b1d6" transform="translate(387.956633 386.595937) scale(0.1 -0.1)">
       <use xlink:href="#DejaVuSans-31"/>
       <use xlink:href="#DejaVuSans-39" transform="translate(63.623047 0)"/>
      </g>
     </g>
    </g>
    <g id="xtick_11">
     <g id="line2d_21">
      <path d="M 429.303459 371.9975 
L 429.303459 39.3575 
" clip-path="url(#p42cb35e220)" style="fill: none; stroke-dasharray: 2.96,1.28; stroke-dashoffset: 0; stroke: #2f3549; stroke-opacity: 0.5; stroke-width: 0.8"/>
     </g>
     <g id="line2d_22">
      <g>
       <use xlink:href="#mc73b0f7608" x="429.303459" y="371.9975" style="fill: #a9b1d6; stroke: #a9b1d6; stroke-width: 0.8"/>
      </g>
     </g>
     <g id="text_11">
      <!-- 21 -->
      <g style="fill: #a9b1d6" transform="translate(422.940959 386.595937) scale(0.1 -0.1)">
       <defs>
        <path id="DejaVuSans-32" d="M 1228 531 
L 3431 531 
L 3431 0 
L 469 0 
L 469 531 
Q 828 903 1448 1529 
Q 2069 2156 2228 2338 
Q 2531 2678 2651 2914 
Q 2772 3150 2772 3378 
Q 2772 3750 2511 3984 
Q 2250 4219 1831 4219 
Q 1534 4219 1204 4116 
Q 875 4013 500 3803 
L 500 4441 
Q 881 4594 1212 4672 
Q 1544 4750 1819 4750 
Q 2544 4750 2975 4387 
Q 3406 4025 3406 3419 
Q 3406 3131 3298 2873 
Q 3191 2616 2906 2266 
Q 2828 2175 2409 1742 
Q 1991 1309 1228 531 
z
" transform="scale(0.015625)"/>
       </defs>
       <use xlink:href="#DejaVuSans-32"/>
       <use xlink:href="#DejaVuSans-31" transform="translate(63.623047 0)"/>
      </g>
     </g>
    </g>
    <g id="xtick_12">
     <g id="line2d_23">
      <path d="M 464.287785 371.9975 
L 464.287785 39.3575 
" clip-path="url(#p42cb35e220)" style="fill: none; stroke-dasharray: 2.96,1.28; stroke-dashoffset: 0; stroke: #2f3549; stroke-opacity: 0.5; stroke-width: 0.8"/>
     </g>
     <g id="line2d_24">
      <g>
       <use xlink:href="#mc73b0f7608" x="464.287785" y="371.9975" style="fill: #a9b1d6; stroke: #a9b1d6; stroke-width: 0.8"/>
      </g>
     </g>
     <g id="text_12">
      <!-- 23 -->
      <g style="fill: #a9b1d6" transform="translate(457.925285 386.595937) scale(0.1 -0.1)">
       <use xlink:href="#DejaVuSans-32"/>
       <use xlink:href="#DejaVuSans-33" transform="translate(63.623047 0)"/>
      </g>
     </g>
    </g>
    <g id="xtick_13">
     <g id="line2d_25">
      <path d="M 499.272111 371.9975 
L 499.272111 39.3575 
" clip-path="url(#p42cb35e220)" style="fill: none; stroke-dasharray: 2.96,1.28; stroke-dashoffset: 0; stroke: #2f3549; stroke-opacity: 0.5; stroke-width: 0.8"/>
     </g>
     <g id="line2d_26">
      <g>
       <use xlink:href="#mc73b0f7608" x="499.272111" y="371.9975" style="fill: #a9b1d6; stroke: #a9b1d6; stroke-width: 0.8"/>
      </g>
     </g>
     <g id="text_13">
      <!-- 25 -->
      <g style="fill: #a9b1d6" transform="translate(492.909611 386.595937) scale(0.1 -0.1)">
       <use xlink:href="#DejaVuSans-32"/>
       <use xlink:href="#DejaVuSans-35" transform="translate(63.623047 0)"/>
      </g>
     </g>
    </g>
    <g id="xtick_14">
     <g id="line2d_27">
      <path d="M 534.256437 371.9975 
L 534.256437 39.3575 
" clip-path="url(#p42cb35e220)" style="fill: none; stroke-dasharray: 2.96,1.28; stroke-dashoffset: 0; stroke: #2f3549; stroke-opacity: 0.5; stroke-width: 0.8"/>
     </g>
     <g id="line2d_28">
      <g>
       <use xlink:href="#mc73b0f7608" x="534.256437" y="371.9975" style="fill: #a9b1d6; stroke: #a9b1d6; stroke-width: 0.8"/>
      </g>
     </g>
     <g id="text_14">
      <!-- 27 -->
      <g style="fill: #a9b1d6" transform="translate(527.893937 386.595937) scale(0.1 -0.1)">
       <use xlink:href="#DejaVuSans-32"/>
       <use xlink:href="#DejaVuSans-37" transform="translate(63.623047 0)"/>
      </g>
     </g>
    </g>
    <g id="xtick_15">
     <g id="line2d_29">
      <path d="M 569.240763 371.9975 
L 569.240763 39.3575 
" clip-path="url(#p42cb35e220)" style="fill: none; stroke-dasharray: 2.96,1.28; stroke-dashoffset: 0; stroke: #2f3549; stroke-opacity: 0.5; stroke-width: 0.8"/>
     </g>
     <g id="line2d_30">
      <g>
       <use xlink:href="#mc73b0f7608" x="569.240763" y="371.9975" style="fill: #a9b1d6; stroke: #a9b1d6; stroke-width: 0.8"/>
      </g>
     </g>
     <g id="text_15">
      <!-- 29 -->
      <g style="fill: #a9b1d6" transform="translate(562.878263 386.595937) scale(0.1 -0.1)">
       <use xlink:href="#DejaVuSans-32"/>
       <use xlink:href="#DejaVuSans-39" transform="translate(63.623047 0)"/>
      </g>
     </g>
    </g>
    <g id="xtick_16">
     <g id="line2d_31">
      <path d="M 604.225089 371.9975 
L 604.225089 39.3575 
" clip-path="url(#p42cb35e220)" style="fill: none; stroke-dasharray: 2.96,1.28; stroke-dashoffset: 0; stroke: #2f3549; stroke-opacity: 0.5; stroke-width: 0.8"/>
     </g>
     <g id="line2d_32">
      <g>
       <use xlink:href="#mc73b0f7608" x="604.225089" y="371.9975" style="fill: #a9b1d6; stroke: #a9b1d6; stroke-width: 0.8"/>
      </g>
     </g>
     <g id="text_16">
      <!-- 31 -->
      <g style="fill: #a9b1d6" transform="translate(597.862589 386.595937) scale(0.1 -0.1)">
       <use xlink:href="#DejaVuSans-33"/>
       <use xlink:href="#DejaVuSans-31" transform="translate(63.623047 0)"/>
      </g>
     </g>
    </g>
    <g id="text_17">
     <!-- Tag des Monats -->
     <g style="fill: #a9b1d6" transform="translate(286.690313 401.79375) scale(0.12 -0.12)">
      <defs>
       <path id="DejaVuSans-54" d="M -19 4666 
L 3928 4666 
L 3928 4134 
L 2272 4134 
L 2272 0 
L 1638 0 
L 1638 4134 
L -19 4134 
L -19 4666 
z
" transform="scale(0.015625)"/>
       <path id="DejaVuSans-61" d="M 2194 1759 
Q 1497 1759 1228 1600 
Q 959 1441 959 1056 
Q 959 750 1161 570 
Q 1363 391 1709 391 
Q 2188 391 2477 730 
Q 2766 1069 2766 1631 
L 2766 1759 
L 2194 1759 
z
M 3341 1997 
L 3341 0 
L 2766 0 
L 2766 531 
Q 2569 213 2275 61 
Q 1981 -91 1556 -91 
Q 1019 -91 701 211 
Q 384 513 384 1019 
Q 384 1609 779 1909 
Q 1175 2209 1959 2209 
L 2766 2209 
L 2766 2266 
Q 2766 2663 2505 2880 
Q 2244 3097 1772 3097 
Q 1472 3097 1187 3025 
Q 903 2953 641 2809 
L 641 3341 
Q 956 3463 1253 3523 
Q 1550 3584 1831 3584 
Q 2591 3584 2966 3190 
Q 3341 2797 3341 1997 
z
" transform="scale(0.015625)"/>
       <path id="DejaVuSans-67" d="M 2906 1791 
Q 2906 2416 2648 2759 
Q 2391 3103 1925 3103 
Q 1463 3103 1205 2759 
Q 947 2416 947 1791 
Q 947 1169 1205 825 
Q 1463 481 1925 481 
Q 2391 481 2648 825 
Q 2906 1169 2906 1791 
z
M 3481 434 
Q 3481 -459 3084 -895 
Q 2688 -1331 1869 -1331 
Q 1566 -1331 1297 -1286 
Q 1028 -1241 775 -1147 
L 775 -588 
Q 1028 -725 1275 -790 
Q 1522 -856 1778 -856 
Q 2344 -856 2625 -561 
Q 2906 -266 2906 331 
L 2906 616 
Q 2728 306 2450 153 
Q 2172 0 1784 0 
Q 1141 0 747 490 
Q 353 981 353 1791 
Q 353 2603 747 3093 
Q 1141 3584 1784 3584 
Q 2172 3584 2450 3431 
Q 2728 3278 2906 2969 
L 2906 3500 
L 3481 3500 
L 3481 434 
z
" transform="scale(0.015625)"/>
       <path id="DejaVuSans-20" transform="scale(0.015625)"/>
       <path id="DejaVuSans-64" d="M 2906 2969 
L 2906 4863 
L 3481 4863 
L 3481 0 
L 2906 0 
L 2906 525 
Q 2725 213 2448 61 
Q 2172 -91 1784 -91 
Q 1150 -91 751 415 
Q 353 922 353 1747 
Q 353 2572 751 3078 
Q 1150 3584 1784 3584 
Q 2172 3584 2448 3432 
Q 2725 3281 2906 2969 
z
M 947 1747 
Q 947 1113 1208 752 
Q 1469 391 1925 391 
Q 2381 391 2643 752 
Q 2906 1113 2906 1747 
Q 2906 2381 2643 2742 
Q 2381 3103 1925 3103 
Q 1469 3103 1208 2742 
Q 947 2381 947 1747 
z
" transform="scale(0.015625)"/>
       <path id="DejaVuSans-65" d="M 3597 1894 
L 3597 1613 
L 953 1613 
Q 991 1019 1311 708 
Q 1631 397 2203 397 
Q 2534 397 2845 478 
Q 3156 559 3463 722 
L 3463 178 
Q 3153 47 2828 -22 
Q 2503 -91 2169 -91 
Q 1331 -91 842 396 
Q 353 884 353 1716 
Q 353 2575 817 3079 
Q 1281 3584 2069 3584 
Q 2775 3584 3186 3129 
Q 3597 2675 3597 1894 
z
M 3022 2063 
Q 3016 2534 2758 2815 
Q 2500 3097 2075 3097 
Q 1594 3097 1305 2825 
Q 1016 2553 972 2059 
L 3022 2063 
z
" transform="scale(0.015625)"/>
       <path id="DejaVuSans-73" d="M 2834 3397 
L 2834 2853 
Q 2591 2978 2328 3040 
Q 2066 3103 1784 3103 
Q 1356 3103 1142 2972 
Q 928 2841 928 2578 
Q 928 2378 1081 2264 
Q 1234 2150 1697 2047 
L 1894 2003 
Q 2506 1872 2764 1633 
Q 3022 1394 3022 966 
Q 3022 478 2636 193 
Q 2250 -91 1575 -91 
Q 1294 -91 989 -36 
Q 684 19 347 128 
L 347 722 
Q 666 556 975 473 
Q 1284 391 1588 391 
Q 1994 391 2212 530 
Q 2431 669 2431 922 
Q 2431 1156 2273 1281 
Q 2116 1406 1581 1522 
L 1381 1569 
Q 847 1681 609 1914 
Q 372 2147 372 2553 
Q 372 3047 722 3315 
Q 1072 3584 1716 3584 
Q 2034 3584 2315 3537 
Q 2597 3491 2834 3397 
z
" transform="scale(0.015625)"/>
       <path id="DejaVuSans-4d" d="M 628 4666 
L 1569 4666 
L 2759 1491 
L 3956 4666 
L 4897 4666 
L 4897 0 
L 4281 0 
L 4281 4097 
L 3078 897 
L 2444 897 
L 1241 4097 
L 1241 0 
L 628 0 
L 628 4666 
z
" transform="scale(0.015625)"/>
       <path id="DejaVuSans-6f" d="M 1959 3097 
Q 1497 3097 1228 2736 
Q 959 2375 959 1747 
Q 959 1119 1226 758 
Q 1494 397 1959 397 
Q 2419 397 2687 759 
Q 2956 1122 2956 1747 
Q 2956 2369 2687 2733 
Q 2419 3097 1959 3097 
z
M 1959 3584 
Q 2709 3584 3137 3096 
Q 3566 2609 3566 1747 
Q 3566 888 3137 398 
Q 2709 -91 1959 -91 
Q 1206 -91 779 398 
Q 353 888 353 1747 
Q 353 2609 779 3096 
Q 1206 3584 1959 3584 
z
" transform="scale(0.015625)"/>
       <path id="DejaVuSans-6e" d="M 3513 2113 
L 3513 0 
L 2938 0 
L 2938 2094 
Q 2938 2591 2744 2837 
Q 2550 3084 2163 3084 
Q 1697 3084 1428 2787 
Q 1159 2491 1159 1978 
L 1159 0 
L 581 0 
L 581 3500 
L 1159 3500 
L 1159 2956 
Q 1366 3272 1645 3428 
Q 1925 3584 2291 3584 
Q 2894 3584 3203 3211 
Q 3513 2838 3513 2113 
z
" transform="scale(0.015625)"/>
       <path id="DejaVuSans-74" d="M 1172 4494 
L 1172 3500 
L 2356 3500 
L 2356 3053 
L 1172 3053 
L 1172 1153 
Q 1172 725 1289 603 
Q 1406 481 1766 481 
L 2356 481 
L 2356 0 
L 1766 0 
Q 1100 0 847 248 
Q 594 497 594 1153 
L 594 3053 
L 172 3053 
L 172 3500 
L 594 3500 
L 594 4494 
L 1172 4494 
z
" transform="scale(0.015625)"/>
      </defs>
      <use xlink:href="#DejaVuSans-54"/>
      <use xlink:href="#DejaVuSans-61" transform="translate(44.583984 0)"/>
      <use xlink:href="#DejaVuSans-67" transform="translate(105.863281 0)"/>
      <use xlink:href="#DejaVuSans-20" transform="translate(169.339844 0)"/>
      <use xlink:href="#DejaVuSans-64" transform="translate(201.126953 0)"/>
      <use xlink:href="#DejaVuSans-65" transform="translate(264.603516 0)"/>
      <use xlink:href="#DejaVuSans-73" transform="translate(326.126953 0)"/>
      <use xlink:href="#DejaVuSans-20" transform="translate(378.226562 0)"/>
      <use xlink:href="#DejaVuSans-4d" transform="translate(410.013672 0)"/>
      <use xlink:href="#DejaVuSans-6f" transform="translate(496.292969 0)"/>
      <use xlink:href="#DejaVuSans-6e" transform="translate(557.474609 0)"/>
      <use xlink:href="#DejaVuSans-61" transform="translate(620.853516 0)"/>
      <use xlink:href="#DejaVuSans-74" transform="translate(682.132812 0)"/>
      <use xlink:href="#DejaVuSans-73" transform="translate(721.341797 0)"/>
     </g>
    </g>
   </g>
   <g id="matplotlib.axis_2">
    <g id="ytick_1">
     <g id="line2d_33">
      <path d="M 54.096563 363.099722 
L 612.096563 363.099722 
" clip-path="url(#p42cb35e220)" style="fill: none; stroke-dasharray: 2.96,1.28; stroke-dashoffset: 0; stroke: #2f3549; stroke-opacity: 0.5; stroke-width: 0.8"/>
     </g>
     <g id="line2d_34">
      <defs>
       <path id="mbb2a533430" d="M 0 0 
L -3.5 0 
" style="stroke: #a9b1d6; stroke-width: 0.8"/>
      </defs>
      <g>
       <use xlink:href="#mbb2a533430" x="54.096563" y="363.099722" style="fill: #a9b1d6; stroke: #a9b1d6; stroke-width: 0.8"/>
      </g>
     </g>
     <g id="text_18">
      <!-- −2.5 -->
      <g style="fill: #a9b1d6" transform="translate(22.81375 366.898941) scale(0.1 -0.1)">
       <defs>
        <path id="DejaVuSans-2212" d="M 678 2272 
L 4684 2272 
L 4684 1741 
L 678 1741 
L 678 2272 
z
" transform="scale(0.015625)"/>
        <path id="DejaVuSans-2e" d="M 684 794 
L 1344 794 
L 1344 0 
L 684 0 
L 684 794 
z
" transform="scale(0.015625)"/>
       </defs>
       <use xlink:href="#DejaVuSans-2212"/>
       <use xlink:href="#DejaVuSans-32" transform="translate(83.789062 0)"/>
       <use xlink:href="#DejaVuSans-2e" transform="translate(147.412109 0)"/>
       <use xlink:href="#DejaVuSans-35" transform="translate(179.199219 0)"/>
      </g>
     </g>
    </g>
    <g id="ytick_2">
     <g id="line2d_35">
      <path d="M 54.096563 321.618241 
L 612.096563 321.618241 
" clip-path="url(#p42cb35e220)" style="fill: none; stroke-dasharray: 2.96,1.28; stroke-dashoffset: 0; stroke: #2f3549; stroke-opacity: 0.5; stroke-width: 0.8"/>
     </g>
     <g id="line2d_36">
      <g>
       <use xlink:href="#mbb2a533430" x="54.096563" y="321.618241" style="fill: #a9b1d6; stroke: #a9b1d6; stroke-width: 0.8"/>
      </g>
     </g>
     <g id="text_19">
      <!-- 0.0 -->
      <g style="fill: #a9b1d6" transform="translate(31.193438 325.417459) scale(0.1 -0.1)">
       <defs>
        <path id="DejaVuSans-30" d="M 2034 4250 
Q 1547 4250 1301 3770 
Q 1056 3291 1056 2328 
Q 1056 1369 1301 889 
Q 1547 409 2034 409 
Q 2525 409 2770 889 
Q 3016 1369 3016 2328 
Q 3016 3291 2770 3770 
Q 2525 4250 2034 4250 
z
M 2034 4750 
Q 2819 4750 3233 4129 
Q 3647 3509 3647 2328 
Q 3647 1150 3233 529 
Q 2819 -91 2034 -91 
Q 1250 -91 836 529 
Q 422 1150 422 2328 
Q 422 3509 836 4129 
Q 1250 4750 2034 4750 
z
" transform="scale(0.015625)"/>
       </defs>
       <use xlink:href="#DejaVuSans-30"/>
       <use xlink:href="#DejaVuSans-2e" transform="translate(63.623047 0)"/>
       <use xlink:href="#DejaVuSans-30" transform="translate(95.410156 0)"/>
      </g>
     </g>
    </g>
    <g id="ytick_3">
     <g id="line2d_37">
      <path d="M 54.096563 280.136759 
L 612.096563 280.136759 
" clip-path="url(#p42cb35e220)" style="fill: none; stroke-dasharray: 2.96,1.28; stroke-dashoffset: 0; stroke: #2f3549; stroke-opacity: 0.5; stroke-width: 0.8"/>
     </g>
     <g id="line2d_38">
      <g>
       <use xlink:href="#mbb2a533430" x="54.096563" y="280.136759" style="fill: #a9b1d6; stroke: #a9b1d6; stroke-width: 0.8"/>
      </g>
     </g>
     <g id="text_20">
      <!-- 2.5 -->
      <g style="fill: #a9b1d6" transform="translate(31.193438 283.935978) scale(0.1 -0.1)">
       <use xlink:href="#DejaVuSans-32"/>
       <use xlink:href="#DejaVuSans-2e" transform="translate(63.623047 0)"/>
       <use xlink:href="#DejaVuSans-35" transform="translate(95.410156 0)"/>
      </g>
     </g>
    </g>
    <g id="ytick_4">
     <g id="line2d_39">
      <path d="M 54.096563 238.655278 
L 612.096563 238.655278 
" clip-path="url(#p42cb35e220)" style="fill: none; stroke-dasharray: 2.96,1.28; stroke-dashoffset: 0; stroke: #2f3549; stroke-opacity: 0.5; stroke-width: 0.8"/>
     </g>
     <g id="line2d_40">
      <g>
       <use xlink:href="#mbb2a533430" x="54.096563" y="238.655278" style="fill: #a9b1d6; stroke: #a9b1d6; stroke-width: 0.8"/>
      </g>
     </g>
     <g id="text_21">
      <!-- 5.0 -->
      <g style="fill: #a9b1d6" transform="translate(31.193438 242.454497) scale(0.1 -0.1)">
       <use xlink:href="#DejaVuSans-35"/>
       <use xlink:href="#DejaVuSans-2e" transform="translate(63.623047 0)"/>
       <use xlink:href="#DejaVuSans-30" transform="translate(95.410156 0)"/>
      </g>
     </g>
    </g>
    <g id="ytick_5">
     <g id="line2d_41">
      <path d="M 54.096563 197.173796 
L 612.096563 197.173796 
" clip-path="url(#p42cb35e220)" style="fill: none; stroke-dasharray: 2.96,1.28; stroke-dashoffset: 0; stroke: #2f3549; stroke-opacity: 0.5; stroke-width: 0.8"/>
     </g>
     <g id="line2d_42">
      <g>
       <use xlink:href="#mbb2a533430" x="54.096563" y="197.173796" style="fill: #a9b1d6; stroke: #a9b1d6; stroke-width: 0.8"/>
      </g>
     </g>
     <g id="text_22">
      <!-- 7.5 -->
      <g style="fill: #a9b1d6" transform="translate(31.193438 200.973015) scale(0.1 -0.1)">
       <use xlink:href="#DejaVuSans-37"/>
       <use xlink:href="#DejaVuSans-2e" transform="translate(63.623047 0)"/>
       <use xlink:href="#DejaVuSans-35" transform="translate(95.410156 0)"/>
      </g>
     </g>
    </g>
    <g id="ytick_6">
     <g id="line2d_43">
      <path d="M 54.096563 155.692315 
L 612.096563 155.692315 
" clip-path="url(#p42cb35e220)" style="fill: none; stroke-dasharray: 2.96,1.28; stroke-dashoffset: 0; stroke: #2f3549; stroke-opacity: 0.5; stroke-width: 0.8"/>
     </g>
     <g id="line2d_44">
      <g>
       <use xlink:href="#mbb2a533430" x="54.096563" y="155.692315" style="fill: #a9b1d6; stroke: #a9b1d6; stroke-width: 0.8"/>
      </g>
     </g>
     <g id="text_23">
      <!-- 10.0 -->
      <g style="fill: #a9b1d6" transform="translate(24.830938 159.491534) scale(0.1 -0.1)">
       <use xlink:href="#DejaVuSans-31"/>
       <use xlink:href="#DejaVuSans-30" transform="translate(63.623047 0)"/>
       <use xlink:href="#DejaVuSans-2e" transform="translate(127.246094 0)"/>
       <use xlink:href="#DejaVuSans-30" transform="translate(159.033203 0)"/>
      </g>
     </g>
    </g>
    <g id="ytick_7">
     <g id="line2d_45">
      <path d="M 54.096563 114.210833 
L 612.096563 114.210833 
" clip-path="url(#p42cb35e220)" style="fill: none; stroke-dasharray: 2.96,1.28; stroke-dashoffset: 0; stroke: #2f3549; stroke-opacity: 0.5; stroke-width: 0.8"/>
     </g>
     <g id="line2d_46">
      <g>
       <use xlink:href="#mbb2a533430" x="54.096563" y="114.210833" style="fill: #a9b1d6; stroke: #a9b1d6; stroke-width: 0.8"/>
      </g>
     </g>
     <g id="text_24">
      <!-- 12.5 -->
      <g style="fill: #a9b1d6" transform="translate(24.830938 118.010052) scale(0.1 -0.1)">
       <use xlink:href="#DejaVuSans-31"/>
       <use xlink:href="#DejaVuSans-32" transform="translate(63.623047 0)"/>
       <use xlink:href="#DejaVuSans-2e" transform="translate(127.246094 0)"/>
       <use xlink:href="#DejaVuSans-35" transform="translate(159.033203 0)"/>
      </g>
     </g>
    </g>
    <g id="ytick_8">
     <g id="line2d_47">
      <path d="M 54.096563 72.729352 
L 612.096563 72.729352 
" clip-path="url(#p42cb35e220)" style="fill: none; stroke-dasharray: 2.96,1.28; stroke-dashoffset: 0; stroke: #2f3549; stroke-opacity: 0.5; stroke-width: 0.8"/>
     </g>
     <g id="line2d_48">
      <g>
       <use xlink:href="#mbb2a533430" x="54.096563" y="72.729352" style="fill: #a9b1d6; stroke: #a9b1d6; stroke-width: 0.8"/>
      </g>
     </g>
     <g id="text_25">
      <!-- 15.0 -->
      <g style="fill: #a9b1d6" transform="translate(24.830938 76.528571) scale(0.1 -0.1)">
       <use xlink:href="#DejaVuSans-31"/>
       <use xlink:href="#DejaVuSans-35" transform="translate(63.623047 0)"/>
       <use xlink:href="#DejaVuSans-2e" transform="translate(127.246094 0)"/>
       <use xlink:href="#DejaVuSans-30" transform="translate(159.033203 0)"/>
      </g>
     </g>
    </g>
    <g id="text_26">
     <!-- Temperatur in °C -->
     <g style="fill: #a9b1d6" transform="translate(16.318125 256.596875) rotate(-90) scale(0.12 -0.12)">
      <defs>
       <path id="DejaVuSans-6d" d="M 3328 2828 
Q 3544 3216 3844 3400 
Q 4144 3584 4550 3584 
Q 5097 3584 5394 3201 
Q 5691 2819 5691 2113 
L 5691 0 
L 5113 0 
L 5113 2094 
Q 5113 2597 4934 2840 
Q 4756 3084 4391 3084 
Q 3944 3084 3684 2787 
Q 3425 2491 3425 1978 
L 3425 0 
L 2847 0 
L 2847 2094 
Q 2847 2600 2669 2842 
Q 2491 3084 2119 3084 
Q 1678 3084 1418 2786 
Q 1159 2488 1159 1978 
L 1159 0 
L 581 0 
L 581 3500 
L 1159 3500 
L 1159 2956 
Q 1356 3278 1631 3431 
Q 1906 3584 2284 3584 
Q 2666 3584 2933 3390 
Q 3200 3197 3328 2828 
z
" transform="scale(0.015625)"/>
       <path id="DejaVuSans-70" d="M 1159 525 
L 1159 -1331 
L 581 -1331 
L 581 3500 
L 1159 3500 
L 1159 2969 
Q 1341 3281 1617 3432 
Q 1894 3584 2278 3584 
Q 2916 3584 3314 3078 
Q 3713 2572 3713 1747 
Q 3713 922 3314 415 
Q 2916 -91 2278 -91 
Q 1894 -91 1617 61 
Q 1341 213 1159 525 
z
M 3116 1747 
Q 3116 2381 2855 2742 
Q 2594 3103 2138 3103 
Q 1681 3103 1420 2742 
Q 1159 2381 1159 1747 
Q 1159 1113 1420 752 
Q 1681 391 2138 391 
Q 2594 391 2855 752 
Q 3116 1113 3116 1747 
z
" transform="scale(0.015625)"/>
       <path id="DejaVuSans-72" d="M 2631 2963 
Q 2534 3019 2420 3045 
Q 2306 3072 2169 3072 
Q 1681 3072 1420 2755 
Q 1159 2438 1159 1844 
L 1159 0 
L 581 0 
L 581 3500 
L 1159 3500 
L 1159 2956 
Q 1341 3275 1631 3429 
Q 1922 3584 2338 3584 
Q 2397 3584 2469 3576 
Q 2541 3569 2628 3553 
L 2631 2963 
z
" transform="scale(0.015625)"/>
       <path id="DejaVuSans-75" d="M 544 1381 
L 544 3500 
L 1119 3500 
L 1119 1403 
Q 1119 906 1312 657 
Q 1506 409 1894 409 
Q 2359 409 2629 706 
Q 2900 1003 2900 1516 
L 2900 3500 
L 3475 3500 
L 3475 0 
L 2900 0 
L 2900 538 
Q 2691 219 2414 64 
Q 2138 -91 1772 -91 
Q 1169 -91 856 284 
Q 544 659 544 1381 
z
M 1991 3584 
L 1991 3584 
z
" transform="scale(0.015625)"/>
       <path id="DejaVuSans-69" d="M 603 3500 
L 1178 3500 
L 1178 0 
L 603 0 
L 603 3500 
z
M 603 4863 
L 1178 4863 
L 1178 4134 
L 603 4134 
L 603 4863 
z
" transform="scale(0.015625)"/>
       <path id="DejaVuSans-b0" d="M 1600 4347 
Q 1350 4347 1178 4173 
Q 1006 4000 1006 3750 
Q 1006 3503 1178 3333 
Q 1350 3163 1600 3163 
Q 1850 3163 2022 3333 
Q 2194 3503 2194 3750 
Q 2194 3997 2020 4172 
Q 1847 4347 1600 4347 
z
M 1600 4750 
Q 1800 4750 1984 4673 
Q 2169 4597 2303 4453 
Q 2447 4313 2519 4134 
Q 2591 3956 2591 3750 
Q 2591 3338 2302 3052 
Q 2013 2766 1594 2766 
Q 1172 2766 890 3047 
Q 609 3328 609 3750 
Q 609 4169 896 4459 
Q 1184 4750 1600 4750 
z
" transform="scale(0.015625)"/>
       <path id="DejaVuSans-43" d="M 4122 4306 
L 4122 3641 
Q 3803 3938 3442 4084 
Q 3081 4231 2675 4231 
Q 1875 4231 1450 3742 
Q 1025 3253 1025 2328 
Q 1025 1406 1450 917 
Q 1875 428 2675 428 
Q 3081 428 3442 575 
Q 3803 722 4122 1019 
L 4122 359 
Q 3791 134 3420 21 
Q 3050 -91 2638 -91 
Q 1578 -91 968 557 
Q 359 1206 359 2328 
Q 359 3453 968 4101 
Q 1578 4750 2638 4750 
Q 3056 4750 3426 4639 
Q 3797 4528 4122 4306 
z
" transform="scale(0.015625)"/>
      </defs>
      <use xlink:href="#DejaVuSans-54"/>
      <use xlink:href="#DejaVuSans-65" transform="translate(44.083984 0)"/>
      <use xlink:href="#DejaVuSans-6d" transform="translate(105.607422 0)"/>
      <use xlink:href="#DejaVuSans-70" transform="translate(203.019531 0)"/>
      <use xlink:href="#DejaVuSans-65" transform="translate(266.496094 0)"/>
      <use xlink:href="#DejaVuSans-72" transform="translate(328.019531 0)"/>
      <use xlink:href="#DejaVuSans-61" transform="translate(369.132812 0)"/>
      <use xlink:href="#DejaVuSans-74" transform="translate(430.412109 0)"/>
      <use xlink:href="#DejaVuSans-75" transform="translate(469.621094 0)"/>
      <use xlink:href="#DejaVuSans-72" transform="translate(533 0)"/>
      <use xlink:href="#DejaVuSans-20" transform="translate(574.113281 0)"/>
      <use xlink:href="#DejaVuSans-69" transform="translate(605.900391 0)"/>
      <use xlink:href="#DejaVuSans-6e" transform="translate(633.683594 0)"/>
      <use xlink:href="#DejaVuSans-20" transform="translate(697.0625 0)"/>
      <use xlink:href="#DejaVuSans-b0" transform="translate(728.849609 0)"/>
      <use xlink:href="#DejaVuSans-43" transform="translate(778.849609 0)"/>
     </g>
    </g>
   </g>
   <g id="line2d_49">
    <path d="M 464.287785 307.785068 
L 481.779948 260.945813 
L 499.272111 230.520298 
L 516.764274 223.042109 
L 534.256437 288.012479 
L 551.7486 263.625106 
L 569.240763 237.278323 
L 586.732926 256.446224 
" clip-path="url(#p42cb35e220)" style="fill: none; stroke: #bb9af7; stroke-width: 2; stroke-linecap: square"/>
    <defs>
     <path id="mf105663ef1" d="M 0 2 
C 0.530406 2 1.03916 1.789267 1.414214 1.414214 
C 1.789267 1.03916 2 0.530406 2 0 
C 2 -0.530406 1.789267 -1.03916 1.414214 -1.414214 
C 1.03916 -1.789267 0.530406 -2 0 -2 
C -0.530406 -2 -1.03916 -1.789267 -1.414214 -1.414214 
C -1.789267 -1.03916 -2 -0.530406 -2 0 
C -2 0.530406 -1.789267 1.03916 -1.414214 1.414214 
C -1.03916 1.789267 -0.530406 2 0 2 
z
" style="stroke: #bb9af7"/>
    </defs>
    <g clip-path="url(#p42cb35e220)">
     <use xlink:href="#mf105663ef1" x="464.287785" y="307.785068" style="fill: #bb9af7; stroke: #bb9af7"/>
     <use xlink:href="#mf105663ef1" x="481.779948" y="260.945813" style="fill: #bb9af7; stroke: #bb9af7"/>
     <use xlink:href="#mf105663ef1" x="499.272111" y="230.520298" style="fill: #bb9af7; stroke: #bb9af7"/>
     <use xlink:href="#mf105663ef1" x="516.764274" y="223.042109" style="fill: #bb9af7; stroke: #bb9af7"/>
     <use xlink:href="#mf105663ef1" x="534.256437" y="288.012479" style="fill: #bb9af7; stroke: #bb9af7"/>
     <use xlink:href="#mf105663ef1" x="551.7486" y="263.625106" style="fill: #bb9af7; stroke: #bb9af7"/>
     <use xlink:href="#mf105663ef1" x="569.240763" y="237.278323" style="fill: #bb9af7; stroke: #bb9af7"/>
     <use xlink:href="#mf105663ef1" x="586.732926" y="256.446224" style="fill: #bb9af7; stroke: #bb9af7"/>
    </g>
   </g>
   <g id="line2d_50">
    <path d="M 271.873992 202.820053 
L 289.366155 216.030586 
L 306.858318 134.726883 
L 324.350481 178.563498 
L 341.842644 206.363097 
L 359.334807 248.161451 
L 376.82697 248.333327 
L 394.319133 172.261862 
L 411.811296 159.949928 
L 429.303459 239.375442 
L 446.795622 323.254455 
L 464.287785 229.131821 
L 481.779948 253.14499 
L 499.272111 296.095607 
L 516.764274 296.936759 
L 534.256437 273.718652 
L 551.7486 337.433056 
L 569.240763 336.874208 
L 586.732926 327.081655 
" clip-path="url(#p42cb35e220)" style="fill: none; stroke: #9ece6a; stroke-width: 2; stroke-linecap: square"/>
    <defs>
     <path id="m03771dff85" d="M 0 2 
C 0.530406 2 1.03916 1.789267 1.414214 1.414214 
C 1.789267 1.03916 2 0.530406 2 0 
C 2 -0.530406 1.789267 -1.03916 1.414214 -1.414214 
C 1.03916 -1.789267 0.530406 -2 0 -2 
C -0.530406 -2 -1.03916 -1.789267 -1.414214 -1.414214 
C -1.789267 -1.03916 -2 -0.530406 -2 0 
C -2 0.530406 -1.789267 1.03916 -1.414214 1.414214 
C -1.03916 1.789267 -0.530406 2 0 2 
z
" style="stroke: #9ece6a"/>
    </defs>
    <g clip-path="url(#p42cb35e220)">
     <use xlink:href="#m03771dff85" x="271.873992" y="202.820053" style="fill: #9ece6a; stroke: #9ece6a"/>
     <use xlink:href="#m03771dff85" x="289.366155" y="216.030586" style="fill: #9ece6a; stroke: #9ece6a"/>
     <use xlink:href="#m03771dff85" x="306.858318" y="134.726883" style="fill: #9ece6a; stroke: #9ece6a"/>
     <use xlink:href="#m03771dff85" x="324.350481" y="178.563498" style="fill: #9ece6a; stroke: #9ece6a"/>
     <use xlink:href="#m03771dff85" x="341.842644" y="206.363097" style="fill: #9ece6a; stroke: #9ece6a"/>
     <use xlink:href="#m03771dff85" x="359.334807" y="248.161451" style="fill: #9ece6a; stroke: #9ece6a"/>
     <use xlink:href="#m03771dff85" x="376.82697" y="248.333327" style="fill: #9ece6a; stroke: #9ece6a"/>
     <use xlink:href="#m03771dff85" x="394.319133" y="172.261862" style="fill: #9ece6a; stroke: #9ece6a"/>
     <use xlink:href="#m03771dff85" x="411.811296" y="159.949928" style="fill: #9ece6a; stroke: #9ece6a"/>
     <use xlink:href="#m03771dff85" x="429.303459" y="239.375442" style="fill: #9ece6a; stroke: #9ece6a"/>
     <use xlink:href="#m03771dff85" x="446.795622" y="323.254455" style="fill: #9ece6a; stroke: #9ece6a"/>
     <use xlink:href="#m03771dff85" x="464.287785" y="229.131821" style="fill: #9ece6a; stroke: #9ece6a"/>
     <use xlink:href="#m03771dff85" x="481.779948" y="253.14499" style="fill: #9ece6a; stroke: #9ece6a"/>
     <use xlink:href="#m03771dff85" x="499.272111" y="296.095607" style="fill: #9ece6a; stroke: #9ece6a"/>
     <use xlink:href="#m03771dff85" x="516.764274" y="296.936759" style="fill: #9ece6a; stroke: #9ece6a"/>
     <use xlink:href="#m03771dff85" x="534.256437" y="273.718652" style="fill: #9ece6a; stroke: #9ece6a"/>
     <use xlink:href="#m03771dff85" x="551.7486" y="337.433056" style="fill: #9ece6a; stroke: #9ece6a"/>
     <use xlink:href="#m03771dff85" x="569.240763" y="336.874208" style="fill: #9ece6a; stroke: #9ece6a"/>
     <use xlink:href="#m03771dff85" x="586.732926" y="327.081655" style="fill: #9ece6a; stroke: #9ece6a"/>
    </g>
   </g>
   <g id="line2d_51">
    <path d="M 79.460199 154.275031 
L 96.952362 199.916183 
L 114.444525 275.245401 
L 131.936688 264.310422 
L 149.428851 239.006718 
L 166.921014 241.939228 
L 184.413177 223.975442 
L 201.90534 224.655278 
L 219.397503 284.532644 
L 236.889666 313.759805 
L 254.381829 227.207541 
L 271.873992 246.807541 
L 289.366155 246.778735 
L 306.858318 227.893138 
L 324.350481 196.344167 
L 341.842644 215.586965 
L 359.334807 230.023661 
L 376.82697 270.289416 
L 394.319133 208.17215 
L 411.811296 278.368035 
L 429.303459 310.256924 
L 446.795622 306.419887 
L 464.287785 284.584496 
L 481.779948 148.755689 
L 499.272111 115.783673 
L 516.764274 165.699722 
L 534.256437 185.386142 
L 551.7486 203.712891 
L 569.240763 243.870093 
L 586.732926 323.087377 
" clip-path="url(#p42cb35e220)" style="fill: none; stroke: #2ac3de; stroke-width: 2; stroke-linecap: square"/>
    <defs>
     <path id="mfc851ed310" d="M 0 2 
C 0.530406 2 1.03916 1.789267 1.414214 1.414214 
C 1.789267 1.03916 2 0.530406 2 0 
C 2 -0.530406 1.789267 -1.03916 1.414214 -1.414214 
C 1.03916 -1.789267 0.530406 -2 0 -2 
C -0.530406 -2 -1.03916 -1.789267 -1.414214 -1.414214 
C -1.789267 -1.03916 -2 -0.530406 -2 0 
C -2 0.530406 -1.789267 1.03916 -1.414214 1.414214 
C -1.03916 1.789267 -0.530406 2 0 2 
z
" style="stroke: #2ac3de"/>
    </defs>
    <g clip-path="url(#p42cb35e220)">
     <use xlink:href="#mfc851ed310" x="79.460199" y="154.275031" style="fill: #2ac3de; stroke: #2ac3de"/>
     <use xlink:href="#mfc851ed310" x="96.952362" y="199.916183" style="fill: #2ac3de; stroke: #2ac3de"/>
     <use xlink:href="#mfc851ed310" x="114.444525" y="275.245401" style="fill: #2ac3de; stroke: #2ac3de"/>
     <use xlink:href="#mfc851ed310" x="131.936688" y="264.310422" style="fill: #2ac3de; stroke: #2ac3de"/>
     <use xlink:href="#mfc851ed310" x="149.428851" y="239.006718" style="fill: #2ac3de; stroke: #2ac3de"/>
     <use xlink:href="#mfc851ed310" x="166.921014" y="241.939228" style="fill: #2ac3de; stroke: #2ac3de"/>
     <use xlink:href="#mfc851ed310" x="184.413177" y="223.975442" style="fill: #2ac3de; stroke: #2ac3de"/>
     <use xlink:href="#mfc851ed310" x="201.90534" y="224.655278" style="fill: #2ac3de; stroke: #2ac3de"/>
     <use xlink:href="#mfc851ed310" x="219.397503" y="284.532644" style="fill: #2ac3de; stroke: #2ac3de"/>
     <use xlink:href="#mfc851ed310" x="236.889666" y="313.759805" style="fill: #2ac3de; stroke: #2ac3de"/>
     <use xlink:href="#mfc851ed310" x="254.381829" y="227.207541" style="fill: #2ac3de; stroke: #2ac3de"/>
     <use xlink:href="#mfc851ed310" x="271.873992" y="246.807541" style="fill: #2ac3de; stroke: #2ac3de"/>
     <use xlink:href="#mfc851ed310" x="289.366155" y="246.778735" style="fill: #2ac3de; stroke: #2ac3de"/>
     <use xlink:href="#mfc851ed310" x="306.858318" y="227.893138" style="fill: #2ac3de; stroke: #2ac3de"/>
     <use xlink:href="#mfc851ed310" x="324.350481" y="196.344167" style="fill: #2ac3de; stroke: #2ac3de"/>
     <use xlink:href="#mfc851ed310" x="341.842644" y="215.586965" style="fill: #2ac3de; stroke: #2ac3de"/>
     <use xlink:href="#mfc851ed310" x="359.334807" y="230.023661" style="fill: #2ac3de; stroke: #2ac3de"/>
     <use xlink:href="#mfc851ed310" x="376.82697" y="270.289416" style="fill: #2ac3de; stroke: #2ac3de"/>
     <use xlink:href="#mfc851ed310" x="394.319133" y="208.17215" style="fill: #2ac3de; stroke: #2ac3de"/>
     <use xlink:href="#mfc851ed310" x="411.811296" y="278.368035" style="fill: #2ac3de; stroke: #2ac3de"/>
     <use xlink:href="#mfc851ed310" x="429.303459" y="310.256924" style="fill: #2ac3de; stroke: #2ac3de"/>
     <use xlink:href="#mfc851ed310" x="446.795622" y="306.419887" style="fill: #2ac3de; stroke: #2ac3de"/>
     <use xlink:href="#mfc851ed310" x="464.287785" y="284.584496" style="fill: #2ac3de; stroke: #2ac3de"/>
     <use xlink:href="#mfc851ed310" x="481.779948" y="148.755689" style="fill: #2ac3de; stroke: #2ac3de"/>
     <use xlink:href="#mfc851ed310" x="499.272111" y="115.783673" style="fill: #2ac3de; stroke: #2ac3de"/>
     <use xlink:href="#mfc851ed310" x="516.764274" y="165.699722" style="fill: #2ac3de; stroke: #2ac3de"/>
     <use xlink:href="#mfc851ed310" x="534.256437" y="185.386142" style="fill: #2ac3de; stroke: #2ac3de"/>
     <use xlink:href="#mfc851ed310" x="551.7486" y="203.712891" style="fill: #2ac3de; stroke: #2ac3de"/>
     <use xlink:href="#mfc851ed310" x="569.240763" y="243.870093" style="fill: #2ac3de; stroke: #2ac3de"/>
     <use xlink:href="#mfc851ed310" x="586.732926" y="323.087377" style="fill: #2ac3de; stroke: #2ac3de"/>
    </g>
   </g>
   <g id="line2d_52">
    <path d="M 79.460199 122.242109 
L 96.952362 107.527706 
L 114.444525 147.914537 
L 131.936688 142.971327 
L 149.428851 183.893961 
L 166.921014 232.836348 
L 184.413177 252.810833 
L 201.90534 255.380381 
L 219.397503 186.902748 
L 236.889666 138.427617 
L 254.381829 130.344482 
L 271.873992 94.089689 
L 289.366155 54.4775 
L 306.858318 79.659199 
M 341.842644 130.803426 
L 359.334807 233.6775 
L 376.82697 259.923965 
L 394.319133 268.521944 
M 429.303459 323.438073 
L 446.795622 292.028117 
L 464.287785 356.8775 
M 499.272111 264.20787 
M 534.256437 249.294058 
L 551.7486 190.062685 
L 569.240763 177.6775 
L 586.732926 258.566389 
" clip-path="url(#p42cb35e220)" style="fill: none; stroke: #f7768e; stroke-width: 2; stroke-linecap: square"/>
    <defs>
     <path id="mfc617527c4" d="M 0 2 
C 0.530406 2 1.03916 1.789267 1.414214 1.414214 
C 1.789267 1.03916 2 0.530406 2 0 
C 2 -0.530406 1.789267 -1.03916 1.414214 -1.414214 
C 1.03916 -1.789267 0.530406 -2 0 -2 
C -0.530406 -2 -1.03916 -1.789267 -1.414214 -1.414214 
C -1.789267 -1.03916 -2 -0.530406 -2 0 
C -2 0.530406 -1.789267 1.03916 -1.414214 1.414214 
C -1.03916 1.789267 -0.530406 2 0 2 
z
" style="stroke: #f7768e"/>
    </defs>
    <g clip-path="url(#p42cb35e220)">
     <use xlink:href="#mfc617527c4" x="79.460199" y="122.242109" style="fill: #f7768e; stroke: #f7768e"/>
     <use xlink:href="#mfc617527c4" x="96.952362" y="107.527706" style="fill: #f7768e; stroke: #f7768e"/>
     <use xlink:href="#mfc617527c4" x="114.444525" y="147.914537" style="fill: #f7768e; stroke: #f7768e"/>
     <use xlink:href="#mfc617527c4" x="131.936688" y="142.971327" style="fill: #f7768e; stroke: #f7768e"/>
     <use xlink:href="#mfc617527c4" x="149.428851" y="183.893961" style="fill: #f7768e; stroke: #f7768e"/>
     <use xlink:href="#mfc617527c4" x="166.921014" y="232.836348" style="fill: #f7768e; stroke: #f7768e"/>
     <use xlink:href="#mfc617527c4" x="184.413177" y="252.810833" style="fill: #f7768e; stroke: #f7768e"/>
     <use xlink:href="#mfc617527c4" x="201.90534" y="255.380381" style="fill: #f7768e; stroke: #f7768e"/>
     <use xlink:href="#mfc617527c4" x="219.397503" y="186.902748" style="fill: #f7768e; stroke: #f7768e"/>
     <use xlink:href="#mfc617527c4" x="236.889666" y="138.427617" style="fill: #f7768e; stroke: #f7768e"/>
     <use xlink:href="#mfc617527c4" x="254.381829" y="130.344482" style="fill: #f7768e; stroke: #f7768e"/>
     <use xlink:href="#mfc617527c4" x="271.873992" y="94.089689" style="fill: #f7768e; stroke: #f7768e"/>
     <use xlink:href="#mfc617527c4" x="289.366155" y="54.4775" style="fill: #f7768e; stroke: #f7768e"/>
     <use xlink:href="#mfc617527c4" x="306.858318" y="79.659199" style="fill: #f7768e; stroke: #f7768e"/>
     <use xlink:href="#mfc617527c4" x="341.842644" y="130.803426" style="fill: #f7768e; stroke: #f7768e"/>
     <use xlink:href="#mfc617527c4" x="359.334807" y="233.6775" style="fill: #f7768e; stroke: #f7768e"/>
     <use xlink:href="#mfc617527c4" x="376.82697" y="259.923965" style="fill: #f7768e; stroke: #f7768e"/>
     <use xlink:href="#mfc617527c4" x="394.319133" y="268.521944" style="fill: #f7768e; stroke: #f7768e"/>
     <use xlink:href="#mfc617527c4" x="429.303459" y="323.438073" style="fill: #f7768e; stroke: #f7768e"/>
     <use xlink:href="#mfc617527c4" x="446.795622" y="292.028117" style="fill: #f7768e; stroke: #f7768e"/>
     <use xlink:href="#mfc617527c4" x="464.287785" y="356.8775" style="fill: #f7768e; stroke: #f7768e"/>
     <use xlink:href="#mfc617527c4" x="499.272111" y="264.20787" style="fill: #f7768e; stroke: #f7768e"/>
     <use xlink:href="#mfc617527c4" x="534.256437" y="249.294058" style="fill: #f7768e; stroke: #f7768e"/>
     <use xlink:href="#mfc617527c4" x="551.7486" y="190.062685" style="fill: #f7768e; stroke: #f7768e"/>
     <use xlink:href="#mfc617527c4" x="569.240763" y="177.6775" style="fill: #f7768e; stroke: #f7768e"/>
     <use xlink:href="#mfc617527c4" x="586.732926" y="258.566389" style="fill: #f7768e; stroke: #f7768e"/>
    </g>
   </g>
   <g id="patch_3">
    <path d="M 54.096563 371.9975 
L 54.096563 39.3575 
" style="fill: none; stroke: #a9b1d6; stroke-width: 0.8; stroke-linejoin: miter; stroke-linecap: square"/>
   </g>
   <g id="patch_4">
    <path d="M 612.096563 371.9975 
L 612.096563 39.3575 
" style="fill: none; stroke: #a9b1d6; stroke-width: 0.8; stroke-linejoin: miter; stroke-linecap: square"/>
   </g>
   <g id="patch_5">
    <path d="M 54.096563 371.9975 
L 612.096563 371.9975 
" style="fill: none; stroke: #a9b1d6; stroke-width: 0.8; stroke-linejoin: miter; stroke-linecap: square"/>
   </g>
   <g id="patch_6">
    <path d="M 54.096563 39.3575 
L 612.096563 39.3575 
" style="fill: none; stroke: #a9b1d6; stroke-width: 0.8; stroke-linejoin: miter; stroke-linecap: square"/>
   </g>
   <g id="text_27">
    <!-- November - Durchschnittswerte am Tag -->
    <g style="fill: #a9b1d6" transform="translate(174.189063 19.3575) scale(0.16 -0.16)">
     <defs>
      <path id="DejaVuSans-4e" d="M 628 4666 
L 1478 4666 
L 3547 763 
L 3547 4666 
L 4159 4666 
L 4159 0 
L 3309 0 
L 1241 3903 
L 1241 0 
L 628 0 
L 628 4666 
z
" transform="scale(0.015625)"/>
      <path id="DejaVuSans-76" d="M 191 3500 
L 800 3500 
L 1894 563 
L 2988 3500 
L 3597 3500 
L 2284 0 
L 1503 0 
L 191 3500 
z
" transform="scale(0.015625)"/>
      <path id="DejaVuSans-62" d="M 3116 1747 
Q 3116 2381 2855 2742 
Q 2594 3103 2138 3103 
Q 1681 3103 1420 2742 
Q 1159 2381 1159 1747 
Q 1159 1113 1420 752 
Q 1681 391 2138 391 
Q 2594 391 2855 752 
Q 3116 1113 3116 1747 
z
M 1159 2969 
Q 1341 3281 1617 3432 
Q 1894 3584 2278 3584 
Q 2916 3584 3314 3078 
Q 3713 2572 3713 1747 
Q 3713 922 3314 415 
Q 2916 -91 2278 -91 
Q 1894 -91 1617 61 
Q 1341 213 1159 525 
L 1159 0 
L 581 0 
L 581 4863 
L 1159 4863 
L 1159 2969 
z
" transform="scale(0.015625)"/>
      <path id="DejaVuSans-2d" d="M 313 2009 
L 1997 2009 
L 1997 1497 
L 313 1497 
L 313 2009 
z
" transform="scale(0.015625)"/>
      <path id="DejaVuSans-44" d="M 1259 4147 
L 1259 519 
L 2022 519 
Q 2988 519 3436 956 
Q 3884 1394 3884 2338 
Q 3884 3275 3436 3711 
Q 2988 4147 2022 4147 
L 1259 4147 
z
M 628 4666 
L 1925 4666 
Q 3281 4666 3915 4102 
Q 4550 3538 4550 2338 
Q 4550 1131 3912 565 
Q 3275 0 1925 0 
L 628 0 
L 628 4666 
z
" transform="scale(0.015625)"/>
      <path id="DejaVuSans-63" d="M 3122 3366 
L 3122 2828 
Q 2878 2963 2633 3030 
Q 2388 3097 2138 3097 
Q 1578 3097 1268 2742 
Q 959 2388 959 1747 
Q 959 1106 1268 751 
Q 1578 397 2138 397 
Q 2388 397 2633 464 
Q 2878 531 3122 666 
L 3122 134 
Q 2881 22 2623 -34 
Q 2366 -91 2075 -91 
Q 1284 -91 818 406 
Q 353 903 353 1747 
Q 353 2603 823 3093 
Q 1294 3584 2113 3584 
Q 2378 3584 2631 3529 
Q 2884 3475 3122 3366 
z
" transform="scale(0.015625)"/>
      <path id="DejaVuSans-68" d="M 3513 2113 
L 3513 0 
L 2938 0 
L 2938 2094 
Q 2938 2591 2744 2837 
Q 2550 3084 2163 3084 
Q 1697 3084 1428 2787 
Q 1159 2491 1159 1978 
L 1159 0 
L 581 0 
L 581 4863 
L 1159 4863 
L 1159 2956 
Q 1366 3272 1645 3428 
Q 1925 3584 2291 3584 
Q 2894 3584 3203 3211 
Q 3513 2838 3513 2113 
z
" transform="scale(0.015625)"/>
      <path id="DejaVuSans-77" d="M 269 3500 
L 844 3500 
L 1563 769 
L 2278 3500 
L 2956 3500 
L 3675 769 
L 4391 3500 
L 4966 3500 
L 4050 0 
L 3372 0 
L 2619 2869 
L 1863 0 
L 1184 0 
L 269 3500 
z
" transform="scale(0.015625)"/>
     </defs>
     <use xlink:href="#DejaVuSans-4e"/>
     <use xlink:href="#DejaVuSans-6f" transform="translate(74.804688 0)"/>
     <use xlink:href="#DejaVuSans-76" transform="translate(135.986328 0)"/>
     <use xlink:href="#DejaVuSans-65" transform="translate(195.166016 0)"/>
     <use xlink:href="#DejaVuSans-6d" transform="translate(256.689453 0)"/>
     <use xlink:href="#DejaVuSans-62" transform="translate(354.101562 0)"/>
     <use xlink:href="#DejaVuSans-65" transform="translate(417.578125 0)"/>
     <use xlink:href="#DejaVuSans-72" transform="translate(479.101562 0)"/>
     <use xlink:href="#DejaVuSans-20" transform="translate(520.214844 0)"/>
     <use xlink:href="#DejaVuSans-2d" transform="translate(552.001953 0)"/>
     <use xlink:href="#DejaVuSans-20" transform="translate(588.085938 0)"/>
     <use xlink:href="#DejaVuSans-44" transform="translate(619.873047 0)"/>
     <use xlink:href="#DejaVuSans-75" transform="translate(696.875 0)"/>
     <use xlink:href="#DejaVuSans-72" transform="translate(760.253906 0)"/>
     <use xlink:href="#DejaVuSans-63" transform="translate(799.117188 0)"/>
     <use xlink:href="#DejaVuSans-68" transform="translate(854.097656 0)"/>
     <use xlink:href="#DejaVuSans-73" transform="translate(917.476562 0)"/>
     <use xlink:href="#DejaVuSans-63" transform="translate(969.576172 0)"/>
     <use xlink:href="#DejaVuSans-68" transform="translate(1024.556641 0)"/>
     <use xlink:href="#DejaVuSans-6e" transform="translate(1087.935547 0)"/>
     <use xlink:href="#DejaVuSans-69" transform="translate(1151.314453 0)"/>
     <use xlink:href="#DejaVuSans-74" transform="translate(1179.097656 0)"/>
     <use xlink:href="#DejaVuSans-74" transform="translate(1218.306641 0)"/>
     <use xlink:href="#DejaVuSans-73" transform="translate(1257.515625 0)"/>
     <use xlink:href="#DejaVuSans-77" transform="translate(1309.615234 0)"/>
     <use xlink:href="#DejaVuSans-65" transform="translate(1391.402344 0)"/>
     <use xlink:href="#DejaVuSans-72" transform="translate(1452.925781 0)"/>
     <use xlink:href="#DejaVuSans-74" transform="translate(1494.039062 0)"/>
     <use xlink:href="#DejaVuSans-65" transform="translate(1533.248047 0)"/>
     <use xlink:href="#DejaVuSans-20" transform="translate(1594.771484 0)"/>
     <use xlink:href="#DejaVuSans-61" transform="translate(1626.558594 0)"/>
     <use xlink:href="#DejaVuSans-6d" transform="translate(1687.837891 0)"/>
     <use xlink:href="#DejaVuSans-20" transform="translate(1785.25 0)"/>
     <use xlink:href="#DejaVuSans-54" transform="translate(1817.037109 0)"/>
     <use xlink:href="#DejaVuSans-61" transform="translate(1861.621094 0)"/>
     <use xlink:href="#DejaVuSans-67" transform="translate(1922.900391 0)"/>
    </g>
   </g>
   <g id="legend_1">
    <g id="patch_7">
     <path d="M 547.646563 120.748125 
L 605.096563 120.748125 
Q 607.096563 120.748125 607.096563 118.748125 
L 607.096563 46.3575 
Q 607.096563 44.3575 605.096563 44.3575 
L 547.646563 44.3575 
Q 545.646563 44.3575 545.646563 46.3575 
L 545.646563 118.748125 
Q 545.646563 120.748125 547.646563 120.748125 
z
" style="fill: #1a1b26; opacity: 0.8; stroke: #a9b1d6; stroke-linejoin: miter"/>
    </g>
    <g id="text_28">
     <!-- Jahr -->
     <g style="fill: #a9b1d6" transform="translate(566.608281 55.955937) scale(0.1 -0.1)">
      <defs>
       <path id="DejaVuSans-4a" d="M 628 4666 
L 1259 4666 
L 1259 325 
Q 1259 -519 939 -900 
Q 619 -1281 -91 -1281 
L -331 -1281 
L -331 -750 
L -134 -750 
Q 284 -750 456 -515 
Q 628 -281 628 325 
L 628 4666 
z
" transform="scale(0.015625)"/>
      </defs>
      <use xlink:href="#DejaVuSans-4a"/>
      <use xlink:href="#DejaVuSans-61" transform="translate(29.492188 0)"/>
      <use xlink:href="#DejaVuSans-68" transform="translate(90.771484 0)"/>
      <use xlink:href="#DejaVuSans-72" transform="translate(154.150391 0)"/>
     </g>
    </g>
    <g id="line2d_53">
     <path d="M 549.646563 67.134062 
L 559.646563 67.134062 
L 569.646563 67.134062 
" style="fill: none; stroke: #bb9af7; stroke-width: 2; stroke-linecap: square"/>
     <g>
      <use xlink:href="#mf105663ef1" x="559.646563" y="67.134062" style="fill: #bb9af7; stroke: #bb9af7"/>
     </g>
    </g>
    <g id="text_29">
     <!-- 2022 -->
     <g style="fill: #a9b1d6" transform="translate(577.646563 70.634062) scale(0.1 -0.1)">
      <use xlink:href="#DejaVuSans-32"/>
      <use xlink:href="#DejaVuSans-30" transform="translate(63.623047 0)"/>
      <use xlink:href="#DejaVuSans-32" transform="translate(127.246094 0)"/>
      <use xlink:href="#DejaVuSans-32" transform="translate(190.869141 0)"/>
     </g>
    </g>
    <g id="line2d_54">
     <path d="M 549.646563 81.812187 
L 559.646563 81.812187 
L 569.646563 81.812187 
" style="fill: none; stroke: #9ece6a; stroke-width: 2; stroke-linecap: square"/>
     <g>
      <use xlink:href="#m03771dff85" x="559.646563" y="81.812187" style="fill: #9ece6a; stroke: #9ece6a"/>
     </g>
    </g>
    <g id="text_30">
     <!-- 2023 -->
     <g style="fill: #a9b1d6" transform="translate(577.646563 85.312187) scale(0.1 -0.1)">
      <use xlink:href="#DejaVuSans-32"/>
      <use xlink:href="#DejaVuSans-30" transform="translate(63.623047 0)"/>
      <use xlink:href="#DejaVuSans-32" transform="translate(127.246094 0)"/>
      <use xlink:href="#DejaVuSans-33" transform="translate(190.869141 0)"/>
     </g>
    </g>
    <g id="line2d_55">
     <path d="M 549.646563 96.490312 
L 559.646563 96.490312 
L 569.646563 96.490312 
" style="fill: none; stroke: #2ac3de; stroke-width: 2; stroke-linecap: square"/>
     <g>
      <use xlink:href="#mfc851ed310" x="559.646563" y="96.490312" style="fill: #2ac3de; stroke: #2ac3de"/>
     </g>
    </g>
    <g id="text_31">
     <!-- 2024 -->
     <g style="fill: #a9b1d6" transform="translate(577.646563 99.990312) scale(0.1 -0.1)">
      <defs>
       <path id="DejaVuSans-34" d="M 2419 4116 
L 825 1625 
L 2419 1625 
L 2419 4116 
z
M 2253 4666 
L 3047 4666 
L 3047 1625 
L 3713 1625 
L 3713 1100 
L 3047 1100 
L 3047 0 
L 2419 0 
L 2419 1100 
L 313 1100 
L 313 1709 
L 2253 4666 
z
" transform="scale(0.015625)"/>
      </defs>
      <use xlink:href="#DejaVuSans-32"/>
      <use xlink:href="#DejaVuSans-30" transform="translate(63.623047 0)"/>
      <use xlink:href="#DejaVuSans-32" transform="translate(127.246094 0)"/>
      <use xlink:href="#DejaVuSans-34" transform="translate(190.869141 0)"/>
     </g>
    </g>
    <g id="line2d_56">
     <path d="M 549.646563 111.168437 
L 559.646563 111.168437 
L 569.646563 111.168437 
" style="fill: none; stroke: #f7768e; stroke-width: 2; stroke-linecap: square"/>
     <g>
      <use xlink:href="#mfc617527c4" x="559.646563" y="111.168437" style="fill: #f7768e; stroke: #f7768e"/>
     </g>
    </g>
    <g id="text_32">
     <!-- 2025 -->
     <g style="fill: #a9b1d6" transform="translate(577.646563 114.668437) scale(0.1 -0.1)">
      <use xlink:href="#DejaVuSans-32"/>
      <use xlink:href="#DejaVuSans-30" transform="translate(63.623047 0)"/>
      <use xlink:href="#DejaVuSans-32" transform="translate(127.246094 0)"/>
      <use xlink:href="#DejaVuSans-35" transform="translate(190.869141 0)"/>
     </g>
    </g>
   </g>
  </g>
 </g>
 <defs>
  <clipPath id="p42cb35e220">
   <rect x="54.096563" y="39.3575" width="558" height="332.64"/>
  </clipPath>
 </defs>
</svg>
