<?xml version="1.0" encoding="utf-8" standalone="no"?>
<!DOCTYPE svg PUBLIC "-//W3C//DTD SVG 1.1//EN"
  "http://www.w3.org/Graphics/SVG/1.1/DTD/svg11.dtd">
<svg xmlns:xlink="http://www.w3.org/1999/xlink" width="614.182813pt" height="409.55375pt" viewBox="0 0 614.182813 409.55375" xmlns="http://www.w3.org/2000/svg" version="1.1">
 <metadata>
  <rdf:RDF xmlns:dc="http://purl.org/dc/elements/1.1/" xmlns:cc="http://creativecommons.org/ns#" xmlns:rdf="http://www.w3.org/1999/02/22-rdf-syntax-ns#">
   <cc:Work>
    <dc:type rdf:resource="http://purl.org/dc/dcmitype/StillImage"/>
    <dc:date>2026-04-26T14:38:56.891695</dc:date>
    <dc:format>image/svg+xml</dc:format>
    <dc:creator>
     <cc:Agent>
      <dc:title>Matplotlib v3.10.8, https://matplotlib.org/</dc:title>
     </cc:Agent>
    </dc:creator>
   </cc:Work>
  </rdf:RDF>
 </metadata>
 <defs>
  <style type="text/css">*{stroke-linejoin: round; stroke-linecap: butt}</style>
 </defs>
 <g id="figure_1">
  <g id="patch_1">
   <path d="M 0 409.55375 
L 614.182813 409.55375 
L 614.182813 0 
L 0 0 
z
" style="fill: #1a1b26"/>
  </g>
  <g id="axes_1">
   <g id="patch_2">
    <path d="M 48.982812 371.9975 
L 606.982813 371.9975 
L 606.982813 39.3575 
L 48.982812 39.3575 
z
" style="fill: #1a1b26"/>
   </g>
   <g id="matplotlib.axis_1">
    <g id="xtick_1">
     <g id="line2d_1">
      <path d="M 74.346449 371.9975 
L 74.346449 39.3575 
" clip-path="url(#p2823a6ff36)" style="fill: none; stroke-dasharray: 2.96,1.28; stroke-dashoffset: 0; stroke: #2f3549; stroke-opacity: 0.5; stroke-width: 0.8"/>
     </g>
     <g id="line2d_2">
      <defs>
       <path id="ma7f7f76b3a" d="M 0 0 
L 0 3.5 
" style="stroke: #a9b1d6; stroke-width: 0.8"/>
      </defs>
      <g>
       <use xlink:href="#ma7f7f76b3a" x="74.346449" y="371.9975" style="fill: #a9b1d6; stroke: #a9b1d6; stroke-width: 0.8"/>
      </g>
     </g>
     <g id="text_1">
      <!-- 1 -->
      <g style="fill: #a9b1d6" transform="translate(71.165199 386.595937) scale(0.1 -0.1)">
       <defs>
        <path id="DejaVuSans-31" d="M 794 531 
L 1825 531 
L 1825 4091 
L 703 3866 
L 703 4441 
L 1819 4666 
L 2450 4666 
L 2450 531 
L 3481 531 
L 3481 0 
L 794 0 
L 794 531 
z
" transform="scale(0.015625)"/>
       </defs>
       <use xlink:href="#DejaVuSans-31"/>
      </g>
     </g>
    </g>
    <g id="xtick_2">
     <g id="line2d_3">
      <path d="M 108.164631 371.9975 
L 108.164631 39.3575 
" clip-path="url(#p2823a6ff36)" style="fill: none; stroke-dasharray: 2.96,1.28; stroke-dashoffset: 0; stroke: #2f3549; stroke-opacity: 0.5; stroke-width: 0.8"/>
     </g>
     <g id="line2d_4">
      <g>
       <use xlink:href="#ma7f7f76b3a" x="108.164631" y="371.9975" style="fill: #a9b1d6; stroke: #a9b1d6; stroke-width: 0.8"/>
      </g>
     </g>
     <g id="text_2">
      <!-- 3 -->
      <g style="fill: #a9b1d6" transform="translate(104.983381 386.595937) scale(0.1 -0.1)">
       <defs>
        <path id="DejaVuSans-33" d="M 2597 2516 
Q 3050 2419 3304 2112 
Q 3559 1806 3559 1356 
Q 3559 666 3084 287 
Q 2609 -91 1734 -91 
Q 1441 -91 1130 -33 
Q 819 25 488 141 
L 488 750 
Q 750 597 1062 519 
Q 1375 441 1716 441 
Q 2309 441 2620 675 
Q 2931 909 2931 1356 
Q 2931 1769 2642 2001 
Q 2353 2234 1838 2234 
L 1294 2234 
L 1294 2753 
L 1863 2753 
Q 2328 2753 2575 2939 
Q 2822 3125 2822 3475 
Q 2822 3834 2567 4026 
Q 2313 4219 1838 4219 
Q 1578 4219 1281 4162 
Q 984 4106 628 3988 
L 628 4550 
Q 988 4650 1302 4700 
Q 1616 4750 1894 4750 
Q 2613 4750 3031 4423 
Q 3450 4097 3450 3541 
Q 3450 3153 3228 2886 
Q 3006 2619 2597 2516 
z
" transform="scale(0.015625)"/>
       </defs>
       <use xlink:href="#DejaVuSans-33"/>
      </g>
     </g>
    </g>
    <g id="xtick_3">
     <g id="line2d_5">
      <path d="M 141.982812 371.9975 
L 141.982812 39.3575 
" clip-path="url(#p2823a6ff36)" style="fill: none; stroke-dasharray: 2.96,1.28; stroke-dashoffset: 0; stroke: #2f3549; stroke-opacity: 0.5; stroke-width: 0.8"/>
     </g>
     <g id="line2d_6">
      <g>
       <use xlink:href="#ma7f7f76b3a" x="141.982812" y="371.9975" style="fill: #a9b1d6; stroke: #a9b1d6; stroke-width: 0.8"/>
      </g>
     </g>
     <g id="text_3">
      <!-- 5 -->
      <g style="fill: #a9b1d6" transform="translate(138.801562 386.595937) scale(0.1 -0.1)">
       <defs>
        <path id="DejaVuSans-35" d="M 691 4666 
L 3169 4666 
L 3169 4134 
L 1269 4134 
L 1269 2991 
Q 1406 3038 1543 3061 
Q 1681 3084 1819 3084 
Q 2600 3084 3056 2656 
Q 3513 2228 3513 1497 
Q 3513 744 3044 326 
Q 2575 -91 1722 -91 
Q 1428 -91 1123 -41 
Q 819 9 494 109 
L 494 744 
Q 775 591 1075 516 
Q 1375 441 1709 441 
Q 2250 441 2565 725 
Q 2881 1009 2881 1497 
Q 2881 1984 2565 2268 
Q 2250 2553 1709 2553 
Q 1456 2553 1204 2497 
Q 953 2441 691 2322 
L 691 4666 
z
" transform="scale(0.015625)"/>
       </defs>
       <use xlink:href="#DejaVuSans-35"/>
      </g>
     </g>
    </g>
    <g id="xtick_4">
     <g id="line2d_7">
      <path d="M 175.800994 371.9975 
L 175.800994 39.3575 
" clip-path="url(#p2823a6ff36)" style="fill: none; stroke-dasharray: 2.96,1.28; stroke-dashoffset: 0; stroke: #2f3549; stroke-opacity: 0.5; stroke-width: 0.8"/>
     </g>
     <g id="line2d_8">
      <g>
       <use xlink:href="#ma7f7f76b3a" x="175.800994" y="371.9975" style="fill: #a9b1d6; stroke: #a9b1d6; stroke-width: 0.8"/>
      </g>
     </g>
     <g id="text_4">
      <!-- 7 -->
      <g style="fill: #a9b1d6" transform="translate(172.619744 386.595937) scale(0.1 -0.1)">
       <defs>
        <path id="DejaVuSans-37" d="M 525 4666 
L 3525 4666 
L 3525 4397 
L 1831 0 
L 1172 0 
L 2766 4134 
L 525 4134 
L 525 4666 
z
" transform="scale(0.015625)"/>
       </defs>
       <use xlink:href="#DejaVuSans-37"/>
      </g>
     </g>
    </g>
    <g id="xtick_5">
     <g id="line2d_9">
      <path d="M 209.619176 371.9975 
L 209.619176 39.3575 
" clip-path="url(#p2823a6ff36)" style="fill: none; stroke-dasharray: 2.96,1.28; stroke-dashoffset: 0; stroke: #2f3549; stroke-opacity: 0.5; stroke-width: 0.8"/>
     </g>
     <g id="line2d_10">
      <g>
       <use xlink:href="#ma7f7f76b3a" x="209.619176" y="371.9975" style="fill: #a9b1d6; stroke: #a9b1d6; stroke-width: 0.8"/>
      </g>
     </g>
     <g id="text_5">
      <!-- 9 -->
      <g style="fill: #a9b1d6" transform="translate(206.437926 386.595937) scale(0.1 -0.1)">
       <defs>
        <path id="DejaVuSans-39" d="M 703 97 
L 703 672 
Q 941 559 1184 500 
Q 1428 441 1663 441 
Q 2288 441 2617 861 
Q 2947 1281 2994 2138 
Q 2813 1869 2534 1725 
Q 2256 1581 1919 1581 
Q 1219 1581 811 2004 
Q 403 2428 403 3163 
Q 403 3881 828 4315 
Q 1253 4750 1959 4750 
Q 2769 4750 3195 4129 
Q 3622 3509 3622 2328 
Q 3622 1225 3098 567 
Q 2575 -91 1691 -91 
Q 1453 -91 1209 -44 
Q 966 3 703 97 
z
M 1959 2075 
Q 2384 2075 2632 2365 
Q 2881 2656 2881 3163 
Q 2881 3666 2632 3958 
Q 2384 4250 1959 4250 
Q 1534 4250 1286 3958 
Q 1038 3666 1038 3163 
Q 1038 2656 1286 2365 
Q 1534 2075 1959 2075 
z
" transform="scale(0.015625)"/>
       </defs>
       <use xlink:href="#DejaVuSans-39"/>
      </g>
     </g>
    </g>
    <g id="xtick_6">
     <g id="line2d_11">
      <path d="M 243.437358 371.9975 
L 243.437358 39.3575 
" clip-path="url(#p2823a6ff36)" style="fill: none; stroke-dasharray: 2.96,1.28; stroke-dashoffset: 0; stroke: #2f3549; stroke-opacity: 0.5; stroke-width: 0.8"/>
     </g>
     <g id="line2d_12">
      <g>
       <use xlink:href="#ma7f7f76b3a" x="243.437358" y="371.9975" style="fill: #a9b1d6; stroke: #a9b1d6; stroke-width: 0.8"/>
      </g>
     </g>
     <g id="text_6">
      <!-- 11 -->
      <g style="fill: #a9b1d6" transform="translate(237.074858 386.595937) scale(0.1 -0.1)">
       <use xlink:href="#DejaVuSans-31"/>
       <use xlink:href="#DejaVuSans-31" transform="translate(63.623047 0)"/>
      </g>
     </g>
    </g>
    <g id="xtick_7">
     <g id="line2d_13">
      <path d="M 277.25554 371.9975 
L 277.25554 39.3575 
" clip-path="url(#p2823a6ff36)" style="fill: none; stroke-dasharray: 2.96,1.28; stroke-dashoffset: 0; stroke: #2f3549; stroke-opacity: 0.5; stroke-width: 0.8"/>
     </g>
     <g id="line2d_14">
      <g>
       <use xlink:href="#ma7f7f76b3a" x="277.25554" y="371.9975" style="fill: #a9b1d6; stroke: #a9b1d6; stroke-width: 0.8"/>
      </g>
     </g>
     <g id="text_7">
      <!-- 13 -->
      <g style="fill: #a9b1d6" transform="translate(270.89304 386.595937) scale(0.1 -0.1)">
       <use xlink:href="#DejaVuSans-31"/>
       <use xlink:href="#DejaVuSans-33" transform="translate(63.623047 0)"/>
      </g>
     </g>
    </g>
    <g id="xtick_8">
     <g id="line2d_15">
      <path d="M 311.073722 371.9975 
L 311.073722 39.3575 
" clip-path="url(#p2823a6ff36)" style="fill: none; stroke-dasharray: 2.96,1.28; stroke-dashoffset: 0; stroke: #2f3549; stroke-opacity: 0.5; stroke-width: 0.8"/>
     </g>
     <g id="line2d_16">
      <g>
       <use xlink:href="#ma7f7f76b3a" x="311.073722" y="371.9975" style="fill: #a9b1d6; stroke: #a9b1d6; stroke-width: 0.8"/>
      </g>
     </g>
     <g id="text_8">
      <!-- 15 -->
      <g style="fill: #a9b1d6" transform="translate(304.711222 386.595937) scale(0.1 -0.1)">
       <use xlink:href="#DejaVuSans-31"/>
       <use xlink:href="#DejaVuSans-35" transform="translate(63.623047 0)"/>
      </g>
     </g>
    </g>
    <g id="xtick_9">
     <g id="line2d_17">
      <path d="M 344.891903 371.9975 
L 344.891903 39.3575 
" clip-path="url(#p2823a6ff36)" style="fill: none; stroke-dasharray: 2.96,1.28; stroke-dashoffset: 0; stroke: #2f3549; stroke-opacity: 0.5; stroke-width: 0.8"/>
     </g>
     <g id="line2d_18">
      <g>
       <use xlink:href="#ma7f7f76b3a" x="344.891903" y="371.9975" style="fill: #a9b1d6; stroke: #a9b1d6; stroke-width: 0.8"/>
      </g>
     </g>
     <g id="text_9">
      <!-- 17 -->
      <g style="fill: #a9b1d6" transform="translate(338.529403 386.595937) scale(0.1 -0.1)">
       <use xlink:href="#DejaVuSans-31"/>
       <use xlink:href="#DejaVuSans-37" transform="translate(63.623047 0)"/>
      </g>
     </g>
    </g>
    <g id="xtick_10">
     <g id="line2d_19">
      <path d="M 378.710085 371.9975 
L 378.710085 39.3575 
" clip-path="url(#p2823a6ff36)" style="fill: none; stroke-dasharray: 2.96,1.28; stroke-dashoffset: 0; stroke: #2f3549; stroke-opacity: 0.5; stroke-width: 0.8"/>
     </g>
     <g id="line2d_20">
      <g>
       <use xlink:href="#ma7f7f76b3a" x="378.710085" y="371.9975" style="fill: #a9b1d6; stroke: #a9b1d6; stroke-width: 0.8"/>
      </g>
     </g>
     <g id="text_10">
      <!-- 19 -->
      <g style="fill: #a9b1d6" transform="translate(372.347585 386.595937) scale(0.1 -0.1)">
       <use xlink:href="#DejaVuSans-31"/>
       <use xlink:href="#DejaVuSans-39" transform="translate(63.623047 0)"/>
      </g>
     </g>
    </g>
    <g id="xtick_11">
     <g id="line2d_21">
      <path d="M 412.528267 371.9975 
L 412.528267 39.3575 
" clip-path="url(#p2823a6ff36)" style="fill: none; stroke-dasharray: 2.96,1.28; stroke-dashoffset: 0; stroke: #2f3549; stroke-opacity: 0.5; stroke-width: 0.8"/>
     </g>
     <g id="line2d_22">
      <g>
       <use xlink:href="#ma7f7f76b3a" x="412.528267" y="371.9975" style="fill: #a9b1d6; stroke: #a9b1d6; stroke-width: 0.8"/>
      </g>
     </g>
     <g id="text_11">
      <!-- 21 -->
      <g style="fill: #a9b1d6" transform="translate(406.165767 386.595937) scale(0.1 -0.1)">
       <defs>
        <path id="DejaVuSans-32" d="M 1228 531 
L 3431 531 
L 3431 0 
L 469 0 
L 469 531 
Q 828 903 1448 1529 
Q 2069 2156 2228 2338 
Q 2531 2678 2651 2914 
Q 2772 3150 2772 3378 
Q 2772 3750 2511 3984 
Q 2250 4219 1831 4219 
Q 1534 4219 1204 4116 
Q 875 4013 500 3803 
L 500 4441 
Q 881 4594 1212 4672 
Q 1544 4750 1819 4750 
Q 2544 4750 2975 4387 
Q 3406 4025 3406 3419 
Q 3406 3131 3298 2873 
Q 3191 2616 2906 2266 
Q 2828 2175 2409 1742 
Q 1991 1309 1228 531 
z
" transform="scale(0.015625)"/>
       </defs>
       <use xlink:href="#DejaVuSans-32"/>
       <use xlink:href="#DejaVuSans-31" transform="translate(63.623047 0)"/>
      </g>
     </g>
    </g>
    <g id="xtick_12">
     <g id="line2d_23">
      <path d="M 446.346449 371.9975 
L 446.346449 39.3575 
" clip-path="url(#p2823a6ff36)" style="fill: none; stroke-dasharray: 2.96,1.28; stroke-dashoffset: 0; stroke: #2f3549; stroke-opacity: 0.5; stroke-width: 0.8"/>
     </g>
     <g id="line2d_24">
      <g>
       <use xlink:href="#ma7f7f76b3a" x="446.346449" y="371.9975" style="fill: #a9b1d6; stroke: #a9b1d6; stroke-width: 0.8"/>
      </g>
     </g>
     <g id="text_12">
      <!-- 23 -->
      <g style="fill: #a9b1d6" transform="translate(439.983949 386.595937) scale(0.1 -0.1)">
       <use xlink:href="#DejaVuSans-32"/>
       <use xlink:href="#DejaVuSans-33" transform="translate(63.623047 0)"/>
      </g>
     </g>
    </g>
    <g id="xtick_13">
     <g id="line2d_25">
      <path d="M 480.164631 371.9975 
L 480.164631 39.3575 
" clip-path="url(#p2823a6ff36)" style="fill: none; stroke-dasharray: 2.96,1.28; stroke-dashoffset: 0; stroke: #2f3549; stroke-opacity: 0.5; stroke-width: 0.8"/>
     </g>
     <g id="line2d_26">
      <g>
       <use xlink:href="#ma7f7f76b3a" x="480.164631" y="371.9975" style="fill: #a9b1d6; stroke: #a9b1d6; stroke-width: 0.8"/>
      </g>
     </g>
     <g id="text_13">
      <!-- 25 -->
      <g style="fill: #a9b1d6" transform="translate(473.802131 386.595937) scale(0.1 -0.1)">
       <use xlink:href="#DejaVuSans-32"/>
       <use xlink:href="#DejaVuSans-35" transform="translate(63.623047 0)"/>
      </g>
     </g>
    </g>
    <g id="xtick_14">
     <g id="line2d_27">
      <path d="M 513.982813 371.9975 
L 513.982813 39.3575 
" clip-path="url(#p2823a6ff36)" style="fill: none; stroke-dasharray: 2.96,1.28; stroke-dashoffset: 0; stroke: #2f3549; stroke-opacity: 0.5; stroke-width: 0.8"/>
     </g>
     <g id="line2d_28">
      <g>
       <use xlink:href="#ma7f7f76b3a" x="513.982813" y="371.9975" style="fill: #a9b1d6; stroke: #a9b1d6; stroke-width: 0.8"/>
      </g>
     </g>
     <g id="text_14">
      <!-- 27 -->
      <g style="fill: #a9b1d6" transform="translate(507.620313 386.595937) scale(0.1 -0.1)">
       <use xlink:href="#DejaVuSans-32"/>
       <use xlink:href="#DejaVuSans-37" transform="translate(63.623047 0)"/>
      </g>
     </g>
    </g>
    <g id="xtick_15">
     <g id="line2d_29">
      <path d="M 547.800994 371.9975 
L 547.800994 39.3575 
" clip-path="url(#p2823a6ff36)" style="fill: none; stroke-dasharray: 2.96,1.28; stroke-dashoffset: 0; stroke: #2f3549; stroke-opacity: 0.5; stroke-width: 0.8"/>
     </g>
     <g id="line2d_30">
      <g>
       <use xlink:href="#ma7f7f76b3a" x="547.800994" y="371.9975" style="fill: #a9b1d6; stroke: #a9b1d6; stroke-width: 0.8"/>
      </g>
     </g>
     <g id="text_15">
      <!-- 29 -->
      <g style="fill: #a9b1d6" transform="translate(541.438494 386.595937) scale(0.1 -0.1)">
       <use xlink:href="#DejaVuSans-32"/>
       <use xlink:href="#DejaVuSans-39" transform="translate(63.623047 0)"/>
      </g>
     </g>
    </g>
    <g id="xtick_16">
     <g id="line2d_31">
      <path d="M 581.619176 371.9975 
L 581.619176 39.3575 
" clip-path="url(#p2823a6ff36)" style="fill: none; stroke-dasharray: 2.96,1.28; stroke-dashoffset: 0; stroke: #2f3549; stroke-opacity: 0.5; stroke-width: 0.8"/>
     </g>
     <g id="line2d_32">
      <g>
       <use xlink:href="#ma7f7f76b3a" x="581.619176" y="371.9975" style="fill: #a9b1d6; stroke: #a9b1d6; stroke-width: 0.8"/>
      </g>
     </g>
     <g id="text_16">
      <!-- 31 -->
      <g style="fill: #a9b1d6" transform="translate(575.256676 386.595937) scale(0.1 -0.1)">
       <use xlink:href="#DejaVuSans-33"/>
       <use xlink:href="#DejaVuSans-31" transform="translate(63.623047 0)"/>
      </g>
     </g>
    </g>
    <g id="text_17">
     <!-- Tag des Monats -->
     <g style="fill: #a9b1d6" transform="translate(289.310938 400.274062) scale(0.1 -0.1)">
      <defs>
       <path id="DejaVuSans-54" d="M -19 4666 
L 3928 4666 
L 3928 4134 
L 2272 4134 
L 2272 0 
L 1638 0 
L 1638 4134 
L -19 4134 
L -19 4666 
z
" transform="scale(0.015625)"/>
       <path id="DejaVuSans-61" d="M 2194 1759 
Q 1497 1759 1228 1600 
Q 959 1441 959 1056 
Q 959 750 1161 570 
Q 1363 391 1709 391 
Q 2188 391 2477 730 
Q 2766 1069 2766 1631 
L 2766 1759 
L 2194 1759 
z
M 3341 1997 
L 3341 0 
L 2766 0 
L 2766 531 
Q 2569 213 2275 61 
Q 1981 -91 1556 -91 
Q 1019 -91 701 211 
Q 384 513 384 1019 
Q 384 1609 779 1909 
Q 1175 2209 1959 2209 
L 2766 2209 
L 2766 2266 
Q 2766 2663 2505 2880 
Q 2244 3097 1772 3097 
Q 1472 3097 1187 3025 
Q 903 2953 641 2809 
L 641 3341 
Q 956 3463 1253 3523 
Q 1550 3584 1831 3584 
Q 2591 3584 2966 3190 
Q 3341 2797 3341 1997 
z
" transform="scale(0.015625)"/>
       <path id="DejaVuSans-67" d="M 2906 1791 
Q 2906 2416 2648 2759 
Q 2391 3103 1925 3103 
Q 1463 3103 1205 2759 
Q 947 2416 947 1791 
Q 947 1169 1205 825 
Q 1463 481 1925 481 
Q 2391 481 2648 825 
Q 2906 1169 2906 1791 
z
M 3481 434 
Q 3481 -459 3084 -895 
Q 2688 -1331 1869 -1331 
Q 1566 -1331 1297 -1286 
Q 1028 -1241 775 -1147 
L 775 -588 
Q 1028 -725 1275 -790 
Q 1522 -856 1778 -856 
Q 2344 -856 2625 -561 
Q 2906 -266 2906 331 
L 2906 616 
Q 2728 306 2450 153 
Q 2172 0 1784 0 
Q 1141 0 747 490 
Q 353 981 353 1791 
Q 353 2603 747 3093 
Q 1141 3584 1784 3584 
Q 2172 3584 2450 3431 
Q 2728 3278 2906 2969 
L 2906 3500 
L 3481 3500 
L 3481 434 
z
" transform="scale(0.015625)"/>
       <path id="DejaVuSans-20" transform="scale(0.015625)"/>
       <path id="DejaVuSans-64" d="M 2906 2969 
L 2906 4863 
L 3481 4863 
L 3481 0 
L 2906 0 
L 2906 525 
Q 2725 213 2448 61 
Q 2172 -91 1784 -91 
Q 1150 -91 751 415 
Q 353 922 353 1747 
Q 353 2572 751 3078 
Q 1150 3584 1784 3584 
Q 2172 3584 2448 3432 
Q 2725 3281 2906 2969 
z
M 947 1747 
Q 947 1113 1208 752 
Q 1469 391 1925 391 
Q 2381 391 2643 752 
Q 2906 1113 2906 1747 
Q 2906 2381 2643 2742 
Q 2381 3103 1925 3103 
Q 1469 3103 1208 2742 
Q 947 2381 947 1747 
z
" transform="scale(0.015625)"/>
       <path id="DejaVuSans-65" d="M 3597 1894 
L 3597 1613 
L 953 1613 
Q 991 1019 1311 708 
Q 1631 397 2203 397 
Q 2534 397 2845 478 
Q 3156 559 3463 722 
L 3463 178 
Q 3153 47 2828 -22 
Q 2503 -91 2169 -91 
Q 1331 -91 842 396 
Q 353 884 353 1716 
Q 353 2575 817 3079 
Q 1281 3584 2069 3584 
Q 2775 3584 3186 3129 
Q 3597 2675 3597 1894 
z
M 3022 2063 
Q 3016 2534 2758 2815 
Q 2500 3097 2075 3097 
Q 1594 3097 1305 2825 
Q 1016 2553 972 2059 
L 3022 2063 
z
" transform="scale(0.015625)"/>
       <path id="DejaVuSans-73" d="M 2834 3397 
L 2834 2853 
Q 2591 2978 2328 3040 
Q 2066 3103 1784 3103 
Q 1356 3103 1142 2972 
Q 928 2841 928 2578 
Q 928 2378 1081 2264 
Q 1234 2150 1697 2047 
L 1894 2003 
Q 2506 1872 2764 1633 
Q 3022 1394 3022 966 
Q 3022 478 2636 193 
Q 2250 -91 1575 -91 
Q 1294 -91 989 -36 
Q 684 19 347 128 
L 347 722 
Q 666 556 975 473 
Q 1284 391 1588 391 
Q 1994 391 2212 530 
Q 2431 669 2431 922 
Q 2431 1156 2273 1281 
Q 2116 1406 1581 1522 
L 1381 1569 
Q 847 1681 609 1914 
Q 372 2147 372 2553 
Q 372 3047 722 3315 
Q 1072 3584 1716 3584 
Q 2034 3584 2315 3537 
Q 2597 3491 2834 3397 
z
" transform="scale(0.015625)"/>
       <path id="DejaVuSans-4d" d="M 628 4666 
L 1569 4666 
L 2759 1491 
L 3956 4666 
L 4897 4666 
L 4897 0 
L 4281 0 
L 4281 4097 
L 3078 897 
L 2444 897 
L 1241 4097 
L 1241 0 
L 628 0 
L 628 4666 
z
" transform="scale(0.015625)"/>
       <path id="DejaVuSans-6f" d="M 1959 3097 
Q 1497 3097 1228 2736 
Q 959 2375 959 1747 
Q 959 1119 1226 758 
Q 1494 397 1959 397 
Q 2419 397 2687 759 
Q 2956 1122 2956 1747 
Q 2956 2369 2687 2733 
Q 2419 3097 1959 3097 
z
M 1959 3584 
Q 2709 3584 3137 3096 
Q 3566 2609 3566 1747 
Q 3566 888 3137 398 
Q 2709 -91 1959 -91 
Q 1206 -91 779 398 
Q 353 888 353 1747 
Q 353 2609 779 3096 
Q 1206 3584 1959 3584 
z
" transform="scale(0.015625)"/>
       <path id="DejaVuSans-6e" d="M 3513 2113 
L 3513 0 
L 2938 0 
L 2938 2094 
Q 2938 2591 2744 2837 
Q 2550 3084 2163 3084 
Q 1697 3084 1428 2787 
Q 1159 2491 1159 1978 
L 1159 0 
L 581 0 
L 581 3500 
L 1159 3500 
L 1159 2956 
Q 1366 3272 1645 3428 
Q 1925 3584 2291 3584 
Q 2894 3584 3203 3211 
Q 3513 2838 3513 2113 
z
" transform="scale(0.015625)"/>
       <path id="DejaVuSans-74" d="M 1172 4494 
L 1172 3500 
L 2356 3500 
L 2356 3053 
L 1172 3053 
L 1172 1153 
Q 1172 725 1289 603 
Q 1406 481 1766 481 
L 2356 481 
L 2356 0 
L 1766 0 
Q 1100 0 847 248 
Q 594 497 594 1153 
L 594 3053 
L 172 3053 
L 172 3500 
L 594 3500 
L 594 4494 
L 1172 4494 
z
" transform="scale(0.015625)"/>
      </defs>
      <use xlink:href="#DejaVuSans-54"/>
      <use xlink:href="#DejaVuSans-61" transform="translate(44.583984 0)"/>
      <use xlink:href="#DejaVuSans-67" transform="translate(105.863281 0)"/>
      <use xlink:href="#DejaVuSans-20" transform="translate(169.339844 0)"/>
      <use xlink:href="#DejaVuSans-64" transform="translate(201.126953 0)"/>
      <use xlink:href="#DejaVuSans-65" transform="translate(264.603516 0)"/>
      <use xlink:href="#DejaVuSans-73" transform="translate(326.126953 0)"/>
      <use xlink:href="#DejaVuSans-20" transform="translate(378.226562 0)"/>
      <use xlink:href="#DejaVuSans-4d" transform="translate(410.013672 0)"/>
      <use xlink:href="#DejaVuSans-6f" transform="translate(496.292969 0)"/>
      <use xlink:href="#DejaVuSans-6e" transform="translate(557.474609 0)"/>
      <use xlink:href="#DejaVuSans-61" transform="translate(620.853516 0)"/>
      <use xlink:href="#DejaVuSans-74" transform="translate(682.132812 0)"/>
      <use xlink:href="#DejaVuSans-73" transform="translate(721.341797 0)"/>
     </g>
    </g>
   </g>
   <g id="matplotlib.axis_2">
    <g id="ytick_1">
     <g id="line2d_33">
      <path d="M 48.982812 329.200212 
L 606.982813 329.200212 
" clip-path="url(#p2823a6ff36)" style="fill: none; stroke-dasharray: 2.96,1.28; stroke-dashoffset: 0; stroke: #2f3549; stroke-opacity: 0.5; stroke-width: 0.8"/>
     </g>
     <g id="line2d_34">
      <defs>
       <path id="me0114509e7" d="M 0 0 
L -3.5 0 
" style="stroke: #a9b1d6; stroke-width: 0.8"/>
      </defs>
      <g>
       <use xlink:href="#me0114509e7" x="48.982812" y="329.200212" style="fill: #a9b1d6; stroke: #a9b1d6; stroke-width: 0.8"/>
      </g>
     </g>
     <g id="text_18">
      <!-- −15 -->
      <g style="fill: #a9b1d6" transform="translate(20.878125 332.999431) scale(0.1 -0.1)">
       <defs>
        <path id="DejaVuSans-2212" d="M 678 2272 
L 4684 2272 
L 4684 1741 
L 678 1741 
L 678 2272 
z
" transform="scale(0.015625)"/>
       </defs>
       <use xlink:href="#DejaVuSans-2212"/>
       <use xlink:href="#DejaVuSans-31" transform="translate(83.789062 0)"/>
       <use xlink:href="#DejaVuSans-35" transform="translate(147.412109 0)"/>
      </g>
     </g>
    </g>
    <g id="ytick_2">
     <g id="line2d_35">
      <path d="M 48.982812 277.945975 
L 606.982813 277.945975 
" clip-path="url(#p2823a6ff36)" style="fill: none; stroke-dasharray: 2.96,1.28; stroke-dashoffset: 0; stroke: #2f3549; stroke-opacity: 0.5; stroke-width: 0.8"/>
     </g>
     <g id="line2d_36">
      <g>
       <use xlink:href="#me0114509e7" x="48.982812" y="277.945975" style="fill: #a9b1d6; stroke: #a9b1d6; stroke-width: 0.8"/>
      </g>
     </g>
     <g id="text_19">
      <!-- −10 -->
      <g style="fill: #a9b1d6" transform="translate(20.878125 281.745193) scale(0.1 -0.1)">
       <defs>
        <path id="DejaVuSans-30" d="M 2034 4250 
Q 1547 4250 1301 3770 
Q 1056 3291 1056 2328 
Q 1056 1369 1301 889 
Q 1547 409 2034 409 
Q 2525 409 2770 889 
Q 3016 1369 3016 2328 
Q 3016 3291 2770 3770 
Q 2525 4250 2034 4250 
z
M 2034 4750 
Q 2819 4750 3233 4129 
Q 3647 3509 3647 2328 
Q 3647 1150 3233 529 
Q 2819 -91 2034 -91 
Q 1250 -91 836 529 
Q 422 1150 422 2328 
Q 422 3509 836 4129 
Q 1250 4750 2034 4750 
z
" transform="scale(0.015625)"/>
       </defs>
       <use xlink:href="#DejaVuSans-2212"/>
       <use xlink:href="#DejaVuSans-31" transform="translate(83.789062 0)"/>
       <use xlink:href="#DejaVuSans-30" transform="translate(147.412109 0)"/>
      </g>
     </g>
    </g>
    <g id="ytick_3">
     <g id="line2d_37">
      <path d="M 48.982812 226.691737 
L 606.982813 226.691737 
" clip-path="url(#p2823a6ff36)" style="fill: none; stroke-dasharray: 2.96,1.28; stroke-dashoffset: 0; stroke: #2f3549; stroke-opacity: 0.5; stroke-width: 0.8"/>
     </g>
     <g id="line2d_38">
      <g>
       <use xlink:href="#me0114509e7" x="48.982812" y="226.691737" style="fill: #a9b1d6; stroke: #a9b1d6; stroke-width: 0.8"/>
      </g>
     </g>
     <g id="text_20">
      <!-- −5 -->
      <g style="fill: #a9b1d6" transform="translate(27.240625 230.490956) scale(0.1 -0.1)">
       <use xlink:href="#DejaVuSans-2212"/>
       <use xlink:href="#DejaVuSans-35" transform="translate(83.789062 0)"/>
      </g>
     </g>
    </g>
    <g id="ytick_4">
     <g id="line2d_39">
      <path d="M 48.982812 175.4375 
L 606.982813 175.4375 
" clip-path="url(#p2823a6ff36)" style="fill: none; stroke-dasharray: 2.96,1.28; stroke-dashoffset: 0; stroke: #2f3549; stroke-opacity: 0.5; stroke-width: 0.8"/>
     </g>
     <g id="line2d_40">
      <g>
       <use xlink:href="#me0114509e7" x="48.982812" y="175.4375" style="fill: #a9b1d6; stroke: #a9b1d6; stroke-width: 0.8"/>
      </g>
     </g>
     <g id="text_21">
      <!-- 0 -->
      <g style="fill: #a9b1d6" transform="translate(35.620312 179.236719) scale(0.1 -0.1)">
       <use xlink:href="#DejaVuSans-30"/>
      </g>
     </g>
    </g>
    <g id="ytick_5">
     <g id="line2d_41">
      <path d="M 48.982812 124.183263 
L 606.982813 124.183263 
" clip-path="url(#p2823a6ff36)" style="fill: none; stroke-dasharray: 2.96,1.28; stroke-dashoffset: 0; stroke: #2f3549; stroke-opacity: 0.5; stroke-width: 0.8"/>
     </g>
     <g id="line2d_42">
      <g>
       <use xlink:href="#me0114509e7" x="48.982812" y="124.183263" style="fill: #a9b1d6; stroke: #a9b1d6; stroke-width: 0.8"/>
      </g>
     </g>
     <g id="text_22">
      <!-- 5 -->
      <g style="fill: #a9b1d6" transform="translate(35.620312 127.982481) scale(0.1 -0.1)">
       <use xlink:href="#DejaVuSans-35"/>
      </g>
     </g>
    </g>
    <g id="ytick_6">
     <g id="line2d_43">
      <path d="M 48.982812 72.929025 
L 606.982813 72.929025 
" clip-path="url(#p2823a6ff36)" style="fill: none; stroke-dasharray: 2.96,1.28; stroke-dashoffset: 0; stroke: #2f3549; stroke-opacity: 0.5; stroke-width: 0.8"/>
     </g>
     <g id="line2d_44">
      <g>
       <use xlink:href="#me0114509e7" x="48.982812" y="72.929025" style="fill: #a9b1d6; stroke: #a9b1d6; stroke-width: 0.8"/>
      </g>
     </g>
     <g id="text_23">
      <!-- 10 -->
      <g style="fill: #a9b1d6" transform="translate(29.257812 76.728244) scale(0.1 -0.1)">
       <use xlink:href="#DejaVuSans-31"/>
       <use xlink:href="#DejaVuSans-30" transform="translate(63.623047 0)"/>
      </g>
     </g>
    </g>
    <g id="text_24">
     <!-- °C -->
     <g style="fill: #a9b1d6" transform="translate(14.798437 211.668906) rotate(-90) scale(0.1 -0.1)">
      <defs>
       <path id="DejaVuSans-b0" d="M 1600 4347 
Q 1350 4347 1178 4173 
Q 1006 4000 1006 3750 
Q 1006 3503 1178 3333 
Q 1350 3163 1600 3163 
Q 1850 3163 2022 3333 
Q 2194 3503 2194 3750 
Q 2194 3997 2020 4172 
Q 1847 4347 1600 4347 
z
M 1600 4750 
Q 1800 4750 1984 4673 
Q 2169 4597 2303 4453 
Q 2447 4313 2519 4134 
Q 2591 3956 2591 3750 
Q 2591 3338 2302 3052 
Q 2013 2766 1594 2766 
Q 1172 2766 890 3047 
Q 609 3328 609 3750 
Q 609 4169 896 4459 
Q 1184 4750 1600 4750 
z
" transform="scale(0.015625)"/>
       <path id="DejaVuSans-43" d="M 4122 4306 
L 4122 3641 
Q 3803 3938 3442 4084 
Q 3081 4231 2675 4231 
Q 1875 4231 1450 3742 
Q 1025 3253 1025 2328 
Q 1025 1406 1450 917 
Q 1875 428 2675 428 
Q 3081 428 3442 575 
Q 3803 722 4122 1019 
L 4122 359 
Q 3791 134 3420 21 
Q 3050 -91 2638 -91 
Q 1578 -91 968 557 
Q 359 1206 359 2328 
Q 359 3453 968 4101 
Q 1578 4750 2638 4750 
Q 3056 4750 3426 4639 
Q 3797 4528 4122 4306 
z
" transform="scale(0.015625)"/>
      </defs>
      <use xlink:href="#DejaVuSans-b0"/>
      <use xlink:href="#DejaVuSans-43" transform="translate(50 0)"/>
     </g>
    </g>
   </g>
   <g id="line2d_45">
    <path d="M 74.346449 54.4775 
L 91.25554 84.204958 
L 108.164631 138.534449 
L 125.073722 132.383941 
L 141.982812 110.857161 
L 158.891903 119.057839 
L 175.800994 143.659873 
L 192.710085 148.785297 
L 209.619176 142.634788 
L 226.528267 142.634788 
L 243.437358 129.308686 
L 260.346449 119.057839 
L 277.25554 114.9575 
L 294.164631 122.133093 
L 311.073722 134.43411 
L 327.982813 150.835466 
L 344.891903 216.44089 
L 361.800994 241.042924 
L 378.710085 251.293771 
L 395.619176 206.190042 
L 412.528267 192.863941 
L 429.437358 173.387331 
L 446.346449 171.337161 
L 463.25554 170.312076 
L 480.164631 171.337161 
L 497.073722 192.863941 
L 513.982813 192.863941 
L 530.891903 187.738517 
L 547.800994 212.340551 
L 564.710085 191.838856 
L 581.619176 143.659873 
" clip-path="url(#p2823a6ff36)" style="fill: none; stroke: #9ece6a; stroke-width: 2; stroke-linecap: square"/>
    <defs>
     <path id="m76154aefa7" d="M 0 2 
C 0.530406 2 1.03916 1.789267 1.414214 1.414214 
C 1.789267 1.03916 2 0.530406 2 0 
C 2 -0.530406 1.789267 -1.03916 1.414214 -1.414214 
C 1.03916 -1.789267 0.530406 -2 0 -2 
C -0.530406 -2 -1.03916 -1.789267 -1.414214 -1.414214 
C -1.789267 -1.03916 -2 -0.530406 -2 0 
C -2 0.530406 -1.789267 1.03916 -1.414214 1.414214 
C -1.03916 1.789267 -0.530406 2 0 2 
z
" style="stroke: #9ece6a"/>
    </defs>
    <g clip-path="url(#p2823a6ff36)">
     <use xlink:href="#m76154aefa7" x="74.346449" y="54.4775" style="fill: #9ece6a; stroke: #9ece6a"/>
     <use xlink:href="#m76154aefa7" x="91.25554" y="84.204958" style="fill: #9ece6a; stroke: #9ece6a"/>
     <use xlink:href="#m76154aefa7" x="108.164631" y="138.534449" style="fill: #9ece6a; stroke: #9ece6a"/>
     <use xlink:href="#m76154aefa7" x="125.073722" y="132.383941" style="fill: #9ece6a; stroke: #9ece6a"/>
     <use xlink:href="#m76154aefa7" x="141.982812" y="110.857161" style="fill: #9ece6a; stroke: #9ece6a"/>
     <use xlink:href="#m76154aefa7" x="158.891903" y="119.057839" style="fill: #9ece6a; stroke: #9ece6a"/>
     <use xlink:href="#m76154aefa7" x="175.800994" y="143.659873" style="fill: #9ece6a; stroke: #9ece6a"/>
     <use xlink:href="#m76154aefa7" x="192.710085" y="148.785297" style="fill: #9ece6a; stroke: #9ece6a"/>
     <use xlink:href="#m76154aefa7" x="209.619176" y="142.634788" style="fill: #9ece6a; stroke: #9ece6a"/>
     <use xlink:href="#m76154aefa7" x="226.528267" y="142.634788" style="fill: #9ece6a; stroke: #9ece6a"/>
     <use xlink:href="#m76154aefa7" x="243.437358" y="129.308686" style="fill: #9ece6a; stroke: #9ece6a"/>
     <use xlink:href="#m76154aefa7" x="260.346449" y="119.057839" style="fill: #9ece6a; stroke: #9ece6a"/>
     <use xlink:href="#m76154aefa7" x="277.25554" y="114.9575" style="fill: #9ece6a; stroke: #9ece6a"/>
     <use xlink:href="#m76154aefa7" x="294.164631" y="122.133093" style="fill: #9ece6a; stroke: #9ece6a"/>
     <use xlink:href="#m76154aefa7" x="311.073722" y="134.43411" style="fill: #9ece6a; stroke: #9ece6a"/>
     <use xlink:href="#m76154aefa7" x="327.982813" y="150.835466" style="fill: #9ece6a; stroke: #9ece6a"/>
     <use xlink:href="#m76154aefa7" x="344.891903" y="216.44089" style="fill: #9ece6a; stroke: #9ece6a"/>
     <use xlink:href="#m76154aefa7" x="361.800994" y="241.042924" style="fill: #9ece6a; stroke: #9ece6a"/>
     <use xlink:href="#m76154aefa7" x="378.710085" y="251.293771" style="fill: #9ece6a; stroke: #9ece6a"/>
     <use xlink:href="#m76154aefa7" x="395.619176" y="206.190042" style="fill: #9ece6a; stroke: #9ece6a"/>
     <use xlink:href="#m76154aefa7" x="412.528267" y="192.863941" style="fill: #9ece6a; stroke: #9ece6a"/>
     <use xlink:href="#m76154aefa7" x="429.437358" y="173.387331" style="fill: #9ece6a; stroke: #9ece6a"/>
     <use xlink:href="#m76154aefa7" x="446.346449" y="171.337161" style="fill: #9ece6a; stroke: #9ece6a"/>
     <use xlink:href="#m76154aefa7" x="463.25554" y="170.312076" style="fill: #9ece6a; stroke: #9ece6a"/>
     <use xlink:href="#m76154aefa7" x="480.164631" y="171.337161" style="fill: #9ece6a; stroke: #9ece6a"/>
     <use xlink:href="#m76154aefa7" x="497.073722" y="192.863941" style="fill: #9ece6a; stroke: #9ece6a"/>
     <use xlink:href="#m76154aefa7" x="513.982813" y="192.863941" style="fill: #9ece6a; stroke: #9ece6a"/>
     <use xlink:href="#m76154aefa7" x="530.891903" y="187.738517" style="fill: #9ece6a; stroke: #9ece6a"/>
     <use xlink:href="#m76154aefa7" x="547.800994" y="212.340551" style="fill: #9ece6a; stroke: #9ece6a"/>
     <use xlink:href="#m76154aefa7" x="564.710085" y="191.838856" style="fill: #9ece6a; stroke: #9ece6a"/>
     <use xlink:href="#m76154aefa7" x="581.619176" y="143.659873" style="fill: #9ece6a; stroke: #9ece6a"/>
    </g>
   </g>
   <g id="line2d_46">
    <path d="M 74.346449 130.333771 
L 91.25554 143.659873 
L 108.164631 88.305297 
L 125.073722 160.061229 
L 141.982812 169.286992 
L 158.891903 191.838856 
L 175.800994 205.164958 
L 192.710085 272.820551 
L 209.619176 286.146653 
L 226.528267 303.573093 
L 243.437358 292.297161 
L 260.346449 199.014449 
L 277.25554 174.412415 
L 294.164631 163.136483 
L 311.073722 173.387331 
L 327.982813 194.91411 
L 344.891903 246.168347 
L 361.800994 233.867331 
L 378.710085 258.469364 
L 395.619176 265.644958 
L 412.528267 286.146653 
L 429.437358 139.559534 
L 446.346449 135.459195 
L 463.25554 118.032754 
L 480.164631 184.663263 
L 497.073722 192.863941 
L 513.982813 191.838856 
L 530.891903 216.44089 
L 547.800994 220.541229 
L 564.710085 187.738517 
L 581.619176 144.684958 
" clip-path="url(#p2823a6ff36)" style="fill: none; stroke: #2ac3de; stroke-width: 2; stroke-linecap: square"/>
    <defs>
     <path id="m6df7330f3d" d="M 0 2 
C 0.530406 2 1.03916 1.789267 1.414214 1.414214 
C 1.789267 1.03916 2 0.530406 2 0 
C 2 -0.530406 1.789267 -1.03916 1.414214 -1.414214 
C 1.03916 -1.789267 0.530406 -2 0 -2 
C -0.530406 -2 -1.03916 -1.789267 -1.414214 -1.414214 
C -1.789267 -1.03916 -2 -0.530406 -2 0 
C -2 0.530406 -1.789267 1.03916 -1.414214 1.414214 
C -1.03916 1.789267 -0.530406 2 0 2 
z
" style="stroke: #2ac3de"/>
    </defs>
    <g clip-path="url(#p2823a6ff36)">
     <use xlink:href="#m6df7330f3d" x="74.346449" y="130.333771" style="fill: #2ac3de; stroke: #2ac3de"/>
     <use xlink:href="#m6df7330f3d" x="91.25554" y="143.659873" style="fill: #2ac3de; stroke: #2ac3de"/>
     <use xlink:href="#m6df7330f3d" x="108.164631" y="88.305297" style="fill: #2ac3de; stroke: #2ac3de"/>
     <use xlink:href="#m6df7330f3d" x="125.073722" y="160.061229" style="fill: #2ac3de; stroke: #2ac3de"/>
     <use xlink:href="#m6df7330f3d" x="141.982812" y="169.286992" style="fill: #2ac3de; stroke: #2ac3de"/>
     <use xlink:href="#m6df7330f3d" x="158.891903" y="191.838856" style="fill: #2ac3de; stroke: #2ac3de"/>
     <use xlink:href="#m6df7330f3d" x="175.800994" y="205.164958" style="fill: #2ac3de; stroke: #2ac3de"/>
     <use xlink:href="#m6df7330f3d" x="192.710085" y="272.820551" style="fill: #2ac3de; stroke: #2ac3de"/>
     <use xlink:href="#m6df7330f3d" x="209.619176" y="286.146653" style="fill: #2ac3de; stroke: #2ac3de"/>
     <use xlink:href="#m6df7330f3d" x="226.528267" y="303.573093" style="fill: #2ac3de; stroke: #2ac3de"/>
     <use xlink:href="#m6df7330f3d" x="243.437358" y="292.297161" style="fill: #2ac3de; stroke: #2ac3de"/>
     <use xlink:href="#m6df7330f3d" x="260.346449" y="199.014449" style="fill: #2ac3de; stroke: #2ac3de"/>
     <use xlink:href="#m6df7330f3d" x="277.25554" y="174.412415" style="fill: #2ac3de; stroke: #2ac3de"/>
     <use xlink:href="#m6df7330f3d" x="294.164631" y="163.136483" style="fill: #2ac3de; stroke: #2ac3de"/>
     <use xlink:href="#m6df7330f3d" x="311.073722" y="173.387331" style="fill: #2ac3de; stroke: #2ac3de"/>
     <use xlink:href="#m6df7330f3d" x="327.982813" y="194.91411" style="fill: #2ac3de; stroke: #2ac3de"/>
     <use xlink:href="#m6df7330f3d" x="344.891903" y="246.168347" style="fill: #2ac3de; stroke: #2ac3de"/>
     <use xlink:href="#m6df7330f3d" x="361.800994" y="233.867331" style="fill: #2ac3de; stroke: #2ac3de"/>
     <use xlink:href="#m6df7330f3d" x="378.710085" y="258.469364" style="fill: #2ac3de; stroke: #2ac3de"/>
     <use xlink:href="#m6df7330f3d" x="395.619176" y="265.644958" style="fill: #2ac3de; stroke: #2ac3de"/>
     <use xlink:href="#m6df7330f3d" x="412.528267" y="286.146653" style="fill: #2ac3de; stroke: #2ac3de"/>
     <use xlink:href="#m6df7330f3d" x="429.437358" y="139.559534" style="fill: #2ac3de; stroke: #2ac3de"/>
     <use xlink:href="#m6df7330f3d" x="446.346449" y="135.459195" style="fill: #2ac3de; stroke: #2ac3de"/>
     <use xlink:href="#m6df7330f3d" x="463.25554" y="118.032754" style="fill: #2ac3de; stroke: #2ac3de"/>
     <use xlink:href="#m6df7330f3d" x="480.164631" y="184.663263" style="fill: #2ac3de; stroke: #2ac3de"/>
     <use xlink:href="#m6df7330f3d" x="497.073722" y="192.863941" style="fill: #2ac3de; stroke: #2ac3de"/>
     <use xlink:href="#m6df7330f3d" x="513.982813" y="191.838856" style="fill: #2ac3de; stroke: #2ac3de"/>
     <use xlink:href="#m6df7330f3d" x="530.891903" y="216.44089" style="fill: #2ac3de; stroke: #2ac3de"/>
     <use xlink:href="#m6df7330f3d" x="547.800994" y="220.541229" style="fill: #2ac3de; stroke: #2ac3de"/>
     <use xlink:href="#m6df7330f3d" x="564.710085" y="187.738517" style="fill: #2ac3de; stroke: #2ac3de"/>
     <use xlink:href="#m6df7330f3d" x="581.619176" y="144.684958" style="fill: #2ac3de; stroke: #2ac3de"/>
    </g>
   </g>
   <g id="line2d_47">
    <path d="M 74.346449 186.713432 
L 91.25554 175.4375 
L 108.164631 185.688347 
L 125.073722 218.491059 
L 141.982812 228.741907 
L 158.891903 86.255127 
L 175.800994 162.111398 
L 192.710085 167.236822 
L 209.619176 173.387331 
L 226.528267 170.312076 
L 243.437358 179.537839 
L 260.346449 183.638178 
L 277.25554 204.139873 
L 294.164631 207.215127 
L 311.073722 162.111398 
L 327.982813 162.111398 
L 344.891903 199.014449 
L 361.800994 209.265297 
L 378.710085 222.591398 
L 395.619176 219.516144 
L 412.528267 220.541229 
L 429.437358 232.842246 
L 446.346449 167.236822 
L 463.25554 144.684958 
L 480.164631 95.48089 
L 497.073722 158.011059 
L 513.982813 155.96089 
L 530.891903 130.333771 
L 547.800994 135.459195 
L 564.710085 151.860551 
L 581.619176 163.136483 
" clip-path="url(#p2823a6ff36)" style="fill: none; stroke: #f7768e; stroke-width: 2; stroke-linecap: square"/>
    <defs>
     <path id="m2e3501d5a5" d="M 0 2 
C 0.530406 2 1.03916 1.789267 1.414214 1.414214 
C 1.789267 1.03916 2 0.530406 2 0 
C 2 -0.530406 1.789267 -1.03916 1.414214 -1.414214 
C 1.03916 -1.789267 0.530406 -2 0 -2 
C -0.530406 -2 -1.03916 -1.789267 -1.414214 -1.414214 
C -1.789267 -1.03916 -2 -0.530406 -2 0 
C -2 0.530406 -1.789267 1.03916 -1.414214 1.414214 
C -1.03916 1.789267 -0.530406 2 0 2 
z
" style="stroke: #f7768e"/>
    </defs>
    <g clip-path="url(#p2823a6ff36)">
     <use xlink:href="#m2e3501d5a5" x="74.346449" y="186.713432" style="fill: #f7768e; stroke: #f7768e"/>
     <use xlink:href="#m2e3501d5a5" x="91.25554" y="175.4375" style="fill: #f7768e; stroke: #f7768e"/>
     <use xlink:href="#m2e3501d5a5" x="108.164631" y="185.688347" style="fill: #f7768e; stroke: #f7768e"/>
     <use xlink:href="#m2e3501d5a5" x="125.073722" y="218.491059" style="fill: #f7768e; stroke: #f7768e"/>
     <use xlink:href="#m2e3501d5a5" x="141.982812" y="228.741907" style="fill: #f7768e; stroke: #f7768e"/>
     <use xlink:href="#m2e3501d5a5" x="158.891903" y="86.255127" style="fill: #f7768e; stroke: #f7768e"/>
     <use xlink:href="#m2e3501d5a5" x="175.800994" y="162.111398" style="fill: #f7768e; stroke: #f7768e"/>
     <use xlink:href="#m2e3501d5a5" x="192.710085" y="167.236822" style="fill: #f7768e; stroke: #f7768e"/>
     <use xlink:href="#m2e3501d5a5" x="209.619176" y="173.387331" style="fill: #f7768e; stroke: #f7768e"/>
     <use xlink:href="#m2e3501d5a5" x="226.528267" y="170.312076" style="fill: #f7768e; stroke: #f7768e"/>
     <use xlink:href="#m2e3501d5a5" x="243.437358" y="179.537839" style="fill: #f7768e; stroke: #f7768e"/>
     <use xlink:href="#m2e3501d5a5" x="260.346449" y="183.638178" style="fill: #f7768e; stroke: #f7768e"/>
     <use xlink:href="#m2e3501d5a5" x="277.25554" y="204.139873" style="fill: #f7768e; stroke: #f7768e"/>
     <use xlink:href="#m2e3501d5a5" x="294.164631" y="207.215127" style="fill: #f7768e; stroke: #f7768e"/>
     <use xlink:href="#m2e3501d5a5" x="311.073722" y="162.111398" style="fill: #f7768e; stroke: #f7768e"/>
     <use xlink:href="#m2e3501d5a5" x="327.982813" y="162.111398" style="fill: #f7768e; stroke: #f7768e"/>
     <use xlink:href="#m2e3501d5a5" x="344.891903" y="199.014449" style="fill: #f7768e; stroke: #f7768e"/>
     <use xlink:href="#m2e3501d5a5" x="361.800994" y="209.265297" style="fill: #f7768e; stroke: #f7768e"/>
     <use xlink:href="#m2e3501d5a5" x="378.710085" y="222.591398" style="fill: #f7768e; stroke: #f7768e"/>
     <use xlink:href="#m2e3501d5a5" x="395.619176" y="219.516144" style="fill: #f7768e; stroke: #f7768e"/>
     <use xlink:href="#m2e3501d5a5" x="412.528267" y="220.541229" style="fill: #f7768e; stroke: #f7768e"/>
     <use xlink:href="#m2e3501d5a5" x="429.437358" y="232.842246" style="fill: #f7768e; stroke: #f7768e"/>
     <use xlink:href="#m2e3501d5a5" x="446.346449" y="167.236822" style="fill: #f7768e; stroke: #f7768e"/>
     <use xlink:href="#m2e3501d5a5" x="463.25554" y="144.684958" style="fill: #f7768e; stroke: #f7768e"/>
     <use xlink:href="#m2e3501d5a5" x="480.164631" y="95.48089" style="fill: #f7768e; stroke: #f7768e"/>
     <use xlink:href="#m2e3501d5a5" x="497.073722" y="158.011059" style="fill: #f7768e; stroke: #f7768e"/>
     <use xlink:href="#m2e3501d5a5" x="513.982813" y="155.96089" style="fill: #f7768e; stroke: #f7768e"/>
     <use xlink:href="#m2e3501d5a5" x="530.891903" y="130.333771" style="fill: #f7768e; stroke: #f7768e"/>
     <use xlink:href="#m2e3501d5a5" x="547.800994" y="135.459195" style="fill: #f7768e; stroke: #f7768e"/>
     <use xlink:href="#m2e3501d5a5" x="564.710085" y="151.860551" style="fill: #f7768e; stroke: #f7768e"/>
     <use xlink:href="#m2e3501d5a5" x="581.619176" y="163.136483" style="fill: #f7768e; stroke: #f7768e"/>
    </g>
   </g>
   <g id="line2d_48">
    <path d="M 74.346449 160.061229 
L 91.25554 173.387331 
L 108.164631 187.738517 
L 125.073722 191.838856 
L 141.982812 238.992754 
L 158.891903 249.243602 
L 175.800994 278.971059 
L 192.710085 282.046314 
L 209.619176 253.343941 
L 226.528267 312.798856 
L 243.437358 356.8775 
L 260.346449 352.777161 
L 277.25554 160.061229 
L 294.164631 161.086314 
L 311.073722 192.863941 
L 327.982813 192.863941 
L 344.891903 203.114788 
L 361.800994 197.989364 
L 378.710085 209.265297 
L 395.619176 243.093093 
L 412.528267 253.343941 
L 429.437358 287.171737 
L 446.346449 294.347331 
L 463.25554 258.469364 
L 480.164631 190.813771 
L 497.073722 197.989364 
L 513.982813 193.889025 
L 530.891903 186.713432 
L 547.800994 193.889025 
L 564.710085 193.889025 
L 581.619176 218.491059 
" clip-path="url(#p2823a6ff36)" style="fill: none; stroke: #e0af68; stroke-width: 2; stroke-linecap: square"/>
    <defs>
     <path id="me5c0cccb89" d="M 0 2 
C 0.530406 2 1.03916 1.789267 1.414214 1.414214 
C 1.789267 1.03916 2 0.530406 2 0 
C 2 -0.530406 1.789267 -1.03916 1.414214 -1.414214 
C 1.03916 -1.789267 0.530406 -2 0 -2 
C -0.530406 -2 -1.03916 -1.789267 -1.414214 -1.414214 
C -1.789267 -1.03916 -2 -0.530406 -2 0 
C -2 0.530406 -1.789267 1.03916 -1.414214 1.414214 
C -1.03916 1.789267 -0.530406 2 0 2 
z
" style="stroke: #e0af68"/>
    </defs>
    <g clip-path="url(#p2823a6ff36)">
     <use xlink:href="#me5c0cccb89" x="74.346449" y="160.061229" style="fill: #e0af68; stroke: #e0af68"/>
     <use xlink:href="#me5c0cccb89" x="91.25554" y="173.387331" style="fill: #e0af68; stroke: #e0af68"/>
     <use xlink:href="#me5c0cccb89" x="108.164631" y="187.738517" style="fill: #e0af68; stroke: #e0af68"/>
     <use xlink:href="#me5c0cccb89" x="125.073722" y="191.838856" style="fill: #e0af68; stroke: #e0af68"/>
     <use xlink:href="#me5c0cccb89" x="141.982812" y="238.992754" style="fill: #e0af68; stroke: #e0af68"/>
     <use xlink:href="#me5c0cccb89" x="158.891903" y="249.243602" style="fill: #e0af68; stroke: #e0af68"/>
     <use xlink:href="#me5c0cccb89" x="175.800994" y="278.971059" style="fill: #e0af68; stroke: #e0af68"/>
     <use xlink:href="#me5c0cccb89" x="192.710085" y="282.046314" style="fill: #e0af68; stroke: #e0af68"/>
     <use xlink:href="#me5c0cccb89" x="209.619176" y="253.343941" style="fill: #e0af68; stroke: #e0af68"/>
     <use xlink:href="#me5c0cccb89" x="226.528267" y="312.798856" style="fill: #e0af68; stroke: #e0af68"/>
     <use xlink:href="#me5c0cccb89" x="243.437358" y="356.8775" style="fill: #e0af68; stroke: #e0af68"/>
     <use xlink:href="#me5c0cccb89" x="260.346449" y="352.777161" style="fill: #e0af68; stroke: #e0af68"/>
     <use xlink:href="#me5c0cccb89" x="277.25554" y="160.061229" style="fill: #e0af68; stroke: #e0af68"/>
     <use xlink:href="#me5c0cccb89" x="294.164631" y="161.086314" style="fill: #e0af68; stroke: #e0af68"/>
     <use xlink:href="#me5c0cccb89" x="311.073722" y="192.863941" style="fill: #e0af68; stroke: #e0af68"/>
     <use xlink:href="#me5c0cccb89" x="327.982813" y="192.863941" style="fill: #e0af68; stroke: #e0af68"/>
     <use xlink:href="#me5c0cccb89" x="344.891903" y="203.114788" style="fill: #e0af68; stroke: #e0af68"/>
     <use xlink:href="#me5c0cccb89" x="361.800994" y="197.989364" style="fill: #e0af68; stroke: #e0af68"/>
     <use xlink:href="#me5c0cccb89" x="378.710085" y="209.265297" style="fill: #e0af68; stroke: #e0af68"/>
     <use xlink:href="#me5c0cccb89" x="395.619176" y="243.093093" style="fill: #e0af68; stroke: #e0af68"/>
     <use xlink:href="#me5c0cccb89" x="412.528267" y="253.343941" style="fill: #e0af68; stroke: #e0af68"/>
     <use xlink:href="#me5c0cccb89" x="429.437358" y="287.171737" style="fill: #e0af68; stroke: #e0af68"/>
     <use xlink:href="#me5c0cccb89" x="446.346449" y="294.347331" style="fill: #e0af68; stroke: #e0af68"/>
     <use xlink:href="#me5c0cccb89" x="463.25554" y="258.469364" style="fill: #e0af68; stroke: #e0af68"/>
     <use xlink:href="#me5c0cccb89" x="480.164631" y="190.813771" style="fill: #e0af68; stroke: #e0af68"/>
     <use xlink:href="#me5c0cccb89" x="497.073722" y="197.989364" style="fill: #e0af68; stroke: #e0af68"/>
     <use xlink:href="#me5c0cccb89" x="513.982813" y="193.889025" style="fill: #e0af68; stroke: #e0af68"/>
     <use xlink:href="#me5c0cccb89" x="530.891903" y="186.713432" style="fill: #e0af68; stroke: #e0af68"/>
     <use xlink:href="#me5c0cccb89" x="547.800994" y="193.889025" style="fill: #e0af68; stroke: #e0af68"/>
     <use xlink:href="#me5c0cccb89" x="564.710085" y="193.889025" style="fill: #e0af68; stroke: #e0af68"/>
     <use xlink:href="#me5c0cccb89" x="581.619176" y="218.491059" style="fill: #e0af68; stroke: #e0af68"/>
    </g>
   </g>
   <g id="patch_3">
    <path d="M 48.982812 371.9975 
L 48.982812 39.3575 
" style="fill: none; stroke: #a9b1d6; stroke-width: 0.8; stroke-linejoin: miter; stroke-linecap: square"/>
   </g>
   <g id="patch_4">
    <path d="M 606.982813 371.9975 
L 606.982813 39.3575 
" style="fill: none; stroke: #a9b1d6; stroke-width: 0.8; stroke-linejoin: miter; stroke-linecap: square"/>
   </g>
   <g id="patch_5">
    <path d="M 48.982812 371.9975 
L 606.982813 371.9975 
" style="fill: none; stroke: #a9b1d6; stroke-width: 0.8; stroke-linejoin: miter; stroke-linecap: square"/>
   </g>
   <g id="patch_6">
    <path d="M 48.982812 39.3575 
L 606.982813 39.3575 
" style="fill: none; stroke: #a9b1d6; stroke-width: 0.8; stroke-linejoin: miter; stroke-linecap: square"/>
   </g>
   <g id="text_25">
    <!-- Januar - Tiefstwerte am Tag -->
    <g style="fill: #a9b1d6" transform="translate(218.376563 19.3575) scale(0.16 -0.16)">
     <defs>
      <path id="DejaVuSans-4a" d="M 628 4666 
L 1259 4666 
L 1259 325 
Q 1259 -519 939 -900 
Q 619 -1281 -91 -1281 
L -331 -1281 
L -331 -750 
L -134 -750 
Q 284 -750 456 -515 
Q 628 -281 628 325 
L 628 4666 
z
" transform="scale(0.015625)"/>
      <path id="DejaVuSans-75" d="M 544 1381 
L 544 3500 
L 1119 3500 
L 1119 1403 
Q 1119 906 1312 657 
Q 1506 409 1894 409 
Q 2359 409 2629 706 
Q 2900 1003 2900 1516 
L 2900 3500 
L 3475 3500 
L 3475 0 
L 2900 0 
L 2900 538 
Q 2691 219 2414 64 
Q 2138 -91 1772 -91 
Q 1169 -91 856 284 
Q 544 659 544 1381 
z
M 1991 3584 
L 1991 3584 
z
" transform="scale(0.015625)"/>
      <path id="DejaVuSans-72" d="M 2631 2963 
Q 2534 3019 2420 3045 
Q 2306 3072 2169 3072 
Q 1681 3072 1420 2755 
Q 1159 2438 1159 1844 
L 1159 0 
L 581 0 
L 581 3500 
L 1159 3500 
L 1159 2956 
Q 1341 3275 1631 3429 
Q 1922 3584 2338 3584 
Q 2397 3584 2469 3576 
Q 2541 3569 2628 3553 
L 2631 2963 
z
" transform="scale(0.015625)"/>
      <path id="DejaVuSans-2d" d="M 313 2009 
L 1997 2009 
L 1997 1497 
L 313 1497 
L 313 2009 
z
" transform="scale(0.015625)"/>
      <path id="DejaVuSans-69" d="M 603 3500 
L 1178 3500 
L 1178 0 
L 603 0 
L 603 3500 
z
M 603 4863 
L 1178 4863 
L 1178 4134 
L 603 4134 
L 603 4863 
z
" transform="scale(0.015625)"/>
      <path id="DejaVuSans-66" d="M 2375 4863 
L 2375 4384 
L 1825 4384 
Q 1516 4384 1395 4259 
Q 1275 4134 1275 3809 
L 1275 3500 
L 2222 3500 
L 2222 3053 
L 1275 3053 
L 1275 0 
L 697 0 
L 697 3053 
L 147 3053 
L 147 3500 
L 697 3500 
L 697 3744 
Q 697 4328 969 4595 
Q 1241 4863 1831 4863 
L 2375 4863 
z
" transform="scale(0.015625)"/>
      <path id="DejaVuSans-77" d="M 269 3500 
L 844 3500 
L 1563 769 
L 2278 3500 
L 2956 3500 
L 3675 769 
L 4391 3500 
L 4966 3500 
L 4050 0 
L 3372 0 
L 2619 2869 
L 1863 0 
L 1184 0 
L 269 3500 
z
" transform="scale(0.015625)"/>
      <path id="DejaVuSans-6d" d="M 3328 2828 
Q 3544 3216 3844 3400 
Q 4144 3584 4550 3584 
Q 5097 3584 5394 3201 
Q 5691 2819 5691 2113 
L 5691 0 
L 5113 0 
L 5113 2094 
Q 5113 2597 4934 2840 
Q 4756 3084 4391 3084 
Q 3944 3084 3684 2787 
Q 3425 2491 3425 1978 
L 3425 0 
L 2847 0 
L 2847 2094 
Q 2847 2600 2669 2842 
Q 2491 3084 2119 3084 
Q 1678 3084 1418 2786 
Q 1159 2488 1159 1978 
L 1159 0 
L 581 0 
L 581 3500 
L 1159 3500 
L 1159 2956 
Q 1356 3278 1631 3431 
Q 1906 3584 2284 3584 
Q 2666 3584 2933 3390 
Q 3200 3197 3328 2828 
z
" transform="scale(0.015625)"/>
     </defs>
     <use xlink:href="#DejaVuSans-4a"/>
     <use xlink:href="#DejaVuSans-61" transform="translate(29.492188 0)"/>
     <use xlink:href="#DejaVuSans-6e" transform="translate(90.771484 0)"/>
     <use xlink:href="#DejaVuSans-75" transform="translate(154.150391 0)"/>
     <use xlink:href="#DejaVuSans-61" transform="translate(217.529297 0)"/>
     <use xlink:href="#DejaVuSans-72" transform="translate(278.808594 0)"/>
     <use xlink:href="#DejaVuSans-20" transform="translate(319.921875 0)"/>
     <use xlink:href="#DejaVuSans-2d" transform="translate(351.708984 0)"/>
     <use xlink:href="#DejaVuSans-20" transform="translate(387.792969 0)"/>
     <use xlink:href="#DejaVuSans-54" transform="translate(419.580078 0)"/>
     <use xlink:href="#DejaVuSans-69" transform="translate(477.539062 0)"/>
     <use xlink:href="#DejaVuSans-65" transform="translate(505.322266 0)"/>
     <use xlink:href="#DejaVuSans-66" transform="translate(566.845703 0)"/>
     <use xlink:href="#DejaVuSans-73" transform="translate(602.050781 0)"/>
     <use xlink:href="#DejaVuSans-74" transform="translate(654.150391 0)"/>
     <use xlink:href="#DejaVuSans-77" transform="translate(693.359375 0)"/>
     <use xlink:href="#DejaVuSans-65" transform="translate(775.146484 0)"/>
     <use xlink:href="#DejaVuSans-72" transform="translate(836.669922 0)"/>
     <use xlink:href="#DejaVuSans-74" transform="translate(877.783203 0)"/>
     <use xlink:href="#DejaVuSans-65" transform="translate(916.992188 0)"/>
     <use xlink:href="#DejaVuSans-20" transform="translate(978.515625 0)"/>
     <use xlink:href="#DejaVuSans-61" transform="translate(1010.302734 0)"/>
     <use xlink:href="#DejaVuSans-6d" transform="translate(1071.582031 0)"/>
     <use xlink:href="#DejaVuSans-20" transform="translate(1168.994141 0)"/>
     <use xlink:href="#DejaVuSans-54" transform="translate(1200.78125 0)"/>
     <use xlink:href="#DejaVuSans-61" transform="translate(1245.365234 0)"/>
     <use xlink:href="#DejaVuSans-67" transform="translate(1306.644531 0)"/>
    </g>
   </g>
   <g id="legend_1">
    <g id="patch_7">
     <path d="M 542.532812 120.748125 
L 599.982813 120.748125 
Q 601.982813 120.748125 601.982813 118.748125 
L 601.982813 46.3575 
Q 601.982813 44.3575 599.982813 44.3575 
L 542.532812 44.3575 
Q 540.532812 44.3575 540.532812 46.3575 
L 540.532812 118.748125 
Q 540.532812 120.748125 542.532812 120.748125 
z
" style="fill: #1a1b26; opacity: 0.8; stroke: #a9b1d6; stroke-linejoin: miter"/>
    </g>
    <g id="text_26">
     <!-- Jahr -->
     <g style="fill: #a9b1d6" transform="translate(561.494531 55.955938) scale(0.1 -0.1)">
      <defs>
       <path id="DejaVuSans-68" d="M 3513 2113 
L 3513 0 
L 2938 0 
L 2938 2094 
Q 2938 2591 2744 2837 
Q 2550 3084 2163 3084 
Q 1697 3084 1428 2787 
Q 1159 2491 1159 1978 
L 1159 0 
L 581 0 
L 581 4863 
L 1159 4863 
L 1159 2956 
Q 1366 3272 1645 3428 
Q 1925 3584 2291 3584 
Q 2894 3584 3203 3211 
Q 3513 2838 3513 2113 
z
" transform="scale(0.015625)"/>
      </defs>
      <use xlink:href="#DejaVuSans-4a"/>
      <use xlink:href="#DejaVuSans-61" transform="translate(29.492188 0)"/>
      <use xlink:href="#DejaVuSans-68" transform="translate(90.771484 0)"/>
      <use xlink:href="#DejaVuSans-72" transform="translate(154.150391 0)"/>
     </g>
    </g>
    <g id="line2d_49">
     <path d="M 544.532812 67.134063 
L 554.532812 67.134063 
L 564.532812 67.134063 
" style="fill: none; stroke: #9ece6a; stroke-width: 2; stroke-linecap: square"/>
     <g>
      <use xlink:href="#m76154aefa7" x="554.532812" y="67.134063" style="fill: #9ece6a; stroke: #9ece6a"/>
     </g>
    </g>
    <g id="text_27">
     <!-- 2023 -->
     <g style="fill: #a9b1d6" transform="translate(572.532812 70.634063) scale(0.1 -0.1)">
      <use xlink:href="#DejaVuSans-32"/>
      <use xlink:href="#DejaVuSans-30" transform="translate(63.623047 0)"/>
      <use xlink:href="#DejaVuSans-32" transform="translate(127.246094 0)"/>
      <use xlink:href="#DejaVuSans-33" transform="translate(190.869141 0)"/>
     </g>
    </g>
    <g id="line2d_50">
     <path d="M 544.532812 81.812188 
L 554.532812 81.812188 
L 564.532812 81.812188 
" style="fill: none; stroke: #2ac3de; stroke-width: 2; stroke-linecap: square"/>
     <g>
      <use xlink:href="#m6df7330f3d" x="554.532812" y="81.812188" style="fill: #2ac3de; stroke: #2ac3de"/>
     </g>
    </g>
    <g id="text_28">
     <!-- 2024 -->
     <g style="fill: #a9b1d6" transform="translate(572.532812 85.312188) scale(0.1 -0.1)">
      <defs>
       <path id="DejaVuSans-34" d="M 2419 4116 
L 825 1625 
L 2419 1625 
L 2419 4116 
z
M 2253 4666 
L 3047 4666 
L 3047 1625 
L 3713 1625 
L 3713 1100 
L 3047 1100 
L 3047 0 
L 2419 0 
L 2419 1100 
L 313 1100 
L 313 1709 
L 2253 4666 
z
" transform="scale(0.015625)"/>
      </defs>
      <use xlink:href="#DejaVuSans-32"/>
      <use xlink:href="#DejaVuSans-30" transform="translate(63.623047 0)"/>
      <use xlink:href="#DejaVuSans-32" transform="translate(127.246094 0)"/>
      <use xlink:href="#DejaVuSans-34" transform="translate(190.869141 0)"/>
     </g>
    </g>
    <g id="line2d_51">
     <path d="M 544.532812 96.490313 
L 554.532812 96.490313 
L 564.532812 96.490313 
" style="fill: none; stroke: #f7768e; stroke-width: 2; stroke-linecap: square"/>
     <g>
      <use xlink:href="#m2e3501d5a5" x="554.532812" y="96.490313" style="fill: #f7768e; stroke: #f7768e"/>
     </g>
    </g>
    <g id="text_29">
     <!-- 2025 -->
     <g style="fill: #a9b1d6" transform="translate(572.532812 99.990313) scale(0.1 -0.1)">
      <use xlink:href="#DejaVuSans-32"/>
      <use xlink:href="#DejaVuSans-30" transform="translate(63.623047 0)"/>
      <use xlink:href="#DejaVuSans-32" transform="translate(127.246094 0)"/>
      <use xlink:href="#DejaVuSans-35" transform="translate(190.869141 0)"/>
     </g>
    </g>
    <g id="line2d_52">
     <path d="M 544.532812 111.168438 
L 554.532812 111.168438 
L 564.532812 111.168438 
" style="fill: none; stroke: #e0af68; stroke-width: 2; stroke-linecap: square"/>
     <g>
      <use xlink:href="#me5c0cccb89" x="554.532812" y="111.168438" style="fill: #e0af68; stroke: #e0af68"/>
     </g>
    </g>
    <g id="text_30">
     <!-- 2026 -->
     <g style="fill: #a9b1d6" transform="translate(572.532812 114.668438) scale(0.1 -0.1)">
      <defs>
       <path id="DejaVuSans-36" d="M 2113 2584 
Q 1688 2584 1439 2293 
Q 1191 2003 1191 1497 
Q 1191 994 1439 701 
Q 1688 409 2113 409 
Q 2538 409 2786 701 
Q 3034 994 3034 1497 
Q 3034 2003 2786 2293 
Q 2538 2584 2113 2584 
z
M 3366 4563 
L 3366 3988 
Q 3128 4100 2886 4159 
Q 2644 4219 2406 4219 
Q 1781 4219 1451 3797 
Q 1122 3375 1075 2522 
Q 1259 2794 1537 2939 
Q 1816 3084 2150 3084 
Q 2853 3084 3261 2657 
Q 3669 2231 3669 1497 
Q 3669 778 3244 343 
Q 2819 -91 2113 -91 
Q 1303 -91 875 529 
Q 447 1150 447 2328 
Q 447 3434 972 4092 
Q 1497 4750 2381 4750 
Q 2619 4750 2861 4703 
Q 3103 4656 3366 4563 
z
" transform="scale(0.015625)"/>
      </defs>
      <use xlink:href="#DejaVuSans-32"/>
      <use xlink:href="#DejaVuSans-30" transform="translate(63.623047 0)"/>
      <use xlink:href="#DejaVuSans-32" transform="translate(127.246094 0)"/>
      <use xlink:href="#DejaVuSans-36" transform="translate(190.869141 0)"/>
     </g>
    </g>
   </g>
  </g>
 </g>
 <defs>
  <clipPath id="p2823a6ff36">
   <rect x="48.982812" y="39.3575" width="558" height="332.64"/>
  </clipPath>
 </defs>
</svg>
