<?xml version="1.0" encoding="utf-8" standalone="no"?>
<!DOCTYPE svg PUBLIC "-//W3C//DTD SVG 1.1//EN"
  "http://www.w3.org/Graphics/SVG/1.1/DTD/svg11.dtd">
<svg xmlns:xlink="http://www.w3.org/1999/xlink" width="904.05875pt" height="494.087088pt" viewBox="0 0 904.05875 494.087088" xmlns="http://www.w3.org/2000/svg" version="1.1">
 <metadata>
  <rdf:RDF xmlns:dc="http://purl.org/dc/elements/1.1/" xmlns:cc="http://creativecommons.org/ns#" xmlns:rdf="http://www.w3.org/1999/02/22-rdf-syntax-ns#">
   <cc:Work>
    <dc:type rdf:resource="http://purl.org/dc/dcmitype/StillImage"/>
    <dc:date>2026-04-26T14:38:55.344342</dc:date>
    <dc:format>image/svg+xml</dc:format>
    <dc:creator>
     <cc:Agent>
      <dc:title>Matplotlib v3.10.8, https://matplotlib.org/</dc:title>
     </cc:Agent>
    </dc:creator>
   </cc:Work>
  </rdf:RDF>
 </metadata>
 <defs>
  <style type="text/css">*{stroke-linejoin: round; stroke-linecap: butt}</style>
 </defs>
 <g id="figure_1">
  <g id="patch_1">
   <path d="M 0 494.087088 
L 904.05875 494.087088 
L 904.05875 0 
L 0 0 
z
" style="fill: #1a1b26"/>
  </g>
  <g id="axes_1">
   <g id="patch_2">
    <path d="M 42.53875 433.957187 
L 823.73875 433.957187 
L 823.73875 45.877187 
L 42.53875 45.877187 
z
" style="fill: #1a1b26"/>
   </g>
   <g id="patch_3">
    <path d="M 107.63875 433.957187 
L 172.73875 433.957187 
L 172.73875 45.877187 
L 107.63875 45.877187 
z
" clip-path="url(#p54ec3dd46a)" style="fill: #2f3549; opacity: 0.3; stroke: #2f3549; stroke-linejoin: miter"/>
   </g>
   <g id="patch_4">
    <path d="M 237.83875 433.957187 
L 302.93875 433.957187 
L 302.93875 45.877187 
L 237.83875 45.877187 
z
" clip-path="url(#p54ec3dd46a)" style="fill: #2f3549; opacity: 0.3; stroke: #2f3549; stroke-linejoin: miter"/>
   </g>
   <g id="patch_5">
    <path d="M 368.03875 433.957187 
L 433.13875 433.957187 
L 433.13875 45.877187 
L 368.03875 45.877187 
z
" clip-path="url(#p54ec3dd46a)" style="fill: #2f3549; opacity: 0.3; stroke: #2f3549; stroke-linejoin: miter"/>
   </g>
   <g id="patch_6">
    <path d="M 498.23875 433.957187 
L 563.33875 433.957187 
L 563.33875 45.877187 
L 498.23875 45.877187 
z
" clip-path="url(#p54ec3dd46a)" style="fill: #2f3549; opacity: 0.3; stroke: #2f3549; stroke-linejoin: miter"/>
   </g>
   <g id="patch_7">
    <path d="M 628.43875 433.957187 
L 693.53875 433.957187 
L 693.53875 45.877187 
L 628.43875 45.877187 
z
" clip-path="url(#p54ec3dd46a)" style="fill: #2f3549; opacity: 0.3; stroke: #2f3549; stroke-linejoin: miter"/>
   </g>
   <g id="patch_8">
    <path d="M 758.63875 433.957187 
L 823.73875 433.957187 
L 823.73875 45.877187 
L 758.63875 45.877187 
z
" clip-path="url(#p54ec3dd46a)" style="fill: #2f3549; opacity: 0.3; stroke: #2f3549; stroke-linejoin: miter"/>
   </g>
   <g id="matplotlib.axis_1">
    <g id="xtick_1">
     <g id="line2d_1">
      <defs>
       <path id="mfeb5f732a3" d="M 0 0 
L 0 3.5 
" style="stroke: #a9b1d6; stroke-width: 0.8"/>
      </defs>
      <g>
       <use xlink:href="#mfeb5f732a3" x="75.08875" y="433.957187" style="fill: #a9b1d6; stroke: #a9b1d6; stroke-width: 0.8"/>
      </g>
     </g>
     <g id="text_1">
      <!-- Januar -->
      <g style="fill: #a9b1d6" transform="translate(65.728976 468.951987) rotate(-45) scale(0.1 -0.1)">
       <defs>
        <path id="DejaVuSans-4a" d="M 628 4666 
L 1259 4666 
L 1259 325 
Q 1259 -519 939 -900 
Q 619 -1281 -91 -1281 
L -331 -1281 
L -331 -750 
L -134 -750 
Q 284 -750 456 -515 
Q 628 -281 628 325 
L 628 4666 
z
" transform="scale(0.015625)"/>
        <path id="DejaVuSans-61" d="M 2194 1759 
Q 1497 1759 1228 1600 
Q 959 1441 959 1056 
Q 959 750 1161 570 
Q 1363 391 1709 391 
Q 2188 391 2477 730 
Q 2766 1069 2766 1631 
L 2766 1759 
L 2194 1759 
z
M 3341 1997 
L 3341 0 
L 2766 0 
L 2766 531 
Q 2569 213 2275 61 
Q 1981 -91 1556 -91 
Q 1019 -91 701 211 
Q 384 513 384 1019 
Q 384 1609 779 1909 
Q 1175 2209 1959 2209 
L 2766 2209 
L 2766 2266 
Q 2766 2663 2505 2880 
Q 2244 3097 1772 3097 
Q 1472 3097 1187 3025 
Q 903 2953 641 2809 
L 641 3341 
Q 956 3463 1253 3523 
Q 1550 3584 1831 3584 
Q 2591 3584 2966 3190 
Q 3341 2797 3341 1997 
z
" transform="scale(0.015625)"/>
        <path id="DejaVuSans-6e" d="M 3513 2113 
L 3513 0 
L 2938 0 
L 2938 2094 
Q 2938 2591 2744 2837 
Q 2550 3084 2163 3084 
Q 1697 3084 1428 2787 
Q 1159 2491 1159 1978 
L 1159 0 
L 581 0 
L 581 3500 
L 1159 3500 
L 1159 2956 
Q 1366 3272 1645 3428 
Q 1925 3584 2291 3584 
Q 2894 3584 3203 3211 
Q 3513 2838 3513 2113 
z
" transform="scale(0.015625)"/>
        <path id="DejaVuSans-75" d="M 544 1381 
L 544 3500 
L 1119 3500 
L 1119 1403 
Q 1119 906 1312 657 
Q 1506 409 1894 409 
Q 2359 409 2629 706 
Q 2900 1003 2900 1516 
L 2900 3500 
L 3475 3500 
L 3475 0 
L 2900 0 
L 2900 538 
Q 2691 219 2414 64 
Q 2138 -91 1772 -91 
Q 1169 -91 856 284 
Q 544 659 544 1381 
z
M 1991 3584 
L 1991 3584 
z
" transform="scale(0.015625)"/>
        <path id="DejaVuSans-72" d="M 2631 2963 
Q 2534 3019 2420 3045 
Q 2306 3072 2169 3072 
Q 1681 3072 1420 2755 
Q 1159 2438 1159 1844 
L 1159 0 
L 581 0 
L 581 3500 
L 1159 3500 
L 1159 2956 
Q 1341 3275 1631 3429 
Q 1922 3584 2338 3584 
Q 2397 3584 2469 3576 
Q 2541 3569 2628 3553 
L 2631 2963 
z
" transform="scale(0.015625)"/>
       </defs>
       <use xlink:href="#DejaVuSans-4a"/>
       <use xlink:href="#DejaVuSans-61" transform="translate(29.492188 0)"/>
       <use xlink:href="#DejaVuSans-6e" transform="translate(90.771484 0)"/>
       <use xlink:href="#DejaVuSans-75" transform="translate(154.150391 0)"/>
       <use xlink:href="#DejaVuSans-61" transform="translate(217.529297 0)"/>
       <use xlink:href="#DejaVuSans-72" transform="translate(278.808594 0)"/>
      </g>
     </g>
    </g>
    <g id="xtick_2">
     <g id="line2d_2">
      <g>
       <use xlink:href="#mfeb5f732a3" x="140.18875" y="433.957187" style="fill: #a9b1d6; stroke: #a9b1d6; stroke-width: 0.8"/>
      </g>
     </g>
     <g id="text_2">
      <!-- Februar -->
      <g style="fill: #a9b1d6" transform="translate(128.566787 473.476365) rotate(-45) scale(0.1 -0.1)">
       <defs>
        <path id="DejaVuSans-46" d="M 628 4666 
L 3309 4666 
L 3309 4134 
L 1259 4134 
L 1259 2759 
L 3109 2759 
L 3109 2228 
L 1259 2228 
L 1259 0 
L 628 0 
L 628 4666 
z
" transform="scale(0.015625)"/>
        <path id="DejaVuSans-65" d="M 3597 1894 
L 3597 1613 
L 953 1613 
Q 991 1019 1311 708 
Q 1631 397 2203 397 
Q 2534 397 2845 478 
Q 3156 559 3463 722 
L 3463 178 
Q 3153 47 2828 -22 
Q 2503 -91 2169 -91 
Q 1331 -91 842 396 
Q 353 884 353 1716 
Q 353 2575 817 3079 
Q 1281 3584 2069 3584 
Q 2775 3584 3186 3129 
Q 3597 2675 3597 1894 
z
M 3022 2063 
Q 3016 2534 2758 2815 
Q 2500 3097 2075 3097 
Q 1594 3097 1305 2825 
Q 1016 2553 972 2059 
L 3022 2063 
z
" transform="scale(0.015625)"/>
        <path id="DejaVuSans-62" d="M 3116 1747 
Q 3116 2381 2855 2742 
Q 2594 3103 2138 3103 
Q 1681 3103 1420 2742 
Q 1159 2381 1159 1747 
Q 1159 1113 1420 752 
Q 1681 391 2138 391 
Q 2594 391 2855 752 
Q 3116 1113 3116 1747 
z
M 1159 2969 
Q 1341 3281 1617 3432 
Q 1894 3584 2278 3584 
Q 2916 3584 3314 3078 
Q 3713 2572 3713 1747 
Q 3713 922 3314 415 
Q 2916 -91 2278 -91 
Q 1894 -91 1617 61 
Q 1341 213 1159 525 
L 1159 0 
L 581 0 
L 581 4863 
L 1159 4863 
L 1159 2969 
z
" transform="scale(0.015625)"/>
       </defs>
       <use xlink:href="#DejaVuSans-46"/>
       <use xlink:href="#DejaVuSans-65" transform="translate(52.019531 0)"/>
       <use xlink:href="#DejaVuSans-62" transform="translate(113.542969 0)"/>
       <use xlink:href="#DejaVuSans-72" transform="translate(177.019531 0)"/>
       <use xlink:href="#DejaVuSans-75" transform="translate(218.132812 0)"/>
       <use xlink:href="#DejaVuSans-61" transform="translate(281.511719 0)"/>
       <use xlink:href="#DejaVuSans-72" transform="translate(342.791016 0)"/>
      </g>
     </g>
    </g>
    <g id="xtick_3">
     <g id="line2d_3">
      <g>
       <use xlink:href="#mfeb5f732a3" x="205.28875" y="433.957187" style="fill: #a9b1d6; stroke: #a9b1d6; stroke-width: 0.8"/>
      </g>
     </g>
     <g id="text_3">
      <!-- März -->
      <g style="fill: #a9b1d6" transform="translate(198.713762 463.382416) rotate(-45) scale(0.1 -0.1)">
       <defs>
        <path id="DejaVuSans-4d" d="M 628 4666 
L 1569 4666 
L 2759 1491 
L 3956 4666 
L 4897 4666 
L 4897 0 
L 4281 0 
L 4281 4097 
L 3078 897 
L 2444 897 
L 1241 4097 
L 1241 0 
L 628 0 
L 628 4666 
z
" transform="scale(0.015625)"/>
        <path id="DejaVuSans-e4" d="M 2194 1759 
Q 1497 1759 1228 1600 
Q 959 1441 959 1056 
Q 959 750 1161 570 
Q 1363 391 1709 391 
Q 2188 391 2477 730 
Q 2766 1069 2766 1631 
L 2766 1759 
L 2194 1759 
z
M 3341 1997 
L 3341 0 
L 2766 0 
L 2766 531 
Q 2569 213 2275 61 
Q 1981 -91 1556 -91 
Q 1019 -91 701 211 
Q 384 513 384 1019 
Q 384 1609 779 1909 
Q 1175 2209 1959 2209 
L 2766 2209 
L 2766 2266 
Q 2766 2663 2505 2880 
Q 2244 3097 1772 3097 
Q 1472 3097 1187 3025 
Q 903 2953 641 2809 
L 641 3341 
Q 956 3463 1253 3523 
Q 1550 3584 1831 3584 
Q 2591 3584 2966 3190 
Q 3341 2797 3341 1997 
z
M 2150 4850 
L 2784 4850 
L 2784 4219 
L 2150 4219 
L 2150 4850 
z
M 928 4850 
L 1562 4850 
L 1562 4219 
L 928 4219 
L 928 4850 
z
" transform="scale(0.015625)"/>
        <path id="DejaVuSans-7a" d="M 353 3500 
L 3084 3500 
L 3084 2975 
L 922 459 
L 3084 459 
L 3084 0 
L 275 0 
L 275 525 
L 2438 3041 
L 353 3041 
L 353 3500 
z
" transform="scale(0.015625)"/>
       </defs>
       <use xlink:href="#DejaVuSans-4d"/>
       <use xlink:href="#DejaVuSans-e4" transform="translate(86.279297 0)"/>
       <use xlink:href="#DejaVuSans-72" transform="translate(147.558594 0)"/>
       <use xlink:href="#DejaVuSans-7a" transform="translate(188.671875 0)"/>
      </g>
     </g>
    </g>
    <g id="xtick_4">
     <g id="line2d_4">
      <g>
       <use xlink:href="#mfeb5f732a3" x="270.38875" y="433.957187" style="fill: #a9b1d6; stroke: #a9b1d6; stroke-width: 0.8"/>
      </g>
     </g>
     <g id="text_4">
      <!-- April -->
      <g style="fill: #a9b1d6" transform="translate(264.259018 462.491904) rotate(-45) scale(0.1 -0.1)">
       <defs>
        <path id="DejaVuSans-41" d="M 2188 4044 
L 1331 1722 
L 3047 1722 
L 2188 4044 
z
M 1831 4666 
L 2547 4666 
L 4325 0 
L 3669 0 
L 3244 1197 
L 1141 1197 
L 716 0 
L 50 0 
L 1831 4666 
z
" transform="scale(0.015625)"/>
        <path id="DejaVuSans-70" d="M 1159 525 
L 1159 -1331 
L 581 -1331 
L 581 3500 
L 1159 3500 
L 1159 2969 
Q 1341 3281 1617 3432 
Q 1894 3584 2278 3584 
Q 2916 3584 3314 3078 
Q 3713 2572 3713 1747 
Q 3713 922 3314 415 
Q 2916 -91 2278 -91 
Q 1894 -91 1617 61 
Q 1341 213 1159 525 
z
M 3116 1747 
Q 3116 2381 2855 2742 
Q 2594 3103 2138 3103 
Q 1681 3103 1420 2742 
Q 1159 2381 1159 1747 
Q 1159 1113 1420 752 
Q 1681 391 2138 391 
Q 2594 391 2855 752 
Q 3116 1113 3116 1747 
z
" transform="scale(0.015625)"/>
        <path id="DejaVuSans-69" d="M 603 3500 
L 1178 3500 
L 1178 0 
L 603 0 
L 603 3500 
z
M 603 4863 
L 1178 4863 
L 1178 4134 
L 603 4134 
L 603 4863 
z
" transform="scale(0.015625)"/>
        <path id="DejaVuSans-6c" d="M 603 4863 
L 1178 4863 
L 1178 0 
L 603 0 
L 603 4863 
z
" transform="scale(0.015625)"/>
       </defs>
       <use xlink:href="#DejaVuSans-41"/>
       <use xlink:href="#DejaVuSans-70" transform="translate(68.408203 0)"/>
       <use xlink:href="#DejaVuSans-72" transform="translate(131.884766 0)"/>
       <use xlink:href="#DejaVuSans-69" transform="translate(172.998047 0)"/>
       <use xlink:href="#DejaVuSans-6c" transform="translate(200.78125 0)"/>
      </g>
     </g>
    </g>
    <g id="xtick_5">
     <g id="line2d_5">
      <g>
       <use xlink:href="#mfeb5f732a3" x="335.48875" y="433.957187" style="fill: #a9b1d6; stroke: #a9b1d6; stroke-width: 0.8"/>
      </g>
     </g>
     <g id="text_5">
      <!-- Mai -->
      <g style="fill: #a9b1d6" transform="translate(331.240585 458.72877) rotate(-45) scale(0.1 -0.1)">
       <use xlink:href="#DejaVuSans-4d"/>
       <use xlink:href="#DejaVuSans-61" transform="translate(86.279297 0)"/>
       <use xlink:href="#DejaVuSans-69" transform="translate(147.558594 0)"/>
      </g>
     </g>
    </g>
    <g id="xtick_6">
     <g id="line2d_6">
      <g>
       <use xlink:href="#mfeb5f732a3" x="400.58875" y="433.957187" style="fill: #a9b1d6; stroke: #a9b1d6; stroke-width: 0.8"/>
      </g>
     </g>
     <g id="text_6">
      <!-- Juni -->
      <g style="fill: #a9b1d6" transform="translate(396.033436 459.343069) rotate(-45) scale(0.1 -0.1)">
       <use xlink:href="#DejaVuSans-4a"/>
       <use xlink:href="#DejaVuSans-75" transform="translate(29.492188 0)"/>
       <use xlink:href="#DejaVuSans-6e" transform="translate(92.871094 0)"/>
       <use xlink:href="#DejaVuSans-69" transform="translate(156.25 0)"/>
      </g>
     </g>
    </g>
    <g id="xtick_7">
     <g id="line2d_7">
      <g>
       <use xlink:href="#mfeb5f732a3" x="465.68875" y="433.957187" style="fill: #a9b1d6; stroke: #a9b1d6; stroke-width: 0.8"/>
      </g>
     </g>
     <g id="text_7">
      <!-- Juli -->
      <g style="fill: #a9b1d6" transform="translate(462.391865 456.82621) rotate(-45) scale(0.1 -0.1)">
       <use xlink:href="#DejaVuSans-4a"/>
       <use xlink:href="#DejaVuSans-75" transform="translate(29.492188 0)"/>
       <use xlink:href="#DejaVuSans-6c" transform="translate(92.871094 0)"/>
       <use xlink:href="#DejaVuSans-69" transform="translate(120.654297 0)"/>
      </g>
     </g>
    </g>
    <g id="xtick_8">
     <g id="line2d_8">
      <g>
       <use xlink:href="#mfeb5f732a3" x="530.78875" y="433.957187" style="fill: #a9b1d6; stroke: #a9b1d6; stroke-width: 0.8"/>
      </g>
     </g>
     <g id="text_8">
      <!-- August -->
      <g style="fill: #a9b1d6" transform="translate(520.367764 471.074412) rotate(-45) scale(0.1 -0.1)">
       <defs>
        <path id="DejaVuSans-67" d="M 2906 1791 
Q 2906 2416 2648 2759 
Q 2391 3103 1925 3103 
Q 1463 3103 1205 2759 
Q 947 2416 947 1791 
Q 947 1169 1205 825 
Q 1463 481 1925 481 
Q 2391 481 2648 825 
Q 2906 1169 2906 1791 
z
M 3481 434 
Q 3481 -459 3084 -895 
Q 2688 -1331 1869 -1331 
Q 1566 -1331 1297 -1286 
Q 1028 -1241 775 -1147 
L 775 -588 
Q 1028 -725 1275 -790 
Q 1522 -856 1778 -856 
Q 2344 -856 2625 -561 
Q 2906 -266 2906 331 
L 2906 616 
Q 2728 306 2450 153 
Q 2172 0 1784 0 
Q 1141 0 747 490 
Q 353 981 353 1791 
Q 353 2603 747 3093 
Q 1141 3584 1784 3584 
Q 2172 3584 2450 3431 
Q 2728 3278 2906 2969 
L 2906 3500 
L 3481 3500 
L 3481 434 
z
" transform="scale(0.015625)"/>
        <path id="DejaVuSans-73" d="M 2834 3397 
L 2834 2853 
Q 2591 2978 2328 3040 
Q 2066 3103 1784 3103 
Q 1356 3103 1142 2972 
Q 928 2841 928 2578 
Q 928 2378 1081 2264 
Q 1234 2150 1697 2047 
L 1894 2003 
Q 2506 1872 2764 1633 
Q 3022 1394 3022 966 
Q 3022 478 2636 193 
Q 2250 -91 1575 -91 
Q 1294 -91 989 -36 
Q 684 19 347 128 
L 347 722 
Q 666 556 975 473 
Q 1284 391 1588 391 
Q 1994 391 2212 530 
Q 2431 669 2431 922 
Q 2431 1156 2273 1281 
Q 2116 1406 1581 1522 
L 1381 1569 
Q 847 1681 609 1914 
Q 372 2147 372 2553 
Q 372 3047 722 3315 
Q 1072 3584 1716 3584 
Q 2034 3584 2315 3537 
Q 2597 3491 2834 3397 
z
" transform="scale(0.015625)"/>
        <path id="DejaVuSans-74" d="M 1172 4494 
L 1172 3500 
L 2356 3500 
L 2356 3053 
L 1172 3053 
L 1172 1153 
Q 1172 725 1289 603 
Q 1406 481 1766 481 
L 2356 481 
L 2356 0 
L 1766 0 
Q 1100 0 847 248 
Q 594 497 594 1153 
L 594 3053 
L 172 3053 
L 172 3500 
L 594 3500 
L 594 4494 
L 1172 4494 
z
" transform="scale(0.015625)"/>
       </defs>
       <use xlink:href="#DejaVuSans-41"/>
       <use xlink:href="#DejaVuSans-75" transform="translate(68.408203 0)"/>
       <use xlink:href="#DejaVuSans-67" transform="translate(131.787109 0)"/>
       <use xlink:href="#DejaVuSans-75" transform="translate(195.263672 0)"/>
       <use xlink:href="#DejaVuSans-73" transform="translate(258.642578 0)"/>
       <use xlink:href="#DejaVuSans-74" transform="translate(310.742188 0)"/>
      </g>
     </g>
    </g>
    <g id="xtick_9">
     <g id="line2d_9">
      <g>
       <use xlink:href="#mfeb5f732a3" x="595.88875" y="433.957187" style="fill: #a9b1d6; stroke: #a9b1d6; stroke-width: 0.8"/>
      </g>
     </g>
     <g id="text_9">
      <!-- September -->
      <g style="fill: #a9b1d6" transform="translate(578.296707 485.416526) rotate(-45) scale(0.1 -0.1)">
       <defs>
        <path id="DejaVuSans-53" d="M 3425 4513 
L 3425 3897 
Q 3066 4069 2747 4153 
Q 2428 4238 2131 4238 
Q 1616 4238 1336 4038 
Q 1056 3838 1056 3469 
Q 1056 3159 1242 3001 
Q 1428 2844 1947 2747 
L 2328 2669 
Q 3034 2534 3370 2195 
Q 3706 1856 3706 1288 
Q 3706 609 3251 259 
Q 2797 -91 1919 -91 
Q 1588 -91 1214 -16 
Q 841 59 441 206 
L 441 856 
Q 825 641 1194 531 
Q 1563 422 1919 422 
Q 2459 422 2753 634 
Q 3047 847 3047 1241 
Q 3047 1584 2836 1778 
Q 2625 1972 2144 2069 
L 1759 2144 
Q 1053 2284 737 2584 
Q 422 2884 422 3419 
Q 422 4038 858 4394 
Q 1294 4750 2059 4750 
Q 2388 4750 2728 4690 
Q 3069 4631 3425 4513 
z
" transform="scale(0.015625)"/>
        <path id="DejaVuSans-6d" d="M 3328 2828 
Q 3544 3216 3844 3400 
Q 4144 3584 4550 3584 
Q 5097 3584 5394 3201 
Q 5691 2819 5691 2113 
L 5691 0 
L 5113 0 
L 5113 2094 
Q 5113 2597 4934 2840 
Q 4756 3084 4391 3084 
Q 3944 3084 3684 2787 
Q 3425 2491 3425 1978 
L 3425 0 
L 2847 0 
L 2847 2094 
Q 2847 2600 2669 2842 
Q 2491 3084 2119 3084 
Q 1678 3084 1418 2786 
Q 1159 2488 1159 1978 
L 1159 0 
L 581 0 
L 581 3500 
L 1159 3500 
L 1159 2956 
Q 1356 3278 1631 3431 
Q 1906 3584 2284 3584 
Q 2666 3584 2933 3390 
Q 3200 3197 3328 2828 
z
" transform="scale(0.015625)"/>
       </defs>
       <use xlink:href="#DejaVuSans-53"/>
       <use xlink:href="#DejaVuSans-65" transform="translate(63.476562 0)"/>
       <use xlink:href="#DejaVuSans-70" transform="translate(125 0)"/>
       <use xlink:href="#DejaVuSans-74" transform="translate(188.476562 0)"/>
       <use xlink:href="#DejaVuSans-65" transform="translate(227.685547 0)"/>
       <use xlink:href="#DejaVuSans-6d" transform="translate(289.208984 0)"/>
       <use xlink:href="#DejaVuSans-62" transform="translate(386.621094 0)"/>
       <use xlink:href="#DejaVuSans-65" transform="translate(450.097656 0)"/>
       <use xlink:href="#DejaVuSans-72" transform="translate(511.621094 0)"/>
      </g>
     </g>
    </g>
    <g id="xtick_10">
     <g id="line2d_10">
      <g>
       <use xlink:href="#mfeb5f732a3" x="660.98875" y="433.957187" style="fill: #a9b1d6; stroke: #a9b1d6; stroke-width: 0.8"/>
      </g>
     </g>
     <g id="text_10">
      <!-- Oktober -->
      <g style="fill: #a9b1d6" transform="translate(648.686749 474.836441) rotate(-45) scale(0.1 -0.1)">
       <defs>
        <path id="DejaVuSans-4f" d="M 2522 4238 
Q 1834 4238 1429 3725 
Q 1025 3213 1025 2328 
Q 1025 1447 1429 934 
Q 1834 422 2522 422 
Q 3209 422 3611 934 
Q 4013 1447 4013 2328 
Q 4013 3213 3611 3725 
Q 3209 4238 2522 4238 
z
M 2522 4750 
Q 3503 4750 4090 4092 
Q 4678 3434 4678 2328 
Q 4678 1225 4090 567 
Q 3503 -91 2522 -91 
Q 1538 -91 948 565 
Q 359 1222 359 2328 
Q 359 3434 948 4092 
Q 1538 4750 2522 4750 
z
" transform="scale(0.015625)"/>
        <path id="DejaVuSans-6b" d="M 581 4863 
L 1159 4863 
L 1159 1991 
L 2875 3500 
L 3609 3500 
L 1753 1863 
L 3688 0 
L 2938 0 
L 1159 1709 
L 1159 0 
L 581 0 
L 581 4863 
z
" transform="scale(0.015625)"/>
        <path id="DejaVuSans-6f" d="M 1959 3097 
Q 1497 3097 1228 2736 
Q 959 2375 959 1747 
Q 959 1119 1226 758 
Q 1494 397 1959 397 
Q 2419 397 2687 759 
Q 2956 1122 2956 1747 
Q 2956 2369 2687 2733 
Q 2419 3097 1959 3097 
z
M 1959 3584 
Q 2709 3584 3137 3096 
Q 3566 2609 3566 1747 
Q 3566 888 3137 398 
Q 2709 -91 1959 -91 
Q 1206 -91 779 398 
Q 353 888 353 1747 
Q 353 2609 779 3096 
Q 1206 3584 1959 3584 
z
" transform="scale(0.015625)"/>
       </defs>
       <use xlink:href="#DejaVuSans-4f"/>
       <use xlink:href="#DejaVuSans-6b" transform="translate(78.710938 0)"/>
       <use xlink:href="#DejaVuSans-74" transform="translate(136.621094 0)"/>
       <use xlink:href="#DejaVuSans-6f" transform="translate(175.830078 0)"/>
       <use xlink:href="#DejaVuSans-62" transform="translate(237.011719 0)"/>
       <use xlink:href="#DejaVuSans-65" transform="translate(300.488281 0)"/>
       <use xlink:href="#DejaVuSans-72" transform="translate(362.011719 0)"/>
      </g>
     </g>
    </g>
    <g id="xtick_11">
     <g id="line2d_11">
      <g>
       <use xlink:href="#mfeb5f732a3" x="726.08875" y="433.957187" style="fill: #a9b1d6; stroke: #a9b1d6; stroke-width: 0.8"/>
      </g>
     </g>
     <g id="text_11">
      <!-- November -->
      <g style="fill: #a9b1d6" transform="translate(709.646308 483.117324) rotate(-45) scale(0.1 -0.1)">
       <defs>
        <path id="DejaVuSans-4e" d="M 628 4666 
L 1478 4666 
L 3547 763 
L 3547 4666 
L 4159 4666 
L 4159 0 
L 3309 0 
L 1241 3903 
L 1241 0 
L 628 0 
L 628 4666 
z
" transform="scale(0.015625)"/>
        <path id="DejaVuSans-76" d="M 191 3500 
L 800 3500 
L 1894 563 
L 2988 3500 
L 3597 3500 
L 2284 0 
L 1503 0 
L 191 3500 
z
" transform="scale(0.015625)"/>
       </defs>
       <use xlink:href="#DejaVuSans-4e"/>
       <use xlink:href="#DejaVuSans-6f" transform="translate(74.804688 0)"/>
       <use xlink:href="#DejaVuSans-76" transform="translate(135.986328 0)"/>
       <use xlink:href="#DejaVuSans-65" transform="translate(195.166016 0)"/>
       <use xlink:href="#DejaVuSans-6d" transform="translate(256.689453 0)"/>
       <use xlink:href="#DejaVuSans-62" transform="translate(354.101562 0)"/>
       <use xlink:href="#DejaVuSans-65" transform="translate(417.578125 0)"/>
       <use xlink:href="#DejaVuSans-72" transform="translate(479.101562 0)"/>
      </g>
     </g>
    </g>
    <g id="xtick_12">
     <g id="line2d_12">
      <g>
       <use xlink:href="#mfeb5f732a3" x="791.18875" y="433.957187" style="fill: #a9b1d6; stroke: #a9b1d6; stroke-width: 0.8"/>
      </g>
     </g>
     <g id="text_12">
      <!-- Dezember -->
      <g style="fill: #a9b1d6" transform="translate(774.893806 482.822328) rotate(-45) scale(0.1 -0.1)">
       <defs>
        <path id="DejaVuSans-44" d="M 1259 4147 
L 1259 519 
L 2022 519 
Q 2988 519 3436 956 
Q 3884 1394 3884 2338 
Q 3884 3275 3436 3711 
Q 2988 4147 2022 4147 
L 1259 4147 
z
M 628 4666 
L 1925 4666 
Q 3281 4666 3915 4102 
Q 4550 3538 4550 2338 
Q 4550 1131 3912 565 
Q 3275 0 1925 0 
L 628 0 
L 628 4666 
z
" transform="scale(0.015625)"/>
       </defs>
       <use xlink:href="#DejaVuSans-44"/>
       <use xlink:href="#DejaVuSans-65" transform="translate(77.001953 0)"/>
       <use xlink:href="#DejaVuSans-7a" transform="translate(138.525391 0)"/>
       <use xlink:href="#DejaVuSans-65" transform="translate(191.015625 0)"/>
       <use xlink:href="#DejaVuSans-6d" transform="translate(252.539062 0)"/>
       <use xlink:href="#DejaVuSans-62" transform="translate(349.951172 0)"/>
       <use xlink:href="#DejaVuSans-65" transform="translate(413.427734 0)"/>
       <use xlink:href="#DejaVuSans-72" transform="translate(474.951172 0)"/>
      </g>
     </g>
    </g>
   </g>
   <g id="matplotlib.axis_2">
    <g id="ytick_1">
     <g id="line2d_13">
      <path d="M 42.53875 385.94703 
L 823.73875 385.94703 
" clip-path="url(#p54ec3dd46a)" style="fill: none; stroke-dasharray: 2.96,1.28; stroke-dashoffset: 0; stroke: #2f3549; stroke-opacity: 0.3; stroke-width: 0.8"/>
     </g>
     <g id="line2d_14">
      <defs>
       <path id="meb4e3a0597" d="M 0 0 
L -3.5 0 
" style="stroke: #a9b1d6; stroke-width: 0.8"/>
      </defs>
      <g>
       <use xlink:href="#meb4e3a0597" x="42.53875" y="385.94703" style="fill: #a9b1d6; stroke: #a9b1d6; stroke-width: 0.8"/>
      </g>
     </g>
     <g id="text_13">
      <!-- 0 -->
      <g style="fill: #a9b1d6" transform="translate(29.17625 389.746248) scale(0.1 -0.1)">
       <defs>
        <path id="DejaVuSans-30" d="M 2034 4250 
Q 1547 4250 1301 3770 
Q 1056 3291 1056 2328 
Q 1056 1369 1301 889 
Q 1547 409 2034 409 
Q 2525 409 2770 889 
Q 3016 1369 3016 2328 
Q 3016 3291 2770 3770 
Q 2525 4250 2034 4250 
z
M 2034 4750 
Q 2819 4750 3233 4129 
Q 3647 3509 3647 2328 
Q 3647 1150 3233 529 
Q 2819 -91 2034 -91 
Q 1250 -91 836 529 
Q 422 1150 422 2328 
Q 422 3509 836 4129 
Q 1250 4750 2034 4750 
z
" transform="scale(0.015625)"/>
       </defs>
       <use xlink:href="#DejaVuSans-30"/>
      </g>
     </g>
    </g>
    <g id="ytick_2">
     <g id="line2d_15">
      <path d="M 42.53875 335.3301 
L 823.73875 335.3301 
" clip-path="url(#p54ec3dd46a)" style="fill: none; stroke-dasharray: 2.96,1.28; stroke-dashoffset: 0; stroke: #2f3549; stroke-opacity: 0.3; stroke-width: 0.8"/>
     </g>
     <g id="line2d_16">
      <g>
       <use xlink:href="#meb4e3a0597" x="42.53875" y="335.3301" style="fill: #a9b1d6; stroke: #a9b1d6; stroke-width: 0.8"/>
      </g>
     </g>
     <g id="text_14">
      <!-- 5 -->
      <g style="fill: #a9b1d6" transform="translate(29.17625 339.129319) scale(0.1 -0.1)">
       <defs>
        <path id="DejaVuSans-35" d="M 691 4666 
L 3169 4666 
L 3169 4134 
L 1269 4134 
L 1269 2991 
Q 1406 3038 1543 3061 
Q 1681 3084 1819 3084 
Q 2600 3084 3056 2656 
Q 3513 2228 3513 1497 
Q 3513 744 3044 326 
Q 2575 -91 1722 -91 
Q 1428 -91 1123 -41 
Q 819 9 494 109 
L 494 744 
Q 775 591 1075 516 
Q 1375 441 1709 441 
Q 2250 441 2565 725 
Q 2881 1009 2881 1497 
Q 2881 1984 2565 2268 
Q 2250 2553 1709 2553 
Q 1456 2553 1204 2497 
Q 953 2441 691 2322 
L 691 4666 
z
" transform="scale(0.015625)"/>
       </defs>
       <use xlink:href="#DejaVuSans-35"/>
      </g>
     </g>
    </g>
    <g id="ytick_3">
     <g id="line2d_17">
      <path d="M 42.53875 284.71317 
L 823.73875 284.71317 
" clip-path="url(#p54ec3dd46a)" style="fill: none; stroke-dasharray: 2.96,1.28; stroke-dashoffset: 0; stroke: #2f3549; stroke-opacity: 0.3; stroke-width: 0.8"/>
     </g>
     <g id="line2d_18">
      <g>
       <use xlink:href="#meb4e3a0597" x="42.53875" y="284.71317" style="fill: #a9b1d6; stroke: #a9b1d6; stroke-width: 0.8"/>
      </g>
     </g>
     <g id="text_15">
      <!-- 10 -->
      <g style="fill: #a9b1d6" transform="translate(22.81375 288.512389) scale(0.1 -0.1)">
       <defs>
        <path id="DejaVuSans-31" d="M 794 531 
L 1825 531 
L 1825 4091 
L 703 3866 
L 703 4441 
L 1819 4666 
L 2450 4666 
L 2450 531 
L 3481 531 
L 3481 0 
L 794 0 
L 794 531 
z
" transform="scale(0.015625)"/>
       </defs>
       <use xlink:href="#DejaVuSans-31"/>
       <use xlink:href="#DejaVuSans-30" transform="translate(63.623047 0)"/>
      </g>
     </g>
    </g>
    <g id="ytick_4">
     <g id="line2d_19">
      <path d="M 42.53875 234.096241 
L 823.73875 234.096241 
" clip-path="url(#p54ec3dd46a)" style="fill: none; stroke-dasharray: 2.96,1.28; stroke-dashoffset: 0; stroke: #2f3549; stroke-opacity: 0.3; stroke-width: 0.8"/>
     </g>
     <g id="line2d_20">
      <g>
       <use xlink:href="#meb4e3a0597" x="42.53875" y="234.096241" style="fill: #a9b1d6; stroke: #a9b1d6; stroke-width: 0.8"/>
      </g>
     </g>
     <g id="text_16">
      <!-- 15 -->
      <g style="fill: #a9b1d6" transform="translate(22.81375 237.895459) scale(0.1 -0.1)">
       <use xlink:href="#DejaVuSans-31"/>
       <use xlink:href="#DejaVuSans-35" transform="translate(63.623047 0)"/>
      </g>
     </g>
    </g>
    <g id="ytick_5">
     <g id="line2d_21">
      <path d="M 42.53875 183.479311 
L 823.73875 183.479311 
" clip-path="url(#p54ec3dd46a)" style="fill: none; stroke-dasharray: 2.96,1.28; stroke-dashoffset: 0; stroke: #2f3549; stroke-opacity: 0.3; stroke-width: 0.8"/>
     </g>
     <g id="line2d_22">
      <g>
       <use xlink:href="#meb4e3a0597" x="42.53875" y="183.479311" style="fill: #a9b1d6; stroke: #a9b1d6; stroke-width: 0.8"/>
      </g>
     </g>
     <g id="text_17">
      <!-- 20 -->
      <g style="fill: #a9b1d6" transform="translate(22.81375 187.27853) scale(0.1 -0.1)">
       <defs>
        <path id="DejaVuSans-32" d="M 1228 531 
L 3431 531 
L 3431 0 
L 469 0 
L 469 531 
Q 828 903 1448 1529 
Q 2069 2156 2228 2338 
Q 2531 2678 2651 2914 
Q 2772 3150 2772 3378 
Q 2772 3750 2511 3984 
Q 2250 4219 1831 4219 
Q 1534 4219 1204 4116 
Q 875 4013 500 3803 
L 500 4441 
Q 881 4594 1212 4672 
Q 1544 4750 1819 4750 
Q 2544 4750 2975 4387 
Q 3406 4025 3406 3419 
Q 3406 3131 3298 2873 
Q 3191 2616 2906 2266 
Q 2828 2175 2409 1742 
Q 1991 1309 1228 531 
z
" transform="scale(0.015625)"/>
       </defs>
       <use xlink:href="#DejaVuSans-32"/>
       <use xlink:href="#DejaVuSans-30" transform="translate(63.623047 0)"/>
      </g>
     </g>
    </g>
    <g id="ytick_6">
     <g id="line2d_23">
      <path d="M 42.53875 132.862381 
L 823.73875 132.862381 
" clip-path="url(#p54ec3dd46a)" style="fill: none; stroke-dasharray: 2.96,1.28; stroke-dashoffset: 0; stroke: #2f3549; stroke-opacity: 0.3; stroke-width: 0.8"/>
     </g>
     <g id="line2d_24">
      <g>
       <use xlink:href="#meb4e3a0597" x="42.53875" y="132.862381" style="fill: #a9b1d6; stroke: #a9b1d6; stroke-width: 0.8"/>
      </g>
     </g>
     <g id="text_18">
      <!-- 25 -->
      <g style="fill: #a9b1d6" transform="translate(22.81375 136.6616) scale(0.1 -0.1)">
       <use xlink:href="#DejaVuSans-32"/>
       <use xlink:href="#DejaVuSans-35" transform="translate(63.623047 0)"/>
      </g>
     </g>
    </g>
    <g id="ytick_7">
     <g id="line2d_25">
      <path d="M 42.53875 82.245451 
L 823.73875 82.245451 
" clip-path="url(#p54ec3dd46a)" style="fill: none; stroke-dasharray: 2.96,1.28; stroke-dashoffset: 0; stroke: #2f3549; stroke-opacity: 0.3; stroke-width: 0.8"/>
     </g>
     <g id="line2d_26">
      <g>
       <use xlink:href="#meb4e3a0597" x="42.53875" y="82.245451" style="fill: #a9b1d6; stroke: #a9b1d6; stroke-width: 0.8"/>
      </g>
     </g>
     <g id="text_19">
      <!-- 30 -->
      <g style="fill: #a9b1d6" transform="translate(22.81375 86.04467) scale(0.1 -0.1)">
       <defs>
        <path id="DejaVuSans-33" d="M 2597 2516 
Q 3050 2419 3304 2112 
Q 3559 1806 3559 1356 
Q 3559 666 3084 287 
Q 2609 -91 1734 -91 
Q 1441 -91 1130 -33 
Q 819 25 488 141 
L 488 750 
Q 750 597 1062 519 
Q 1375 441 1716 441 
Q 2309 441 2620 675 
Q 2931 909 2931 1356 
Q 2931 1769 2642 2001 
Q 2353 2234 1838 2234 
L 1294 2234 
L 1294 2753 
L 1863 2753 
Q 2328 2753 2575 2939 
Q 2822 3125 2822 3475 
Q 2822 3834 2567 4026 
Q 2313 4219 1838 4219 
Q 1578 4219 1281 4162 
Q 984 4106 628 3988 
L 628 4550 
Q 988 4650 1302 4700 
Q 1616 4750 1894 4750 
Q 2613 4750 3031 4423 
Q 3450 4097 3450 3541 
Q 3450 3153 3228 2886 
Q 3006 2619 2597 2516 
z
" transform="scale(0.015625)"/>
       </defs>
       <use xlink:href="#DejaVuSans-33"/>
       <use xlink:href="#DejaVuSans-30" transform="translate(63.623047 0)"/>
      </g>
     </g>
    </g>
    <g id="text_20">
     <!-- °C -->
     <g style="fill: #a9b1d6" transform="translate(16.318125 247.106875) rotate(-90) scale(0.12 -0.12)">
      <defs>
       <path id="DejaVuSans-b0" d="M 1600 4347 
Q 1350 4347 1178 4173 
Q 1006 4000 1006 3750 
Q 1006 3503 1178 3333 
Q 1350 3163 1600 3163 
Q 1850 3163 2022 3333 
Q 2194 3503 2194 3750 
Q 2194 3997 2020 4172 
Q 1847 4347 1600 4347 
z
M 1600 4750 
Q 1800 4750 1984 4673 
Q 2169 4597 2303 4453 
Q 2447 4313 2519 4134 
Q 2591 3956 2591 3750 
Q 2591 3338 2302 3052 
Q 2013 2766 1594 2766 
Q 1172 2766 890 3047 
Q 609 3328 609 3750 
Q 609 4169 896 4459 
Q 1184 4750 1600 4750 
z
" transform="scale(0.015625)"/>
       <path id="DejaVuSans-43" d="M 4122 4306 
L 4122 3641 
Q 3803 3938 3442 4084 
Q 3081 4231 2675 4231 
Q 1875 4231 1450 3742 
Q 1025 3253 1025 2328 
Q 1025 1406 1450 917 
Q 1875 428 2675 428 
Q 3081 428 3442 575 
Q 3803 722 4122 1019 
L 4122 359 
Q 3791 134 3420 21 
Q 3050 -91 2638 -91 
Q 1578 -91 968 557 
Q 359 1206 359 2328 
Q 359 3453 968 4101 
Q 1578 4750 2638 4750 
Q 3056 4750 3426 4639 
Q 3797 4528 4122 4306 
z
" transform="scale(0.015625)"/>
      </defs>
      <use xlink:href="#DejaVuSans-b0"/>
      <use xlink:href="#DejaVuSans-43" transform="translate(50 0)"/>
     </g>
    </g>
   </g>
   <g id="patch_9">
    <path d="M 42.53875 433.957187 
L 42.53875 45.877187 
" style="fill: none; stroke: #a9b1d6; stroke-width: 0.8; stroke-linejoin: miter; stroke-linecap: square"/>
   </g>
   <g id="patch_10">
    <path d="M 823.73875 433.957187 
L 823.73875 45.877187 
" style="fill: none; stroke: #a9b1d6; stroke-width: 0.8; stroke-linejoin: miter; stroke-linecap: square"/>
   </g>
   <g id="patch_11">
    <path d="M 42.53875 433.957187 
L 823.73875 433.957187 
" style="fill: none; stroke: #a9b1d6; stroke-width: 0.8; stroke-linejoin: miter; stroke-linecap: square"/>
   </g>
   <g id="patch_12">
    <path d="M 42.53875 45.877187 
L 823.73875 45.877187 
" style="fill: none; stroke: #a9b1d6; stroke-width: 0.8; stroke-linejoin: miter; stroke-linecap: square"/>
   </g>
   <g id="line2d_27">
    <path d="M 732.59875 313.56482 
L 745.61875 300.573142 
L 758.63875 361.819627 
L 771.65875 368.399827 
L 784.67875 416.317187 
L 797.69875 290.787202 
L 810.71875 267.503414 
" clip-path="url(#p54ec3dd46a)" style="fill: none; stroke: #bb9af7; stroke-width: 3; stroke-linecap: square"/>
   </g>
   <g id="line2d_28">
    <path d="M 42.53875 254.005566 
L 55.55875 284.881893 
L 68.57875 309.009297 
L 81.59875 372.111736 
L 94.61875 364.10944 
L 107.63875 336.679885 
L 120.65875 349.165394 
L 133.67875 272.396384 
L 146.69875 270.54043 
L 159.71875 354.311449 
L 172.73875 333.474146 
L 185.75875 318.626513 
L 198.77875 243.544734 
L 211.79875 220.42967 
L 224.81875 262.730961 
L 237.83875 294.49911 
L 250.85875 246.919196 
L 263.87875 274.252338 
L 276.89875 212.330961 
L 289.91875 255.524074 
L 302.93875 196.639713 
L 315.95875 182.635695 
L 328.97875 202.038852 
L 341.99875 167.61934 
L 355.01875 154.266111 
L 368.03875 156.146169 
L 381.05875 108.060086 
L 394.07875 132.862381 
L 407.09875 95.068407 
L 420.11875 107.553916 
L 433.13875 126.78835 
L 446.15875 63.517187 
L 459.17875 82.582898 
L 472.19875 120.545595 
L 485.21875 144.576585 
L 498.23875 151.759368 
L 511.25875 137.586628 
L 524.27875 86.294806 
L 537.29875 79.545882 
L 550.31875 163.811018 
L 563.33875 135.730674 
L 576.35875 77.015035 
L 589.37875 127.463242 
L 602.39875 152.94043 
L 615.41875 127.463242 
L 628.43875 162.388924 
L 641.45875 184.660373 
L 654.47875 228.697101 
L 706.55875 284.71317 
L 719.57875 285.388063 
L 732.59875 297.19868 
L 745.61875 354.733256 
L 758.63875 378.86066 
L 771.65875 310.190358 
L 784.67875 302.935265 
L 797.69875 299.223357 
L 810.71875 277.192941 
" clip-path="url(#p54ec3dd46a)" style="fill: none; stroke: #9ece6a; stroke-width: 3; stroke-linecap: square"/>
   </g>
   <g id="line2d_29">
    <path d="M 42.53875 292.811879 
L 55.55875 405.856355 
L 68.57875 365.700258 
L 81.59875 326.219053 
L 94.61875 282.977733 
L 107.63875 278.470416 
L 120.65875 275.939569 
L 133.67875 250.96855 
L 146.69875 272.227661 
L 159.71875 283.093429 
L 172.73875 277.6268 
L 185.75875 267.672137 
L 198.77875 244.219627 
L 211.79875 254.005566 
L 224.81875 212.98175 
L 237.83875 194.446312 
L 250.85875 154.965107 
L 263.87875 225.997532 
L 276.89875 292.30571 
L 289.91875 173.187202 
L 302.93875 164.413601 
L 315.95875 181.623357 
L 328.97875 145.685337 
L 341.99875 150.24086 
L 355.01875 159.617044 
L 368.03875 160.195523 
L 381.05875 153.615322 
L 394.07875 138.26152 
L 407.09875 135.899397 
L 420.11875 87.644591 
L 433.13875 151.590645 
L 446.15875 98.442869 
L 459.17875 107.047747 
L 472.19875 87.475868 
L 485.21875 108.710875 
L 498.23875 118.520918 
L 511.25875 98.949038 
L 524.27875 83.763959 
L 537.29875 110.253486 
L 550.31875 103.504562 
L 563.33875 77.521205 
L 576.35875 154.290215 
L 589.37875 202.207575 
L 602.39875 151.759368 
L 615.41875 205.413314 
L 628.43875 242.532396 
L 641.45875 200.85779 
L 654.47875 229.203271 
L 667.49875 204.569698 
L 680.51875 210.523213 
L 693.53875 279.8202 
L 706.55875 320.65119 
L 719.57875 310.865251 
L 732.59875 309.684189 
L 745.61875 271.046599 
L 758.63875 315.75822 
L 771.65875 344.272424 
L 784.67875 312.046312 
L 797.69875 313.227374 
L 810.71875 330.991506 
" clip-path="url(#p54ec3dd46a)" style="fill: none; stroke: #2ac3de; stroke-width: 3; stroke-linecap: square"/>
   </g>
   <g id="line2d_30">
    <path d="M 42.53875 309.684189 
L 55.55875 332.293084 
L 68.57875 355.914318 
L 81.59875 313.56482 
L 94.61875 272.420487 
L 107.63875 340.391793 
L 159.71875 292.136987 
L 172.73875 264.297675 
L 185.75875 241.013888 
L 198.77875 310.696528 
L 211.79875 221.610731 
L 224.81875 275.457503 
L 237.83875 244.38835 
L 250.85875 233.590071 
L 263.87875 187.359942 
L 276.89875 212.162238 
L 289.91875 193.265251 
L 302.93875 196.302266 
L 315.95875 210.475007 
L 328.97875 202.207575 
L 341.99875 193.265251 
L 355.01875 158.170846 
L 368.03875 137.924074 
L 381.05875 166.269555 
L 394.07875 107.553916 
L 407.09875 114.30284 
L 420.11875 83.932682 
L 433.13875 80.55822 
L 446.15875 152.94043 
L 459.17875 132.524935 
L 472.19875 119.870703 
L 485.21875 149.493658 
L 498.23875 151.084476 
L 511.25875 106.710301 
L 524.27875 106.204132 
L 537.29875 155.471276 
L 550.31875 130.982324 
L 563.33875 128.813027 
L 576.35875 156.483615 
L 589.37875 160.532969 
L 602.39875 161.714031 
L 615.41875 228.359655 
L 628.43875 240.507718 
L 641.45875 227.684763 
L 654.47875 247.256642 
L 667.49875 228.022209 
L 680.51875 250.004418 
L 693.53875 215.03053 
L 706.55875 257.380028 
L 719.57875 277.424332 
L 732.59875 367.724935 
L 745.61875 324.801779 
L 758.63875 350.515179 
M 784.67875 299.898249 
L 797.69875 322.507144 
L 810.71875 385.36855 
" clip-path="url(#p54ec3dd46a)" style="fill: none; stroke: #f7768e; stroke-width: 3; stroke-linecap: square"/>
   </g>
   <g id="line2d_31">
    <path d="M 42.53875 371.436843 
L 55.55875 390.33383 
L 68.57875 301.922926 
L 81.59875 361.48218 
L 94.61875 384.066972 
L 107.63875 399.444878 
L 120.65875 320.65119 
L 133.67875 357.770272 
L 146.69875 306.47845 
L 159.71875 208.787776 
L 172.73875 241.182611 
L 185.75875 218.067546 
L 198.77875 264.466398 
L 211.79875 256.536413 
L 224.81875 293.534978 
L 237.83875 247.762812 
L 250.85875 274.421061 
L 263.87875 213.512023 
L 276.89875 255.355351 
L 289.91875 233.590071 
" clip-path="url(#p54ec3dd46a)" style="fill: none; stroke: #e0af68; stroke-width: 3; stroke-linecap: square"/>
   </g>
   <g id="text_21">
    <!-- Jahresübersicht - Höchsttemperaturen -->
    <g style="fill: #a9b1d6" transform="translate(261.134688 20.877187) scale(0.18 -0.18)">
     <defs>
      <path id="DejaVuSans-68" d="M 3513 2113 
L 3513 0 
L 2938 0 
L 2938 2094 
Q 2938 2591 2744 2837 
Q 2550 3084 2163 3084 
Q 1697 3084 1428 2787 
Q 1159 2491 1159 1978 
L 1159 0 
L 581 0 
L 581 4863 
L 1159 4863 
L 1159 2956 
Q 1366 3272 1645 3428 
Q 1925 3584 2291 3584 
Q 2894 3584 3203 3211 
Q 3513 2838 3513 2113 
z
" transform="scale(0.015625)"/>
      <path id="DejaVuSans-fc" d="M 544 1381 
L 544 3500 
L 1119 3500 
L 1119 1403 
Q 1119 906 1312 657 
Q 1506 409 1894 409 
Q 2359 409 2629 706 
Q 2900 1003 2900 1516 
L 2900 3500 
L 3475 3500 
L 3475 0 
L 2900 0 
L 2900 538 
Q 2691 219 2414 64 
Q 2138 -91 1772 -91 
Q 1169 -91 856 284 
Q 544 659 544 1381 
z
M 1991 3584 
L 1991 3584 
z
M 2278 4850 
L 2912 4850 
L 2912 4219 
L 2278 4219 
L 2278 4850 
z
M 1056 4850 
L 1690 4850 
L 1690 4219 
L 1056 4219 
L 1056 4850 
z
" transform="scale(0.015625)"/>
      <path id="DejaVuSans-63" d="M 3122 3366 
L 3122 2828 
Q 2878 2963 2633 3030 
Q 2388 3097 2138 3097 
Q 1578 3097 1268 2742 
Q 959 2388 959 1747 
Q 959 1106 1268 751 
Q 1578 397 2138 397 
Q 2388 397 2633 464 
Q 2878 531 3122 666 
L 3122 134 
Q 2881 22 2623 -34 
Q 2366 -91 2075 -91 
Q 1284 -91 818 406 
Q 353 903 353 1747 
Q 353 2603 823 3093 
Q 1294 3584 2113 3584 
Q 2378 3584 2631 3529 
Q 2884 3475 3122 3366 
z
" transform="scale(0.015625)"/>
      <path id="DejaVuSans-20" transform="scale(0.015625)"/>
      <path id="DejaVuSans-2d" d="M 313 2009 
L 1997 2009 
L 1997 1497 
L 313 1497 
L 313 2009 
z
" transform="scale(0.015625)"/>
      <path id="DejaVuSans-48" d="M 628 4666 
L 1259 4666 
L 1259 2753 
L 3553 2753 
L 3553 4666 
L 4184 4666 
L 4184 0 
L 3553 0 
L 3553 2222 
L 1259 2222 
L 1259 0 
L 628 0 
L 628 4666 
z
" transform="scale(0.015625)"/>
      <path id="DejaVuSans-f6" d="M 1959 3097 
Q 1497 3097 1228 2736 
Q 959 2375 959 1747 
Q 959 1119 1226 758 
Q 1494 397 1959 397 
Q 2419 397 2687 759 
Q 2956 1122 2956 1747 
Q 2956 2369 2687 2733 
Q 2419 3097 1959 3097 
z
M 1959 3584 
Q 2709 3584 3137 3096 
Q 3566 2609 3566 1747 
Q 3566 888 3137 398 
Q 2709 -91 1959 -91 
Q 1206 -91 779 398 
Q 353 888 353 1747 
Q 353 2609 779 3096 
Q 1206 3584 1959 3584 
z
M 2254 4850 
L 2888 4850 
L 2888 4219 
L 2254 4219 
L 2254 4850 
z
M 1032 4850 
L 1666 4850 
L 1666 4219 
L 1032 4219 
L 1032 4850 
z
" transform="scale(0.015625)"/>
     </defs>
     <use xlink:href="#DejaVuSans-4a"/>
     <use xlink:href="#DejaVuSans-61" transform="translate(29.492188 0)"/>
     <use xlink:href="#DejaVuSans-68" transform="translate(90.771484 0)"/>
     <use xlink:href="#DejaVuSans-72" transform="translate(154.150391 0)"/>
     <use xlink:href="#DejaVuSans-65" transform="translate(193.013672 0)"/>
     <use xlink:href="#DejaVuSans-73" transform="translate(254.537109 0)"/>
     <use xlink:href="#DejaVuSans-fc" transform="translate(306.636719 0)"/>
     <use xlink:href="#DejaVuSans-62" transform="translate(370.015625 0)"/>
     <use xlink:href="#DejaVuSans-65" transform="translate(433.492188 0)"/>
     <use xlink:href="#DejaVuSans-72" transform="translate(495.015625 0)"/>
     <use xlink:href="#DejaVuSans-73" transform="translate(536.128906 0)"/>
     <use xlink:href="#DejaVuSans-69" transform="translate(588.228516 0)"/>
     <use xlink:href="#DejaVuSans-63" transform="translate(616.011719 0)"/>
     <use xlink:href="#DejaVuSans-68" transform="translate(670.992188 0)"/>
     <use xlink:href="#DejaVuSans-74" transform="translate(734.371094 0)"/>
     <use xlink:href="#DejaVuSans-20" transform="translate(773.580078 0)"/>
     <use xlink:href="#DejaVuSans-2d" transform="translate(805.367188 0)"/>
     <use xlink:href="#DejaVuSans-20" transform="translate(841.451172 0)"/>
     <use xlink:href="#DejaVuSans-48" transform="translate(873.238281 0)"/>
     <use xlink:href="#DejaVuSans-f6" transform="translate(948.433594 0)"/>
     <use xlink:href="#DejaVuSans-63" transform="translate(1009.615234 0)"/>
     <use xlink:href="#DejaVuSans-68" transform="translate(1064.595703 0)"/>
     <use xlink:href="#DejaVuSans-73" transform="translate(1127.974609 0)"/>
     <use xlink:href="#DejaVuSans-74" transform="translate(1180.074219 0)"/>
     <use xlink:href="#DejaVuSans-74" transform="translate(1219.283203 0)"/>
     <use xlink:href="#DejaVuSans-65" transform="translate(1258.492188 0)"/>
     <use xlink:href="#DejaVuSans-6d" transform="translate(1320.015625 0)"/>
     <use xlink:href="#DejaVuSans-70" transform="translate(1417.427734 0)"/>
     <use xlink:href="#DejaVuSans-65" transform="translate(1480.904297 0)"/>
     <use xlink:href="#DejaVuSans-72" transform="translate(1542.427734 0)"/>
     <use xlink:href="#DejaVuSans-61" transform="translate(1583.541016 0)"/>
     <use xlink:href="#DejaVuSans-74" transform="translate(1644.820312 0)"/>
     <use xlink:href="#DejaVuSans-75" transform="translate(1684.029297 0)"/>
     <use xlink:href="#DejaVuSans-72" transform="translate(1747.408203 0)"/>
     <use xlink:href="#DejaVuSans-65" transform="translate(1786.271484 0)"/>
     <use xlink:href="#DejaVuSans-6e" transform="translate(1847.794922 0)"/>
    </g>
   </g>
   <g id="legend_1">
    <g id="patch_13">
     <path d="M 837.40875 141.945938 
L 894.85875 141.945938 
Q 896.85875 141.945938 896.85875 139.945938 
L 896.85875 52.877188 
Q 896.85875 50.877188 894.85875 50.877188 
L 837.40875 50.877188 
Q 835.40875 50.877188 835.40875 52.877188 
L 835.40875 139.945938 
Q 835.40875 141.945938 837.40875 141.945938 
z
" style="fill: #1a1b26; opacity: 0.8; stroke: #a9b1d6; stroke-linejoin: miter"/>
    </g>
    <g id="text_22">
     <!-- Jahr -->
     <g style="fill: #a9b1d6" transform="translate(856.370469 62.475625) scale(0.1 -0.1)">
      <use xlink:href="#DejaVuSans-4a"/>
      <use xlink:href="#DejaVuSans-61" transform="translate(29.492188 0)"/>
      <use xlink:href="#DejaVuSans-68" transform="translate(90.771484 0)"/>
      <use xlink:href="#DejaVuSans-72" transform="translate(154.150391 0)"/>
     </g>
    </g>
    <g id="line2d_32">
     <path d="M 839.40875 73.65375 
L 849.40875 73.65375 
L 859.40875 73.65375 
" style="fill: none; stroke: #bb9af7; stroke-width: 3; stroke-linecap: square"/>
    </g>
    <g id="text_23">
     <!-- 2022 -->
     <g style="fill: #a9b1d6" transform="translate(867.40875 77.15375) scale(0.1 -0.1)">
      <use xlink:href="#DejaVuSans-32"/>
      <use xlink:href="#DejaVuSans-30" transform="translate(63.623047 0)"/>
      <use xlink:href="#DejaVuSans-32" transform="translate(127.246094 0)"/>
      <use xlink:href="#DejaVuSans-32" transform="translate(190.869141 0)"/>
     </g>
    </g>
    <g id="line2d_33">
     <path d="M 839.40875 88.331875 
L 849.40875 88.331875 
L 859.40875 88.331875 
" style="fill: none; stroke: #9ece6a; stroke-width: 3; stroke-linecap: square"/>
    </g>
    <g id="text_24">
     <!-- 2023 -->
     <g style="fill: #a9b1d6" transform="translate(867.40875 91.831875) scale(0.1 -0.1)">
      <use xlink:href="#DejaVuSans-32"/>
      <use xlink:href="#DejaVuSans-30" transform="translate(63.623047 0)"/>
      <use xlink:href="#DejaVuSans-32" transform="translate(127.246094 0)"/>
      <use xlink:href="#DejaVuSans-33" transform="translate(190.869141 0)"/>
     </g>
    </g>
    <g id="line2d_34">
     <path d="M 839.40875 103.01 
L 849.40875 103.01 
L 859.40875 103.01 
" style="fill: none; stroke: #2ac3de; stroke-width: 3; stroke-linecap: square"/>
    </g>
    <g id="text_25">
     <!-- 2024 -->
     <g style="fill: #a9b1d6" transform="translate(867.40875 106.51) scale(0.1 -0.1)">
      <defs>
       <path id="DejaVuSans-34" d="M 2419 4116 
L 825 1625 
L 2419 1625 
L 2419 4116 
z
M 2253 4666 
L 3047 4666 
L 3047 1625 
L 3713 1625 
L 3713 1100 
L 3047 1100 
L 3047 0 
L 2419 0 
L 2419 1100 
L 313 1100 
L 313 1709 
L 2253 4666 
z
" transform="scale(0.015625)"/>
      </defs>
      <use xlink:href="#DejaVuSans-32"/>
      <use xlink:href="#DejaVuSans-30" transform="translate(63.623047 0)"/>
      <use xlink:href="#DejaVuSans-32" transform="translate(127.246094 0)"/>
      <use xlink:href="#DejaVuSans-34" transform="translate(190.869141 0)"/>
     </g>
    </g>
    <g id="line2d_35">
     <path d="M 839.40875 117.688125 
L 849.40875 117.688125 
L 859.40875 117.688125 
" style="fill: none; stroke: #f7768e; stroke-width: 3; stroke-linecap: square"/>
    </g>
    <g id="text_26">
     <!-- 2025 -->
     <g style="fill: #a9b1d6" transform="translate(867.40875 121.188125) scale(0.1 -0.1)">
      <use xlink:href="#DejaVuSans-32"/>
      <use xlink:href="#DejaVuSans-30" transform="translate(63.623047 0)"/>
      <use xlink:href="#DejaVuSans-32" transform="translate(127.246094 0)"/>
      <use xlink:href="#DejaVuSans-35" transform="translate(190.869141 0)"/>
     </g>
    </g>
    <g id="line2d_36">
     <path d="M 839.40875 132.36625 
L 849.40875 132.36625 
L 859.40875 132.36625 
" style="fill: none; stroke: #e0af68; stroke-width: 3; stroke-linecap: square"/>
    </g>
    <g id="text_27">
     <!-- 2026 -->
     <g style="fill: #a9b1d6" transform="translate(867.40875 135.86625) scale(0.1 -0.1)">
      <defs>
       <path id="DejaVuSans-36" d="M 2113 2584 
Q 1688 2584 1439 2293 
Q 1191 2003 1191 1497 
Q 1191 994 1439 701 
Q 1688 409 2113 409 
Q 2538 409 2786 701 
Q 3034 994 3034 1497 
Q 3034 2003 2786 2293 
Q 2538 2584 2113 2584 
z
M 3366 4563 
L 3366 3988 
Q 3128 4100 2886 4159 
Q 2644 4219 2406 4219 
Q 1781 4219 1451 3797 
Q 1122 3375 1075 2522 
Q 1259 2794 1537 2939 
Q 1816 3084 2150 3084 
Q 2853 3084 3261 2657 
Q 3669 2231 3669 1497 
Q 3669 778 3244 343 
Q 2819 -91 2113 -91 
Q 1303 -91 875 529 
Q 447 1150 447 2328 
Q 447 3434 972 4092 
Q 1497 4750 2381 4750 
Q 2619 4750 2861 4703 
Q 3103 4656 3366 4563 
z
" transform="scale(0.015625)"/>
      </defs>
      <use xlink:href="#DejaVuSans-32"/>
      <use xlink:href="#DejaVuSans-30" transform="translate(63.623047 0)"/>
      <use xlink:href="#DejaVuSans-32" transform="translate(127.246094 0)"/>
      <use xlink:href="#DejaVuSans-36" transform="translate(190.869141 0)"/>
     </g>
    </g>
   </g>
  </g>
 </g>
 <defs>
  <clipPath id="p54ec3dd46a">
   <rect x="42.53875" y="45.877187" width="781.2" height="388.08"/>
  </clipPath>
 </defs>
</svg>
