<?xml version="1.0" encoding="utf-8" standalone="no"?>
<!DOCTYPE svg PUBLIC "-//W3C//DTD SVG 1.1//EN"
  "http://www.w3.org/Graphics/SVG/1.1/DTD/svg11.dtd">
<svg xmlns:xlink="http://www.w3.org/1999/xlink" width="906.075938pt" height="494.087088pt" viewBox="0 0 906.075938 494.087088" xmlns="http://www.w3.org/2000/svg" version="1.1">
 <metadata>
  <rdf:RDF xmlns:dc="http://purl.org/dc/elements/1.1/" xmlns:cc="http://creativecommons.org/ns#" xmlns:rdf="http://www.w3.org/1999/02/22-rdf-syntax-ns#">
   <cc:Work>
    <dc:type rdf:resource="http://purl.org/dc/dcmitype/StillImage"/>
    <dc:date>2026-04-26T14:27:59.166634</dc:date>
    <dc:format>image/svg+xml</dc:format>
    <dc:creator>
     <cc:Agent>
      <dc:title>Matplotlib v3.10.8, https://matplotlib.org/</dc:title>
     </cc:Agent>
    </dc:creator>
   </cc:Work>
  </rdf:RDF>
 </metadata>
 <defs>
  <style type="text/css">*{stroke-linejoin: round; stroke-linecap: butt}</style>
 </defs>
 <g id="figure_1">
  <g id="patch_1">
   <path d="M 0 494.087088 
L 906.075938 494.087088 
L 906.075938 0 
L 0 0 
z
" style="fill: #1a1b26"/>
  </g>
  <g id="axes_1">
   <g id="patch_2">
    <path d="M 44.555938 433.957187 
L 825.755938 433.957187 
L 825.755938 45.877187 
L 44.555938 45.877187 
z
" style="fill: #1a1b26"/>
   </g>
   <g id="patch_3">
    <path d="M 109.655938 433.957187 
L 174.755938 433.957187 
L 174.755938 45.877187 
L 109.655938 45.877187 
z
" clip-path="url(#p8394232062)" style="fill: #2f3549; opacity: 0.3; stroke: #2f3549; stroke-linejoin: miter"/>
   </g>
   <g id="patch_4">
    <path d="M 239.855938 433.957187 
L 304.955938 433.957187 
L 304.955938 45.877187 
L 239.855938 45.877187 
z
" clip-path="url(#p8394232062)" style="fill: #2f3549; opacity: 0.3; stroke: #2f3549; stroke-linejoin: miter"/>
   </g>
   <g id="patch_5">
    <path d="M 370.055938 433.957187 
L 435.155938 433.957187 
L 435.155938 45.877187 
L 370.055938 45.877187 
z
" clip-path="url(#p8394232062)" style="fill: #2f3549; opacity: 0.3; stroke: #2f3549; stroke-linejoin: miter"/>
   </g>
   <g id="patch_6">
    <path d="M 500.255937 433.957187 
L 565.355937 433.957187 
L 565.355937 45.877187 
L 500.255937 45.877187 
z
" clip-path="url(#p8394232062)" style="fill: #2f3549; opacity: 0.3; stroke: #2f3549; stroke-linejoin: miter"/>
   </g>
   <g id="patch_7">
    <path d="M 630.455938 433.957187 
L 695.555938 433.957187 
L 695.555938 45.877187 
L 630.455938 45.877187 
z
" clip-path="url(#p8394232062)" style="fill: #2f3549; opacity: 0.3; stroke: #2f3549; stroke-linejoin: miter"/>
   </g>
   <g id="patch_8">
    <path d="M 760.655937 433.957187 
L 825.755937 433.957187 
L 825.755937 45.877187 
L 760.655937 45.877187 
z
" clip-path="url(#p8394232062)" style="fill: #2f3549; opacity: 0.3; stroke: #2f3549; stroke-linejoin: miter"/>
   </g>
   <g id="matplotlib.axis_1">
    <g id="xtick_1">
     <g id="line2d_1">
      <defs>
       <path id="m85af9ccf61" d="M 0 0 
L 0 3.5 
" style="stroke: #a9b1d6; stroke-width: 0.8"/>
      </defs>
      <g>
       <use xlink:href="#m85af9ccf61" x="77.105938" y="433.957187" style="fill: #a9b1d6; stroke: #a9b1d6; stroke-width: 0.8"/>
      </g>
     </g>
     <g id="text_1">
      <!-- Januar -->
      <g style="fill: #a9b1d6" transform="translate(67.746164 468.951987) rotate(-45) scale(0.1 -0.1)">
       <defs>
        <path id="DejaVuSans-4a" d="M 628 4666 
L 1259 4666 
L 1259 325 
Q 1259 -519 939 -900 
Q 619 -1281 -91 -1281 
L -331 -1281 
L -331 -750 
L -134 -750 
Q 284 -750 456 -515 
Q 628 -281 628 325 
L 628 4666 
z
" transform="scale(0.015625)"/>
        <path id="DejaVuSans-61" d="M 2194 1759 
Q 1497 1759 1228 1600 
Q 959 1441 959 1056 
Q 959 750 1161 570 
Q 1363 391 1709 391 
Q 2188 391 2477 730 
Q 2766 1069 2766 1631 
L 2766 1759 
L 2194 1759 
z
M 3341 1997 
L 3341 0 
L 2766 0 
L 2766 531 
Q 2569 213 2275 61 
Q 1981 -91 1556 -91 
Q 1019 -91 701 211 
Q 384 513 384 1019 
Q 384 1609 779 1909 
Q 1175 2209 1959 2209 
L 2766 2209 
L 2766 2266 
Q 2766 2663 2505 2880 
Q 2244 3097 1772 3097 
Q 1472 3097 1187 3025 
Q 903 2953 641 2809 
L 641 3341 
Q 956 3463 1253 3523 
Q 1550 3584 1831 3584 
Q 2591 3584 2966 3190 
Q 3341 2797 3341 1997 
z
" transform="scale(0.015625)"/>
        <path id="DejaVuSans-6e" d="M 3513 2113 
L 3513 0 
L 2938 0 
L 2938 2094 
Q 2938 2591 2744 2837 
Q 2550 3084 2163 3084 
Q 1697 3084 1428 2787 
Q 1159 2491 1159 1978 
L 1159 0 
L 581 0 
L 581 3500 
L 1159 3500 
L 1159 2956 
Q 1366 3272 1645 3428 
Q 1925 3584 2291 3584 
Q 2894 3584 3203 3211 
Q 3513 2838 3513 2113 
z
" transform="scale(0.015625)"/>
        <path id="DejaVuSans-75" d="M 544 1381 
L 544 3500 
L 1119 3500 
L 1119 1403 
Q 1119 906 1312 657 
Q 1506 409 1894 409 
Q 2359 409 2629 706 
Q 2900 1003 2900 1516 
L 2900 3500 
L 3475 3500 
L 3475 0 
L 2900 0 
L 2900 538 
Q 2691 219 2414 64 
Q 2138 -91 1772 -91 
Q 1169 -91 856 284 
Q 544 659 544 1381 
z
M 1991 3584 
L 1991 3584 
z
" transform="scale(0.015625)"/>
        <path id="DejaVuSans-72" d="M 2631 2963 
Q 2534 3019 2420 3045 
Q 2306 3072 2169 3072 
Q 1681 3072 1420 2755 
Q 1159 2438 1159 1844 
L 1159 0 
L 581 0 
L 581 3500 
L 1159 3500 
L 1159 2956 
Q 1341 3275 1631 3429 
Q 1922 3584 2338 3584 
Q 2397 3584 2469 3576 
Q 2541 3569 2628 3553 
L 2631 2963 
z
" transform="scale(0.015625)"/>
       </defs>
       <use xlink:href="#DejaVuSans-4a"/>
       <use xlink:href="#DejaVuSans-61" transform="translate(29.492188 0)"/>
       <use xlink:href="#DejaVuSans-6e" transform="translate(90.771484 0)"/>
       <use xlink:href="#DejaVuSans-75" transform="translate(154.150391 0)"/>
       <use xlink:href="#DejaVuSans-61" transform="translate(217.529297 0)"/>
       <use xlink:href="#DejaVuSans-72" transform="translate(278.808594 0)"/>
      </g>
     </g>
    </g>
    <g id="xtick_2">
     <g id="line2d_2">
      <g>
       <use xlink:href="#m85af9ccf61" x="142.205938" y="433.957187" style="fill: #a9b1d6; stroke: #a9b1d6; stroke-width: 0.8"/>
      </g>
     </g>
     <g id="text_2">
      <!-- Februar -->
      <g style="fill: #a9b1d6" transform="translate(130.583975 473.476365) rotate(-45) scale(0.1 -0.1)">
       <defs>
        <path id="DejaVuSans-46" d="M 628 4666 
L 3309 4666 
L 3309 4134 
L 1259 4134 
L 1259 2759 
L 3109 2759 
L 3109 2228 
L 1259 2228 
L 1259 0 
L 628 0 
L 628 4666 
z
" transform="scale(0.015625)"/>
        <path id="DejaVuSans-65" d="M 3597 1894 
L 3597 1613 
L 953 1613 
Q 991 1019 1311 708 
Q 1631 397 2203 397 
Q 2534 397 2845 478 
Q 3156 559 3463 722 
L 3463 178 
Q 3153 47 2828 -22 
Q 2503 -91 2169 -91 
Q 1331 -91 842 396 
Q 353 884 353 1716 
Q 353 2575 817 3079 
Q 1281 3584 2069 3584 
Q 2775 3584 3186 3129 
Q 3597 2675 3597 1894 
z
M 3022 2063 
Q 3016 2534 2758 2815 
Q 2500 3097 2075 3097 
Q 1594 3097 1305 2825 
Q 1016 2553 972 2059 
L 3022 2063 
z
" transform="scale(0.015625)"/>
        <path id="DejaVuSans-62" d="M 3116 1747 
Q 3116 2381 2855 2742 
Q 2594 3103 2138 3103 
Q 1681 3103 1420 2742 
Q 1159 2381 1159 1747 
Q 1159 1113 1420 752 
Q 1681 391 2138 391 
Q 2594 391 2855 752 
Q 3116 1113 3116 1747 
z
M 1159 2969 
Q 1341 3281 1617 3432 
Q 1894 3584 2278 3584 
Q 2916 3584 3314 3078 
Q 3713 2572 3713 1747 
Q 3713 922 3314 415 
Q 2916 -91 2278 -91 
Q 1894 -91 1617 61 
Q 1341 213 1159 525 
L 1159 0 
L 581 0 
L 581 4863 
L 1159 4863 
L 1159 2969 
z
" transform="scale(0.015625)"/>
       </defs>
       <use xlink:href="#DejaVuSans-46"/>
       <use xlink:href="#DejaVuSans-65" transform="translate(52.019531 0)"/>
       <use xlink:href="#DejaVuSans-62" transform="translate(113.542969 0)"/>
       <use xlink:href="#DejaVuSans-72" transform="translate(177.019531 0)"/>
       <use xlink:href="#DejaVuSans-75" transform="translate(218.132812 0)"/>
       <use xlink:href="#DejaVuSans-61" transform="translate(281.511719 0)"/>
       <use xlink:href="#DejaVuSans-72" transform="translate(342.791016 0)"/>
      </g>
     </g>
    </g>
    <g id="xtick_3">
     <g id="line2d_3">
      <g>
       <use xlink:href="#m85af9ccf61" x="207.305937" y="433.957187" style="fill: #a9b1d6; stroke: #a9b1d6; stroke-width: 0.8"/>
      </g>
     </g>
     <g id="text_3">
      <!-- März -->
      <g style="fill: #a9b1d6" transform="translate(200.730949 463.382416) rotate(-45) scale(0.1 -0.1)">
       <defs>
        <path id="DejaVuSans-4d" d="M 628 4666 
L 1569 4666 
L 2759 1491 
L 3956 4666 
L 4897 4666 
L 4897 0 
L 4281 0 
L 4281 4097 
L 3078 897 
L 2444 897 
L 1241 4097 
L 1241 0 
L 628 0 
L 628 4666 
z
" transform="scale(0.015625)"/>
        <path id="DejaVuSans-e4" d="M 2194 1759 
Q 1497 1759 1228 1600 
Q 959 1441 959 1056 
Q 959 750 1161 570 
Q 1363 391 1709 391 
Q 2188 391 2477 730 
Q 2766 1069 2766 1631 
L 2766 1759 
L 2194 1759 
z
M 3341 1997 
L 3341 0 
L 2766 0 
L 2766 531 
Q 2569 213 2275 61 
Q 1981 -91 1556 -91 
Q 1019 -91 701 211 
Q 384 513 384 1019 
Q 384 1609 779 1909 
Q 1175 2209 1959 2209 
L 2766 2209 
L 2766 2266 
Q 2766 2663 2505 2880 
Q 2244 3097 1772 3097 
Q 1472 3097 1187 3025 
Q 903 2953 641 2809 
L 641 3341 
Q 956 3463 1253 3523 
Q 1550 3584 1831 3584 
Q 2591 3584 2966 3190 
Q 3341 2797 3341 1997 
z
M 2150 4850 
L 2784 4850 
L 2784 4219 
L 2150 4219 
L 2150 4850 
z
M 928 4850 
L 1562 4850 
L 1562 4219 
L 928 4219 
L 928 4850 
z
" transform="scale(0.015625)"/>
        <path id="DejaVuSans-7a" d="M 353 3500 
L 3084 3500 
L 3084 2975 
L 922 459 
L 3084 459 
L 3084 0 
L 275 0 
L 275 525 
L 2438 3041 
L 353 3041 
L 353 3500 
z
" transform="scale(0.015625)"/>
       </defs>
       <use xlink:href="#DejaVuSans-4d"/>
       <use xlink:href="#DejaVuSans-e4" transform="translate(86.279297 0)"/>
       <use xlink:href="#DejaVuSans-72" transform="translate(147.558594 0)"/>
       <use xlink:href="#DejaVuSans-7a" transform="translate(188.671875 0)"/>
      </g>
     </g>
    </g>
    <g id="xtick_4">
     <g id="line2d_4">
      <g>
       <use xlink:href="#m85af9ccf61" x="272.405938" y="433.957187" style="fill: #a9b1d6; stroke: #a9b1d6; stroke-width: 0.8"/>
      </g>
     </g>
     <g id="text_4">
      <!-- April -->
      <g style="fill: #a9b1d6" transform="translate(266.276206 462.491904) rotate(-45) scale(0.1 -0.1)">
       <defs>
        <path id="DejaVuSans-41" d="M 2188 4044 
L 1331 1722 
L 3047 1722 
L 2188 4044 
z
M 1831 4666 
L 2547 4666 
L 4325 0 
L 3669 0 
L 3244 1197 
L 1141 1197 
L 716 0 
L 50 0 
L 1831 4666 
z
" transform="scale(0.015625)"/>
        <path id="DejaVuSans-70" d="M 1159 525 
L 1159 -1331 
L 581 -1331 
L 581 3500 
L 1159 3500 
L 1159 2969 
Q 1341 3281 1617 3432 
Q 1894 3584 2278 3584 
Q 2916 3584 3314 3078 
Q 3713 2572 3713 1747 
Q 3713 922 3314 415 
Q 2916 -91 2278 -91 
Q 1894 -91 1617 61 
Q 1341 213 1159 525 
z
M 3116 1747 
Q 3116 2381 2855 2742 
Q 2594 3103 2138 3103 
Q 1681 3103 1420 2742 
Q 1159 2381 1159 1747 
Q 1159 1113 1420 752 
Q 1681 391 2138 391 
Q 2594 391 2855 752 
Q 3116 1113 3116 1747 
z
" transform="scale(0.015625)"/>
        <path id="DejaVuSans-69" d="M 603 3500 
L 1178 3500 
L 1178 0 
L 603 0 
L 603 3500 
z
M 603 4863 
L 1178 4863 
L 1178 4134 
L 603 4134 
L 603 4863 
z
" transform="scale(0.015625)"/>
        <path id="DejaVuSans-6c" d="M 603 4863 
L 1178 4863 
L 1178 0 
L 603 0 
L 603 4863 
z
" transform="scale(0.015625)"/>
       </defs>
       <use xlink:href="#DejaVuSans-41"/>
       <use xlink:href="#DejaVuSans-70" transform="translate(68.408203 0)"/>
       <use xlink:href="#DejaVuSans-72" transform="translate(131.884766 0)"/>
       <use xlink:href="#DejaVuSans-69" transform="translate(172.998047 0)"/>
       <use xlink:href="#DejaVuSans-6c" transform="translate(200.78125 0)"/>
      </g>
     </g>
    </g>
    <g id="xtick_5">
     <g id="line2d_5">
      <g>
       <use xlink:href="#m85af9ccf61" x="337.505937" y="433.957187" style="fill: #a9b1d6; stroke: #a9b1d6; stroke-width: 0.8"/>
      </g>
     </g>
     <g id="text_5">
      <!-- Mai -->
      <g style="fill: #a9b1d6" transform="translate(333.257773 458.72877) rotate(-45) scale(0.1 -0.1)">
       <use xlink:href="#DejaVuSans-4d"/>
       <use xlink:href="#DejaVuSans-61" transform="translate(86.279297 0)"/>
       <use xlink:href="#DejaVuSans-69" transform="translate(147.558594 0)"/>
      </g>
     </g>
    </g>
    <g id="xtick_6">
     <g id="line2d_6">
      <g>
       <use xlink:href="#m85af9ccf61" x="402.605937" y="433.957187" style="fill: #a9b1d6; stroke: #a9b1d6; stroke-width: 0.8"/>
      </g>
     </g>
     <g id="text_6">
      <!-- Juni -->
      <g style="fill: #a9b1d6" transform="translate(398.050623 459.343069) rotate(-45) scale(0.1 -0.1)">
       <use xlink:href="#DejaVuSans-4a"/>
       <use xlink:href="#DejaVuSans-75" transform="translate(29.492188 0)"/>
       <use xlink:href="#DejaVuSans-6e" transform="translate(92.871094 0)"/>
       <use xlink:href="#DejaVuSans-69" transform="translate(156.25 0)"/>
      </g>
     </g>
    </g>
    <g id="xtick_7">
     <g id="line2d_7">
      <g>
       <use xlink:href="#m85af9ccf61" x="467.705938" y="433.957187" style="fill: #a9b1d6; stroke: #a9b1d6; stroke-width: 0.8"/>
      </g>
     </g>
     <g id="text_7">
      <!-- Juli -->
      <g style="fill: #a9b1d6" transform="translate(464.409052 456.82621) rotate(-45) scale(0.1 -0.1)">
       <use xlink:href="#DejaVuSans-4a"/>
       <use xlink:href="#DejaVuSans-75" transform="translate(29.492188 0)"/>
       <use xlink:href="#DejaVuSans-6c" transform="translate(92.871094 0)"/>
       <use xlink:href="#DejaVuSans-69" transform="translate(120.654297 0)"/>
      </g>
     </g>
    </g>
    <g id="xtick_8">
     <g id="line2d_8">
      <g>
       <use xlink:href="#m85af9ccf61" x="532.805937" y="433.957187" style="fill: #a9b1d6; stroke: #a9b1d6; stroke-width: 0.8"/>
      </g>
     </g>
     <g id="text_8">
      <!-- August -->
      <g style="fill: #a9b1d6" transform="translate(522.384951 471.074412) rotate(-45) scale(0.1 -0.1)">
       <defs>
        <path id="DejaVuSans-67" d="M 2906 1791 
Q 2906 2416 2648 2759 
Q 2391 3103 1925 3103 
Q 1463 3103 1205 2759 
Q 947 2416 947 1791 
Q 947 1169 1205 825 
Q 1463 481 1925 481 
Q 2391 481 2648 825 
Q 2906 1169 2906 1791 
z
M 3481 434 
Q 3481 -459 3084 -895 
Q 2688 -1331 1869 -1331 
Q 1566 -1331 1297 -1286 
Q 1028 -1241 775 -1147 
L 775 -588 
Q 1028 -725 1275 -790 
Q 1522 -856 1778 -856 
Q 2344 -856 2625 -561 
Q 2906 -266 2906 331 
L 2906 616 
Q 2728 306 2450 153 
Q 2172 0 1784 0 
Q 1141 0 747 490 
Q 353 981 353 1791 
Q 353 2603 747 3093 
Q 1141 3584 1784 3584 
Q 2172 3584 2450 3431 
Q 2728 3278 2906 2969 
L 2906 3500 
L 3481 3500 
L 3481 434 
z
" transform="scale(0.015625)"/>
        <path id="DejaVuSans-73" d="M 2834 3397 
L 2834 2853 
Q 2591 2978 2328 3040 
Q 2066 3103 1784 3103 
Q 1356 3103 1142 2972 
Q 928 2841 928 2578 
Q 928 2378 1081 2264 
Q 1234 2150 1697 2047 
L 1894 2003 
Q 2506 1872 2764 1633 
Q 3022 1394 3022 966 
Q 3022 478 2636 193 
Q 2250 -91 1575 -91 
Q 1294 -91 989 -36 
Q 684 19 347 128 
L 347 722 
Q 666 556 975 473 
Q 1284 391 1588 391 
Q 1994 391 2212 530 
Q 2431 669 2431 922 
Q 2431 1156 2273 1281 
Q 2116 1406 1581 1522 
L 1381 1569 
Q 847 1681 609 1914 
Q 372 2147 372 2553 
Q 372 3047 722 3315 
Q 1072 3584 1716 3584 
Q 2034 3584 2315 3537 
Q 2597 3491 2834 3397 
z
" transform="scale(0.015625)"/>
        <path id="DejaVuSans-74" d="M 1172 4494 
L 1172 3500 
L 2356 3500 
L 2356 3053 
L 1172 3053 
L 1172 1153 
Q 1172 725 1289 603 
Q 1406 481 1766 481 
L 2356 481 
L 2356 0 
L 1766 0 
Q 1100 0 847 248 
Q 594 497 594 1153 
L 594 3053 
L 172 3053 
L 172 3500 
L 594 3500 
L 594 4494 
L 1172 4494 
z
" transform="scale(0.015625)"/>
       </defs>
       <use xlink:href="#DejaVuSans-41"/>
       <use xlink:href="#DejaVuSans-75" transform="translate(68.408203 0)"/>
       <use xlink:href="#DejaVuSans-67" transform="translate(131.787109 0)"/>
       <use xlink:href="#DejaVuSans-75" transform="translate(195.263672 0)"/>
       <use xlink:href="#DejaVuSans-73" transform="translate(258.642578 0)"/>
       <use xlink:href="#DejaVuSans-74" transform="translate(310.742188 0)"/>
      </g>
     </g>
    </g>
    <g id="xtick_9">
     <g id="line2d_9">
      <g>
       <use xlink:href="#m85af9ccf61" x="597.905937" y="433.957187" style="fill: #a9b1d6; stroke: #a9b1d6; stroke-width: 0.8"/>
      </g>
     </g>
     <g id="text_9">
      <!-- September -->
      <g style="fill: #a9b1d6" transform="translate(580.313894 485.416526) rotate(-45) scale(0.1 -0.1)">
       <defs>
        <path id="DejaVuSans-53" d="M 3425 4513 
L 3425 3897 
Q 3066 4069 2747 4153 
Q 2428 4238 2131 4238 
Q 1616 4238 1336 4038 
Q 1056 3838 1056 3469 
Q 1056 3159 1242 3001 
Q 1428 2844 1947 2747 
L 2328 2669 
Q 3034 2534 3370 2195 
Q 3706 1856 3706 1288 
Q 3706 609 3251 259 
Q 2797 -91 1919 -91 
Q 1588 -91 1214 -16 
Q 841 59 441 206 
L 441 856 
Q 825 641 1194 531 
Q 1563 422 1919 422 
Q 2459 422 2753 634 
Q 3047 847 3047 1241 
Q 3047 1584 2836 1778 
Q 2625 1972 2144 2069 
L 1759 2144 
Q 1053 2284 737 2584 
Q 422 2884 422 3419 
Q 422 4038 858 4394 
Q 1294 4750 2059 4750 
Q 2388 4750 2728 4690 
Q 3069 4631 3425 4513 
z
" transform="scale(0.015625)"/>
        <path id="DejaVuSans-6d" d="M 3328 2828 
Q 3544 3216 3844 3400 
Q 4144 3584 4550 3584 
Q 5097 3584 5394 3201 
Q 5691 2819 5691 2113 
L 5691 0 
L 5113 0 
L 5113 2094 
Q 5113 2597 4934 2840 
Q 4756 3084 4391 3084 
Q 3944 3084 3684 2787 
Q 3425 2491 3425 1978 
L 3425 0 
L 2847 0 
L 2847 2094 
Q 2847 2600 2669 2842 
Q 2491 3084 2119 3084 
Q 1678 3084 1418 2786 
Q 1159 2488 1159 1978 
L 1159 0 
L 581 0 
L 581 3500 
L 1159 3500 
L 1159 2956 
Q 1356 3278 1631 3431 
Q 1906 3584 2284 3584 
Q 2666 3584 2933 3390 
Q 3200 3197 3328 2828 
z
" transform="scale(0.015625)"/>
       </defs>
       <use xlink:href="#DejaVuSans-53"/>
       <use xlink:href="#DejaVuSans-65" transform="translate(63.476562 0)"/>
       <use xlink:href="#DejaVuSans-70" transform="translate(125 0)"/>
       <use xlink:href="#DejaVuSans-74" transform="translate(188.476562 0)"/>
       <use xlink:href="#DejaVuSans-65" transform="translate(227.685547 0)"/>
       <use xlink:href="#DejaVuSans-6d" transform="translate(289.208984 0)"/>
       <use xlink:href="#DejaVuSans-62" transform="translate(386.621094 0)"/>
       <use xlink:href="#DejaVuSans-65" transform="translate(450.097656 0)"/>
       <use xlink:href="#DejaVuSans-72" transform="translate(511.621094 0)"/>
      </g>
     </g>
    </g>
    <g id="xtick_10">
     <g id="line2d_10">
      <g>
       <use xlink:href="#m85af9ccf61" x="663.005937" y="433.957187" style="fill: #a9b1d6; stroke: #a9b1d6; stroke-width: 0.8"/>
      </g>
     </g>
     <g id="text_10">
      <!-- Oktober -->
      <g style="fill: #a9b1d6" transform="translate(650.703937 474.836441) rotate(-45) scale(0.1 -0.1)">
       <defs>
        <path id="DejaVuSans-4f" d="M 2522 4238 
Q 1834 4238 1429 3725 
Q 1025 3213 1025 2328 
Q 1025 1447 1429 934 
Q 1834 422 2522 422 
Q 3209 422 3611 934 
Q 4013 1447 4013 2328 
Q 4013 3213 3611 3725 
Q 3209 4238 2522 4238 
z
M 2522 4750 
Q 3503 4750 4090 4092 
Q 4678 3434 4678 2328 
Q 4678 1225 4090 567 
Q 3503 -91 2522 -91 
Q 1538 -91 948 565 
Q 359 1222 359 2328 
Q 359 3434 948 4092 
Q 1538 4750 2522 4750 
z
" transform="scale(0.015625)"/>
        <path id="DejaVuSans-6b" d="M 581 4863 
L 1159 4863 
L 1159 1991 
L 2875 3500 
L 3609 3500 
L 1753 1863 
L 3688 0 
L 2938 0 
L 1159 1709 
L 1159 0 
L 581 0 
L 581 4863 
z
" transform="scale(0.015625)"/>
        <path id="DejaVuSans-6f" d="M 1959 3097 
Q 1497 3097 1228 2736 
Q 959 2375 959 1747 
Q 959 1119 1226 758 
Q 1494 397 1959 397 
Q 2419 397 2687 759 
Q 2956 1122 2956 1747 
Q 2956 2369 2687 2733 
Q 2419 3097 1959 3097 
z
M 1959 3584 
Q 2709 3584 3137 3096 
Q 3566 2609 3566 1747 
Q 3566 888 3137 398 
Q 2709 -91 1959 -91 
Q 1206 -91 779 398 
Q 353 888 353 1747 
Q 353 2609 779 3096 
Q 1206 3584 1959 3584 
z
" transform="scale(0.015625)"/>
       </defs>
       <use xlink:href="#DejaVuSans-4f"/>
       <use xlink:href="#DejaVuSans-6b" transform="translate(78.710938 0)"/>
       <use xlink:href="#DejaVuSans-74" transform="translate(136.621094 0)"/>
       <use xlink:href="#DejaVuSans-6f" transform="translate(175.830078 0)"/>
       <use xlink:href="#DejaVuSans-62" transform="translate(237.011719 0)"/>
       <use xlink:href="#DejaVuSans-65" transform="translate(300.488281 0)"/>
       <use xlink:href="#DejaVuSans-72" transform="translate(362.011719 0)"/>
      </g>
     </g>
    </g>
    <g id="xtick_11">
     <g id="line2d_11">
      <g>
       <use xlink:href="#m85af9ccf61" x="728.105937" y="433.957187" style="fill: #a9b1d6; stroke: #a9b1d6; stroke-width: 0.8"/>
      </g>
     </g>
     <g id="text_11">
      <!-- November -->
      <g style="fill: #a9b1d6" transform="translate(711.663495 483.117324) rotate(-45) scale(0.1 -0.1)">
       <defs>
        <path id="DejaVuSans-4e" d="M 628 4666 
L 1478 4666 
L 3547 763 
L 3547 4666 
L 4159 4666 
L 4159 0 
L 3309 0 
L 1241 3903 
L 1241 0 
L 628 0 
L 628 4666 
z
" transform="scale(0.015625)"/>
        <path id="DejaVuSans-76" d="M 191 3500 
L 800 3500 
L 1894 563 
L 2988 3500 
L 3597 3500 
L 2284 0 
L 1503 0 
L 191 3500 
z
" transform="scale(0.015625)"/>
       </defs>
       <use xlink:href="#DejaVuSans-4e"/>
       <use xlink:href="#DejaVuSans-6f" transform="translate(74.804688 0)"/>
       <use xlink:href="#DejaVuSans-76" transform="translate(135.986328 0)"/>
       <use xlink:href="#DejaVuSans-65" transform="translate(195.166016 0)"/>
       <use xlink:href="#DejaVuSans-6d" transform="translate(256.689453 0)"/>
       <use xlink:href="#DejaVuSans-62" transform="translate(354.101562 0)"/>
       <use xlink:href="#DejaVuSans-65" transform="translate(417.578125 0)"/>
       <use xlink:href="#DejaVuSans-72" transform="translate(479.101562 0)"/>
      </g>
     </g>
    </g>
    <g id="xtick_12">
     <g id="line2d_12">
      <g>
       <use xlink:href="#m85af9ccf61" x="793.205937" y="433.957187" style="fill: #a9b1d6; stroke: #a9b1d6; stroke-width: 0.8"/>
      </g>
     </g>
     <g id="text_12">
      <!-- Dezember -->
      <g style="fill: #a9b1d6" transform="translate(776.910993 482.822328) rotate(-45) scale(0.1 -0.1)">
       <defs>
        <path id="DejaVuSans-44" d="M 1259 4147 
L 1259 519 
L 2022 519 
Q 2988 519 3436 956 
Q 3884 1394 3884 2338 
Q 3884 3275 3436 3711 
Q 2988 4147 2022 4147 
L 1259 4147 
z
M 628 4666 
L 1925 4666 
Q 3281 4666 3915 4102 
Q 4550 3538 4550 2338 
Q 4550 1131 3912 565 
Q 3275 0 1925 0 
L 628 0 
L 628 4666 
z
" transform="scale(0.015625)"/>
       </defs>
       <use xlink:href="#DejaVuSans-44"/>
       <use xlink:href="#DejaVuSans-65" transform="translate(77.001953 0)"/>
       <use xlink:href="#DejaVuSans-7a" transform="translate(138.525391 0)"/>
       <use xlink:href="#DejaVuSans-65" transform="translate(191.015625 0)"/>
       <use xlink:href="#DejaVuSans-6d" transform="translate(252.539062 0)"/>
       <use xlink:href="#DejaVuSans-62" transform="translate(349.951172 0)"/>
       <use xlink:href="#DejaVuSans-65" transform="translate(413.427734 0)"/>
       <use xlink:href="#DejaVuSans-72" transform="translate(474.951172 0)"/>
      </g>
     </g>
    </g>
   </g>
   <g id="matplotlib.axis_2">
    <g id="ytick_1">
     <g id="line2d_13">
      <path d="M 44.555938 379.053732 
L 825.755938 379.053732 
" clip-path="url(#p8394232062)" style="fill: none; stroke-dasharray: 2.96,1.28; stroke-dashoffset: 0; stroke: #2f3549; stroke-opacity: 0.3; stroke-width: 0.8"/>
     </g>
     <g id="line2d_14">
      <defs>
       <path id="mc5fd18fd3a" d="M 0 0 
L -3.5 0 
" style="stroke: #a9b1d6; stroke-width: 0.8"/>
      </defs>
      <g>
       <use xlink:href="#mc5fd18fd3a" x="44.555938" y="379.053732" style="fill: #a9b1d6; stroke: #a9b1d6; stroke-width: 0.8"/>
      </g>
     </g>
     <g id="text_13">
      <!-- −5 -->
      <g style="fill: #a9b1d6" transform="translate(22.81375 382.852951) scale(0.1 -0.1)">
       <defs>
        <path id="DejaVuSans-2212" d="M 678 2272 
L 4684 2272 
L 4684 1741 
L 678 1741 
L 678 2272 
z
" transform="scale(0.015625)"/>
        <path id="DejaVuSans-35" d="M 691 4666 
L 3169 4666 
L 3169 4134 
L 1269 4134 
L 1269 2991 
Q 1406 3038 1543 3061 
Q 1681 3084 1819 3084 
Q 2600 3084 3056 2656 
Q 3513 2228 3513 1497 
Q 3513 744 3044 326 
Q 2575 -91 1722 -91 
Q 1428 -91 1123 -41 
Q 819 9 494 109 
L 494 744 
Q 775 591 1075 516 
Q 1375 441 1709 441 
Q 2250 441 2565 725 
Q 2881 1009 2881 1497 
Q 2881 1984 2565 2268 
Q 2250 2553 1709 2553 
Q 1456 2553 1204 2497 
Q 953 2441 691 2322 
L 691 4666 
z
" transform="scale(0.015625)"/>
       </defs>
       <use xlink:href="#DejaVuSans-2212"/>
       <use xlink:href="#DejaVuSans-35" transform="translate(83.789062 0)"/>
      </g>
     </g>
    </g>
    <g id="ytick_2">
     <g id="line2d_15">
      <path d="M 44.555938 322.969607 
L 825.755938 322.969607 
" clip-path="url(#p8394232062)" style="fill: none; stroke-dasharray: 2.96,1.28; stroke-dashoffset: 0; stroke: #2f3549; stroke-opacity: 0.3; stroke-width: 0.8"/>
     </g>
     <g id="line2d_16">
      <g>
       <use xlink:href="#mc5fd18fd3a" x="44.555938" y="322.969607" style="fill: #a9b1d6; stroke: #a9b1d6; stroke-width: 0.8"/>
      </g>
     </g>
     <g id="text_14">
      <!-- 0 -->
      <g style="fill: #a9b1d6" transform="translate(31.193438 326.768826) scale(0.1 -0.1)">
       <defs>
        <path id="DejaVuSans-30" d="M 2034 4250 
Q 1547 4250 1301 3770 
Q 1056 3291 1056 2328 
Q 1056 1369 1301 889 
Q 1547 409 2034 409 
Q 2525 409 2770 889 
Q 3016 1369 3016 2328 
Q 3016 3291 2770 3770 
Q 2525 4250 2034 4250 
z
M 2034 4750 
Q 2819 4750 3233 4129 
Q 3647 3509 3647 2328 
Q 3647 1150 3233 529 
Q 2819 -91 2034 -91 
Q 1250 -91 836 529 
Q 422 1150 422 2328 
Q 422 3509 836 4129 
Q 1250 4750 2034 4750 
z
" transform="scale(0.015625)"/>
       </defs>
       <use xlink:href="#DejaVuSans-30"/>
      </g>
     </g>
    </g>
    <g id="ytick_3">
     <g id="line2d_17">
      <path d="M 44.555938 266.885482 
L 825.755938 266.885482 
" clip-path="url(#p8394232062)" style="fill: none; stroke-dasharray: 2.96,1.28; stroke-dashoffset: 0; stroke: #2f3549; stroke-opacity: 0.3; stroke-width: 0.8"/>
     </g>
     <g id="line2d_18">
      <g>
       <use xlink:href="#mc5fd18fd3a" x="44.555938" y="266.885482" style="fill: #a9b1d6; stroke: #a9b1d6; stroke-width: 0.8"/>
      </g>
     </g>
     <g id="text_15">
      <!-- 5 -->
      <g style="fill: #a9b1d6" transform="translate(31.193438 270.6847) scale(0.1 -0.1)">
       <use xlink:href="#DejaVuSans-35"/>
      </g>
     </g>
    </g>
    <g id="ytick_4">
     <g id="line2d_19">
      <path d="M 44.555938 210.801356 
L 825.755938 210.801356 
" clip-path="url(#p8394232062)" style="fill: none; stroke-dasharray: 2.96,1.28; stroke-dashoffset: 0; stroke: #2f3549; stroke-opacity: 0.3; stroke-width: 0.8"/>
     </g>
     <g id="line2d_20">
      <g>
       <use xlink:href="#mc5fd18fd3a" x="44.555938" y="210.801356" style="fill: #a9b1d6; stroke: #a9b1d6; stroke-width: 0.8"/>
      </g>
     </g>
     <g id="text_16">
      <!-- 10 -->
      <g style="fill: #a9b1d6" transform="translate(24.830938 214.600575) scale(0.1 -0.1)">
       <defs>
        <path id="DejaVuSans-31" d="M 794 531 
L 1825 531 
L 1825 4091 
L 703 3866 
L 703 4441 
L 1819 4666 
L 2450 4666 
L 2450 531 
L 3481 531 
L 3481 0 
L 794 0 
L 794 531 
z
" transform="scale(0.015625)"/>
       </defs>
       <use xlink:href="#DejaVuSans-31"/>
       <use xlink:href="#DejaVuSans-30" transform="translate(63.623047 0)"/>
      </g>
     </g>
    </g>
    <g id="ytick_5">
     <g id="line2d_21">
      <path d="M 44.555938 154.717231 
L 825.755938 154.717231 
" clip-path="url(#p8394232062)" style="fill: none; stroke-dasharray: 2.96,1.28; stroke-dashoffset: 0; stroke: #2f3549; stroke-opacity: 0.3; stroke-width: 0.8"/>
     </g>
     <g id="line2d_22">
      <g>
       <use xlink:href="#mc5fd18fd3a" x="44.555938" y="154.717231" style="fill: #a9b1d6; stroke: #a9b1d6; stroke-width: 0.8"/>
      </g>
     </g>
     <g id="text_17">
      <!-- 15 -->
      <g style="fill: #a9b1d6" transform="translate(24.830938 158.51645) scale(0.1 -0.1)">
       <use xlink:href="#DejaVuSans-31"/>
       <use xlink:href="#DejaVuSans-35" transform="translate(63.623047 0)"/>
      </g>
     </g>
    </g>
    <g id="ytick_6">
     <g id="line2d_23">
      <path d="M 44.555938 98.633106 
L 825.755938 98.633106 
" clip-path="url(#p8394232062)" style="fill: none; stroke-dasharray: 2.96,1.28; stroke-dashoffset: 0; stroke: #2f3549; stroke-opacity: 0.3; stroke-width: 0.8"/>
     </g>
     <g id="line2d_24">
      <g>
       <use xlink:href="#mc5fd18fd3a" x="44.555938" y="98.633106" style="fill: #a9b1d6; stroke: #a9b1d6; stroke-width: 0.8"/>
      </g>
     </g>
     <g id="text_18">
      <!-- 20 -->
      <g style="fill: #a9b1d6" transform="translate(24.830938 102.432325) scale(0.1 -0.1)">
       <defs>
        <path id="DejaVuSans-32" d="M 1228 531 
L 3431 531 
L 3431 0 
L 469 0 
L 469 531 
Q 828 903 1448 1529 
Q 2069 2156 2228 2338 
Q 2531 2678 2651 2914 
Q 2772 3150 2772 3378 
Q 2772 3750 2511 3984 
Q 2250 4219 1831 4219 
Q 1534 4219 1204 4116 
Q 875 4013 500 3803 
L 500 4441 
Q 881 4594 1212 4672 
Q 1544 4750 1819 4750 
Q 2544 4750 2975 4387 
Q 3406 4025 3406 3419 
Q 3406 3131 3298 2873 
Q 3191 2616 2906 2266 
Q 2828 2175 2409 1742 
Q 1991 1309 1228 531 
z
" transform="scale(0.015625)"/>
       </defs>
       <use xlink:href="#DejaVuSans-32"/>
       <use xlink:href="#DejaVuSans-30" transform="translate(63.623047 0)"/>
      </g>
     </g>
    </g>
    <g id="text_19">
     <!-- Temperatur in °C -->
     <g style="fill: #a9b1d6" transform="translate(16.318125 290.836562) rotate(-90) scale(0.12 -0.12)">
      <defs>
       <path id="DejaVuSans-54" d="M -19 4666 
L 3928 4666 
L 3928 4134 
L 2272 4134 
L 2272 0 
L 1638 0 
L 1638 4134 
L -19 4134 
L -19 4666 
z
" transform="scale(0.015625)"/>
       <path id="DejaVuSans-20" transform="scale(0.015625)"/>
       <path id="DejaVuSans-b0" d="M 1600 4347 
Q 1350 4347 1178 4173 
Q 1006 4000 1006 3750 
Q 1006 3503 1178 3333 
Q 1350 3163 1600 3163 
Q 1850 3163 2022 3333 
Q 2194 3503 2194 3750 
Q 2194 3997 2020 4172 
Q 1847 4347 1600 4347 
z
M 1600 4750 
Q 1800 4750 1984 4673 
Q 2169 4597 2303 4453 
Q 2447 4313 2519 4134 
Q 2591 3956 2591 3750 
Q 2591 3338 2302 3052 
Q 2013 2766 1594 2766 
Q 1172 2766 890 3047 
Q 609 3328 609 3750 
Q 609 4169 896 4459 
Q 1184 4750 1600 4750 
z
" transform="scale(0.015625)"/>
       <path id="DejaVuSans-43" d="M 4122 4306 
L 4122 3641 
Q 3803 3938 3442 4084 
Q 3081 4231 2675 4231 
Q 1875 4231 1450 3742 
Q 1025 3253 1025 2328 
Q 1025 1406 1450 917 
Q 1875 428 2675 428 
Q 3081 428 3442 575 
Q 3803 722 4122 1019 
L 4122 359 
Q 3791 134 3420 21 
Q 3050 -91 2638 -91 
Q 1578 -91 968 557 
Q 359 1206 359 2328 
Q 359 3453 968 4101 
Q 1578 4750 2638 4750 
Q 3056 4750 3426 4639 
Q 3797 4528 4122 4306 
z
" transform="scale(0.015625)"/>
      </defs>
      <use xlink:href="#DejaVuSans-54"/>
      <use xlink:href="#DejaVuSans-65" transform="translate(44.083984 0)"/>
      <use xlink:href="#DejaVuSans-6d" transform="translate(105.607422 0)"/>
      <use xlink:href="#DejaVuSans-70" transform="translate(203.019531 0)"/>
      <use xlink:href="#DejaVuSans-65" transform="translate(266.496094 0)"/>
      <use xlink:href="#DejaVuSans-72" transform="translate(328.019531 0)"/>
      <use xlink:href="#DejaVuSans-61" transform="translate(369.132812 0)"/>
      <use xlink:href="#DejaVuSans-74" transform="translate(430.412109 0)"/>
      <use xlink:href="#DejaVuSans-75" transform="translate(469.621094 0)"/>
      <use xlink:href="#DejaVuSans-72" transform="translate(533 0)"/>
      <use xlink:href="#DejaVuSans-20" transform="translate(574.113281 0)"/>
      <use xlink:href="#DejaVuSans-69" transform="translate(605.900391 0)"/>
      <use xlink:href="#DejaVuSans-6e" transform="translate(633.683594 0)"/>
      <use xlink:href="#DejaVuSans-20" transform="translate(697.0625 0)"/>
      <use xlink:href="#DejaVuSans-b0" transform="translate(728.849609 0)"/>
      <use xlink:href="#DejaVuSans-43" transform="translate(778.849609 0)"/>
     </g>
    </g>
   </g>
   <g id="patch_9">
    <path d="M 44.555938 433.957187 
L 44.555938 45.877187 
" style="fill: none; stroke: #a9b1d6; stroke-width: 0.8; stroke-linejoin: miter; stroke-linecap: square"/>
   </g>
   <g id="patch_10">
    <path d="M 825.755938 433.957187 
L 825.755938 45.877187 
" style="fill: none; stroke: #a9b1d6; stroke-width: 0.8; stroke-linejoin: miter; stroke-linecap: square"/>
   </g>
   <g id="patch_11">
    <path d="M 44.555938 433.957187 
L 825.755937 433.957187 
" style="fill: none; stroke: #a9b1d6; stroke-width: 0.8; stroke-linejoin: miter; stroke-linecap: square"/>
   </g>
   <g id="patch_12">
    <path d="M 44.555938 45.877187 
L 825.755937 45.877187 
" style="fill: none; stroke: #a9b1d6; stroke-width: 0.8; stroke-linejoin: miter; stroke-linecap: square"/>
   </g>
   <g id="line2d_25">
    <path d="M 734.615937 297.786192 
L 747.635937 274.433502 
L 760.655937 308.444857 
L 773.675937 322.846563 
L 786.695938 416.317187 
L 799.715937 246.746769 
L 812.735937 226.450102 
" clip-path="url(#p8394232062)" style="fill: none; stroke: #bb9af7; stroke-width: 3; stroke-linecap: square"/>
   </g>
   <g id="line2d_26">
    <path d="M 44.555938 208.876708 
L 57.575938 243.649388 
L 70.595938 269.028233 
L 83.615938 324.357429 
L 96.635938 315.487978 
L 109.655938 304.36355 
L 122.675938 333.55938 
L 135.695938 250.448419 
L 148.715938 239.481506 
L 161.735938 326.599496 
L 174.755938 311.154941 
L 187.775938 287.618794 
L 200.795938 239.128241 
L 213.815938 193.426654 
L 226.835938 236.735799 
L 239.855938 275.37749 
L 252.875938 247.419967 
L 265.895938 230.085418 
L 278.915937 198.113621 
L 291.935938 232.768084 
L 304.955938 193.796961 
L 317.975937 175.896778 
L 330.995938 192.582454 
L 344.015937 149.696274 
L 357.035937 167.467904 
L 370.055938 157.151438 
L 383.075938 111.628557 
L 396.095937 129.76566 
L 409.115937 81.550391 
L 422.135937 104.48754 
L 435.155937 116.569577 
L 448.175938 63.517187 
L 461.195938 78.008558 
L 474.215937 113.071523 
L 487.235937 121.981558 
L 500.255937 118.311616 
L 513.275937 131.55981 
L 526.295938 67.65683 
L 539.315937 66.745444 
L 552.335938 126.225605 
L 565.355937 132.495195 
L 578.375937 102.166093 
L 591.395937 130.175064 
L 604.415937 139.70668 
L 617.435938 143.103928 
L 630.455938 153.174918 
L 643.475937 145.012433 
L 656.495937 221.246711 
L 708.575937 242.660367 
L 721.595937 244.37953 
L 734.615937 260.709737 
L 747.635937 316.032632 
L 760.655937 338.103233 
L 773.675937 272.283699 
L 786.695938 260.208345 
L 799.715937 260.045036 
L 812.735937 232.512442 
" clip-path="url(#p8394232062)" style="fill: none; stroke: #9ece6a; stroke-width: 3; stroke-linecap: square"/>
   </g>
   <g id="line2d_27">
    <path d="M 44.555938 257.287057 
L 57.575938 383.568374 
L 70.595938 320.462698 
L 83.615938 299.501306 
L 96.635938 274.311012 
L 109.655938 228.386066 
L 122.675938 245.942864 
L 135.695938 228.919321 
L 148.715938 234.45621 
L 161.735938 274.871238 
L 174.755938 260.505263 
L 187.775938 255.137555 
L 200.795938 233.071374 
L 213.815938 244.033797 
L 226.835938 218.312104 
L 239.855938 174.544261 
L 252.875938 157.307227 
L 265.895938 207.948424 
L 278.915937 272.421165 
L 291.935938 179.14758 
L 304.955938 146.013157 
L 317.975937 177.60981 
L 330.995938 133.207793 
L 344.015937 138.828278 
L 357.035937 139.185482 
L 370.055938 140.432656 
L 383.075938 146.932313 
L 396.095937 129.332501 
L 409.115937 111.879371 
L 422.135937 68.893323 
L 435.155937 131.787017 
L 448.175938 82.344692 
L 461.195938 91.030214 
L 474.215937 74.333552 
L 487.235937 102.460533 
L 500.255937 99.036826 
L 513.275937 85.213811 
L 526.295938 68.162484 
L 539.315937 94.936685 
L 552.335938 94.656369 
L 565.355937 66.037454 
L 578.375937 128.008519 
L 591.395937 172.412373 
L 604.415937 145.802192 
L 617.435938 175.284007 
L 630.455938 205.213822 
L 643.475937 184.861191 
L 656.495937 219.031572 
L 669.515937 197.536552 
L 682.535938 191.196394 
L 695.555937 260.436456 
L 708.575937 276.913765 
L 721.595937 261.813621 
L 734.615937 278.673534 
L 747.635937 244.983555 
L 760.655937 284.372174 
L 773.675937 291.808514 
L 786.695938 263.494469 
L 799.715937 266.488868 
L 812.735937 313.763222 
" clip-path="url(#p8394232062)" style="fill: none; stroke: #2ac3de; stroke-width: 3; stroke-linecap: square"/>
   </g>
   <g id="line2d_28">
    <path d="M 44.555938 285.850874 
L 57.575938 293.428869 
L 70.595938 315.204574 
L 83.615938 309.143889 
L 96.635938 240.244853 
L 109.655938 301.336181 
L 161.735938 268.814699 
L 174.755938 288.688185 
L 187.775938 262.861894 
L 200.795938 297.831066 
L 213.815938 236.324165 
L 226.835938 253.604667 
L 239.855938 245.606619 
L 252.875938 229.899862 
L 265.895938 169.183852 
L 278.915937 193.316423 
L 291.935938 201.079667 
L 304.955938 187.820497 
L 317.975937 211.060356 
L 330.995938 195.079626 
L 344.015937 187.183419 
L 357.035937 140.931553 
L 370.055938 116.552489 
L 383.075938 151.376656 
L 396.095937 107.073361 
L 409.115937 112.53953 
L 422.135937 76.384456 
L 435.155937 83.550365 
L 448.175938 127.215696 
L 461.195938 111.053521 
L 474.215937 99.795398 
L 487.235937 121.995265 
L 500.255937 125.863117 
L 513.275937 107.12297 
L 526.295938 97.438052 
L 539.315937 151.469532 
L 552.335938 128.615222 
L 565.355937 120.139408 
L 578.375937 147.228962 
L 591.395937 141.7412 
L 604.415937 149.857414 
L 617.435938 201.163196 
L 630.455938 224.873053 
L 643.475937 174.555894 
L 656.495937 210.790009 
L 669.515937 211.577826 
L 682.535938 219.807973 
L 695.555937 211.165514 
L 708.575937 224.749989 
L 721.595937 208.108119 
L 734.615937 315.261809 
L 747.635937 259.656474 
L 760.655937 283.710719 
M 786.695938 285.318565 
L 799.715937 285.436623 
L 812.735937 350.701527 
" clip-path="url(#p8394232062)" style="fill: none; stroke: #f7768e; stroke-width: 3; stroke-linecap: square"/>
   </g>
   <g id="line2d_29">
    <path d="M 44.555938 324.284078 
L 57.575938 384.667337 
L 70.595938 288.944588 
L 83.615938 362.993479 
L 96.635938 333.848874 
L 109.655938 353.810545 
L 122.675938 284.864632 
L 135.695938 317.050914 
L 148.715938 275.761573 
L 161.735938 230.510076 
L 174.755938 264.87601 
L 187.775938 236.401445 
L 200.795938 256.057481 
L 213.815938 264.488924 
L 226.835938 274.750032 
L 239.855938 230.849174 
L 252.875938 267.437688 
L 265.895938 202.837355 
L 278.915937 239.756457 
L 291.935938 231.733391 
" clip-path="url(#p8394232062)" style="fill: none; stroke: #e0af68; stroke-width: 3; stroke-linecap: square"/>
   </g>
   <g id="text_20">
    <!-- Jahresübersicht - Durchschnittstemperaturen -->
    <g style="fill: #a9b1d6" transform="translate(232.222813 20.877187) scale(0.18 -0.18)">
     <defs>
      <path id="DejaVuSans-68" d="M 3513 2113 
L 3513 0 
L 2938 0 
L 2938 2094 
Q 2938 2591 2744 2837 
Q 2550 3084 2163 3084 
Q 1697 3084 1428 2787 
Q 1159 2491 1159 1978 
L 1159 0 
L 581 0 
L 581 4863 
L 1159 4863 
L 1159 2956 
Q 1366 3272 1645 3428 
Q 1925 3584 2291 3584 
Q 2894 3584 3203 3211 
Q 3513 2838 3513 2113 
z
" transform="scale(0.015625)"/>
      <path id="DejaVuSans-fc" d="M 544 1381 
L 544 3500 
L 1119 3500 
L 1119 1403 
Q 1119 906 1312 657 
Q 1506 409 1894 409 
Q 2359 409 2629 706 
Q 2900 1003 2900 1516 
L 2900 3500 
L 3475 3500 
L 3475 0 
L 2900 0 
L 2900 538 
Q 2691 219 2414 64 
Q 2138 -91 1772 -91 
Q 1169 -91 856 284 
Q 544 659 544 1381 
z
M 1991 3584 
L 1991 3584 
z
M 2278 4850 
L 2912 4850 
L 2912 4219 
L 2278 4219 
L 2278 4850 
z
M 1056 4850 
L 1690 4850 
L 1690 4219 
L 1056 4219 
L 1056 4850 
z
" transform="scale(0.015625)"/>
      <path id="DejaVuSans-63" d="M 3122 3366 
L 3122 2828 
Q 2878 2963 2633 3030 
Q 2388 3097 2138 3097 
Q 1578 3097 1268 2742 
Q 959 2388 959 1747 
Q 959 1106 1268 751 
Q 1578 397 2138 397 
Q 2388 397 2633 464 
Q 2878 531 3122 666 
L 3122 134 
Q 2881 22 2623 -34 
Q 2366 -91 2075 -91 
Q 1284 -91 818 406 
Q 353 903 353 1747 
Q 353 2603 823 3093 
Q 1294 3584 2113 3584 
Q 2378 3584 2631 3529 
Q 2884 3475 3122 3366 
z
" transform="scale(0.015625)"/>
      <path id="DejaVuSans-2d" d="M 313 2009 
L 1997 2009 
L 1997 1497 
L 313 1497 
L 313 2009 
z
" transform="scale(0.015625)"/>
     </defs>
     <use xlink:href="#DejaVuSans-4a"/>
     <use xlink:href="#DejaVuSans-61" transform="translate(29.492188 0)"/>
     <use xlink:href="#DejaVuSans-68" transform="translate(90.771484 0)"/>
     <use xlink:href="#DejaVuSans-72" transform="translate(154.150391 0)"/>
     <use xlink:href="#DejaVuSans-65" transform="translate(193.013672 0)"/>
     <use xlink:href="#DejaVuSans-73" transform="translate(254.537109 0)"/>
     <use xlink:href="#DejaVuSans-fc" transform="translate(306.636719 0)"/>
     <use xlink:href="#DejaVuSans-62" transform="translate(370.015625 0)"/>
     <use xlink:href="#DejaVuSans-65" transform="translate(433.492188 0)"/>
     <use xlink:href="#DejaVuSans-72" transform="translate(495.015625 0)"/>
     <use xlink:href="#DejaVuSans-73" transform="translate(536.128906 0)"/>
     <use xlink:href="#DejaVuSans-69" transform="translate(588.228516 0)"/>
     <use xlink:href="#DejaVuSans-63" transform="translate(616.011719 0)"/>
     <use xlink:href="#DejaVuSans-68" transform="translate(670.992188 0)"/>
     <use xlink:href="#DejaVuSans-74" transform="translate(734.371094 0)"/>
     <use xlink:href="#DejaVuSans-20" transform="translate(773.580078 0)"/>
     <use xlink:href="#DejaVuSans-2d" transform="translate(805.367188 0)"/>
     <use xlink:href="#DejaVuSans-20" transform="translate(841.451172 0)"/>
     <use xlink:href="#DejaVuSans-44" transform="translate(873.238281 0)"/>
     <use xlink:href="#DejaVuSans-75" transform="translate(950.240234 0)"/>
     <use xlink:href="#DejaVuSans-72" transform="translate(1013.619141 0)"/>
     <use xlink:href="#DejaVuSans-63" transform="translate(1052.482422 0)"/>
     <use xlink:href="#DejaVuSans-68" transform="translate(1107.462891 0)"/>
     <use xlink:href="#DejaVuSans-73" transform="translate(1170.841797 0)"/>
     <use xlink:href="#DejaVuSans-63" transform="translate(1222.941406 0)"/>
     <use xlink:href="#DejaVuSans-68" transform="translate(1277.921875 0)"/>
     <use xlink:href="#DejaVuSans-6e" transform="translate(1341.300781 0)"/>
     <use xlink:href="#DejaVuSans-69" transform="translate(1404.679688 0)"/>
     <use xlink:href="#DejaVuSans-74" transform="translate(1432.462891 0)"/>
     <use xlink:href="#DejaVuSans-74" transform="translate(1471.671875 0)"/>
     <use xlink:href="#DejaVuSans-73" transform="translate(1510.880859 0)"/>
     <use xlink:href="#DejaVuSans-74" transform="translate(1562.980469 0)"/>
     <use xlink:href="#DejaVuSans-65" transform="translate(1602.189453 0)"/>
     <use xlink:href="#DejaVuSans-6d" transform="translate(1663.712891 0)"/>
     <use xlink:href="#DejaVuSans-70" transform="translate(1761.125 0)"/>
     <use xlink:href="#DejaVuSans-65" transform="translate(1824.601562 0)"/>
     <use xlink:href="#DejaVuSans-72" transform="translate(1886.125 0)"/>
     <use xlink:href="#DejaVuSans-61" transform="translate(1927.238281 0)"/>
     <use xlink:href="#DejaVuSans-74" transform="translate(1988.517578 0)"/>
     <use xlink:href="#DejaVuSans-75" transform="translate(2027.726562 0)"/>
     <use xlink:href="#DejaVuSans-72" transform="translate(2091.105469 0)"/>
     <use xlink:href="#DejaVuSans-65" transform="translate(2129.96875 0)"/>
     <use xlink:href="#DejaVuSans-6e" transform="translate(2191.492188 0)"/>
    </g>
   </g>
   <g id="legend_1">
    <g id="patch_13">
     <path d="M 839.425938 141.945938 
L 896.875938 141.945938 
Q 898.875938 141.945938 898.875938 139.945938 
L 898.875938 52.877188 
Q 898.875938 50.877188 896.875938 50.877188 
L 839.425938 50.877188 
Q 837.425938 50.877188 837.425938 52.877188 
L 837.425938 139.945938 
Q 837.425938 141.945938 839.425938 141.945938 
z
" style="fill: #1a1b26; opacity: 0.8; stroke: #a9b1d6; stroke-linejoin: miter"/>
    </g>
    <g id="text_21">
     <!-- Jahr -->
     <g style="fill: #a9b1d6" transform="translate(858.387656 62.475625) scale(0.1 -0.1)">
      <use xlink:href="#DejaVuSans-4a"/>
      <use xlink:href="#DejaVuSans-61" transform="translate(29.492188 0)"/>
      <use xlink:href="#DejaVuSans-68" transform="translate(90.771484 0)"/>
      <use xlink:href="#DejaVuSans-72" transform="translate(154.150391 0)"/>
     </g>
    </g>
    <g id="line2d_30">
     <path d="M 841.425938 73.65375 
L 851.425938 73.65375 
L 861.425938 73.65375 
" style="fill: none; stroke: #bb9af7; stroke-width: 3; stroke-linecap: square"/>
    </g>
    <g id="text_22">
     <!-- 2022 -->
     <g style="fill: #a9b1d6" transform="translate(869.425938 77.15375) scale(0.1 -0.1)">
      <use xlink:href="#DejaVuSans-32"/>
      <use xlink:href="#DejaVuSans-30" transform="translate(63.623047 0)"/>
      <use xlink:href="#DejaVuSans-32" transform="translate(127.246094 0)"/>
      <use xlink:href="#DejaVuSans-32" transform="translate(190.869141 0)"/>
     </g>
    </g>
    <g id="line2d_31">
     <path d="M 841.425938 88.331875 
L 851.425938 88.331875 
L 861.425938 88.331875 
" style="fill: none; stroke: #9ece6a; stroke-width: 3; stroke-linecap: square"/>
    </g>
    <g id="text_23">
     <!-- 2023 -->
     <g style="fill: #a9b1d6" transform="translate(869.425938 91.831875) scale(0.1 -0.1)">
      <defs>
       <path id="DejaVuSans-33" d="M 2597 2516 
Q 3050 2419 3304 2112 
Q 3559 1806 3559 1356 
Q 3559 666 3084 287 
Q 2609 -91 1734 -91 
Q 1441 -91 1130 -33 
Q 819 25 488 141 
L 488 750 
Q 750 597 1062 519 
Q 1375 441 1716 441 
Q 2309 441 2620 675 
Q 2931 909 2931 1356 
Q 2931 1769 2642 2001 
Q 2353 2234 1838 2234 
L 1294 2234 
L 1294 2753 
L 1863 2753 
Q 2328 2753 2575 2939 
Q 2822 3125 2822 3475 
Q 2822 3834 2567 4026 
Q 2313 4219 1838 4219 
Q 1578 4219 1281 4162 
Q 984 4106 628 3988 
L 628 4550 
Q 988 4650 1302 4700 
Q 1616 4750 1894 4750 
Q 2613 4750 3031 4423 
Q 3450 4097 3450 3541 
Q 3450 3153 3228 2886 
Q 3006 2619 2597 2516 
z
" transform="scale(0.015625)"/>
      </defs>
      <use xlink:href="#DejaVuSans-32"/>
      <use xlink:href="#DejaVuSans-30" transform="translate(63.623047 0)"/>
      <use xlink:href="#DejaVuSans-32" transform="translate(127.246094 0)"/>
      <use xlink:href="#DejaVuSans-33" transform="translate(190.869141 0)"/>
     </g>
    </g>
    <g id="line2d_32">
     <path d="M 841.425938 103.01 
L 851.425938 103.01 
L 861.425938 103.01 
" style="fill: none; stroke: #2ac3de; stroke-width: 3; stroke-linecap: square"/>
    </g>
    <g id="text_24">
     <!-- 2024 -->
     <g style="fill: #a9b1d6" transform="translate(869.425938 106.51) scale(0.1 -0.1)">
      <defs>
       <path id="DejaVuSans-34" d="M 2419 4116 
L 825 1625 
L 2419 1625 
L 2419 4116 
z
M 2253 4666 
L 3047 4666 
L 3047 1625 
L 3713 1625 
L 3713 1100 
L 3047 1100 
L 3047 0 
L 2419 0 
L 2419 1100 
L 313 1100 
L 313 1709 
L 2253 4666 
z
" transform="scale(0.015625)"/>
      </defs>
      <use xlink:href="#DejaVuSans-32"/>
      <use xlink:href="#DejaVuSans-30" transform="translate(63.623047 0)"/>
      <use xlink:href="#DejaVuSans-32" transform="translate(127.246094 0)"/>
      <use xlink:href="#DejaVuSans-34" transform="translate(190.869141 0)"/>
     </g>
    </g>
    <g id="line2d_33">
     <path d="M 841.425938 117.688125 
L 851.425938 117.688125 
L 861.425938 117.688125 
" style="fill: none; stroke: #f7768e; stroke-width: 3; stroke-linecap: square"/>
    </g>
    <g id="text_25">
     <!-- 2025 -->
     <g style="fill: #a9b1d6" transform="translate(869.425938 121.188125) scale(0.1 -0.1)">
      <use xlink:href="#DejaVuSans-32"/>
      <use xlink:href="#DejaVuSans-30" transform="translate(63.623047 0)"/>
      <use xlink:href="#DejaVuSans-32" transform="translate(127.246094 0)"/>
      <use xlink:href="#DejaVuSans-35" transform="translate(190.869141 0)"/>
     </g>
    </g>
    <g id="line2d_34">
     <path d="M 841.425938 132.36625 
L 851.425938 132.36625 
L 861.425938 132.36625 
" style="fill: none; stroke: #e0af68; stroke-width: 3; stroke-linecap: square"/>
    </g>
    <g id="text_26">
     <!-- 2026 -->
     <g style="fill: #a9b1d6" transform="translate(869.425938 135.86625) scale(0.1 -0.1)">
      <defs>
       <path id="DejaVuSans-36" d="M 2113 2584 
Q 1688 2584 1439 2293 
Q 1191 2003 1191 1497 
Q 1191 994 1439 701 
Q 1688 409 2113 409 
Q 2538 409 2786 701 
Q 3034 994 3034 1497 
Q 3034 2003 2786 2293 
Q 2538 2584 2113 2584 
z
M 3366 4563 
L 3366 3988 
Q 3128 4100 2886 4159 
Q 2644 4219 2406 4219 
Q 1781 4219 1451 3797 
Q 1122 3375 1075 2522 
Q 1259 2794 1537 2939 
Q 1816 3084 2150 3084 
Q 2853 3084 3261 2657 
Q 3669 2231 3669 1497 
Q 3669 778 3244 343 
Q 2819 -91 2113 -91 
Q 1303 -91 875 529 
Q 447 1150 447 2328 
Q 447 3434 972 4092 
Q 1497 4750 2381 4750 
Q 2619 4750 2861 4703 
Q 3103 4656 3366 4563 
z
" transform="scale(0.015625)"/>
      </defs>
      <use xlink:href="#DejaVuSans-32"/>
      <use xlink:href="#DejaVuSans-30" transform="translate(63.623047 0)"/>
      <use xlink:href="#DejaVuSans-32" transform="translate(127.246094 0)"/>
      <use xlink:href="#DejaVuSans-36" transform="translate(190.869141 0)"/>
     </g>
    </g>
   </g>
  </g>
 </g>
 <defs>
  <clipPath id="p8394232062">
   <rect x="44.555938" y="45.877187" width="781.2" height="388.08"/>
  </clipPath>
 </defs>
</svg>
